<svg width="163" height="19" viewBox="0 0 163 19" fill="none" xmlns="http://www.w3.org/2000/svg">
<g clip-path="url(#clip0_228_954)">
<path d="M3.53651 7.73074C4.8127 7.73074 6.14966 7.65021 7.42586 7.56968C7.9728 7.56968 8.45897 7.48915 9.00591 7.48915C11.3152 7.3281 13.6245 7.16704 15.9338 7.00598C18.7293 6.84493 21.464 6.60334 24.2595 6.44228C28.2096 6.12017 32.1597 5.87858 36.1098 5.55647C37.0214 5.47594 37.933 5.47594 38.8445 5.39541C41.1538 5.23436 43.4632 5.0733 45.7725 4.99277C48.0818 4.83171 50.3911 4.67066 52.7004 4.59013C53.6119 4.5096 54.5235 4.42907 55.4351 4.42907C59.0813 4.26801 62.7884 4.10696 66.4346 3.9459C68.6832 3.86537 70.9317 3.78484 73.241 3.62378C74.1526 3.62378 75.0034 3.54326 75.9149 3.54326C79.4397 3.46273 83.0252 3.3822 86.5499 3.30167C90.0746 3.22114 93.5386 3.14061 97.0633 3.06008C97.9749 3.06008 98.8864 3.06008 99.8588 3.06008C102.168 3.06008 104.417 3.06008 106.726 3.06008C110.311 3.06008 113.836 3.06008 117.422 2.97956C118.576 2.97956 119.731 2.97956 120.886 2.97956C123.316 2.97956 125.747 2.97956 128.178 2.97956C128.36 2.97956 128.604 2.97956 128.786 2.97956C123.316 3.06008 117.786 3.14061 112.317 3.30167C110.008 3.3822 107.759 3.3822 105.45 3.46273C104.477 3.46273 103.444 3.46273 102.472 3.54326C99.1295 3.62378 95.8479 3.78484 92.5055 3.86537C88.6769 4.02643 84.8483 4.10696 81.0197 4.26801C80.3512 4.26801 79.7435 4.34854 79.075 4.34854C77.0088 4.5096 75.0034 4.59013 72.9372 4.75118C68.8047 4.99277 64.6723 5.23435 60.5398 5.47594C59.9321 5.47594 59.3244 5.55647 58.7167 5.637C56.7113 5.79806 54.645 6.03964 52.6396 6.2007C48.9933 6.52281 45.4078 6.84493 41.7616 7.16704C40.7892 7.24757 39.7561 7.40863 38.7838 7.48915C36.4745 7.73074 34.1652 7.97233 31.8559 8.29444C28.9388 8.61655 25.9611 8.93867 23.044 9.26078C18.9724 9.74395 14.8399 10.2271 10.7683 10.7103C9.79593 10.7908 8.8236 10.9519 7.79049 11.0324C6.02812 11.274 4.26576 11.5156 2.5034 11.7572C2.32108 11.7572 2.13877 11.9182 2.13877 12.2403C2.13877 12.4819 2.32108 12.7235 2.5034 12.7235C3.17188 12.7235 3.77959 12.804 4.44807 12.804C4.32653 13.2067 4.26576 13.4483 4.26576 13.6899C4.26576 14.5757 4.8127 15.381 5.54195 15.381C10.586 14.9783 15.5692 14.4951 20.6132 14.173C24.9887 13.9314 29.3642 13.6093 33.7398 13.3677C38.5407 13.0456 43.4024 12.7235 48.2033 12.4819C49.7226 12.4014 51.2419 12.3209 52.7611 12.1598C53.1865 12.1598 53.6119 12.0793 54.0981 12.0793C61.8768 11.8377 69.6555 11.5156 77.4342 11.274C81.5667 11.1129 85.7599 10.9519 89.8923 10.8714C91.4116 10.7908 92.8701 10.7908 94.3894 10.7103C102.35 10.5492 110.311 10.3882 118.272 10.2271C121.676 10.1466 125.079 10.0661 128.482 9.98554C131.399 9.90501 134.316 9.90501 137.233 9.74395C139.664 9.66343 142.034 9.50237 144.465 9.42184C145.68 9.34131 146.896 9.34131 148.05 9.26078C150.785 9.0192 153.52 8.77761 156.254 8.53603C156.072 8.85814 156.072 9.34131 156.133 9.66343C156.194 10.0661 156.376 10.3882 156.68 10.5492C156.923 10.7103 157.288 10.8714 157.531 10.7103C158.138 10.3882 158.746 10.0661 159.293 9.74395C159.293 9.74395 159.293 9.74395 159.232 9.74395C159.293 9.74395 159.293 9.66343 159.354 9.66343C159.415 9.66343 159.475 9.5829 159.475 9.5829H159.414C159.718 9.42184 160.022 9.26078 160.387 9.0192C160.691 8.85814 161.055 8.61655 161.359 8.4555C161.724 8.21391 162.028 7.97233 162.392 7.73074C162.757 7.48915 163 6.84493 163 6.28123C163 5.95911 162.939 5.71753 162.818 5.39541C162.696 5.0733 162.392 4.67066 162.088 4.59013C161.785 4.5096 161.481 4.42907 161.177 4.42907C161.116 4.42907 161.055 4.42907 160.995 4.42907C160.812 4.42907 160.569 4.42907 160.387 4.5096C159.901 4.59013 159.475 4.67066 158.989 4.67066C158.624 4.67066 158.26 4.75118 157.834 4.75118C156.801 4.83171 155.829 4.91224 154.796 5.0733C154.553 5.0733 154.249 5.15383 154.006 5.15383C154.127 4.99277 154.188 4.83171 154.188 4.67066C154.249 4.5096 154.249 4.34854 154.249 4.18748C154.249 4.10696 154.249 3.9459 154.31 3.86537C154.31 3.70431 154.31 3.54326 154.249 3.46273C154.249 3.46273 154.31 3.46273 154.31 3.3822C154.492 3.22114 154.674 3.06008 154.796 2.73797C154.917 2.49638 154.978 2.17427 154.978 1.85216C154.978 1.53004 154.917 1.28846 154.796 0.966343C154.735 0.885814 154.674 0.724757 154.614 0.644228C154.431 0.402643 154.249 0.322114 154.067 0.241586C153.702 0.0805285 153.277 0 152.851 0C152.487 0 152.183 0 151.818 0C151.332 0 150.846 0 150.36 0C149.691 0 148.962 0 148.293 0C146.47 0 144.647 0 142.824 0C141.122 0 139.36 0 137.658 0C136.078 0 134.559 0 132.979 0C126.72 0 120.521 0.0805285 114.262 0.161057C109.582 0.241586 104.903 0.322114 100.223 0.322114C98.1572 0.322114 96.0302 0.402643 93.964 0.483171C89.2846 0.644228 84.6052 0.724757 79.9258 0.885814C78.5889 0.885814 77.2519 0.966343 75.9149 0.966343C75.1249 0.966343 74.3957 1.04687 73.6056 1.04687C68.987 1.28846 64.3684 1.53004 59.7498 1.77163C58.3521 1.85216 56.9543 1.93269 55.4958 2.01321C54.7058 2.01321 53.9158 2.09374 53.1258 2.17427C48.5072 2.49638 43.9493 2.8185 39.3307 3.14061C36.9606 3.30167 34.5906 3.46273 32.2205 3.70431C28.1488 4.02643 24.0772 4.34854 20.0663 4.75118C16.5415 5.0733 13.0168 5.31488 9.49208 5.55647C8.94514 5.637 8.3982 5.637 7.79049 5.71753C6.87892 5.79806 5.96735 5.79806 5.05578 5.87858C4.26576 6.2007 3.41496 6.2007 2.62494 6.2007C2.56417 5.87858 2.32108 5.637 2.13877 5.71753C1.59183 5.71753 1.10566 5.79806 0.558719 5.87858C0.315634 5.95911 0.0725495 6.12017 0.0117783 6.44228C-0.0489928 6.84493 0.133321 7.24757 0.376405 7.3281C0.61949 7.40863 0.862574 7.48915 1.10566 7.56968C1.34874 7.65021 1.53106 7.65021 1.77414 7.65021C2.38185 7.73074 2.92879 7.73074 3.53651 7.73074ZM145.741 5.15383C146.47 5.15383 147.26 5.15383 147.99 5.15383C148.05 5.39541 148.172 5.55647 148.293 5.71753C147.99 5.71753 147.686 5.79806 147.443 5.79806C146.896 5.79806 146.349 5.87858 145.802 5.87858C143.371 5.95911 141.001 6.12017 138.57 6.2007C137.476 6.28123 136.382 6.36175 135.288 6.36175C133.587 6.36175 131.824 6.44228 130.123 6.44228C126.173 6.52281 122.283 6.60334 118.333 6.68387C110.676 6.84493 103.08 7.00598 95.4225 7.16704C89.9531 7.24757 84.4837 7.48915 79.0143 7.73074C70.8102 8.05285 62.5453 8.29444 54.3412 8.61655C52.7004 8.69708 51.0595 8.77761 49.4187 8.93867C44.7393 9.26078 40.06 9.50237 35.3806 9.82448C30.8228 10.1466 26.2041 10.3882 21.6463 10.7103C21.2209 10.7103 20.7955 10.7908 20.3701 10.7908C21.5855 10.6298 22.8617 10.5492 24.0772 10.3882C28.3919 9.98554 32.7067 9.50237 37.0214 9.09973C38.5407 8.93867 40.06 8.77761 41.5185 8.61655C42.3085 8.53603 43.0985 8.4555 43.8278 8.4555C48.3856 8.13338 52.8827 7.73074 57.3797 7.40863C58.2305 7.3281 59.1421 7.24757 59.9929 7.16704C61.2691 7.08651 62.5453 7.00598 63.7607 7.00598C68.3793 6.7644 72.9979 6.52281 77.6165 6.28123C78.6496 6.2007 79.6828 6.2007 80.6551 6.12017C80.8982 6.12017 81.202 6.12017 81.4451 6.12017C82.1744 6.12017 82.9036 6.12017 83.5721 6.03964C88.1907 5.87858 92.8701 5.79806 97.4887 5.637C99.6157 5.55647 101.743 5.47594 103.87 5.47594C110.737 5.39541 117.665 5.31488 124.532 5.23436C131.703 5.23436 138.752 5.15383 145.741 5.15383Z" fill="#0067D1"/>
<path d="M12.6412 19.0005C12.825 19.0005 12.9739 18.7979 12.9739 18.5481C12.9739 18.2982 12.825 18.0957 12.6412 18.0957C12.4575 18.0957 12.3086 18.2982 12.3086 18.5481C12.3086 18.7979 12.4575 19.0005 12.6412 19.0005Z" fill="#0067D1"/>
</g>
<defs>
<clipPath id="clip0_228_954">
<rect width="163" height="19" fill="white"/>
</clipPath>
</defs>
</svg>
