<svg width="91" height="91" viewBox="0 0 91 91" fill="none" xmlns="http://www.w3.org/2000/svg">
<path fill-rule="evenodd" clip-rule="evenodd" d="M12.1333 26.0489C12.3338 25.7205 12.3984 25.327 12.3134 24.9518C12.2285 24.5766 12.0006 24.2493 11.6783 24.0393C10.3133 22.9397 8.98622 21.916 7.88664 20.7405C7.13429 20.0206 6.44897 19.2338 5.83914 18.3897L5.38414 17.8968L8.49331 15.4322C10.6925 13.6122 12.74 11.6405 14.7496 9.66888C15.0087 9.4478 15.1729 9.13556 15.2082 8.79678C15.2435 8.45799 15.1471 8.11861 14.9391 7.84888C14.8227 7.7308 14.684 7.63703 14.531 7.57303C14.3781 7.50903 14.2139 7.47607 14.0481 7.47607C13.8823 7.47607 13.7181 7.50903 13.5652 7.57303C13.4122 7.63703 13.2735 7.7308 13.1571 7.84888C10.3891 9.55513 7.43164 10.9201 4.66372 12.7022C3.33664 13.271 2.19914 14.181 1.06164 15.1668C0.587089 15.5459 0.246401 16.067 0.0894709 16.6538C-0.0674591 17.2406 -0.0323855 17.8622 0.189555 18.4276C0.738747 19.5524 1.45459 20.5878 2.31289 21.4989C3.25773 22.3917 4.28621 23.1916 5.38414 23.8876C6.9008 24.8735 8.49331 25.7076 10.1237 26.5797C10.4612 26.7734 10.8613 26.8263 11.2375 26.7269C11.6137 26.6276 11.9355 26.3839 12.1333 26.0489Z" fill="currentColor"/>
<path fill-rule="evenodd" clip-rule="evenodd" d="M21.309 29.3856C21.6812 29.4952 22.0812 29.4581 22.4268 29.2817C22.7724 29.1054 23.0373 28.8034 23.1669 28.4377C24.4182 25.5181 25.7453 22.6744 26.9586 19.679C27.4515 18.4277 27.9444 17.1765 28.3615 15.8873C28.7786 14.5981 29.1957 13.309 29.5369 12.0956C30.3332 9.02438 30.9019 5.95313 31.6603 2.84397C31.7322 2.68082 31.7684 2.50418 31.7665 2.3259C31.7645 2.14762 31.7245 1.97181 31.6491 1.81025C31.5737 1.64868 31.4647 1.5051 31.3293 1.38911C31.1939 1.27312 31.0353 1.18741 30.864 1.13772C30.7074 1.07763 30.5403 1.04965 30.3727 1.05543C30.205 1.06122 30.0402 1.10066 29.8881 1.1714C29.736 1.24215 29.5997 1.34276 29.4873 1.46724C29.3748 1.59173 29.2886 1.73756 29.2336 1.89605C27.7928 4.7398 26.314 7.54563 25.0628 10.5411C24.5319 11.7923 24.0769 13.0815 23.6599 14.3327C23.2428 15.584 22.9015 16.9111 22.5603 18.1244C21.764 21.1956 21.1574 24.3048 20.399 27.3761C20.3207 27.5672 20.2822 27.7723 20.2859 27.9788C20.2896 28.1853 20.3355 28.3889 20.4207 28.5771C20.5059 28.7652 20.6286 28.934 20.7814 29.073C20.9342 29.2121 21.1137 29.3185 21.309 29.3856Z" fill="currentColor"/>
<path fill-rule="evenodd" clip-rule="evenodd" d="M35.3003 26.9211C38.182 25.5561 45.0449 22.8261 47.8887 21.3095C48.4459 21.0112 48.9784 20.6688 49.4812 20.2857C49.7956 20.0118 50.0366 19.6637 50.1822 19.2731C50.3279 18.8824 50.3737 18.4615 50.3153 18.0486C49.9002 16.7575 49.0403 15.6557 47.8887 14.9395C45.3502 13.251 42.6885 11.7554 39.9262 10.4653L37.1203 9.40362C36.9687 9.33455 36.8049 9.29645 36.6384 9.29156C36.4718 9.28666 36.306 9.31506 36.1506 9.3751C35.9952 9.43514 35.8534 9.5256 35.7334 9.64119C35.6135 9.75677 35.5178 9.89515 35.452 10.0482C35.3817 10.1975 35.3417 10.3592 35.3342 10.524C35.3267 10.6888 35.3518 10.8535 35.4082 11.0086C35.4646 11.1636 35.5511 11.306 35.6627 11.4275C35.7744 11.549 35.9089 11.6472 36.0587 11.7165L38.4853 13.2332C38.9024 13.4986 41.9737 16.0011 44.1349 17.9349C41.1016 19.8307 36.1345 22.902 33.8595 24.4186C33.6735 24.5115 33.5098 24.6436 33.3796 24.8058C33.2495 24.968 33.156 25.1564 33.1055 25.3581C33.0551 25.5599 33.0489 25.7701 33.0874 25.9745C33.126 26.1788 33.2082 26.3724 33.3287 26.542C33.5434 26.8492 33.8694 27.0607 34.2376 27.1315C34.6057 27.2023 34.9869 27.1268 35.3003 26.9211Z" fill="currentColor"/>
<path fill-rule="evenodd" clip-rule="evenodd" d="M87.2083 84.5544C74.9613 84.9336 64.4583 84.3649 53.0833 84.5544C50.2775 84.5544 47.3958 84.5544 44.4383 84.8578C38.4135 85.1649 32.3769 85.1649 26.3521 84.8578C22.9462 84.7135 19.5525 84.3589 16.1904 83.7961C16.1904 81.3694 15.9629 77.3503 15.9629 76.9711C15.5838 69.8807 14.7875 58.0128 14.4083 47.6994V35.2249C14.3705 34.9133 14.217 34.6273 13.9782 34.4237C13.7394 34.22 13.4328 34.1135 13.1192 34.1253C12.9507 34.104 12.7797 34.1183 12.6171 34.1673C12.4546 34.2163 12.3041 34.2988 12.1754 34.4096C12.0468 34.5204 11.9428 34.657 11.8702 34.8105C11.7977 34.964 11.7581 35.131 11.7542 35.3007C11.375 39.5094 11.375 45.5003 11.375 52.0599V77.2365V85.3507C11.3981 85.9878 11.6032 86.6049 11.9661 87.129C12.3289 87.6531 12.8344 88.0623 13.4225 88.3082C17.5673 89.1802 21.7784 89.7003 26.0108 89.8628C32.2209 90.0516 38.4366 89.887 44.6279 89.3699C49.0642 88.9528 53.2729 88.7253 57.3679 88.5736C67.2642 88.1944 76.6296 88.1944 87.36 87.474C87.5493 87.4643 87.7348 87.4174 87.906 87.3358C88.0771 87.2543 88.2304 87.1398 88.3572 86.9989C88.484 86.8581 88.5818 86.6935 88.6449 86.5148C88.708 86.3361 88.7352 86.1466 88.725 85.9574C88.7053 85.5718 88.5357 85.2093 88.2523 84.9471C87.9689 84.685 87.5942 84.544 87.2083 84.5544Z" fill="currentColor"/>
<path fill-rule="evenodd" clip-rule="evenodd" d="M90.3174 35.8314C90.393 32.1834 90.0109 28.5402 89.1799 24.9872C88.4704 22.2167 86.8222 19.7779 84.5161 18.0864C83.0508 17.1361 81.3674 16.5749 79.6249 16.456C77.5037 16.322 75.3761 16.322 73.2549 16.456C69.122 16.456 65.1407 16.456 61.0836 16.7214C58.3283 16.81 55.5808 17.0632 52.8557 17.4797C52.5191 17.5355 52.2183 17.7225 52.0193 17.9997C51.8203 18.2769 51.7393 18.6217 51.7941 18.9585C51.8171 19.1236 51.873 19.2825 51.9583 19.4257C52.0437 19.5689 52.1568 19.6937 52.291 19.7926C52.4252 19.8915 52.5779 19.9626 52.74 20.0017C52.9021 20.0407 53.0703 20.047 53.2349 20.0202C55.8565 19.7809 58.4898 19.6923 61.1216 19.7547C65.1407 19.7547 69.122 20.2477 73.2549 20.3993C75.1915 20.3447 77.1297 20.4207 79.0561 20.6268C80.0408 20.7462 80.9795 21.1113 81.7861 21.6885C83.1611 22.8445 84.098 24.4371 84.4403 26.2006C84.5939 26.9141 84.7078 27.6357 84.7816 28.3618H70.1836C66.392 28.3618 62.6003 28.3618 58.8086 28.6272C51.5286 29.0064 44.7036 29.7268 40.0778 29.9543C39.8926 29.9222 39.7027 29.931 39.5212 29.98C39.3398 30.029 39.1713 30.1171 39.0275 30.2381C38.8837 30.3592 38.7681 30.5101 38.6888 30.6805C38.6095 30.8509 38.5684 31.0366 38.5684 31.2245C38.5684 31.4125 38.6095 31.5981 38.6888 31.7685C38.7681 31.9389 38.8837 32.0899 39.0275 32.2109C39.1713 32.3319 39.3398 32.42 39.5212 32.4691C39.7027 32.5181 39.8926 32.5269 40.0778 32.4947C44.2107 32.836 50.1636 33.291 56.6095 33.4427H63.6999C66.0886 33.4427 68.4395 33.2152 70.7524 33.0635C76.2124 32.6464 81.2174 32.0397 85.1228 31.471V35.9072C85.7295 45.9172 86.5636 56.041 87.0945 66.2406C87.322 70.5631 87.5116 74.8477 87.5495 79.1702C87.5495 79.5523 87.7013 79.9188 87.9715 80.189C88.2417 80.4592 88.6082 80.611 88.9903 80.611C89.1808 80.6213 89.3714 80.5927 89.5505 80.5268C89.7296 80.4609 89.8933 80.3592 90.0317 80.2279C90.1701 80.0966 90.2803 79.9384 90.3555 79.7631C90.4307 79.5877 90.4693 79.3989 90.4691 79.2081C90.6966 73.4447 90.7345 67.6056 90.4691 61.8043C90.9999 53.0835 90.4691 44.4385 90.3174 35.8314Z" fill="currentColor"/>
<path fill-rule="evenodd" clip-rule="evenodd" d="M24.7216 43.1113H24.3424C24.0069 43.1495 23.6997 43.3179 23.487 43.5803C23.2742 43.8426 23.173 44.178 23.2049 44.5142C23.2049 48.5334 22.9016 52.4767 22.9016 56.4959C22.9016 58.8846 22.9016 61.2355 23.2049 63.6242C23.2049 67.1884 23.6979 70.7525 23.7737 74.3167C23.7522 74.6868 23.8742 75.051 24.1143 75.3334C24.3544 75.6159 24.6941 75.795 25.0629 75.8334C25.1783 75.9918 25.3257 76.1243 25.4955 76.2222C25.6653 76.3202 25.8538 76.3815 26.0487 76.4021L32.0395 76.7055C34.5405 76.6881 37.0184 76.2259 39.3574 75.3405C40.6824 74.7892 41.7886 73.8163 42.5045 72.5725C42.6807 72.1459 42.8079 71.7007 42.8837 71.2455C42.9343 70.235 42.9343 69.2226 42.8837 68.2121C43.0733 66.6196 43.1491 65.065 43.187 63.4725V56.5717C43.187 54.2588 43.187 52.78 42.9974 50.9221C42.9027 49.5534 42.687 48.1957 42.3529 46.865C42.1826 45.9913 41.9156 45.1392 41.5566 44.3246C41.3052 43.7241 40.9154 43.1914 40.4191 42.77C39.887 42.3945 39.2504 42.1956 38.5991 42.2013C37.6891 42.2013 36.1724 42.3909 35.7933 42.3909L25.3283 43.0355C25.1008 42.8838 24.9112 43.0355 24.7216 43.1113ZM38.0304 46.3721V47.6613C38.1829 48.7797 38.2589 49.9071 38.2579 51.0359V56.6096L38.5233 67.7571V70.6388C37.9218 71.5002 37.0123 72.0975 35.9829 72.3071C34.5927 72.7677 33.1557 73.0729 31.6983 73.2171H26.6174C27.0724 70.0321 27.4895 66.8471 27.6412 63.6242V59.0742C27.6169 57.5408 27.5157 56.0096 27.3379 54.4863C27.2241 51.5667 26.5416 48.5334 25.9729 45.5L35.6795 45.955C36.4081 46.1741 37.1581 46.3139 37.9166 46.3721H38.0304Z" fill="currentColor"/>
<path fill-rule="evenodd" clip-rule="evenodd" d="M81.5207 48.1921L81.1036 45.5L80.6487 44.0592C80.3825 43.3604 79.9439 42.7402 79.3738 42.2563C78.8037 41.7723 78.1206 41.4404 77.3878 41.2912C75.6881 41.0807 73.9688 41.0807 72.2691 41.2912L64.4582 41.7083L51.4528 42.5425C51.157 42.5213 50.8647 42.6165 50.638 42.8077C50.4114 42.9989 50.2684 43.2711 50.2395 43.5662C50.1055 43.7311 50.0143 43.9264 49.9741 44.135C49.7845 45.6137 49.557 47.0167 49.4432 48.4575C49.3861 49.4551 49.3861 50.4552 49.4432 51.4529C49.449 52.2983 49.6163 53.1349 49.9361 53.9175C50.1509 54.4234 50.49 54.8669 50.922 55.2067C51.1649 55.3993 51.4513 55.5295 51.7561 55.5858C52.3493 55.6324 52.9451 55.6324 53.5382 55.5858L58.5432 56.0408C60.1357 56.0408 61.6903 56.0408 63.2828 56.2683H70.2595C72.3624 56.2494 74.4582 56.0208 76.5157 55.5858C78.0149 55.2512 79.4409 54.6474 80.7245 53.8037C81.2156 53.441 81.5643 52.9178 81.7103 52.325C81.7873 50.9445 81.7238 49.5597 81.5207 48.1921ZM74.9612 51.9837C73.3135 52.3248 71.6383 52.5152 69.9562 52.5525C67.6812 52.5525 65.4441 52.8179 63.1691 52.8937H58.7328L53.8036 52.6662H53.1212C53.1248 52.6031 53.1248 52.5398 53.1212 52.4767C52.9856 52.058 52.8966 51.6257 52.8557 51.1875C52.7993 50.2784 52.7993 49.3666 52.8557 48.4575V44.4383H72.4207C73.5196 44.3831 74.6206 44.3831 75.7195 44.4383C76.0228 44.4383 76.0607 44.7037 76.2124 45.0829L76.4778 46.1446L76.7053 48.4575C76.7053 50.5429 78.8666 51.0358 74.9612 52.0217V51.9837Z" fill="currentColor"/>
<path fill-rule="evenodd" clip-rule="evenodd" d="M81.5208 68.6675L81.1037 65.7858L80.6487 64.4587C80.3788 63.7584 79.9398 63.1356 79.3708 62.6461C78.8019 62.1565 78.1207 61.8153 77.3879 61.6529C75.6892 61.4256 73.9678 61.4256 72.2691 61.6529L64.4583 62.07L51.4529 62.8662C50.7704 62.8662 50.2016 63.3591 50.2395 63.89C50.0915 64.0456 49.9983 64.2453 49.9741 64.4587C49.7845 65.8995 49.557 67.3404 49.4433 68.7433C49.3864 69.741 49.3864 70.741 49.4433 71.7387C49.4491 72.5841 49.6164 73.4207 49.9362 74.2033C50.1509 74.7092 50.49 75.1527 50.922 75.4925C51.1705 75.6841 51.4538 75.8258 51.7562 75.9095C52.3499 75.9393 52.9446 75.9393 53.5383 75.9095L58.5433 76.3645C60.1358 76.3645 61.6904 76.3645 63.2829 76.592H70.2595C72.3612 76.5861 74.4571 76.3702 76.5158 75.9475C78.017 75.5995 79.4428 74.9829 80.7245 74.1275C81.2155 73.7811 81.5654 73.2697 81.7104 72.6866C81.7805 71.3439 81.717 69.9976 81.5208 68.6675ZM74.9612 72.4591C73.3179 72.8311 71.6408 73.0344 69.9562 73.0658C67.6812 73.0658 65.4441 73.3312 63.1691 73.3691H58.7329L53.8037 73.1795H53.1212V72.99C52.9857 72.5713 52.8966 72.139 52.8558 71.7008C52.8006 70.8043 52.8006 69.9052 52.8558 69.0087V64.9516H72.4208H75.7195C76.0229 64.9516 76.0608 65.255 76.2125 65.5962L76.4779 66.6579L76.7054 68.9708C76.7054 70.9804 78.8666 71.4733 74.9612 72.4591Z" fill="currentColor"/>
</svg>
