<svg width="99" height="99" viewBox="0 0 99 99" fill="none" xmlns="http://www.w3.org/2000/svg">
<path fill-rule="evenodd" clip-rule="evenodd" d="M70.1252 26.5241C61.8752 20.1303 51.3977 19.7591 41.2502 22.3991C36.1706 23.3047 31.4631 25.6655 27.6994 29.1949C23.9356 32.7243 21.2775 37.2706 20.0477 42.2816C18.1914 49.0466 17.6552 59.3178 22.4814 65.2166C25.7391 68.7278 29.8654 71.3174 34.4439 72.7241C39.3114 73.9616 36.5064 70.6616 37.1664 79.9841C37.2271 82.0294 37.794 84.0278 38.8164 85.8003C39.7652 87.2441 42.3227 87.5328 44.0139 87.6153C43.5588 88.8978 43.361 90.2574 43.4318 91.6164C43.5026 92.9754 43.8406 94.3071 44.4264 95.5353C44.3915 95.7368 44.401 95.9434 44.4544 96.1408C44.5077 96.3382 44.6035 96.5215 44.7352 96.678C44.8668 96.8344 45.0311 96.9602 45.2165 97.0465C45.4018 97.1328 45.6038 97.1775 45.8083 97.1775C46.0128 97.1775 46.2147 97.1328 46.4001 97.0465C46.5855 96.9602 46.7497 96.8344 46.8814 96.678C47.013 96.5215 47.1089 96.3382 47.1622 96.1408C47.2156 95.9434 47.2251 95.7368 47.1902 95.5353C48.0136 93.5674 48.2292 91.398 47.8089 89.3066L47.2314 87.6566C49.9413 87.7235 52.6323 87.1882 55.1102 86.0891C57.2552 84.0678 57.0489 75.6116 56.9664 72.3528C78.3752 71.1978 86.2127 39.3116 70.1252 26.5241ZM74.2502 50.7791C73.8673 54.0256 72.7835 57.1502 71.0739 59.9366C62.8239 72.3116 55.5639 67.9391 54.5739 70.6203C53.5427 71.1978 54.1614 71.3628 53.1302 78.0041C52.0989 84.6453 53.5427 82.5003 49.7064 82.7891C40.6314 83.5316 41.4564 83.5316 40.3839 79.4478C40.3839 78.8291 39.9302 79.4478 44.9214 79.4478C47.2931 79.3052 49.6295 78.8045 51.8514 77.9628C52.1209 78.0407 52.4069 78.0407 52.6764 77.9628C52.8531 77.7101 52.9592 77.4148 52.9837 77.1074C53.0081 76.7999 52.9501 76.4916 52.8156 76.2141C52.681 75.9366 52.4749 75.7001 52.2184 75.5289C51.9618 75.3577 51.6643 75.2581 51.3564 75.2403C47.8087 74.273 44.0243 74.7165 40.7964 76.4778C40.3839 76.6841 40.0539 76.7666 39.9714 76.8491C39.9714 75.1166 39.6827 73.5491 39.6414 72.7241C39.7798 72.5241 39.8539 72.2866 39.8539 72.0434C39.8539 71.8002 39.7798 71.5628 39.6414 71.3628C38.9402 70.3316 37.6202 71.1566 34.8152 70.3728C31.3767 69.1362 28.2409 67.1816 25.6164 64.6391C23.7868 62.7317 22.6159 60.2887 22.2752 57.6678C21.6825 52.9117 22.1329 48.0835 23.5952 43.5191C26.2352 35.2691 31.2677 29.7828 42.1164 27.0191C61.8752 21.9453 77.2202 31.1028 74.2502 50.7791Z" fill="currentColor"/>
<path fill-rule="evenodd" clip-rule="evenodd" d="M61.009 40.714C56.884 37.7852 52.4703 40.9615 51.0265 45.2515C50.0311 48.1701 49.57 51.2443 49.6653 54.3265C48.4475 54.9281 47.1363 55.3186 45.7878 55.4815C45.9869 52.6426 45.8485 49.7902 45.3753 46.984C45.151 44.9054 44.1102 43.0009 42.4818 41.6897C40.8534 40.3785 38.7708 39.7678 36.6922 39.9921C34.6135 40.2164 32.7091 41.2572 31.3979 42.8856C30.0867 44.514 29.476 46.5966 29.7003 48.6752C29.7003 54.574 36.4241 59.2765 42.3228 60.1015L41.869 68.3515C41.8447 68.5086 41.8515 68.6689 41.8891 68.8234C41.9267 68.9779 41.9943 69.1234 42.0882 69.2517C42.182 69.38 42.3002 69.4886 42.436 69.5713C42.5718 69.6539 42.7226 69.709 42.8797 69.7334C43.0368 69.7577 43.1971 69.7509 43.3516 69.7133C43.5061 69.6757 43.6516 69.6081 43.7799 69.5142C43.9082 69.4204 44.0168 69.3022 44.0995 69.1664C44.1821 69.0306 44.2372 68.8798 44.2615 68.7227L45.1278 60.4727C46.8112 60.3822 48.4688 60.0201 50.0366 59.4002L50.6965 67.1965C50.753 67.522 50.9226 67.8172 51.1754 68.0299C51.4282 68.2427 51.748 68.3593 52.0784 68.3593C52.4088 68.3593 52.7286 68.2427 52.9814 68.0299C53.2343 67.8172 53.4038 67.522 53.4603 67.1965L53.1303 57.7502C59.3178 53.6252 66.9078 45.0452 61.009 40.714ZM34.2791 48.6752C34.2791 42.2815 41.044 43.3952 42.034 47.6852C42.5823 50.2178 42.8041 52.8101 42.6941 55.399C39.2291 54.8215 34.3203 51.8515 34.2791 48.6752ZM53.0478 52.099C53.2886 50.1661 53.7595 48.2689 54.4503 46.4477C55.1103 44.7565 57.049 42.7352 58.5753 43.9315C60.1015 45.1277 55.1928 50.4077 53.0478 52.099Z" fill="currentColor"/>
<path fill-rule="evenodd" clip-rule="evenodd" d="M14.0663 49.8713C11.18 49.1666 8.16642 49.1666 5.28007 49.8713C3.55697 50.317 1.88438 50.939 0.288817 51.7276C-0.329933 52.5113 0.288817 53.0476 0.660067 53.5013C3.45339 54.1911 6.35617 54.3173 9.19882 53.8726C10.8901 53.5426 12.4163 52.8413 14.0663 52.5526C14.3531 52.4644 14.6041 52.2867 14.7823 52.0454C14.9606 51.8041 15.0568 51.512 15.0568 51.212C15.0568 50.9119 14.9606 50.6198 14.7823 50.3785C14.6041 50.1372 14.3531 49.9595 14.0663 49.8713Z" fill="currentColor"/>
<path fill-rule="evenodd" clip-rule="evenodd" d="M16.0461 24.75C12.7461 23.0587 4.08358 17.985 3.67108 21.0375C3.21733 24.75 11.3436 26.8125 15.0973 27.39C15.4474 27.5158 15.8331 27.4974 16.1696 27.3388C16.5062 27.1802 16.7659 26.8945 16.8917 26.5444C17.0175 26.1943 16.9991 25.8086 16.8405 25.4721C16.6819 25.1355 16.3962 24.8758 16.0461 24.75Z" fill="currentColor"/>
<path fill-rule="evenodd" clip-rule="evenodd" d="M43.1061 15.3039C43.5598 15.8402 43.9723 16.1702 44.4673 16.0877C44.8321 16.0769 45.1783 15.9244 45.4325 15.6626C45.6867 15.4007 45.8287 15.0501 45.8286 14.6852C45.8286 12.0452 45.8286 3.79516 43.3948 2.31016C40.9611 0.825156 41.5386 13.6127 43.1061 15.3039Z" fill="currentColor"/>
<path fill-rule="evenodd" clip-rule="evenodd" d="M87.9449 13.6125C87.9064 13.2836 87.7528 12.979 87.5112 12.7525C87.2696 12.526 86.9556 12.3923 86.6249 12.375C85.1399 12.1275 78.3749 19.14 76.9312 22.5638C76.3124 23.5125 76.9312 25.08 78.9524 23.9663C83.1209 21.738 86.3223 18.052 87.9449 13.6125Z" fill="currentColor"/>
<path fill-rule="evenodd" clip-rule="evenodd" d="M98.3399 48.5101C95.9887 48.197 93.6138 48.1004 91.2449 48.2214C90.1642 48.4223 89.1018 48.7121 88.0687 49.0876C83.2424 50.6139 83.9437 50.3251 83.6962 51.0676C83.4487 51.8101 83.6962 52.2639 84.7274 52.6764C87.118 53.0645 89.5556 53.0645 91.9462 52.6764C92.2762 52.6764 99.4536 51.1089 98.9586 49.3351C98.9999 49.2114 98.9999 48.7164 98.3399 48.5101Z" fill="currentColor"/>
</svg>
