<svg width="24" height="25" viewBox="0 0 24 25" fill="none" xmlns="http://www.w3.org/2000/svg">
<g clip-path="url(#clip0_496_4187)">
<path fill-rule="evenodd" clip-rule="evenodd" d="M17.41 8.28435C16.99 7.79435 16.54 7.28435 16.08 6.83435C15.46 6.24435 14.87 5.74436 14.38 5.36436C13.89 4.98436 13.38 5.52436 13.77 5.94436C14.16 6.36435 14.5 6.81435 14.96 7.34435C15.21 7.64435 15.49 7.94435 15.78 8.24435C16.07 8.54435 16.35 8.83435 16.63 9.11435L17.63 10.0544C17.94 10.3144 18.51 9.85435 18.29 9.43435C18.07 9.01435 17.82 8.77435 17.41 8.28435Z" fill="black"/>
<path fill-rule="evenodd" clip-rule="evenodd" d="M20.26 9.22437C19.66 9.73437 18.94 10.2744 18.69 10.5244C18.44 10.7744 7.35999 21.3544 6.89999 21.6044C5.9368 22.0156 4.93051 22.3175 3.89999 22.5044C3.18031 22.6628 2.44676 22.7499 1.70999 22.7644C1.55687 22.7419 1.4062 22.7051 1.25999 22.6544V22.2344C1.22847 21.1336 1.29877 20.0322 1.46999 18.9444C1.56339 18.2292 1.7413 17.5276 1.99999 16.8544C2.32999 17.2044 2.63999 17.5644 2.99999 17.9244C3.35999 18.2844 3.61999 18.6144 3.93999 18.9244C4.48999 19.4844 5.08999 19.9944 5.70999 20.5344C5.7771 20.5991 5.86673 20.6353 5.95999 20.6353C6.05326 20.6353 6.14288 20.5991 6.20999 20.5344C6.24325 20.5018 6.26967 20.4629 6.28771 20.42C6.30575 20.377 6.31504 20.3309 6.31504 20.2844C6.31504 20.2378 6.30575 20.1917 6.28771 20.1488C6.26967 20.1059 6.24325 20.067 6.20999 20.0344C5.75999 19.4544 5.37999 18.8644 4.94999 18.3144C4.64364 17.9334 4.30939 17.5758 3.94999 17.2444C3.47674 16.8246 2.96056 16.4559 2.40999 16.1444C3.55999 14.7844 14.69 3.80437 14.89 3.60437L15 3.45437C15.0243 3.41666 15.0444 3.37642 15.06 3.33437C15.0798 3.28223 15.0847 3.2256 15.0741 3.17084C15.0635 3.11608 15.0378 3.06536 15 3.02437C14.72 2.75437 14.65 2.95437 13.23 4.29437C9.90999 7.41437 1.57999 15.2944 1.22999 15.8744C0.641501 16.9972 0.27482 18.2228 0.149991 19.4844C-0.0104142 20.59 -0.0606606 21.7088 -8.58121e-06 22.8244C0.0178752 23.0591 0.0934448 23.2858 0.219991 23.4844C0.390732 23.6769 0.618426 23.8101 0.869991 23.8644C1.47506 23.974 2.09492 23.974 2.69999 23.8644C4.34907 23.6836 5.96474 23.273 7.49999 22.6444C7.89999 22.4044 13.5 17.0944 17.5 13.1344C17.5 13.1344 19.58 11.0644 20.84 9.90437C21.52 9.39437 20.67 8.99437 20.26 9.22437Z" fill="black"/>
<path fill-rule="evenodd" clip-rule="evenodd" d="M23.9101 5.59433C23.4963 4.43927 22.8457 3.38339 22.0001 2.49433C21.4765 1.92475 20.8855 1.42104 20.2401 0.994333C19.5634 0.454298 18.7011 0.202785 17.8401 0.294333C17.085 0.592134 16.4028 1.04917 15.8401 1.63433C15.689 1.7797 15.5579 1.94447 15.4501 2.12433C15.4157 2.21793 15.4157 2.32073 15.4501 2.41433C15.4356 2.46619 15.4344 2.52087 15.4467 2.57331C15.4589 2.62575 15.4842 2.67426 15.5201 2.71433L21.2601 8.71433C21.6901 9.12433 22.2601 8.58433 22.3801 8.51433C22.7201 8.20433 23.2801 7.51434 23.7801 6.91434C23.9118 6.72332 23.9928 6.502 24.0155 6.27112C24.0383 6.04024 24.002 5.80737 23.9101 5.59433ZM23.0601 6.29434C22.6101 6.90434 22.5601 7.06434 22.3601 7.29434C22.2136 7.49879 22.0346 7.67784 21.8301 7.82434C21.7947 7.87798 21.7646 7.93491 21.7401 7.99434C20.5301 6.72433 17.0401 3.24433 16.1401 2.30433C16.6463 1.77031 17.2899 1.38623 18.0001 1.19433C18.4401 1.12433 19.0001 1.48433 19.5601 1.93433C20.0963 2.34982 20.5979 2.80798 21.0601 3.30433C21.738 3.97696 22.3232 4.73699 22.8001 5.56433C22.8963 5.73198 22.9639 5.91448 23.0001 6.10433C23.0501 6.20433 23.0901 6.25433 23.0601 6.29434Z" fill="black"/>
</g>
<defs>
<clipPath id="clip0_496_4187">
<rect width="24" height="24" fill="white" transform="translate(0 0.104492)"/>
</clipPath>
</defs>
</svg>