<svg width="98" height="98" viewBox="0 0 98 98" fill="none" xmlns="http://www.w3.org/2000/svg">
<path d="M47.4891 41.977C37.1175 50.6337 30.6658 55.9828 30.2575 57.7387C28.5833 65.7012 27.5216 69.417 28.5833 70.8053C30.5841 73.4595 39.8941 71.7037 41.895 70.8053C43.8958 69.907 58.2283 56.4728 60.0658 54.8395C63.6591 51.4503 64.435 50.7562 64.68 49.7762C67.3211 48.1192 69.2111 45.4967 69.9475 42.467C70.061 41.2239 69.9141 39.9708 69.5163 38.7876C69.1186 37.6045 68.4786 36.5172 67.6372 35.5951C66.7958 34.673 65.7715 33.9364 64.6296 33.4323C63.4877 32.9281 62.2532 32.6675 61.005 32.667C58.9619 32.7654 57.0212 33.5909 55.5333 34.9945C55.2788 35.1461 55.095 35.3926 55.0222 35.6798C54.9495 35.9669 54.9938 36.2712 55.1454 36.5257C55.297 36.7802 55.5435 36.9641 55.8307 37.0368C56.1178 37.1096 56.4221 37.0653 56.6766 36.9137C58.8 35.8928 59.0858 35.7295 60.76 35.9745C62.4341 36.2195 66.1908 39.7312 65.9866 41.6503C65.8147 43.7326 64.8849 45.6795 63.3733 47.122C61.25 44.917 55.9825 39.6903 54.635 38.0978C54.3923 37.8681 54.0708 37.74 53.7366 37.74C53.4025 37.74 53.081 37.8681 52.8383 38.0978C51.1641 39.4862 53.7366 40.7112 61.005 49.327C55.8233 54.2935 50.3705 58.9693 44.6716 63.3328C44.0776 61.5678 43.1404 59.9376 41.9141 58.5361C40.6877 57.1345 39.1964 55.9893 37.5258 55.1662C45.1208 47.5712 50.6333 42.9162 51.0825 42.222C51.2577 42.0355 51.3626 41.7938 51.3792 41.5384C51.3958 41.2831 51.323 41.0299 51.1734 40.8223C51.0237 40.6147 50.8065 40.4656 50.5589 40.4006C50.3114 40.3357 50.049 40.3588 49.8166 40.4662C49.3266 40.3028 49 40.8337 47.4891 41.977ZM42.3441 65.0478C41.6089 65.71 40.8314 66.3238 40.0166 66.8853C37.5421 67.7073 34.9471 68.1076 32.34 68.0695C32.6666 65.4153 33.6875 58.6778 33.8508 58.4737C34.4258 57.9889 34.9586 57.4562 35.4433 56.8812C37.4629 59.8287 39.7749 62.5648 42.3441 65.0478Z" fill="currentColor"/>
<path d="M86.7301 22.4585C86.7301 16.5785 83.1776 15.5985 78.9718 12.046C74.7659 8.49351 71.7851 4.94101 67.9468 2.00101C67.6814 1.79524 67.3452 1.70331 67.0121 1.74543C66.679 1.78754 66.3763 1.96026 66.1705 2.22559C65.9647 2.49092 65.8728 2.82712 65.9149 3.16023C65.9571 3.49334 66.1298 3.79608 66.3951 4.00184C70.0293 6.90101 73.5409 10.9435 77.1751 14.1285C80.8093 17.3135 83.7901 18.2118 83.8309 22.4993C83.8309 25.2352 83.2184 28.4202 83.1776 30.2577C83.5063 42.5343 82.9194 54.8183 81.4218 67.0077C80.8 71.4094 79.8167 75.7524 78.4818 79.9927C77.8109 81.1098 76.9387 82.0929 75.9093 82.8918C73.5282 83.9081 70.9353 84.3286 68.3551 84.1168C65.5376 84.1168 40.0168 83.831 31.1151 83.1368C24.0101 82.6468 17.0684 81.871 9.35093 81.0952C17.2726 60.7193 15.8026 19.3552 17.8851 7.10517C19.6818 5.59434 49.0001 2.40934 50.7559 2.36851C52.9823 2.18233 55.224 2.40373 57.3709 3.02184C57.5114 3.08394 57.6632 3.11601 57.8168 3.11601C57.9704 3.11601 58.1222 3.08393 58.2627 3.02182C58.4031 2.95971 58.529 2.86896 58.6324 2.75536C58.7357 2.64176 58.8141 2.50783 58.8627 2.36215C58.9113 2.21647 58.9289 2.06225 58.9143 1.90938C58.8998 1.75651 58.8536 1.60835 58.7785 1.4744C58.7034 1.34045 58.6011 1.22367 58.4783 1.13153C58.3554 1.03939 58.2147 0.973927 58.0651 0.93934C55.6755 0.195652 53.1739 -0.12224 50.6743 0.000173606C47.6526 0.000173606 22.0909 2.69517 18.2526 3.75684C16.1293 4.32851 15.3943 5.18601 15.0268 6.24767C12.6584 12.536 13.1076 66.2318 4.41009 81.6668C4.22813 81.9717 4.12711 82.3179 4.11663 82.6728C4.10615 83.0276 4.18655 83.3792 4.3502 83.6943C4.51385 84.0093 4.75532 84.2773 5.05167 84.4727C5.34802 84.6682 5.68941 84.7846 6.04343 84.811C19.7933 86.5608 33.6301 87.5423 47.4893 87.751C56.5951 87.751 74.1534 89.221 78.3593 85.6685C79.7535 84.5979 80.9119 83.2511 81.7621 81.7124C82.6122 80.1737 83.1358 78.4762 83.3001 76.726C87.3834 58.3102 86.1584 45.2027 86.1993 30.2985C86.2401 28.5835 86.8118 25.1943 86.7301 22.4585Z" fill="currentColor"/>
<path d="M62.475 26.2561C68.1955 26.9598 74.0013 26.2446 79.38 24.1736C83.8308 21.8461 80.605 19.192 79.38 20.907C79.0877 21.2684 78.6868 21.5261 78.2366 21.642C76.44 22.3361 64.19 23.2345 63.4141 21.9686C62.6383 20.7028 63.7408 14.2103 63.9858 11.5153C64.435 6.65614 64.5575 6.61531 63.7816 6.32947C62.3116 5.71697 61.74 8.94281 61.25 11.0253C60.4741 14.1695 55.86 23.9695 62.475 26.2561Z" fill="currentColor"/>
<path d="M93.9168 36.7499C93.9168 33.8099 91.1809 33.9324 91.0993 36.4641C91.0176 38.9958 90.6093 40.7924 90.5684 42.1808C90.9486 54.0039 90.4299 65.8388 89.0168 77.5833C88.4193 81.7341 87.4908 85.8305 86.2401 89.8333C85.6115 90.9091 84.7793 91.8522 83.7901 92.6099C81.5091 93.6238 79.009 94.0451 76.5218 93.8349C73.8268 93.8349 49.2451 93.8349 40.6293 93.0999C34.7901 92.7324 28.9918 92.1199 22.7851 91.5483C18.2934 90.8541 16.3743 94.4066 20.0084 95.3866C32.1104 96.8347 44.2845 97.5981 56.4726 97.6733C65.2518 97.6733 82.1159 98.9391 86.1584 95.5091C87.5051 94.4735 88.6215 93.1691 89.437 91.6788C90.2524 90.1885 90.749 88.5449 90.8951 86.8524C94.6109 69.0899 93.4676 56.4724 93.4676 42.1399C93.4676 40.8333 93.9168 38.8733 93.9168 36.7499Z" fill="currentColor"/>
</svg>
