<svg width="106" height="106" viewBox="0 0 106 106" fill="none" xmlns="http://www.w3.org/2000/svg">
<path fill-rule="evenodd" clip-rule="evenodd" d="M14.9726 61.8332C14.586 61.8332 14.2153 61.9868 13.942 62.2601C13.6686 62.5335 13.5151 62.9042 13.5151 63.2907C13.5151 63.6773 13.6686 64.048 13.942 64.3213C14.2153 64.5947 14.586 64.7482 14.9726 64.7482C34.1851 64.9691 51.0567 62.0099 70.4017 62.2749C75.4652 61.7473 80.5825 62.3662 85.3742 64.0857C88.7751 65.9849 84.9767 68.5024 81.1784 69.1207C75.3926 70.2691 40.5009 70.4899 37.5417 70.6224C25.1309 71.1966 15.1051 74.3766 5.21173 72.3449C1.63423 71.6382 2.56173 67.0449 6.0509 66.2057C10.9534 65.0132 11.3509 65.9407 11.7042 64.6157C11.7423 64.3809 11.724 64.1404 11.6509 63.9141C11.5778 63.6877 11.4519 63.4819 11.2837 63.3137C11.1155 63.1455 10.9098 63.0197 10.6834 62.9466C10.457 62.8735 10.2165 62.8552 9.98173 62.8932C8.49874 63.0351 7.02441 63.2562 5.56506 63.5557C4.08988 63.5809 2.67555 64.148 1.59174 65.1491C0.507926 66.1502 -0.169539 67.5151 -0.311481 68.9837C-0.453422 70.4522 -0.0499111 71.9216 0.822112 73.1117C1.69414 74.3019 2.97367 75.1294 4.41673 75.4366C7.60468 76.1544 10.8659 76.4953 14.1334 76.4524C13.7801 77.4682 9.71673 91.8666 8.4359 97.6082C6.9784 105.647 18.1967 107.016 21.1559 99.9049C22.505 96.4895 23.6408 92.9936 24.5567 89.4374C32.8662 90.4133 41.2392 90.7382 49.5992 90.4091C63.0701 89.7466 59.9784 90.4091 63.6001 90.0999C68.0167 89.7907 64.5276 86.7874 69.6067 99.9049C72.5659 106.972 83.7842 105.647 82.3267 97.5641C80.6077 89.7705 78.4249 82.0866 75.7901 74.5532C78.7836 74.5485 81.7601 74.102 84.6234 73.2282C88.6867 71.7707 93.1034 67.4866 91.5134 63.6441C86.7876 51.8957 43.5484 61.4799 14.9726 61.8332ZM16.8717 98.0057C16.0326 99.9049 12.9851 100.17 13.2942 98.3149L17.0484 76.2316L24.6009 75.7016C22.6289 83.3465 20.0441 90.8201 16.8717 98.0499V98.0057ZM65.4551 86.7874C63.0701 87.8916 61.0384 85.1974 44.0342 85.6832C36.3492 85.9041 36.3051 86.0366 25.4401 86.6991C26.3234 83.1216 27.1626 79.4116 27.8692 75.4807C42.6651 74.0674 49.9526 75.4807 63.2026 74.9066C65.6317 88.5541 66.2501 86.3899 65.3226 86.8316L65.4551 86.7874ZM77.8659 98.3149C78.1751 100.126 75.1276 99.9049 74.2884 97.9616C70.9624 90.4871 68.2734 82.7452 66.2501 74.8182C69.2092 74.5532 71.1084 74.5974 73.8026 74.5532C73.3609 75.0832 73.4051 72.0799 77.7334 98.3591L77.8659 98.3149Z" fill="currentColor"/>
<path fill-rule="evenodd" clip-rule="evenodd" d="M6.66943 61.8334C6.72214 62.1731 6.90764 62.4779 7.18512 62.6808C7.46259 62.8838 7.80932 62.9682 8.14902 62.9154C8.48871 62.8627 8.79356 62.6772 8.99649 62.3998C9.19942 62.1223 9.28381 61.7756 9.2311 61.4359C8.83342 56.1138 8.83342 50.7696 9.2311 45.4475C8.90484 39.2957 9.18592 33.1267 10.0703 27.03C10.0703 26.235 11.3069 24.2475 10.6886 23.7175C13.9186 22.5675 17.3307 22.0138 20.7586 22.0834C36.2073 20.0456 51.7719 19.0128 67.3544 18.9917C67.741 18.9917 68.1117 18.8381 68.385 18.5648C68.6584 18.2915 68.8119 17.9207 68.8119 17.5342C68.8119 17.1476 68.6584 16.7769 68.385 16.5036C68.1117 16.2303 67.741 16.0767 67.3544 16.0767C67.3544 16.0767 44.5203 15.5467 42.1794 15.5909C42.011 13.9686 42.1664 12.329 42.6364 10.7672C43.1065 9.20534 43.8819 7.75238 44.9178 6.49253C46.3819 8.72746 47.2626 11.2937 47.4794 13.9567C47.5389 14.2942 47.7153 14.6 47.9779 14.8203C48.2404 15.0407 48.5721 15.1614 48.9148 15.1614C49.2576 15.1614 49.5893 15.0407 49.8518 14.8203C50.1144 14.6 50.2908 14.2942 50.3503 13.9567C50.6015 11.5908 50.4371 9.19924 49.8644 6.89003C46.9053 -3.44497 37.1003 1.89919 38.6461 15.6792C32.4591 15.8092 26.2826 16.2514 20.1403 17.0042C15.7236 17.5784 10.6444 17.3575 7.28777 20.3167C5.60943 21.8184 5.96277 24.2917 5.60943 25.9259C4.95378 32.4062 5.02785 38.9396 5.83027 45.4034C5.73143 50.8928 6.01182 56.3825 6.66943 61.8334Z" fill="currentColor"/>
<path fill-rule="evenodd" clip-rule="evenodd" d="M96.5043 9.45149C93.8469 10.9233 91.294 12.576 88.8634 14.3982L71.9918 27.6482C71.4827 28.0962 71.1402 28.7033 71.0201 29.3707C69.8552 28.4772 68.4859 27.8882 67.0362 27.6568C65.5864 27.4255 64.1019 27.5591 62.7168 28.0457C55.2968 30.2098 54.7226 35.9515 53.2651 38.9107C50.8359 43.9457 47.3909 41.384 44.8293 43.3273C43.6368 44.2107 42.4001 45.9773 44.8293 48.9807C58.0793 63.8648 81.1343 51.719 76.5851 38.3806C76.785 38.5014 77.0141 38.5653 77.2476 38.5653C77.4811 38.5653 77.7102 38.5014 77.9101 38.3806C85.6834 33.964 99.5076 26.5882 104.675 19.2123C108.783 13.2498 101.583 6.93399 96.5043 9.45149ZM71.0643 46.949C68.1106 49.5202 64.316 50.9181 60.4002 50.8774C56.4844 50.8367 52.7196 49.3603 49.8201 46.7281H50.4826C57.4168 44.6082 57.4168 38.6015 58.8743 35.3332C60.3318 32.0648 66.8684 29.0615 69.5626 31.9765C74.0676 37.3207 76.1434 42.2232 71.0643 46.949ZM76.2318 36.7907C75.1907 34.6334 73.8198 32.6516 72.1684 30.9165C72.7868 30.9165 71.7268 31.5348 80.4718 25.5282C98.1384 13.4707 98.7126 12.764 100.523 14.7515C104.145 18.5498 76.5409 35.7306 76.2318 36.7907Z" fill="currentColor"/>
<path fill-rule="evenodd" clip-rule="evenodd" d="M36.4378 29.2386C42.0911 27.1186 44.8294 28.3111 46.9053 30.5194C48.9811 32.7277 49.8644 34.6711 51.3219 33.4786C51.5517 33.2331 51.6796 32.9094 51.6796 32.5731C51.6796 32.2369 51.5517 31.9132 51.3219 31.6677C50.3061 30.5194 49.6436 29.2827 48.6278 28.1344C42.5328 20.9794 28.7528 25.6611 25.0869 32.5511C24.447 34.0575 24.3077 35.7295 24.6894 37.3211C25.3078 40.8102 25.1753 39.1761 21.9069 41.7377C15.1494 46.6402 15.9886 50.5711 20.3611 52.8677C27.5603 56.7986 30.8286 51.7194 36.8353 51.6311C37.2218 51.6311 37.5926 51.4775 37.8659 51.2042C38.1392 50.9308 38.2928 50.5601 38.2928 50.1736C38.2928 46.8169 30.7844 50.1736 27.2511 50.5711C25.5615 50.7829 23.8549 50.3404 22.4811 49.3344C20.8911 48.3186 20.8469 48.2302 23.9828 46.0661C27.1186 43.9019 30.0336 42.0911 29.8128 38.3811C29.5582 37.1314 29.4398 35.8579 29.4594 34.5827C31.0648 32.018 33.5432 30.12 36.4378 29.2386Z" fill="currentColor"/>
</svg>
