<svg width="90" height="77" viewBox="0 0 90 77" fill="none" xmlns="http://www.w3.org/2000/svg">
<path d="M54.1899 3.75806L54.1834 3.76088C51.0187 5.15215 48.3102 6.96512 46.0646 9.20283C43.7306 11.5287 41.9096 14.227 40.6029 17.2944C39.1999 20.3724 38.5 23.6812 38.5 27.2148C38.5 30.0056 38.9664 32.6622 39.9011 35.181C40.7415 37.7825 41.9555 40.155 43.5435 42.2959C45.1328 44.4387 47.0487 46.3008 49.2886 47.8818C51.41 49.3792 53.6995 50.5432 56.1558 51.3731C55.7436 53.5826 54.6688 55.7335 52.904 57.8272C50.9049 60.1815 48.9584 62.1197 47.0652 63.6469L46.4696 64.1274L47.1488 64.4799L66.929 74.746L67.2326 74.9036L67.4895 74.6777C70.6344 71.9125 73.5439 68.6441 76.2192 64.8754C78.8925 61.2007 81.2425 57.2513 83.2695 53.0281L83.2695 53.0281L83.2715 53.0238C85.2081 48.8884 86.7299 44.6148 87.8366 40.2034C88.9448 35.7864 89.5 31.4565 89.5 27.2148C89.5 23.6839 88.8469 20.3773 87.537 17.3003C86.2301 14.2305 84.4082 11.5302 82.0727 9.20283C79.7372 6.87549 77.0276 5.06022 73.9474 3.75806C70.8602 2.4529 67.5426 1.80225 64 1.80225C60.5471 1.80225 57.2755 2.4536 54.1899 3.75806Z" fill="black" stroke="white"/>
<path d="M16.9952 3.29752L16.9887 3.30029L16.9822 3.30316C13.7664 4.7169 11.005 6.56335 8.71172 8.84866C6.33302 11.219 4.47675 13.9694 3.14532 17.0928C1.71297 20.2374 0.999996 23.6153 0.999996 27.2148C0.999996 30.0588 1.47485 32.7711 2.42864 35.3449C3.2851 37.9927 4.52265 40.4108 6.14187 42.5938C7.76379 44.7805 9.71826 46.6796 12.0003 48.2903C14.0402 49.7302 16.2333 50.8677 18.5773 51.7017C18.1308 53.6667 17.1271 55.6002 15.5221 57.5045C13.5386 59.8403 11.6144 61.7547 9.75126 63.2578L8.5601 64.2187L9.91846 64.9237L29.6987 75.1898L30.3059 75.505L30.8197 75.0532C33.9959 72.2605 36.9304 68.9632 39.6253 65.1672C42.3162 61.4679 44.6811 57.4932 46.7202 53.2444L46.7203 53.2445L46.7243 53.2359C48.6744 49.0716 50.207 44.7677 51.3216 40.3251C52.439 35.8712 53 31.5005 53 27.2148C53 23.6206 52.3349 20.247 50.997 17.1045C49.6652 13.9762 47.8073 11.222 45.4256 8.84866C43.044 6.47534 40.2804 4.62427 37.1421 3.29752C33.9896 1.96476 30.6054 1.30225 27 1.30225C23.4824 1.30225 20.1445 1.96616 16.9952 3.29752Z" fill="black" stroke="white" stroke-width="2"/>
</svg>
