<svg width="208" height="196" viewBox="0 0 208 196" fill="none" xmlns="http://www.w3.org/2000/svg">
<path d="M171.023 168.878C209.669 149.692 204.649 109.072 198.981 88.1322C187.2 44.6127 138.223 23.0819 113.462 20.2624C-5.08995 6.76328 -15.2719 133.817 31.5273 137.733C58.4673 139.987 77.9519 143.921 91.9326 148.842C117.246 157.753 146.986 180.811 171.023 168.878Z" fill="#E95478"/>
<mask id="mask0_324_4944" style="mask-type:alpha" maskUnits="userSpaceOnUse" x="12" y="0" width="196" height="195">
<circle cx="109.875" cy="97.3368" r="97.3368" fill="#D9D9D9"/>
</mask>
<g mask="url(#mask0_324_4944)">
<path d="M163.237 177.697C162.79 178.017 162.279 178.336 161.833 178.655C161.322 178.974 160.875 179.293 160.365 179.548C159.918 179.804 159.535 180.059 159.088 180.314C159.024 180.378 158.96 180.378 158.897 180.442C157.428 181.336 155.897 182.165 154.365 182.931C153.918 183.187 153.407 183.442 152.96 183.633C152.96 183.633 152.897 183.697 152.833 183.697C152.322 183.953 151.812 184.208 151.301 184.463C150.28 184.974 149.195 185.421 148.173 185.867C147.663 186.123 147.088 186.314 146.578 186.506C146.067 186.697 145.493 186.953 144.982 187.144C144.471 187.336 143.897 187.591 143.386 187.782C143.386 187.782 143.386 187.782 143.322 187.782C142.812 187.974 142.237 188.165 141.727 188.357C140.578 188.74 139.365 189.123 138.216 189.506C137.833 189.633 137.386 189.761 137.003 189.889C135.791 190.272 134.578 190.591 133.365 190.846C132.918 190.974 132.472 191.038 131.961 191.165C130.812 191.421 129.599 191.676 128.451 191.931C128.195 191.995 128.004 191.995 127.748 192.059C127.365 192.123 126.919 192.186 126.536 192.25C125.961 192.314 125.451 192.442 124.876 192.506C124.621 192.569 124.366 192.569 124.11 192.633C123.791 192.697 123.408 192.761 123.025 192.761C122.004 192.889 120.919 193.016 119.898 193.144C119.578 193.208 119.195 193.208 118.876 193.272H118.812C118.366 193.335 117.919 193.335 117.472 193.399C117.025 193.463 116.579 193.463 116.132 193.463C115.876 193.463 115.557 193.527 115.302 193.527C114.791 193.527 114.345 193.591 113.898 193.591C113.259 193.591 112.685 193.654 112.047 193.654C111.408 193.654 110.834 193.654 110.196 193.654C109.749 193.654 109.302 193.654 108.855 193.654C81.9199 193.272 57.729 181.846 40.4316 163.719C40.4316 163.719 40.4316 163.655 40.3678 163.655C38.453 161.932 40.1125 152.741 47.8357 146.932C57.5376 139.592 80.771 134.996 80.771 134.996C80.771 134.996 89.7707 133.528 123.153 140.486C142.684 144.571 157.556 150.507 165.854 166.591C167.577 169.91 169.3 175.017 163.237 177.697Z" fill="white"/>
<path d="M123.344 139.784C135.599 142.273 148.684 144.954 158.769 153.06C162.152 155.804 164.386 159.826 166.237 163.719C167.13 165.634 168.024 167.613 168.726 169.719C169.109 171.123 169.683 172.719 169.364 174.378C169.3 174.825 168.917 175.4 168.598 175.719C167.13 177.187 165.534 178.08 163.939 179.229C154.556 185.74 143.769 190.335 132.599 192.761C107.706 198.186 80.7708 193.974 58.8778 180.889C51.6014 176.485 44.8994 171.123 39.1549 164.804C38.5166 164.038 38.5166 162.762 38.5166 161.932C38.5804 160.017 39.0911 158.166 39.7293 156.443C41.2612 152.485 43.2399 148.528 46.6228 145.783C49.0482 144.124 51.6652 142.72 54.346 141.571C62.7713 137.996 71.6434 135.507 80.7708 134.486C81.5367 134.422 81.6644 135.507 80.8984 135.635C72.154 137.422 63.4734 140.103 55.3672 143.741C52.4311 145.209 49.3035 146.486 46.9419 148.783C44.7079 151.209 43.1122 154.209 41.8357 157.272C41.0059 159.123 40.4314 162.06 40.6868 163.528C44.7079 168.315 49.4312 172.527 54.5374 176.166C82.4941 195.697 124.94 196.974 154.684 180.697C157.364 179.229 159.981 177.57 162.471 175.846C163.683 175.017 164.96 174.315 165.917 173.357C165.981 173.293 165.917 173.357 165.917 173.421C165.917 173.485 165.854 173.549 165.854 173.549C165.917 172.783 165.662 171.761 165.343 170.74C164.194 167.038 162.343 163.145 160.364 159.762C157.237 154.719 151.939 151.528 146.578 148.975C142.875 147.251 138.982 145.911 135.025 144.635C131.067 143.358 127.046 142.273 123.025 141.315C122.004 141.06 122.323 139.592 123.344 139.784Z" fill="black"/>
<path d="M158.769 153.634C153.918 149.23 138.408 142.337 126.791 139.528C121.685 138.316 109.685 134.805 100.558 133.911C95.6431 133.401 86.5795 134.613 80.8988 134.805C75.4096 134.996 56.8994 138.762 48.0273 145.017C46.1125 146.358 37.5595 154.847 33.8575 176.612C30.9852 193.399 27.4109 215.164 27.2832 222.569H172.747C175.173 179.293 163.811 158.23 158.769 153.634Z" fill="black"/>
<path d="M157.684 154.847C154.747 152.358 150.982 150.443 147.471 148.783C141.982 146.166 136.237 143.932 130.365 142.209C124.493 140.613 118.365 139.081 112.493 137.677C108.536 136.783 104.515 136.018 100.494 135.571C96.6001 135.252 92.3875 135.698 88.4301 135.954C85.4302 136.209 82.3026 136.337 79.2389 136.592C70.303 137.805 61.2394 140.166 53.0694 143.996C51.5375 144.762 50.0695 145.528 48.7291 146.549C45.3462 149.613 42.9207 153.889 41.0059 158.038C37.8783 164.932 36.155 172.463 35.006 179.931C34.0486 185.803 32.8997 192.378 32.0061 198.25C30.7934 206.292 29.3892 214.462 29.0062 222.568L27.3467 220.909H172.747L171.087 222.441C171.981 204.824 171.215 186.697 165.662 169.783C163.811 164.549 161.577 158.932 157.684 154.847ZM159.918 152.421C162.343 154.719 163.939 157.336 165.662 160.081C170.513 168.059 172.811 177.123 174.087 186.314C175.875 198.314 175.811 210.569 174.47 222.632C174.47 223.526 173.704 224.228 172.811 224.164H27.4105C26.5169 224.164 25.751 223.398 25.751 222.505C25.8148 220.334 26.0701 218.292 26.2616 216.186C26.9637 209.994 27.9211 203.867 28.9424 197.739C29.836 191.867 31.0487 185.293 32.0061 179.421C33.2827 171.697 35.0699 163.91 38.2613 156.762C40.4314 152.166 42.9207 147.634 46.8142 144.188C48.3461 143.039 50.0056 142.081 51.729 141.251C60.3458 137.23 69.537 134.869 78.8559 133.528C81.9197 133.273 85.0472 133.145 88.1748 132.826C92.3875 132.507 96.4725 132.06 100.813 132.379C105.025 132.826 109.11 133.592 113.195 134.486C119.323 135.89 125.259 137.358 131.323 139.017C137.322 140.805 143.195 143.039 148.875 145.719C152.769 147.762 156.471 149.549 159.918 152.421Z" fill="black"/>
<path d="M161.45 222.569C157.173 181.974 148.748 161.294 148.748 161.294C146.769 150.379 141.535 141.762 139.876 140.996C136.876 139.656 136.365 140.103 136.365 140.103C141.216 146.677 143.705 157.847 144.344 163.655C126.025 171.634 92.1962 166.081 80.3881 163.528C76.4945 156.57 69.0267 142.018 62.5162 136.464C61.9417 136.018 61.1758 135.954 60.5375 136.209C60.0269 136.464 59.3248 136.911 58.6865 137.677C58.3674 138.06 58.3674 138.571 58.7503 138.954C58.8142 139.018 58.878 139.081 58.9418 139.145C69.7926 151.017 75.7286 171.761 74.2606 187.782C71.6436 216.25 66.665 222.505 66.665 222.505H161.45V222.569Z" fill="white"/>
<path d="M160.237 221.483C159.662 219.313 159.28 217.207 159.152 214.973C157.237 196.91 154.556 178.591 148.173 161.549L149.067 161.868C148.748 162.06 148.365 161.932 148.173 161.677C147.28 157.4 146.003 153.187 144.088 149.23C142.812 146.677 141.535 144.06 139.557 142.081C138.791 141.698 137.769 141.379 136.94 141.124C136.812 141.06 136.684 141.06 136.621 141.06C136.621 141.06 136.621 141.06 136.684 141.06H136.748C136.812 141.06 136.748 141.06 136.876 140.932L137.004 139.72C137.578 140.677 138.855 143.039 139.301 143.996C141.344 148.273 142.62 152.932 143.642 157.528C144.025 159.57 144.408 161.677 144.663 163.783C144.663 163.974 144.599 164.102 144.408 164.23C134.323 168.442 123.153 168.825 112.366 168.698C106.941 168.57 101.515 168.123 96.1536 167.549C90.792 166.91 85.4305 166.081 80.0689 164.996C79.6859 164.932 79.4306 164.677 79.2391 164.421C76.6222 159.762 74.1967 155.166 71.5159 150.634C68.899 146.23 66.1544 141.635 62.4524 138.06L61.8141 137.486C60.9205 136.847 59.8992 137.996 59.261 138.571C59.1971 138.635 59.1971 138.698 59.261 138.762L59.3248 138.826C61.3673 141.124 63.1545 143.613 64.7502 146.23C67.5586 150.826 69.7288 155.677 72.0266 160.528C75.3456 167.996 75.4733 176.293 75.4095 184.336C75.0265 192.314 74.0691 200.293 72.7925 208.143C71.7074 213.505 70.75 219.122 67.8777 223.909L66.6012 221.228C96.4089 220.781 130.365 221.037 160.237 221.483ZM162.726 223.717C132.089 224.164 97.2386 224.42 66.6012 224.228L65.3246 221.547C67.2395 218.356 68.1331 214.654 69.1543 211.08C70.8138 204.761 71.8989 198.314 72.6648 191.803L73.1116 187.91C74.2605 178.783 71.3245 169.91 69.3458 161.102C67.8139 153.443 63.9204 146.294 58.8142 140.422L58.1759 139.72L58.1121 139.656L58.0482 139.592C57.7291 139.209 57.5376 138.762 57.5376 138.252C57.6014 137.358 58.4312 136.656 59.0695 136.145C60.346 135.06 62.0056 134.869 63.2821 136.145C65.5161 138.06 67.3033 140.294 69.0266 142.592C73.7499 148.975 77.5796 156.06 81.4093 163.017L80.5795 162.379C91.0473 164.613 101.707 166.208 112.43 166.91C123.025 167.421 134.131 167.421 144.088 163.336L143.833 163.783C143.578 161.74 143.259 159.698 142.812 157.655C141.918 153.634 140.578 149.677 138.791 145.911C138.472 145.209 137.706 143.869 137.323 143.166C136.812 142.273 136.174 141.443 135.535 140.677C135.153 140.23 135.408 139.592 135.791 139.337C137.067 138.698 138.535 139.464 139.748 139.911C140.003 140.039 140.45 140.23 140.706 140.422C143.003 142.592 144.28 145.656 145.556 148.464C146.45 150.507 147.152 152.613 147.727 154.719C148.365 156.826 148.812 158.996 149.195 161.166L148.237 160.719C148.556 160.528 148.939 160.592 149.131 160.911C153.535 173.293 156.599 186.187 159.088 199.08C160.109 204.25 160.939 209.42 161.769 214.59C162.471 217.59 162.662 220.781 162.726 223.717Z" fill="black"/>
<path d="M84.7923 177.761C86.4843 177.761 87.856 176.389 87.856 174.697C87.856 173.005 86.4843 171.634 84.7923 171.634C83.1002 171.634 81.7285 173.005 81.7285 174.697C81.7285 176.389 83.1002 177.761 84.7923 177.761Z" fill="black"/>
<path d="M143.833 174.123C145.314 174.123 146.514 172.923 146.514 171.442C146.514 169.962 145.314 168.761 143.833 168.761C142.353 168.761 141.152 169.962 141.152 171.442C141.152 172.923 142.353 174.123 143.833 174.123Z" fill="black"/>
<path d="M129.343 156.762C128.003 163.336 119.322 167.293 104.706 161.357C89.5146 155.23 82.9403 140.613 81.2808 136.273C90.2805 119.422 84.0254 107.742 84.0254 107.742C104.769 105.955 122.897 130.209 122.897 130.209L125.705 142.209C125.96 143.23 126.471 144.124 127.237 144.762C128.577 147.124 130.173 152.549 129.343 156.762Z" fill="white"/>
<path d="M80.9618 136.464C82.1745 134.613 82.9405 132.443 83.4511 130.337C84.4085 125.933 84.7277 121.465 84.7915 116.997V115.337C84.6 113.678 84.0255 111.954 83.3873 110.423C82.5575 108.38 85.5574 107.103 86.5148 109.146C86.6425 109.401 86.6425 109.848 86.6425 110.103C86.834 118.784 87.217 129.954 81.7277 137.166C81.3448 137.549 80.5788 136.975 80.9618 136.464Z" fill="black"/>
<path d="M123.599 130.082C124.556 130.656 124.875 131.422 125.003 132.188C125.386 133.72 125.258 135.379 125.641 136.975C125.961 138.507 126.918 139.975 127.173 141.571C127.492 143.23 128.45 146.741 128.833 148.464C128.96 148.847 128.705 149.294 128.258 149.358C128.003 149.421 127.812 149.358 127.62 149.23C126.79 148.528 126.407 147.826 125.897 146.932C125.067 145.4 124.493 143.996 123.982 142.273C123.535 140.741 123.727 139.081 123.344 137.486C123.024 135.954 122.131 134.486 121.812 132.89C121.62 132.124 121.556 131.294 122.131 130.337C122.514 129.954 123.152 129.826 123.599 130.082Z" fill="black"/>
<path d="M128.195 146.932C116.004 146.294 106.047 142.464 96.3447 125.167C104.515 132.379 114.153 135.124 124.301 136.4L125.642 142.273C125.897 143.294 127.429 146.294 128.195 146.932Z" fill="black"/>
<path d="M127.684 144.571C129.855 148.656 131.131 153.762 129.791 158.294C128.77 161.485 125.833 163.847 122.642 164.74C115.238 166.719 106.685 163.591 100.111 160.081C92.0046 155.549 86.0047 147.953 82.175 139.656C81.9197 139.017 82.8133 138.507 83.1963 139.145C84.5367 141.826 86.0686 144.443 87.7919 146.804C89.5153 149.23 91.4939 151.464 93.7279 153.443C100.238 159.315 109.047 162.953 117.855 162.953C126.919 162.698 130.365 157.911 128.259 149.102C127.94 147.698 127.429 146.23 126.727 145.017C126.344 144.507 127.301 143.932 127.684 144.571Z" fill="black"/>
<path d="M152.385 67.9132C153.534 73.2747 152.641 76.8491 152.13 91.6572C151.619 106.21 147.407 126.763 142.237 131.933C138.279 135.826 125.578 138.89 114.28 136.018C108.536 134.55 103.685 131.231 99.7273 128.869C94.7487 125.869 90.4084 116.614 86.834 110.678C84.0255 106.019 84.2809 111.635 80.6427 107.614C75.6002 102.125 69.5366 91.0828 72.5365 71.5514C77.3874 39.8927 102.472 36.1906 121.046 39.7012C139.747 43.2117 149.322 53.8072 152.385 67.9132Z" fill="white"/>
<path d="M83.8345 113.231C82.3665 110.805 80.4516 108.635 78.7283 106.338C76.1752 102.827 74.2603 98.8058 72.9838 94.657C67.4307 76.9128 70.8136 53.6793 87.6004 43.2115C102.855 33.5097 132.472 37.0202 144.854 50.2965C149.514 55.0836 152.514 61.3387 153.79 67.8492C153.854 68.2321 154.045 68.9343 154.109 69.3172C154.173 69.6364 154.365 70.0193 154.301 70.4023C154.173 71.8065 153.918 73.2107 153.79 74.615C152.833 83.1041 153.088 91.7847 152.003 100.274C151.045 109.21 149.769 118.146 147.088 126.762C146.258 129.379 144.663 131.741 142.556 133.464C137.833 137.422 131.642 138.762 125.706 139.017C113.834 139.592 101.77 135.379 94.8768 125.358C94.6215 124.975 95.1321 124.528 95.4512 124.911C101.196 131.103 108.983 135.06 117.28 135.954C126.472 137.039 140.322 136.209 144.344 126.38C149.003 112.465 151.428 97.7207 151.684 83.1041C151.684 79.5297 151.492 75.9553 151.492 72.3171C151.492 71.8703 151.556 70.8491 151.556 70.4023C151.556 70.3385 151.556 70.4023 151.556 70.4023C151.556 70.4661 151.556 70.4661 151.556 70.4023C151.045 69.1257 150.854 67.7215 150.471 66.445C149.067 61.1472 146.514 56.1048 142.875 52.0836C130.812 38.5521 103.94 35.1692 88.8769 45.3179C76.9411 53.2325 73.7497 68.4236 72.9199 81.8275C72.2178 91.8485 75.1539 101.678 82.7495 108.571L85.7494 111.699C87.0259 113.103 84.8558 114.763 83.8345 113.231Z" fill="black"/>
<path d="M91.3666 92.9336C91.3666 92.9336 89.388 83.3594 80.0691 84.5083C72.0267 85.5296 69.2183 104.806 87.4731 110.167" fill="white"/>
<path d="M86.6427 101.806C85.1746 100.976 84.1534 99.5719 84.0896 97.8485C84.1534 96.5719 84.3449 95.1039 84.0257 93.8273C83.8342 92.6146 82.5577 92.2955 81.6003 92.3593C80.579 92.5508 79.9407 93.8273 79.7492 94.8486C79.7492 94.9124 79.6854 95.1039 79.6854 95.1677C79.6216 95.4869 79.111 95.4869 78.9833 95.1677C78.1535 92.6784 80.0046 89.9338 82.6853 90.253C86.4512 90.5083 86.9618 94.4656 86.2597 97.4655C85.8767 98.7421 86.3874 99.891 87.0895 100.976L87.2171 101.168C87.5363 101.551 87.0256 102.061 86.6427 101.806Z" fill="black"/>
<path d="M137.706 86.1678C138.663 90.6996 140.45 94.9123 142.684 98.8696C144.663 103.721 139.557 108.316 135.025 108.125C134.514 108.125 134.451 107.423 134.897 107.295C137.77 106.401 140.387 104.486 140.833 101.55C141.025 100.657 140.77 99.8909 140.323 99.1249C138.216 95.1676 136.94 90.6358 137.259 86.1678C137.259 85.8487 137.706 85.8487 137.706 86.1678Z" fill="black"/>
<path d="M91.0472 92.9976C89.5792 89.2317 86.3878 85.6574 82.1113 85.7212C81.7283 85.6574 81.0901 85.785 80.7071 85.785C79.622 85.8488 78.7284 86.2318 77.8987 86.9977C73.8137 91.0827 74.5158 98.2953 77.8348 102.827C78.9837 104.423 80.4518 105.827 82.1113 106.976C83.7708 108.125 85.6219 109.018 87.6005 109.784C88.0473 109.912 87.8558 110.614 87.409 110.55C83.1326 109.657 79.0476 107.55 76.2391 104.04C71.8988 98.8059 71.0052 90.0615 76.1753 84.9553C77.3242 83.934 78.9199 83.1681 80.5156 83.1681C81.0262 83.1681 81.7922 83.0404 82.3028 83.1681C84.9836 83.2957 87.5367 84.6361 89.1962 86.7424C90.6643 88.5296 91.494 90.6998 91.7494 92.8699C91.7494 93.2529 91.1749 93.3806 91.0472 92.9976Z" fill="black"/>
<path d="M132.855 114.444C130.876 116.04 128.131 116.103 125.77 115.529C125.004 115.337 124.11 115.21 123.663 114.38C123.217 113.678 123.663 112.784 124.493 112.657C125.323 112.465 125.834 112.848 126.536 113.04C128.387 113.678 130.429 114.061 132.344 113.423C132.855 113.295 133.365 114.061 132.855 114.444Z" fill="black"/>
<path d="M125.833 110.359C127.174 112.72 125.259 115.529 122.961 116.422C122.45 116.678 120.025 117.188 120.089 116.231C120.089 116.103 120.216 115.976 120.344 115.912C122.642 114.89 124.301 112.784 124.684 110.359C124.748 109.848 125.45 109.72 125.706 110.167L125.833 110.359Z" fill="black"/>
<path d="M123.727 77.8702C125.131 77.7426 125.833 76.0831 125.067 74.8065C124.621 74.1682 124.046 73.5938 123.216 73.2746C120.791 72.5087 112.876 74.232 109.43 78.1894C106.366 81.8276 117.344 78.4447 123.727 77.8702Z" fill="black"/>
<path d="M140.578 78.8913C139.493 78.5722 139.174 76.9765 140.067 75.9552C140.514 75.4446 141.152 74.9978 141.854 74.8701C144.024 74.4872 149.003 76.4658 150.407 80.2317C151.684 83.4869 145.748 80.1679 140.578 78.8913Z" fill="black"/>
<path d="M113.898 92.6783C112.366 92.6145 111.217 91.3379 111.345 89.8061L111.408 88.0189C111.472 86.487 112.749 85.3381 114.281 85.4657C115.813 85.5296 116.962 86.8061 116.834 88.338L116.77 90.1252C116.706 91.5932 115.43 92.7421 113.898 92.6783Z" fill="black"/>
<path d="M140.769 93.6356C139.365 93.5718 138.28 92.3591 138.343 90.9549L138.407 89.2953C138.471 87.8911 139.684 86.806 141.088 86.8699C142.492 86.9337 143.577 88.1464 143.514 89.5506L143.45 91.2102C143.386 92.6144 142.173 93.6995 140.769 93.6356Z" fill="black"/>
<path d="M119.642 89.2315C117.536 87.8273 115.238 86.8699 112.685 87.3805C111.855 87.5082 111.025 87.7635 110.515 88.3379C110.323 88.5932 109.876 88.5294 109.876 88.1464C109.94 86.8699 111.025 86.0401 112.047 85.5295C114.025 84.5082 116.77 84.6997 118.557 86.0401C119.195 86.4231 121.366 88.7847 120.217 89.2953C119.961 89.423 119.834 89.3592 119.642 89.2315Z" fill="black"/>
<path d="M137.896 89.5507C137.896 86.8699 141.216 85.9125 143.258 86.8699C144.407 87.3805 145.237 88.4018 145.556 89.6145C145.684 89.9975 145.109 90.3166 144.854 89.9975C143.769 88.7209 141.918 88.0826 140.45 88.8486C140.003 89.1039 139.939 89.2954 139.811 89.5507C139.811 90.8272 137.96 90.7634 137.896 89.5507Z" fill="black"/>
<path d="M160.368 124.273C152.964 105.38 153.922 99.4444 155.709 83.5512C159.283 52.2754 147.986 44.6799 142.05 41.68C116.774 28.8505 87.7959 35.1057 76.8813 52.7222C70.0517 63.7006 69.7964 72.5089 65.9667 85.1469C59.3924 106.785 43.5631 116.359 48.4778 138.507C55.2436 160.336 98.5191 169.974 97.6893 147.252C97.1787 133.529 86.9023 131.678 86.7109 112.721C86.7109 111.444 86.7747 110.231 86.9023 109.082C69.2858 103.529 72.0942 84.6362 80.0727 83.615C85.6258 82.9129 88.5619 86.0405 90.0299 88.6574C90.1576 89.0404 90.3491 89.3595 90.5405 89.7425C91.8171 91.9126 106.881 87.8276 118.37 80.7427C125.072 76.5939 135.539 69.4452 138.412 61.5943C138.539 61.2752 140.582 71.1047 150.156 83.8703C149.709 91.4658 151.624 110.423 141.922 126.061C134.901 137.486 126.093 138.507 126.093 138.507C126.093 146.103 139.56 145.72 145.177 146.996C152.198 148.528 159.156 152.741 159.156 152.741C159.156 152.741 167.198 141.699 160.368 124.273Z" fill="black"/>
<path d="M141.408 100.912C141.408 100.912 142.174 105.253 147.216 107.423C148.493 107.933 149.833 107.104 149.833 105.699C149.769 105.699 141.727 101.423 141.408 100.912Z" fill="black"/>
<path d="M101.962 100.912C101.962 100.912 104.324 106.274 111.408 107.55C118.493 108.891 124.94 103.784 127.94 95.2314C127.94 95.2314 125.514 103.146 115.813 104.614C106.238 106.21 101.962 100.912 101.962 100.912Z" fill="black"/>
<path d="M129.344 88.9764C129.153 98.1038 121.813 105.444 112.94 105.444C104.068 105.444 96.9834 98.1038 96.9834 88.9764C97.0472 79.7851 104.387 72.2534 113.387 72.2534C122.387 72.2534 129.6 79.7851 129.344 88.9764Z" stroke="black" stroke-width="0.517542" stroke-miterlimit="10" stroke-linecap="round" stroke-linejoin="round"/>
<path d="M138.089 86.8702C139.11 78.6363 144.472 72.1897 150.791 72.1897C157.62 72.1897 162.854 79.7214 162.471 88.9127C162.088 98.0401 156.344 105.38 149.642 105.38C147.152 105.38 144.918 104.423 143.067 102.7" stroke="black" stroke-width="0.517542" stroke-miterlimit="10" stroke-linecap="round" stroke-linejoin="round"/>
<path d="M97.1749 87.1892H88.1113" stroke="black" stroke-width="0.517542" stroke-miterlimit="10" stroke-linecap="round" stroke-linejoin="round"/>
<path d="M129.408 87.1892C129.408 87.1892 137.004 84.2531 137.961 87.1892" stroke="black" stroke-width="0.517542" stroke-miterlimit="10" stroke-linecap="round" stroke-linejoin="round"/>
</g>
</svg>
