<svg width="208" height="196" viewBox="0 0 208 196" fill="none" xmlns="http://www.w3.org/2000/svg">
<path d="M171.023 168.878C209.669 149.692 204.649 109.072 198.981 88.1322C187.2 44.6127 138.223 23.0819 113.462 20.2624C-5.08995 6.76328 -15.2719 133.817 31.5273 137.733C58.4673 139.987 77.9519 143.921 91.9326 148.842C117.246 157.753 146.986 180.811 171.023 168.878Z" fill="#E95478"/>
<mask id="mask0_324_4944" style="mask-type:alpha" maskUnits="userSpaceOnUse" x="12" y="0" width="196" height="195">
<circle cx="109.875" cy="97.3368" r="97.3368" fill="#D9D9D9"/>
</mask>
<g mask="url(#mask0_324_4944)">
<path d="M163.237 177.697C162.79 178.017 162.279 178.336 161.833 178.655C161.322 178.974 160.875 179.293 160.365 179.548C159.918 179.804 159.535 180.059 159.088 180.314C159.024 180.378 158.96 180.378 158.897 180.442C157.428 181.336 155.897 182.165 154.365 182.931C153.918 183.187 153.407 183.442 152.96 183.633C152.96 183.633 152.897 183.697 152.833 183.697C152.322 183.953 151.812 184.208 151.301 184.463C150.28 184.974 149.195 185.421 148.173 185.867C147.663 186.123 147.088 186.314 146.578 186.506C146.067 186.697 145.493 186.953 144.982 187.144C144.471 187.336 143.897 187.591 143.386 187.782C143.386 187.782 143.386 187.782 143.322 187.782C142.812 187.974 142.237 188.165 141.727 188.357C140.578 188.74 139.365 189.123 138.216 189.506C137.833 189.633 137.386 189.761 137.003 189.889C135.791 190.272 134.578 190.591 133.365 190.846C132.918 190.974 132.472 191.038 131.961 191.165C130.812 191.421 129.599 191.676 128.451 191.931C128.195 191.995 128.004 191.995 127.748 192.059C127.365 192.123 126.919 192.186 126.536 192.25C125.961 192.314 125.451 192.442 124.876 192.506C124.621 192.569 124.366 192.569 124.11 192.633C123.791 192.697 123.408 192.761 123.025 192.761C122.004 192.889 120.919 193.016 119.898 193.144C119.578 193.208 119.195 193.208 118.876 193.272H118.812C118.366 193.335 117.919 193.335 117.472 193.399C117.025 193.463 116.579 193.463 116.132 193.463C115.876 193.463 115.557 193.527 115.302 193.527C114.791 193.527 114.345 193.591 113.898 193.591C113.259 193.591 112.685 193.654 112.047 193.654C111.408 193.654 110.834 193.654 110.196 193.654C109.749 193.654 109.302 193.654 108.855 193.654C81.9199 193.272 57.729 181.846 40.4316 163.719C40.4316 163.719 40.4316 163.655 40.3678 163.655C38.453 161.932 40.1125 152.741 47.8357 146.932C57.5376 139.592 80.771 134.996 80.771 134.996C80.771 134.996 89.7707 133.528 123.153 140.486C142.684 144.571 157.556 150.507 165.854 166.591C167.577 169.91 169.3 175.017 163.237 177.697Z" fill="white"/>
<path d="M123.344 139.784C135.599 142.273 148.684 144.954 158.769 153.06C162.152 155.804 164.386 159.826 166.237 163.719C167.13 165.634 168.024 167.613 168.726 169.719C169.109 171.123 169.683 172.719 169.364 174.378C169.3 174.825 168.917 175.4 168.598 175.719C167.13 177.187 165.534 178.08 163.939 179.229C154.556 185.74 143.769 190.335 132.599 192.761C107.706 198.186 80.7708 193.974 58.8778 180.889C51.6014 176.485 44.8994 171.123 39.1549 164.804C38.5166 164.038 38.5166 162.762 38.5166 161.932C38.5804 160.017 39.0911 158.166 39.7293 156.443C41.2612 152.485 43.2399 148.528 46.6228 145.783C49.0482 144.124 51.6652 142.72 54.346 141.571C62.7713 137.996 71.6434 135.507 80.7708 134.486C81.5367 134.422 81.6644 135.507 80.8984 135.635C72.154 137.422 63.4734 140.103 55.3672 143.741C52.4311 145.209 49.3035 146.486 46.9419 148.783C44.7079 151.209 43.1122 154.209 41.8357 157.272C41.0059 159.123 40.4314 162.06 40.6868 163.528C44.7079 168.315 49.4312 172.527 54.5374 176.166C82.4941 195.697 124.94 196.974 154.684 180.697C157.364 179.229 159.981 177.57 162.471 175.846C163.683 175.017 164.96 174.315 165.917 173.357C165.981 173.293 165.917 173.357 165.917 173.421C165.917 173.485 165.854 173.549 165.854 173.549C165.917 172.783 165.662 171.761 165.343 170.74C164.194 167.038 162.343 163.145 160.364 159.762C157.237 154.719 151.939 151.528 146.578 148.975C142.875 147.251 138.982 145.911 135.025 144.635C131.067 143.358 127.046 142.273 123.025 141.315C122.004 141.06 122.323 139.592 123.344 139.784Z" fill="black"/>
<path d="M70.5584 136.975C72.7924 140.932 81.2815 156.825 82.6219 170.868L90.5366 173.548C90.5366 173.548 84.5368 146.996 73.8136 134.677C73.8136 134.677 72.5371 134.103 70.9414 135.188C70.4308 135.635 70.1754 136.337 70.5584 136.975Z" fill="black"/>
<path d="M138.471 171.059C138.471 171.059 138.854 153.379 131.195 141.762C131.004 141.443 131.259 140.996 131.642 141.06C132.152 141.188 132.918 141.379 134.131 141.953C136.174 142.911 142.812 153.06 143.386 169.719C143.386 169.655 139.11 171.059 138.471 171.059Z" fill="black"/>
<path d="M160.301 154.464C156.982 150.953 146.961 145.719 145.237 145.847C145.301 145.975 145.301 146.166 145.365 146.358C148.046 155.996 145.876 169.081 136.11 171.251C125.961 173.485 117.472 173.804 97.1109 171.761C82.1751 170.293 68.1329 156.889 60.9842 143.613C60.2821 142.273 59.4523 140.932 58.5587 139.72C58.0481 139.337 57.0907 139.401 56.3886 139.975C54.6014 141.443 52.2398 141.315 52.2398 142.72C52.2398 142.72 38.7082 146.932 33.9849 176.612C31.3042 193.399 27.5383 215.164 27.4106 222.569H172.747C171.726 212.611 172.747 168.251 160.301 154.464Z" fill="black"/>
<path d="M159.088 155.613C157.173 153.698 154.684 152.23 152.322 150.826C150.152 149.549 147.471 148.145 145.237 147.507L146.705 145.464L146.769 145.847C148.556 153.315 148.173 162.187 143.003 168.315C141.216 170.357 138.599 171.825 135.918 172.272C130.94 173.293 125.77 173.868 120.663 173.868C111.727 173.804 102.919 173.102 94.1108 171.889C87.8557 170.548 82.0473 167.421 77.0049 163.527C69.92 158.038 64.4946 150.826 59.4522 143.485C58.7501 142.464 57.9203 141.507 57.0267 140.677L57.3459 141.06C57.4735 141.188 57.5374 141.124 57.4735 141.124C57.4735 141.124 57.3459 141.124 57.282 141.188C57.2182 141.188 57.2182 141.188 57.1544 141.315C56.1331 142.209 54.4736 142.656 53.4524 143.23C53.5162 143.23 53.6438 142.847 53.6438 142.783L52.4949 144.315L52.3034 144.379L52.0481 144.507C43.3037 149.23 39.091 160.464 36.7932 169.655C34.5592 180.123 33.2189 190.91 31.4317 201.441C30.4104 208.462 29.1339 215.675 28.8147 222.632L27.1552 220.973H172.747L171.151 222.76C169.811 205.079 170.513 169.208 159.088 155.613ZM161.513 153.379C173.832 167.74 173.066 203.803 174.407 222.441C174.47 223.334 173.832 224.164 172.938 224.228C172.875 224.356 27.4743 224.164 27.4105 224.228C26.5169 224.228 25.751 223.526 25.751 222.632C25.8786 218.866 26.3893 215.228 26.8361 211.654C28.3041 200.931 30.0913 190.271 31.8146 179.612C32.8997 172.463 34.3678 165.123 37.24 158.357C40.1123 151.655 44.3888 144.634 51.2822 141.379C51.4099 141.315 51.5375 141.251 51.729 141.188L50.5801 142.719C50.5163 140.485 52.9417 139.911 54.4736 139.273C55.4949 138.698 56.3246 137.869 57.6012 137.869C58.2395 137.805 59.3884 138.06 59.899 138.826C60.7926 140.613 61.5585 142.4 62.3245 144.187C63.601 147.06 65.2605 149.741 67.1754 152.23C74.0688 160.974 83.3877 168.634 94.4938 170.868C98.1958 171.506 102.026 171.634 105.728 171.953C115.749 172.655 125.833 172.782 135.599 170.357C137.897 169.846 139.876 168.634 141.344 166.846C145.684 161.357 145.684 153.315 143.769 146.804L143.641 146.294C143.322 145.336 144.088 144.251 145.109 144.251C146.96 144.315 148.365 145.209 150.024 145.911C154.109 147.953 158.13 150.124 161.513 153.379Z" fill="black"/>
<path d="M140.004 178.144C129.536 182.612 95.1326 183.633 77.6437 174.187C66.6014 168.251 59.4527 155.166 56.006 150.124C53.4528 146.294 52.1763 142.72 52.1763 142.72C52.1763 141.315 54.6017 141.443 56.3251 139.975C57.0272 139.401 57.9846 139.337 58.4952 139.72C59.3888 140.996 60.2186 142.273 60.9207 143.613C68.0695 156.826 79.367 170.102 97.0474 171.761C117.409 173.676 125.898 173.485 136.046 171.251C145.812 169.081 147.982 155.996 145.301 146.358C145.238 146.23 145.238 146.039 145.174 145.847C146.897 145.719 150.216 146.039 151.429 149.102C151.493 149.102 156.408 171.187 140.004 178.144Z" fill="white"/>
<path d="M140.386 179.037C136.173 180.761 131.769 181.399 127.365 181.91C122.961 182.42 118.557 182.612 114.153 182.612C103.111 182.484 91.8768 181.463 81.4728 177.506C69.6008 173.229 61.9414 162.442 55.5586 152.23C53.6438 149.421 51.8566 146.549 50.7715 143.294C50.4524 142.464 50.963 141.315 51.6651 140.804C52.6225 140.039 53.7076 140.039 54.665 139.656C55.3033 139.464 55.6863 139.081 56.2607 138.762C57.282 138.315 58.4309 137.932 59.7074 138.507C67.0477 154.528 79.1112 169.846 98.0043 171.187C110.515 172.336 123.28 173.612 135.663 170.74C140.641 169.91 143.897 165.442 145.046 160.719C146.322 155.932 145.939 150.762 144.599 146.038C144.471 145.592 144.79 145.145 145.237 145.145C147.982 144.889 151.365 146.102 152.322 148.974C153.407 154.719 153.407 160.591 151.747 166.144C150.088 171.825 145.875 176.803 140.386 179.037ZM139.62 177.25C144.726 175.208 148.492 170.867 150.216 165.697C151.939 160.464 152.13 154.655 151.045 149.23C150.279 147.123 147.599 146.23 145.301 146.549L145.939 145.655C148.109 153.825 147.662 165.57 139.556 170.485C138.407 171.123 137.131 171.57 135.854 171.825C133.365 172.336 130.812 172.782 128.323 173.101C118.174 174.187 107.961 173.357 97.8766 172.527C80.5792 171.633 67.2391 158.038 59.8351 143.358C59.3245 142.209 58.75 141.124 58.1756 139.975L58.3032 140.102C57.3458 139.528 56.3245 140.868 55.431 141.187C54.6012 141.634 53.7076 141.826 53.0055 142.273C52.8778 142.4 52.814 142.528 52.814 142.719V142.528C54.2821 146.549 56.9628 150.187 59.2606 153.762C65.069 162.697 72.0901 171.697 82.4302 175.399C96.8554 181.144 124.812 182.548 139.62 177.25Z" fill="black"/>
<path d="M129.343 156.762C128.003 163.336 119.322 167.293 104.706 161.357C89.5146 155.23 82.9403 140.613 81.2808 136.273C90.2805 119.422 84.0254 107.742 84.0254 107.742C104.769 105.955 122.897 130.209 122.897 130.209L125.705 142.209C125.96 143.23 126.471 144.124 127.237 144.762C128.577 147.124 130.173 152.549 129.343 156.762Z" fill="white"/>
<path d="M80.9618 136.464C82.1745 134.613 82.9405 132.443 83.4511 130.337C84.4085 125.933 84.7277 121.465 84.7915 116.997V115.337C84.6 113.678 84.0255 111.954 83.3873 110.423C82.5575 108.38 85.5574 107.103 86.5148 109.146C86.6425 109.401 86.6425 109.848 86.6425 110.103C86.834 118.784 87.217 129.954 81.7277 137.166C81.3448 137.549 80.5788 136.975 80.9618 136.464Z" fill="black"/>
<path d="M123.599 130.082C124.556 130.656 124.875 131.422 125.003 132.188C125.386 133.72 125.258 135.379 125.641 136.975C125.961 138.507 126.918 139.975 127.173 141.571C127.492 143.23 128.45 146.741 128.833 148.464C128.96 148.847 128.705 149.294 128.258 149.358C128.003 149.421 127.812 149.358 127.62 149.23C126.79 148.528 126.407 147.826 125.897 146.932C125.067 145.4 124.493 143.996 123.982 142.273C123.535 140.741 123.727 139.081 123.344 137.486C123.024 135.954 122.131 134.486 121.812 132.89C121.62 132.124 121.556 131.294 122.131 130.337C122.514 129.954 123.152 129.826 123.599 130.082Z" fill="black"/>
<path d="M128.195 146.932C116.004 146.294 106.047 142.464 96.3447 125.167C104.515 132.379 114.153 135.124 124.301 136.4L125.642 142.273C125.897 143.294 127.429 146.294 128.195 146.932Z" fill="black"/>
<path d="M127.684 144.571C129.855 148.656 131.131 153.762 129.791 158.294C128.77 161.485 125.833 163.847 122.642 164.74C115.238 166.719 106.685 163.591 100.111 160.081C92.0046 155.549 86.0047 147.953 82.175 139.656C81.9197 139.017 82.8133 138.507 83.1963 139.145C84.5367 141.826 86.0686 144.443 87.7919 146.804C89.5153 149.23 91.4939 151.464 93.7279 153.443C100.238 159.315 109.047 162.953 117.855 162.953C126.919 162.698 130.365 157.911 128.259 149.102C127.94 147.698 127.429 146.23 126.727 145.017C126.344 144.507 127.301 143.932 127.684 144.571Z" fill="black"/>
<path d="M152.385 67.9132C153.534 73.2747 152.641 76.8491 152.13 91.6572C151.619 106.21 147.407 126.763 142.237 131.933C138.279 135.826 125.578 138.89 114.28 136.018C108.536 134.55 103.685 131.231 99.7273 128.869C94.7487 125.869 90.4084 116.614 86.834 110.678C84.0255 106.019 84.2809 111.635 80.6427 107.614C75.6002 102.125 69.5366 91.0828 72.5365 71.5514C77.3874 39.8927 102.472 36.1906 121.046 39.7012C139.747 43.2117 149.322 53.8072 152.385 67.9132Z" fill="white"/>
<path d="M83.8345 113.231C82.3665 110.805 80.4516 108.635 78.7283 106.338C76.1752 102.827 74.2603 98.8058 72.9838 94.657C67.4307 76.9128 70.8136 53.6793 87.6004 43.2115C102.855 33.5097 132.472 37.0202 144.854 50.2965C149.514 55.0836 152.514 61.3387 153.79 67.8492C153.854 68.2321 154.045 68.9343 154.109 69.3172C154.173 69.6364 154.365 70.0193 154.301 70.4023C154.173 71.8065 153.918 73.2107 153.79 74.615C152.833 83.1041 153.088 91.7847 152.003 100.274C151.045 109.21 149.769 118.146 147.088 126.762C146.258 129.379 144.663 131.741 142.556 133.464C137.833 137.422 131.642 138.762 125.706 139.017C113.834 139.592 101.77 135.379 94.8768 125.358C94.6215 124.975 95.1321 124.528 95.4512 124.911C101.196 131.103 108.983 135.06 117.28 135.954C126.472 137.039 140.322 136.209 144.344 126.38C149.003 112.465 151.428 97.7207 151.684 83.1041C151.684 79.5297 151.492 75.9553 151.492 72.3171C151.492 71.8703 151.556 70.8491 151.556 70.4023C151.556 70.3385 151.556 70.4023 151.556 70.4023C151.556 70.4661 151.556 70.4661 151.556 70.4023C151.045 69.1257 150.854 67.7215 150.471 66.445C149.067 61.1472 146.514 56.1048 142.875 52.0836C130.812 38.5521 103.94 35.1692 88.8769 45.3179C76.9411 53.2325 73.7497 68.4236 72.9199 81.8275C72.2178 91.8485 75.1539 101.678 82.7495 108.571L85.7494 111.699C87.0259 113.103 84.8558 114.763 83.8345 113.231Z" fill="black"/>
<path d="M91.3666 92.9336C91.3666 92.9336 89.388 83.3594 80.0691 84.5083C72.0267 85.5296 69.2183 104.806 87.4731 110.167" fill="white"/>
<path d="M86.6427 101.806C85.1746 100.976 84.1534 99.5719 84.0896 97.8485C84.1534 96.5719 84.3449 95.1039 84.0257 93.8273C83.8342 92.6146 82.5577 92.2955 81.6003 92.3593C80.579 92.5508 79.9407 93.8273 79.7492 94.8486C79.7492 94.9124 79.6854 95.1039 79.6854 95.1677C79.6216 95.4869 79.111 95.4869 78.9833 95.1677C78.1535 92.6784 80.0046 89.9338 82.6853 90.253C86.4512 90.5083 86.9618 94.4656 86.2597 97.4655C85.8767 98.7421 86.3874 99.891 87.0895 100.976L87.2171 101.168C87.5363 101.551 87.0256 102.061 86.6427 101.806Z" fill="black"/>
<path d="M137.706 86.1678C138.663 90.6996 140.45 94.9123 142.684 98.8696C144.663 103.721 139.557 108.316 135.025 108.125C134.514 108.125 134.451 107.423 134.897 107.295C137.77 106.401 140.387 104.486 140.833 101.55C141.025 100.657 140.77 99.8909 140.323 99.1249C138.216 95.1676 136.94 90.6358 137.259 86.1678C137.259 85.8487 137.706 85.8487 137.706 86.1678Z" fill="black"/>
<path d="M91.0472 92.9976C89.5792 89.2317 86.3878 85.6574 82.1113 85.7212C81.7283 85.6574 81.0901 85.785 80.7071 85.785C79.622 85.8488 78.7284 86.2318 77.8987 86.9977C73.8137 91.0827 74.5158 98.2953 77.8348 102.827C78.9837 104.423 80.4518 105.827 82.1113 106.976C83.7708 108.125 85.6219 109.018 87.6005 109.784C88.0473 109.912 87.8558 110.614 87.409 110.55C83.1326 109.657 79.0476 107.55 76.2391 104.04C71.8988 98.8059 71.0052 90.0615 76.1753 84.9553C77.3242 83.934 78.9199 83.1681 80.5156 83.1681C81.0262 83.1681 81.7922 83.0404 82.3028 83.1681C84.9836 83.2957 87.5367 84.6361 89.1962 86.7424C90.6643 88.5296 91.494 90.6998 91.7494 92.8699C91.7494 93.2529 91.1749 93.3806 91.0472 92.9976Z" fill="black"/>
<path d="M131.386 114.252C131.45 115.273 130.684 117.061 129.28 118.337C122.067 113.933 118.812 116.231 118.812 116.231C116.259 112.337 116.833 107.04 123.025 111.061C127.301 113.869 129.982 114.316 131.386 114.252Z" fill="black"/>
<path d="M129.216 118.401C127.684 119.741 125.386 120.571 122.259 119.295C120.791 118.72 119.642 117.571 118.748 116.295C118.812 116.295 122.003 113.997 129.216 118.401Z" fill="white"/>
<path d="M132.599 114.061C132.599 114.061 129.918 115.529 123.025 111.125C114.791 105.827 116.45 116.933 122.259 119.295C128.322 121.784 131.45 116.359 131.386 114.316" stroke="black" stroke-width="0.517542" stroke-miterlimit="10" stroke-linecap="round" stroke-linejoin="round"/>
<path d="M118.812 116.295C118.812 116.295 122.068 113.997 129.28 118.401" stroke="black" stroke-width="0.517542" stroke-miterlimit="10" stroke-linecap="round" stroke-linejoin="round"/>
<path d="M113.898 92.6783C112.366 92.6145 111.217 91.3379 111.345 89.8061L111.408 88.0189C111.472 86.487 112.749 85.3381 114.281 85.4657C115.813 85.5296 116.962 86.8061 116.834 88.338L116.77 90.1252C116.706 91.5932 115.43 92.7421 113.898 92.6783Z" fill="black"/>
<path d="M140.769 93.6359C139.365 93.5721 138.28 92.3593 138.343 90.9551L138.407 89.2956C138.471 87.8914 139.684 86.8063 141.088 86.8701C142.492 86.9339 143.577 88.1467 143.514 89.5509L143.45 91.2104C143.386 92.6146 142.173 93.6997 140.769 93.6359Z" fill="black"/>
<path d="M119.642 89.2318C117.536 87.8275 115.238 86.8701 112.685 87.3807C111.855 87.5084 111.025 87.7637 110.515 88.3382C110.323 88.5935 109.876 88.5296 109.876 88.1467C109.94 86.8701 111.025 86.0404 112.047 85.5297C114.025 84.5085 116.77 84.7 118.557 86.0404C119.195 86.4233 121.366 88.785 120.217 89.2956C119.961 89.4232 119.834 89.3594 119.642 89.2318Z" fill="black"/>
<path d="M137.897 89.5507C137.897 86.8699 141.216 85.9125 143.259 86.8699C144.407 87.3805 145.237 88.4018 145.556 89.6145C145.684 89.9975 145.11 90.3166 144.854 89.9975C143.769 88.7209 141.918 88.0826 140.45 88.8486C140.003 89.1039 139.939 89.2954 139.812 89.5507C139.812 90.8272 137.961 90.7634 137.897 89.5507Z" fill="black"/>
<path d="M122.706 78.7001C124.046 79.1469 125.387 77.9341 125.132 76.4661C125.004 75.7001 124.685 74.9342 124.046 74.3598C122.132 72.6364 114.217 71.1045 109.43 73.3385C105.217 75.381 116.579 76.6576 122.706 78.7001Z" fill="black"/>
<path d="M141.791 79.7211C140.706 80.1041 139.557 78.9552 139.748 77.6148C139.812 76.9127 140.067 76.2106 140.578 75.7C142.11 74.1681 147.344 72.9554 150.663 75.317C153.535 77.2957 146.769 77.8701 141.791 79.7211Z" fill="black"/>
<path d="M160.368 124.273C152.964 105.38 153.922 99.4444 155.709 83.5512C159.283 52.2754 147.986 44.6799 142.05 41.68C116.774 28.8505 87.7959 35.1057 76.8813 52.7222C70.0517 63.7006 69.7964 72.5089 65.9667 85.1469C59.3924 106.785 43.5631 116.359 48.4778 138.507C55.2436 160.336 98.5191 169.974 97.6893 147.252C97.1787 133.529 86.9023 131.678 86.7109 112.721C86.7109 111.444 86.7747 110.231 86.9023 109.082C69.2858 103.529 72.0942 84.6362 80.0727 83.615C85.6258 82.9129 88.5619 86.0405 90.0299 88.6574C90.1576 89.0404 90.3491 89.3595 90.5405 89.7425C91.8171 91.9126 106.881 87.8276 118.37 80.7427C125.072 76.5939 135.539 69.4452 138.412 61.5943C138.539 61.2752 140.582 71.1047 150.156 83.8703C149.709 91.4658 151.624 110.423 141.922 126.061C134.901 137.486 126.093 138.507 126.093 138.507C126.093 146.103 139.56 145.72 145.177 146.996C152.198 148.528 159.156 152.741 159.156 152.741C159.156 152.741 167.198 141.699 160.368 124.273Z" fill="black"/>
<path d="M141.408 100.912C141.408 100.912 142.174 105.253 147.216 107.423C148.493 107.933 149.833 107.104 149.833 105.699C149.769 105.699 141.727 101.423 141.408 100.912Z" fill="black"/>
<path d="M101.962 100.912C101.962 100.912 104.324 106.274 111.408 107.55C118.493 108.891 124.94 103.784 127.94 95.2314C127.94 95.2314 125.514 103.146 115.813 104.614C106.238 106.21 101.962 100.912 101.962 100.912Z" fill="black"/>
<path d="M129.344 88.9764C129.153 98.1038 121.813 105.444 112.94 105.444C104.068 105.444 96.9834 98.1038 96.9834 88.9764C97.0472 79.7851 104.387 72.2534 113.387 72.2534C122.387 72.2534 129.6 79.7851 129.344 88.9764Z" stroke="black" stroke-width="0.517542" stroke-miterlimit="10" stroke-linecap="round" stroke-linejoin="round"/>
<path d="M138.089 86.8702C139.11 78.6363 144.472 72.1897 150.791 72.1897C157.62 72.1897 162.854 79.7214 162.471 88.9127C162.088 98.0401 156.344 105.38 149.642 105.38C147.152 105.38 144.918 104.423 143.067 102.7" stroke="black" stroke-width="0.517542" stroke-miterlimit="10" stroke-linecap="round" stroke-linejoin="round"/>
<path d="M97.1749 87.1892H88.1113" stroke="black" stroke-width="0.517542" stroke-miterlimit="10" stroke-linecap="round" stroke-linejoin="round"/>
<path d="M129.408 87.1892C129.408 87.1892 137.004 84.2531 137.961 87.1892" stroke="black" stroke-width="0.517542" stroke-miterlimit="10" stroke-linecap="round" stroke-linejoin="round"/>
</g>
</svg>
