<svg width="260" height="252" viewBox="0 0 260 252" fill="none" xmlns="http://www.w3.org/2000/svg">
<path d="M59.6321 179.678C115.343 251.829 183.057 229.754 202.08 205.985C267.228 124.583 200.975 25.6542 160.053 42.6668C115.553 61.1671 101.946 44.9887 76.1665 48.1539C47.5526 51.6671 0.554201 103.167 59.6321 179.678Z" fill="#C4DD60"/>
<mask id="mask0_228_695" style="mask-type:alpha" maskUnits="userSpaceOnUse" x="57" y="30" width="196" height="196">
<circle cx="155.035" cy="127.883" r="97.3368" fill="#D9D9D9"/>
</mask>
<g mask="url(#mask0_228_695)">
<path d="M208.396 208.244C207.95 208.563 207.439 208.882 206.992 209.201C206.482 209.52 206.035 209.84 205.524 210.095C205.077 210.35 204.694 210.605 204.248 210.861C204.184 210.925 204.12 210.925 204.056 210.988C202.588 211.882 201.056 212.712 199.524 213.478C199.078 213.733 198.567 213.988 198.12 214.18C198.12 214.18 198.056 214.244 197.993 214.244C197.482 214.499 196.971 214.754 196.461 215.01C195.439 215.52 194.354 215.967 193.333 216.414C192.822 216.669 192.248 216.861 191.737 217.052C191.227 217.244 190.652 217.499 190.142 217.69C189.631 217.882 189.057 218.137 188.546 218.329C188.546 218.329 188.546 218.329 188.482 218.329C187.971 218.52 187.397 218.712 186.886 218.903C185.738 219.286 184.525 219.669 183.376 220.052C182.993 220.18 182.546 220.307 182.163 220.435C180.95 220.818 179.738 221.137 178.525 221.392C178.078 221.52 177.631 221.584 177.121 221.712C175.972 221.967 174.759 222.222 173.61 222.478C173.355 222.541 173.163 222.541 172.908 222.605C172.525 222.669 172.078 222.733 171.695 222.797C171.121 222.86 170.61 222.988 170.036 223.052C169.781 223.116 169.525 223.116 169.27 223.18C168.951 223.243 168.568 223.307 168.185 223.307C167.164 223.435 166.078 223.563 165.057 223.69C164.738 223.754 164.355 223.754 164.036 223.818H163.972C163.525 223.882 163.079 223.882 162.632 223.946C162.185 224.009 161.738 224.009 161.291 224.009C161.036 224.009 160.717 224.073 160.462 224.073C159.951 224.073 159.504 224.137 159.057 224.137C158.419 224.137 157.845 224.201 157.206 224.201C156.568 224.201 155.994 224.201 155.355 224.201C154.909 224.201 154.462 224.201 154.015 224.201C127.08 223.818 102.889 212.393 85.5913 194.266C85.5913 194.266 85.5913 194.202 85.5275 194.202C83.6126 192.478 85.2722 183.287 92.9954 177.479C102.697 170.138 125.931 165.543 125.931 165.543C125.931 165.543 134.93 164.075 168.312 171.032C187.844 175.117 202.716 181.053 211.013 197.138C212.737 200.457 214.46 205.563 208.396 208.244Z" fill="white"/>
<path d="M168.504 170.33C180.759 172.819 193.844 175.5 203.928 183.606C207.311 186.351 209.545 190.372 211.396 194.265C212.29 196.18 213.183 198.159 213.886 200.265C214.268 201.669 214.843 203.265 214.524 204.925C214.46 205.371 214.077 205.946 213.758 206.265C212.29 207.733 210.694 208.627 209.098 209.775C199.716 216.286 188.929 220.882 177.759 223.307C152.866 228.732 125.93 224.52 104.037 211.435C96.761 207.031 90.0591 201.669 84.3146 195.35C83.6763 194.584 83.6763 193.308 83.6763 192.478C83.7401 190.563 84.2507 188.712 84.889 186.989C86.4209 183.032 88.3995 179.074 91.7824 176.33C94.2079 174.67 96.8249 173.266 99.5056 172.117C107.931 168.543 116.803 166.053 125.93 165.032C126.696 164.968 126.824 166.053 126.058 166.181C117.314 167.968 108.633 170.649 100.527 174.287C97.5908 175.755 94.4632 177.032 92.1016 179.329C89.8676 181.755 88.2719 184.755 86.9953 187.819C86.1656 189.67 85.5911 192.606 85.8464 194.074C89.8676 198.861 94.5909 203.074 99.6971 206.712C127.654 226.243 170.099 227.52 199.843 211.244C202.524 209.775 205.141 208.116 207.63 206.393C208.843 205.563 210.12 204.861 211.077 203.903C211.141 203.839 211.077 203.903 211.077 203.967C211.077 204.031 211.013 204.095 211.013 204.095C211.077 203.329 210.822 202.308 210.503 201.286C209.354 197.584 207.503 193.691 205.524 190.308C202.396 185.266 197.099 182.074 191.737 179.521C188.035 177.798 184.142 176.457 180.184 175.181C176.227 173.904 172.206 172.819 168.185 171.862C167.163 171.606 167.483 170.138 168.504 170.33Z" fill="black"/>
<path d="M229.588 247.817H68.1665C68.1665 247.817 77.6769 227.775 81.8895 204.925C84.8256 189.096 86.9958 179.84 95.2296 174.734C101.038 171.16 113.484 167.458 118.846 165.543C122.484 164.266 123.25 165.352 125.867 164.649C125.867 164.969 125.931 165.224 125.931 165.543C125.931 165.543 132.824 186.032 150.76 193.308C165.377 199.244 174.057 195.287 175.398 188.713C176.227 184.5 173.61 177.607 172.27 175.373C171.504 174.734 170.994 173.777 170.738 172.819L170.228 170.713C171.44 170.458 172.589 170.139 173.738 169.756C174.121 169.628 174.44 169.5 174.823 169.373C182.163 171.288 197.865 177.479 204.822 183.862C207.567 186.415 214.077 199.18 218.29 217.691C223.141 238.69 229.588 247.817 229.588 247.817Z" fill="black"/>
<path d="M231.055 248.583C182.993 248.902 115.526 249.668 68.2298 249.477C67.0809 249.477 66.2511 248.2 66.7618 247.179C72.4425 234.669 76.9104 221.328 79.7827 207.861C80.1018 206.137 80.8039 202.754 81.1231 201.031C82.5911 194.01 83.74 187.053 87.5059 180.606C88.7824 178.5 90.442 176.521 92.4206 174.925C94.3355 173.394 96.5695 172.245 98.8034 171.223C105.952 168.16 113.165 165.734 120.505 163.5C122.228 163.117 123.952 163.564 125.611 163.181C126.569 162.926 127.59 163.628 127.654 164.649L127.718 165.543L125.994 163.947C126.696 163.947 127.335 164.394 127.526 165.032C128.037 166.5 128.739 168.032 129.441 169.5C131.611 173.904 134.292 178.053 137.547 181.691C141.824 186.542 147.185 190.372 153.313 192.542C159.504 194.84 170.546 196.818 173.61 189.414C174.121 188.074 174.057 186.67 173.865 185.202C173.418 182.202 172.397 179.01 170.929 176.33L171.248 176.713C170.227 175.372 169.844 173.777 169.972 172.245V170.904V170.713C169.972 170.585 170.099 170.457 170.227 170.457C170.993 170.202 171.695 169.883 172.461 169.628C173.163 169.309 173.865 168.989 174.567 168.606C174.759 168.479 174.95 168.543 175.142 168.606C179.354 169.692 183.376 171.16 187.397 172.819C193.397 175.308 199.333 178.117 204.503 182.138C206.354 183.478 207.694 185.457 208.779 187.436C210.949 191.265 212.673 195.223 214.205 199.244C216.885 206.265 218.864 213.541 220.587 220.882C222.758 228.988 225.374 237.03 229.396 244.434C229.842 245.2 230.289 245.966 230.736 246.732L230.864 246.86V246.924C231.247 247.243 231.311 248.136 231.055 248.583ZM228.119 247.051C227.8 247.37 227.864 248.264 228.119 248.583V248.519L227.991 248.328C223.523 240.988 220.715 232.754 218.417 224.52C217.268 220.499 216.439 216.158 215.29 212.073C213.056 204.031 210.311 195.925 206.29 188.585C205.588 187.372 204.822 186.032 203.864 185.074C202.013 183.351 199.843 181.947 197.673 180.606C194.099 178.5 190.269 176.649 186.376 175.053C182.482 173.457 178.525 171.989 174.504 170.904L175.461 170.84C173.738 170.968 172.078 171.032 170.419 170.968L170.674 170.585C171.057 171.223 171.504 172.309 171.887 172.883C172.333 173.457 172.844 173.904 173.418 174.16C173.546 174.287 173.674 174.415 173.738 174.542C176.035 178.947 178.333 185.521 176.674 190.436C172.844 200.074 160.015 198.542 152.164 195.542C145.589 193.308 139.653 189.031 135.058 183.798C130.462 178.564 126.824 172.564 124.399 166.053L125.93 167.138C125.037 167.138 124.335 166.5 124.271 165.607L124.207 164.777L126.25 166.245C125.611 166.436 124.845 166.5 124.143 166.564C122.356 166.5 121.143 166.436 119.484 167.075C117.314 167.841 115.08 168.606 112.846 169.309C108.441 170.777 104.101 172.309 99.9524 174.16C90.5058 177.925 87.7612 185.457 85.591 194.84C84.5698 199.18 83.74 204.095 82.8464 208.499C79.9103 222.286 75.4424 235.626 69.634 248.519L68.166 246.158C114.441 246.158 181.205 246.604 228.119 247.051Z" fill="black"/>
<path d="M145.271 200.01C123.25 190.116 114.697 172.436 116.357 167.649C116.357 167.649 116.357 167.585 116.421 167.521C117.57 165.159 119.421 163.245 121.718 161.904C122.995 161.138 124.399 160.436 125.548 160.053C142.973 155.713 166.079 163.053 173.866 169.755C176.674 173.138 179.547 176.521 180.632 185.457C182.164 198.35 168.058 210.286 145.271 200.01Z" fill="white"/>
<path d="M144.952 200.712C133.909 195.733 123.569 187.946 117.697 177.159C116.548 174.925 115.527 172.627 115.208 170.011C115.144 169.117 115.08 168.032 115.527 167.138C116.867 164.457 119.293 162.351 121.974 161.075C124.016 159.99 126.25 159.224 128.484 158.521C131.675 157.947 134.867 157.756 138.122 157.819C148.781 158.138 159.377 160.947 168.823 165.862C169.525 166.245 170.228 166.628 170.93 167.074C171.185 167.202 171.376 167.394 171.696 167.33C172.015 167.266 172.27 167.394 172.525 167.521C173.291 167.968 173.93 168.542 174.632 169.181C176.355 171.287 178.078 173.521 179.227 176.074C180.376 178.627 181.014 181.372 181.397 184.053C182.419 189.542 180.568 195.669 176.291 199.435C167.611 207.222 154.59 205.116 144.952 200.712ZM145.526 199.371C152.675 202.499 160.845 204.478 168.44 202.052C174.568 200.201 179.61 194.648 179.802 188.138C179.866 184.308 178.972 180.287 177.44 176.776C176.61 174.606 174.313 171.862 173.164 170.457C172.461 169.883 171.696 169.436 171.057 168.862C170.993 168.734 170.93 168.606 170.866 168.479C170.738 168.16 170.483 168.096 170.291 167.904C169.653 167.521 168.951 167.138 168.249 166.755C162.696 163.883 156.568 162.223 150.441 161.011C143.292 159.67 135.952 159.287 128.739 160.309C127.718 160.436 126.633 160.309 125.612 160.564C124.846 160.883 123.442 161.521 122.548 162.16C120.25 163.5 118.527 165.479 117.314 167.84L117.25 167.904C117.25 167.968 117.186 168.096 117.186 168.16C116.867 170.84 118.144 173.585 119.357 176.074C120.442 178.117 121.718 180.095 123.186 182.01C129.058 189.606 136.909 195.478 145.526 199.371Z" fill="black"/>
<path d="M174.503 187.308C173.163 193.883 164.482 197.84 149.866 191.904C134.675 185.777 128.1 171.16 126.441 166.82C135.441 149.969 129.186 138.288 129.186 138.288C149.93 136.501 168.057 160.756 168.057 160.756L170.865 172.756C171.121 173.777 171.631 174.67 172.397 175.309C173.738 177.67 175.333 183.096 174.503 187.308Z" fill="white"/>
<path d="M126.122 167.011C127.335 165.16 128.101 162.99 128.612 160.884C129.569 156.48 129.888 152.012 129.952 147.544V145.884C129.761 144.225 129.186 142.501 128.548 140.969C127.718 138.927 130.718 137.65 131.675 139.693C131.803 139.948 131.803 140.395 131.803 140.65C131.995 149.331 132.378 160.501 126.888 167.713C126.505 168.096 125.739 167.522 126.122 167.011Z" fill="black"/>
<path d="M168.759 160.628C169.717 161.203 170.036 161.969 170.163 162.735C170.546 164.267 170.419 165.926 170.802 167.522C171.121 169.054 172.078 170.522 172.333 172.117C172.653 173.777 173.61 177.288 173.993 179.011C174.121 179.394 173.865 179.841 173.419 179.905C173.163 179.968 172.972 179.905 172.78 179.777C171.95 179.075 171.568 178.373 171.057 177.479C170.227 175.947 169.653 174.543 169.142 172.82C168.695 171.288 168.887 169.628 168.504 168.032C168.185 166.501 167.291 165.033 166.972 163.437C166.78 162.671 166.717 161.841 167.291 160.884C167.674 160.501 168.312 160.373 168.759 160.628Z" fill="black"/>
<path d="M173.355 177.479C161.164 176.84 151.207 173.011 141.505 155.713C149.675 162.926 159.313 165.671 169.462 166.947L170.802 172.819C171.057 173.841 172.589 176.84 173.355 177.479Z" fill="black"/>
<path d="M172.844 175.117C175.014 179.202 176.291 184.308 174.95 188.84C173.929 192.032 170.993 194.393 167.802 195.287C160.398 197.265 151.845 194.138 145.27 190.627C137.164 186.096 131.164 178.5 127.335 170.202C127.079 169.564 127.973 169.053 128.356 169.692C129.696 172.373 131.228 174.989 132.952 177.351C134.675 179.777 136.654 182.011 138.888 183.989C145.398 189.861 154.206 193.5 163.015 193.5C172.078 193.244 175.525 188.457 173.419 179.649C173.099 178.245 172.589 176.777 171.887 175.564C171.504 175.053 172.461 174.479 172.844 175.117Z" fill="black"/>
<path d="M197.546 98.4596C198.694 103.821 197.801 107.395 197.29 122.204C196.78 136.756 192.567 157.309 187.397 162.479C183.44 166.373 170.738 169.436 159.44 166.564C153.696 165.096 148.845 161.777 144.887 159.415C139.909 156.415 135.569 147.16 131.994 141.224C129.186 136.565 129.441 142.182 125.803 138.161C120.76 132.671 114.697 121.629 117.697 102.098C122.548 70.439 147.632 66.737 166.206 70.2476C184.908 73.7581 194.482 84.3536 197.546 98.4596Z" fill="white"/>
<path d="M128.995 143.778C127.527 141.352 125.612 139.182 123.888 136.884C121.335 133.374 119.42 129.352 118.144 125.204C112.591 107.459 115.974 84.226 132.761 73.7582C148.015 64.0563 177.632 67.5669 190.014 80.8431C194.674 85.6302 197.674 91.8853 198.95 98.3958C199.014 98.7788 199.206 99.4809 199.269 99.8639C199.333 100.183 199.525 100.566 199.461 100.949C199.333 102.353 199.078 103.757 198.95 105.162C197.993 113.651 198.248 122.331 197.163 130.82C196.206 139.756 194.929 148.692 192.248 157.309C191.419 159.926 189.823 162.288 187.716 164.011C182.993 167.968 176.802 169.309 170.866 169.564C158.994 170.139 146.93 165.926 140.037 155.905C139.782 155.522 140.292 155.075 140.611 155.458C146.356 161.649 154.143 165.607 162.441 166.5C171.632 167.585 185.483 166.756 189.504 156.926C194.163 143.012 196.589 128.267 196.844 113.651C196.844 110.076 196.652 106.502 196.652 102.864C196.652 102.417 196.716 101.396 196.716 100.949C196.716 100.885 196.716 100.949 196.716 100.949C196.716 101.013 196.716 101.013 196.716 100.949C196.206 99.6724 196.014 98.2682 195.631 96.9916C194.227 91.6939 191.674 86.6514 188.036 82.6303C175.972 69.0987 149.101 65.7158 134.037 75.8645C122.101 83.7792 118.91 98.9703 118.08 112.374C117.378 122.395 120.314 132.225 127.91 139.118L130.91 142.246C132.186 143.65 130.016 145.309 128.995 143.778Z" fill="black"/>
<path d="M136.527 123.48C136.527 123.48 134.548 113.906 125.229 115.055C117.187 116.076 114.378 135.352 132.633 140.714" fill="white"/>
<path d="M131.803 132.352C130.335 131.522 129.314 130.118 129.25 128.395C129.314 127.118 129.505 125.65 129.186 124.374C128.994 123.161 127.718 122.842 126.76 122.906C125.739 123.097 125.101 124.374 124.909 125.395C124.909 125.459 124.846 125.65 124.846 125.714C124.782 126.033 124.271 126.033 124.143 125.714C123.314 123.225 125.165 120.48 127.845 120.799C131.611 121.055 132.122 125.012 131.42 128.012C131.037 129.288 131.548 130.437 132.25 131.522L132.377 131.714C132.696 132.097 132.186 132.608 131.803 132.352Z" fill="black"/>
<path d="M182.867 116.714C183.824 121.246 185.611 125.459 187.845 129.416C189.824 134.267 184.718 138.863 180.186 138.671C179.675 138.671 179.611 137.969 180.058 137.842C182.93 136.948 185.547 135.033 185.994 132.097C186.186 131.203 185.93 130.437 185.483 129.672C183.377 125.714 182.101 121.182 182.42 116.714C182.42 116.395 182.867 116.395 182.867 116.714Z" fill="black"/>
<path d="M136.207 123.544C134.739 119.778 131.547 116.204 127.271 116.268C126.888 116.204 126.25 116.331 125.867 116.331C124.782 116.395 123.888 116.778 123.058 117.544C118.973 121.629 119.675 128.842 122.995 133.373C124.143 134.969 125.611 136.373 127.271 137.522C128.931 138.671 130.782 139.565 132.76 140.331C133.207 140.458 133.016 141.161 132.569 141.097C128.292 140.203 124.207 138.097 121.399 134.586C117.058 129.352 116.165 120.608 121.335 115.502C122.484 114.48 124.08 113.714 125.675 113.714C126.186 113.714 126.952 113.587 127.462 113.714C130.143 113.842 132.696 115.182 134.356 117.289C135.824 119.076 136.654 121.246 136.909 123.416C136.909 123.799 136.335 123.927 136.207 123.544Z" fill="black"/>
<path d="M178.015 145.054C173.93 148.947 166.207 145.82 164.164 141.097C163.909 140.522 164.547 140.011 165.058 140.267C166.143 140.841 167.1 141.416 168.121 141.862C171.058 143.203 174.121 144.288 177.376 143.969C178.015 143.841 178.462 144.607 178.015 145.054Z" fill="black"/>
<path d="M168.44 109.949C169.844 110.14 170.929 108.672 170.419 107.268C170.163 106.502 169.717 105.8 169.014 105.353C166.844 104.013 158.738 103.885 154.462 106.949C150.632 109.757 162.057 109.055 168.44 109.949Z" fill="black"/>
<path d="M186.12 110.65C184.971 110.65 184.269 109.182 184.844 107.97C185.163 107.331 185.61 106.757 186.248 106.438C188.227 105.48 193.524 106.055 195.886 109.31C197.992 112.182 191.418 110.587 186.12 110.65Z" fill="black"/>
<path d="M166.078 118.182C162.823 116.778 159.121 117.161 155.738 117.927C155.355 118.054 155.099 117.544 155.418 117.288C158.355 114.863 163.908 114.544 166.269 117.863C166.461 117.991 166.333 118.246 166.078 118.182Z" fill="black"/>
<path d="M191.163 119.523C189.631 118.438 187.397 118.629 185.61 118.821C184.972 118.885 184.333 119.012 183.631 119.204C183.44 119.268 183.248 118.948 183.376 118.821L183.503 118.693C185.099 117.034 187.588 116.651 189.759 117.48C190.525 117.8 191.29 118.246 191.673 119.14C191.865 119.459 191.418 119.778 191.163 119.523Z" fill="black"/>
<path d="M197.724 116.778C197.788 116.459 197.852 116.14 197.852 115.821C198.49 111.799 198.937 108.097 199.192 104.587C199.703 97.4381 198.362 84.5448 188.086 76.8216C187.192 76.1195 186.235 75.4812 185.15 74.9068C184.256 74.3961 183.299 73.9493 182.341 73.5025C173.98 69.9282 160.512 65.6517 147.172 67.9495C142.066 68.7793 136.96 70.6303 132.172 73.7578C132.109 73.7578 132.109 73.8217 132.109 73.8217C120.492 81.481 116.407 93.6084 114.237 105.034C113.535 108.672 113.024 112.31 112.577 115.629C112.322 117.352 112.067 119.012 111.811 120.544C110.854 126.352 107.662 131.522 104.28 135.607C104.088 135.799 103.897 136.054 103.705 136.246C100.961 139.373 98.2159 141.862 96.3011 143.33C96.1734 143.394 96.0458 143.522 95.9819 143.586C100.195 156.862 116.279 166.819 131.151 169.819C133.321 160.309 134.789 150.671 132.938 140.777C132.428 140.586 132.172 140.394 132.172 140.267C114.556 134.714 117.364 115.821 125.343 114.799C128.215 114.416 130.321 115.118 131.981 116.14C134.215 117.799 136.64 121.948 136.64 123.161C136.768 120.352 137.981 116.459 139.449 116.331C140.981 116.204 142.513 115.884 143.981 115.31C151.321 112.757 158.023 105.863 163.959 99.7359C172.129 91.3106 178.767 84.1618 183.49 91.2467C183.746 91.6297 184.001 92.0127 184.192 92.3956C189.809 92.268 192.426 95.5232 193.767 98.9061C193.767 98.9061 193.767 98.9061 193.767 98.9699C194.852 101.842 194.979 104.778 195.107 105.544C195.107 105.672 195.107 105.736 195.171 105.736C195.043 108.289 194.724 112.629 194.66 118.246C194.66 120.799 194.915 125.905 194.724 128.841C194.66 129.735 194.596 130.629 194.532 131.458C194.469 131.905 194.469 132.352 194.405 132.735C194.341 133.118 194.341 133.565 194.277 134.012C194.213 134.65 194.15 135.288 194.086 135.99C194.022 136.565 193.958 137.139 193.894 137.714V137.777C193.83 138.224 193.767 138.607 193.703 138.99C192.745 144.096 191.277 149.522 189.171 152.777C184.958 159.351 181.639 164.904 175.576 167.713C169.576 170.457 162.746 171.032 162.746 171.032C162.746 171.032 164.661 172.245 169.193 172.5C173.661 172.755 176.98 171.415 180.299 171.989C187.384 173.202 199.83 173.202 199.83 173.202C209.149 148.692 193.384 147.543 197.724 116.778Z" fill="black"/>
<path d="M186.568 131.458C186.568 131.458 187.334 135.799 192.377 137.969C193.653 138.48 194.994 137.65 194.994 136.246C194.93 136.246 186.887 131.969 186.568 131.458Z" fill="black"/>
<path d="M147.123 131.459C147.123 131.459 149.484 136.82 156.569 138.097C163.654 139.437 170.101 134.331 173.101 125.778C173.101 125.778 170.675 133.693 160.973 135.161C151.399 136.756 147.123 131.459 147.123 131.459Z" fill="black"/>
<path d="M174.505 119.523C174.314 128.65 166.974 135.99 158.102 135.99C149.229 135.99 142.145 128.65 142.145 119.523C142.208 110.332 149.549 102.8 158.548 102.8C167.548 102.8 174.761 110.332 174.505 119.523Z" stroke="black" stroke-width="0.517542" stroke-miterlimit="10" stroke-linecap="round" stroke-linejoin="round"/>
<path d="M183.25 117.416C184.271 109.182 189.632 102.736 195.951 102.736C202.781 102.736 208.015 110.268 207.632 119.459C207.249 128.586 201.504 135.926 194.802 135.926C192.313 135.926 190.079 134.969 188.228 133.246" stroke="black" stroke-width="0.517542" stroke-miterlimit="10" stroke-linecap="round" stroke-linejoin="round"/>
<path d="M142.336 117.735H133.272" stroke="black" stroke-width="0.517542" stroke-miterlimit="10" stroke-linecap="round" stroke-linejoin="round"/>
<path d="M174.569 117.736C174.569 117.736 182.164 114.799 183.122 117.736" stroke="black" stroke-width="0.517542" stroke-miterlimit="10" stroke-linecap="round" stroke-linejoin="round"/>
</g>
</svg>
