<svg width="260" height="252" viewBox="0 0 260 252" fill="none" xmlns="http://www.w3.org/2000/svg">
<path d="M59.6321 179.376C115.343 251.526 183.057 229.452 202.08 205.682C267.228 124.28 200.975 25.3517 160.053 42.3643C115.553 60.8646 101.946 44.6862 76.1665 47.8514C47.5526 51.3646 0.554201 102.865 59.6321 179.376Z" fill="#C4DD60"/>
<mask id="mask0_300_3326" style="mask-type:alpha" maskUnits="userSpaceOnUse" x="57" y="30" width="196" height="195">
<circle cx="155.035" cy="127.581" r="97.3368" fill="#D9D9D9"/>
</mask>
<g mask="url(#mask0_300_3326)">
<path d="M208.397 207.941C207.95 208.26 207.44 208.579 206.993 208.899C206.482 209.218 206.035 209.537 205.525 209.792C205.078 210.047 204.695 210.303 204.248 210.558C204.184 210.622 204.12 210.622 204.057 210.686C202.589 211.579 201.057 212.409 199.525 213.175C199.078 213.43 198.567 213.686 198.121 213.877C198.121 213.877 198.057 213.941 197.993 213.941C197.482 214.196 196.972 214.452 196.461 214.707C195.44 215.218 194.355 215.664 193.334 216.111C192.823 216.366 192.248 216.558 191.738 216.749C191.227 216.941 190.653 217.196 190.142 217.388C189.632 217.579 189.057 217.834 188.546 218.026C188.546 218.026 188.546 218.026 188.483 218.026C187.972 218.217 187.398 218.409 186.887 218.6C185.738 218.983 184.525 219.366 183.376 219.749C182.993 219.877 182.547 220.005 182.164 220.132C180.951 220.515 179.738 220.834 178.525 221.09C178.079 221.217 177.632 221.281 177.121 221.409C175.972 221.664 174.76 221.919 173.611 222.175C173.355 222.239 173.164 222.239 172.909 222.302C172.526 222.366 172.079 222.43 171.696 222.494C171.121 222.558 170.611 222.685 170.036 222.749C169.781 222.813 169.526 222.813 169.27 222.877C168.951 222.941 168.568 223.005 168.185 223.005C167.164 223.132 166.079 223.26 165.058 223.388C164.739 223.451 164.356 223.451 164.036 223.515H163.973C163.526 223.579 163.079 223.579 162.632 223.643C162.185 223.707 161.739 223.707 161.292 223.707C161.037 223.707 160.717 223.77 160.462 223.77C159.951 223.77 159.505 223.834 159.058 223.834C158.42 223.834 157.845 223.898 157.207 223.898C156.569 223.898 155.994 223.898 155.356 223.898C154.909 223.898 154.462 223.898 154.015 223.898C127.08 223.515 102.889 212.09 85.5918 193.963C85.5918 193.963 85.5918 193.899 85.528 193.899C83.6131 192.176 85.2727 182.984 92.9958 177.176C102.698 169.836 125.931 165.24 125.931 165.24C125.931 165.24 134.931 163.772 168.313 170.729C187.844 174.814 202.716 180.75 211.014 196.835C212.737 200.154 214.461 205.26 208.397 207.941Z" fill="white"/>
<path d="M168.504 170.027C180.759 172.517 193.844 175.197 203.929 183.303C207.312 186.048 209.546 190.069 211.397 193.963C212.29 195.878 213.184 197.856 213.886 199.963C214.269 201.367 214.843 202.963 214.524 204.622C214.46 205.069 214.077 205.643 213.758 205.962C212.29 207.43 210.695 208.324 209.099 209.473C199.716 215.983 188.929 220.579 177.759 223.005C152.866 228.43 125.931 224.217 104.038 211.133C96.7615 206.728 90.0596 201.367 84.315 195.048C83.6768 194.282 83.6768 193.005 83.6768 192.176C83.7406 190.261 84.2512 188.41 84.8895 186.686C86.4214 182.729 88.4 178.772 91.7829 176.027C94.2084 174.368 96.8253 172.963 99.5061 171.814C107.931 168.24 116.804 165.751 125.931 164.73C126.697 164.666 126.825 165.751 126.059 165.878C117.314 167.666 108.634 170.346 100.527 173.985C97.5913 175.453 94.4637 176.729 92.1021 179.027C89.8681 181.452 88.2724 184.452 86.9958 187.516C86.1661 189.367 85.5916 192.303 85.8469 193.771C89.8681 198.558 94.5914 202.771 99.6976 206.409C127.654 225.941 170.1 227.217 199.844 210.941C202.525 209.473 205.142 207.813 207.631 206.09C208.844 205.26 210.12 204.558 211.078 203.601C211.141 203.537 211.078 203.601 211.078 203.665C211.078 203.728 211.014 203.792 211.014 203.792C211.078 203.026 210.822 202.005 210.503 200.984C209.354 197.282 207.503 193.388 205.525 190.005C202.397 184.963 197.099 181.772 191.738 179.218C188.036 177.495 184.142 176.155 180.185 174.878C176.227 173.602 172.206 172.517 168.185 171.559C167.164 171.304 167.483 169.836 168.504 170.027Z" fill="black"/>
<path d="M192.568 183.431C192.568 183.431 182.547 173.027 172.781 170.793C172.781 170.793 174.058 188.346 162.441 187.133C143.675 185.155 125.995 165.24 125.995 165.24C125.995 165.24 114.697 163.836 104.74 171.432C104.74 171.432 104.996 195.878 127.463 205.58C149.867 215.281 181.079 210.494 188.483 204.239C195.823 197.984 194.355 185.538 192.568 183.431Z" fill="white" stroke="black" stroke-width="0.517542" stroke-miterlimit="10" stroke-linecap="round" stroke-linejoin="round"/>
<path d="M91.9747 177.176C91.9747 177.176 88.6557 179.155 85.9111 184.899C83.6133 189.878 82.6558 197.857 80.5495 207.175C75.9539 227.664 72.4434 255.302 72.4434 255.302H218.099C218.099 255.302 219.95 201.367 206.674 185.538C205.27 183.814 199.844 181.134 199.589 181.389C195.312 185.346 194.546 206.154 172.27 207.303C143.995 208.707 109.974 199.771 109.145 194.538C108.379 189.24 91.9747 177.176 91.9747 177.176Z" fill="white" stroke="black" stroke-width="0.517542" stroke-miterlimit="10" stroke-linecap="round" stroke-linejoin="round"/>
<path d="M205.525 256.451C165.441 274.961 99.4428 258.238 99.4428 258.238C99.4428 258.238 98.1025 241.962 102.953 212.665C103.145 211.324 103.336 209.984 103.464 208.771C104.868 195.495 95.3578 182.985 91.9111 177.24C91.9111 175.772 93.1877 174.432 95.1664 173.283C103.081 168.687 114.379 166.006 114.889 166.389C115.783 167.666 116.868 171.304 117.634 172.645C124.783 185.857 127.272 200.027 142.144 202.069C156.824 204.112 170.994 203.793 181.143 201.559C190.908 199.389 184.207 182.091 179.93 174.113C179.739 173.794 179.356 172.772 179.228 172.645C180.696 171.687 199.334 178.325 200.61 183.176C203.419 190.197 203.1 203.92 203.929 210.75C206.738 233.026 205.525 256.451 205.525 256.451Z" fill="black"/>
<path d="M206.865 257.408C205.716 258.174 204.312 258.812 203.035 259.323C178.525 268.833 151.399 267.748 125.74 264.684C116.74 263.472 107.868 261.94 99.0595 259.834C98.3574 259.642 97.8468 259.068 97.8468 258.365C97.2085 244.196 98.7404 230.153 100.783 216.175C101.038 214.324 101.74 210.239 101.868 208.452C102.57 200.856 99.6978 193.516 96.0596 186.942C94.4001 183.942 92.4852 181.07 90.5704 178.006C89.7406 176.219 91.2725 174.24 92.4852 173.155C95.2937 170.921 98.4851 169.708 101.676 168.304C104.804 167.091 107.995 166.006 111.315 165.176C112.527 164.921 113.74 164.538 115.08 164.602C115.4 164.602 116.038 164.921 116.293 165.304C117.697 167.538 118.144 170.027 119.357 172.261C124.91 182.219 127.591 196.963 140.037 200.218C144.76 201.239 149.739 201.622 154.526 201.941C161.866 202.388 169.27 202.324 176.547 201.303C177.76 201.112 178.972 200.92 180.185 200.665C181.27 200.473 182.419 200.218 183.249 199.516C188.036 195.367 183.887 184.389 181.908 179.346C181.142 177.559 180.376 175.836 179.483 174.112C179.291 173.729 179.1 173.219 178.908 172.836C178.908 172.772 178.845 172.708 178.908 172.772L178.972 171.942C179.483 171.368 179.93 171.304 180.568 171.176C182.291 171.176 184.015 171.878 185.674 172.389C189.695 173.729 193.525 175.325 197.163 177.495C198.567 178.389 200.036 179.346 201.121 180.687C201.504 181.197 201.887 181.772 202.142 182.538L202.078 182.346C203.291 185.474 203.801 188.601 204.184 191.729C205.142 199.325 205.078 207.175 206.163 214.707C207.503 228.175 207.759 241.706 207.184 255.238V255.812V256.131C207.184 256.642 207.057 257.089 206.865 257.408ZM204.184 255.557C204.057 255.685 203.993 255.812 203.929 256.004V256.068V256.131C203.993 255.046 204.057 253.004 204.057 251.855C204.376 238.132 203.993 224.281 202.397 210.686C201.759 204.495 201.759 198.431 201.057 192.303C200.674 189.303 200.227 186.304 199.206 183.75C199.142 183.431 199.014 183.24 198.695 182.857C196.461 180.431 193.27 179.027 190.27 177.623C186.887 176.219 183.376 174.687 179.738 174.176C179.738 174.176 179.738 174.176 179.802 174.176C179.93 174.112 180.057 174.112 180.185 173.985L180.44 171.432C180.504 171.495 180.504 171.559 180.568 171.559C180.759 171.751 180.887 172.07 181.015 172.325C181.206 172.708 181.334 173.155 181.525 173.474C185.164 180.368 193.142 198.495 182.738 202.707C180.887 203.346 178.908 203.601 176.93 203.92C166.973 205.388 156.888 205.261 146.867 204.239C144.314 203.92 141.824 203.729 139.271 203.154C128.357 200.665 123.761 189.559 119.676 180.495C118.208 177.049 116.229 173.857 114.889 170.347C114.506 169.389 114.059 168.113 113.549 167.347L113.868 167.73C114.059 167.921 114.378 167.985 114.634 168.049C114.634 168.049 114.634 168.049 114.57 168.049L114.251 168.113C110.421 168.623 94.0171 173.857 93.5065 177.368L93.2512 176.538C98.9319 185.41 105.123 195.176 105.123 206.154C105.059 209.346 104.357 213.686 103.847 216.813C102.825 223.707 101.932 230.6 101.421 237.558C100.911 244.387 100.591 251.472 100.911 258.302L99.6978 256.834C108.315 258.876 117.187 260.408 125.995 261.621C151.143 264.621 177.696 265.77 201.631 256.514C202.397 256.068 203.482 255.493 204.184 255.557Z" fill="black"/>
<path d="M117.889 201.048C119.828 201.048 121.4 199.476 121.4 197.537C121.4 195.599 119.828 194.027 117.889 194.027C115.95 194.027 114.378 195.599 114.378 197.537C114.378 199.476 115.95 201.048 117.889 201.048Z" fill="white"/>
<path d="M194.099 202.452C195.651 202.452 196.908 201.195 196.908 199.644C196.908 198.093 195.651 196.835 194.099 196.835C192.548 196.835 191.291 198.093 191.291 199.644C191.291 201.195 192.548 202.452 194.099 202.452Z" fill="white"/>
<path d="M146.548 207.75C154.143 208.324 161.739 208.643 169.335 208.452C172.207 208.388 175.015 208.197 177.824 207.877C180.76 207.431 183.887 207.941 186.44 209.537C189.887 211.579 192.185 215.345 192.568 219.367C192.759 221.281 192.887 223.196 193.079 225.111C193.398 228.941 193.525 232.834 193.462 236.664C193.398 238.643 193.27 240.685 192.951 242.664C192.185 245.983 189.44 248.344 186.568 249.876C174.824 256.004 155.867 255.812 143.229 252.429C138.314 250.961 131.548 248.408 131.229 242.281C131.165 241.834 131.102 240.621 131.038 240.174C130.846 237.302 130.336 231.622 130.144 228.813C130.016 227.09 129.697 224.6 129.825 222.877C130.016 214.324 137.995 207.048 146.548 207.75ZM146.356 210.431C138.697 209.984 131.931 216.494 132.506 224.217C132.825 228.877 133.463 235.196 133.846 239.855L133.974 241.26L134.038 241.962C134.101 244.706 136.463 246.302 138.889 247.515C149.867 252.366 165.633 252.11 177.249 249.557C181.781 248.408 188.164 246.557 189.823 241.77C190.908 236.281 191.228 230.664 191.355 225.047C191.291 221.409 191.738 217.452 189.696 214.196C187.845 211.005 184.334 208.963 180.696 208.835C178.845 208.771 176.994 209.282 175.079 209.473C173.164 209.728 171.249 209.92 169.335 210.048C161.739 210.75 154.016 210.75 146.356 210.431Z" fill="white"/>
<path d="M164.994 187.133C164.994 187.133 153.314 201.303 149.739 200.218C146.165 199.133 123.953 186.048 120.442 165.815C120.442 165.815 123.187 162.623 125.612 161.283C125.612 161.283 132.506 160.07 132.953 160.709C133.399 161.411 128.102 164.985 128.995 166.198C131.995 170.283 136.782 175.708 144.442 180.176C155.995 186.942 164.994 187.133 164.994 187.133Z" fill="white"/>
<path d="M166.526 186.495C166.973 186.942 166.271 188.474 166.271 188.218C166.207 188.346 166.015 188.474 165.888 188.601C161.867 192.431 158.165 196.452 153.569 199.644C152.292 200.473 150.569 201.495 149.037 200.729C145.144 198.942 141.697 196.388 138.314 193.771C129.57 186.687 121.91 177.304 119.676 166.006C119.612 165.751 119.676 165.559 119.868 165.368C120.57 164.347 121.336 163.453 122.102 162.496C122.932 161.602 123.889 160.517 125.102 159.815C126.378 159.496 127.719 159.432 129.059 159.304C130.463 159.241 131.804 158.985 133.208 159.304C133.399 159.368 133.591 159.368 133.974 159.687C135.186 160.836 134.165 162.177 133.272 163.006C132.25 164.028 131.102 164.857 130.336 165.942C130.144 166.198 130.336 166.07 130.208 165.687C130.208 165.559 130.016 165.432 130.144 165.559C130.208 165.687 130.463 166.006 130.527 166.134C132.953 169.836 135.952 173.091 139.335 175.9C146.484 181.516 155.484 185.601 164.739 185.601C165.377 185.41 166.207 185.857 166.526 186.495ZM163.526 187.835C163.654 188.282 164.356 188.793 164.803 188.793H164.675L164.42 188.729C150.569 185.793 137.612 178.389 128.485 167.602C128.229 167.219 127.974 167.091 127.719 166.517C127.399 165.304 128.038 164.474 128.676 163.708C129.633 162.496 130.846 161.602 131.676 160.453C131.421 160.772 131.612 161.538 131.995 161.857C132.25 162.049 132.314 162.049 132.378 162.049C132.442 162.049 132.314 162.049 132.25 162.049C130.144 162.113 128.038 162.56 125.995 162.943L126.506 162.751C124.591 163.517 122.74 164.985 121.144 166.389L121.336 165.751C123.506 180.304 136.782 193.389 149.612 199.516C151.846 200.601 157.207 194.41 158.739 192.75C160.526 190.708 162.25 188.538 163.781 186.304L163.845 186.24C163.781 185.857 163.079 187.389 163.526 187.835Z" fill="black"/>
<path d="M164.994 187.133C164.994 187.133 174.058 197.729 177.058 197.857C180.058 197.984 181.334 179.346 172.334 169.9C172.334 169.9 165.888 164.538 170.356 170.411C170.356 170.411 174.824 184.006 164.994 187.133Z" fill="white"/>
<path d="M166.59 187.58C166.845 187.133 166.398 186.112 166.271 186.112V186.176C166.207 186.75 166.398 187.197 166.59 187.58C168.696 190.261 171.186 192.686 173.739 194.729C174.76 195.495 175.909 196.516 177.058 196.771C177.058 196.771 177.058 196.771 176.994 196.771C176.93 196.771 176.866 196.771 176.866 196.771C177.377 196.197 177.568 195.176 177.76 194.218C178.845 186.304 176.866 176.666 171.377 170.73L171.505 170.857C170.675 170.155 169.59 169.325 168.76 168.815C168.76 168.815 168.76 168.879 169.207 168.815C169.59 168.751 169.973 168.304 169.973 167.921C169.973 167.857 169.973 167.794 169.973 167.73C169.973 167.602 169.973 167.602 169.973 167.602C170.228 168.368 170.866 169.134 171.249 169.9C171.313 173.474 172.526 176.538 171.888 180.176C171.569 183.559 169.271 186.878 166.079 188.346H166.016C166.398 188.346 166.59 187.963 166.59 187.58ZM163.462 186.687C163.718 186.176 164.356 185.665 164.93 185.474C165.441 185.346 166.016 185.155 166.526 184.899C170.101 183.24 170.93 178.836 170.739 175.198C170.675 173.602 170.483 171.879 169.398 170.666L169.526 170.985C169.207 169.9 168.569 169.006 168.441 167.857C168.632 166.517 170.42 168.432 170.866 168.687L172.271 169.9C178.143 176.155 181.334 187.708 179.419 196.197C179.1 197.474 178.143 199.325 176.483 198.878C174.76 198.431 173.611 197.346 172.398 196.261C170.93 194.92 169.59 193.452 168.249 192.048L166.207 189.942C165.76 189.495 165.377 188.984 164.867 188.665C164.484 188.474 164.101 188.282 163.718 188.219C163.654 188.219 163.207 187.133 163.462 186.687Z" fill="black"/>
<path d="M164.101 188.218C164.101 188.218 162.314 190.197 162.952 194.537C163.59 198.814 163.463 203.09 163.463 203.09" fill="white"/>
<path d="M165.377 189.304C165.377 189.24 165.377 189.24 165.377 189.304C165.186 189.367 165.058 189.495 164.93 189.623C163.59 191.218 163.59 193.452 163.781 195.431C164.037 198.112 164.037 200.537 165.122 203.09C166.015 205.261 162.824 206.601 161.867 204.495C161.675 203.984 161.739 203.473 161.867 203.027C162.122 201.814 162.25 200.601 162.25 199.325C162.313 196.005 161.037 192.75 161.93 189.431C162.122 188.601 162.441 187.836 162.952 187.133C164.356 185.538 166.718 187.644 165.377 189.304Z" fill="black"/>
<path d="M167.42 197.793C168.23 197.793 168.888 197.136 168.888 196.325C168.888 195.514 168.23 194.857 167.42 194.857C166.609 194.857 165.952 195.514 165.952 196.325C165.952 197.136 166.609 197.793 167.42 197.793Z" fill="black"/>
<path d="M125.484 159.688C126.122 160.517 126.569 160.581 127.08 160.517L128.548 160.39C136.526 159.943 144.505 159.241 152.483 160.198C157.526 160.773 162.441 162.624 166.653 165.56C168.313 166.836 170.036 168.24 170.738 170.283C170.802 170.474 170.674 170.73 170.419 170.794C170.164 170.857 169.972 170.73 169.909 170.538C168.951 169.006 167.228 167.921 165.696 167.028C162.377 165.177 158.739 163.709 154.973 162.879C147.313 161.283 139.399 161.092 131.548 161.539C130.144 161.602 128.548 161.794 127.144 161.921C126.633 161.921 126.186 162.049 125.803 163.007C123.697 163.134 123.314 160.007 125.484 159.688Z" fill="black"/>
<path d="M174.503 187.006C173.163 193.58 164.482 197.537 149.866 191.601C134.675 185.474 128.1 170.857 126.441 166.517C135.441 149.666 129.186 137.986 129.186 137.986C149.93 136.199 168.057 160.453 168.057 160.453L170.865 172.453C171.121 173.474 171.631 174.368 172.397 175.006C173.738 177.368 175.333 182.793 174.503 187.006Z" fill="white"/>
<path d="M126.122 166.708C127.335 164.857 128.101 162.687 128.612 160.581C129.569 156.177 129.888 151.709 129.952 147.241V145.581C129.761 143.922 129.186 142.198 128.548 140.666C127.718 138.624 130.718 137.347 131.675 139.39C131.803 139.645 131.803 140.092 131.803 140.347C131.995 149.028 132.378 160.198 126.888 167.41C126.505 167.793 125.739 167.219 126.122 166.708Z" fill="black"/>
<path d="M168.759 160.326C169.717 160.9 170.036 161.666 170.163 162.432C170.546 163.964 170.419 165.623 170.802 167.219C171.121 168.751 172.078 170.219 172.333 171.815C172.653 173.474 173.61 176.985 173.993 178.708C174.121 179.091 173.865 179.538 173.419 179.602C173.163 179.666 172.972 179.602 172.78 179.474C171.95 178.772 171.568 178.07 171.057 177.176C170.227 175.644 169.653 174.24 169.142 172.517C168.695 170.985 168.887 169.325 168.504 167.73C168.185 166.198 167.291 164.73 166.972 163.134C166.78 162.368 166.717 161.538 167.291 160.581C167.674 160.198 168.312 160.07 168.759 160.326Z" fill="black"/>
<path d="M173.355 177.176C161.164 176.538 151.207 172.708 141.505 155.411C149.675 162.623 159.313 165.368 169.462 166.645L170.802 172.517C171.057 173.538 172.589 176.538 173.355 177.176Z" fill="black"/>
<path d="M172.845 174.814C175.015 178.899 176.291 184.006 174.951 188.537C173.93 191.729 170.994 194.09 167.802 194.984C160.398 196.963 151.845 193.835 145.271 190.325C137.165 185.793 131.165 178.197 127.335 169.9C127.08 169.261 127.973 168.751 128.356 169.389C129.697 172.07 131.229 174.687 132.952 177.048C134.675 179.474 136.654 181.708 138.888 183.687C145.399 189.559 154.207 193.197 163.015 193.197C172.079 192.942 175.525 188.154 173.419 179.346C173.1 177.942 172.589 176.474 171.887 175.261C171.504 174.751 172.462 174.176 172.845 174.814Z" fill="black"/>
<path d="M197.546 98.1569C198.695 103.518 199.269 107.859 196.142 122.156C193.078 136.39 200.546 139.326 182.866 162.113C175.653 171.432 158.164 168.815 143.994 159.177C139.207 155.921 137.165 147.56 133.59 141.624C130.782 136.964 129.505 141.815 125.803 137.794C120.761 132.305 114.697 121.263 117.697 101.731C122.548 70.0726 147.632 66.3706 166.206 69.8811C184.908 73.4555 194.482 84.0509 197.546 98.1569Z" fill="white"/>
<path d="M128.994 143.475C127.526 140.986 125.611 138.815 123.824 136.518C122.101 134.156 120.697 131.539 119.548 128.858C111.952 110.22 114.888 83.9872 133.526 73.0087C141.249 68.5408 150.568 67.4557 159.249 68.1578C177.823 69.4982 194.865 78.0512 198.886 97.7102C201.056 106.391 198.12 115.327 196.461 123.816C195.695 128.029 196.333 132.369 196.269 136.709C196.205 141.113 194.993 145.517 193.333 149.602C192.312 152.411 190.525 154.9 188.674 157.198C185.61 160.9 182.546 164.666 178.653 167.538C177.759 168.176 176.163 168.496 175.078 168.623C172.078 169.07 169.142 169.198 166.142 169.006C154.398 168.496 141.824 162.815 137.101 151.453C136.909 151.007 137.547 150.687 137.803 151.07C143.93 160.772 155.164 165.559 166.334 166.198C169.78 166.389 173.291 166.325 176.674 165.623C178.333 164.793 179.801 163.325 181.206 161.985C184.652 158.538 188.163 154.836 190.652 150.624C193.652 144.943 195.312 138.752 194.801 132.305C194.673 129.433 194.61 126.433 195.184 123.561C195.695 120.688 196.333 117.944 196.716 115.008C197.099 112.199 197.29 109.327 197.29 106.518C196.971 98.2846 194.29 89.7955 189.057 83.4127C177.504 69.0514 150.185 65.2855 134.803 75.1151C125.101 81.1149 120.569 92.3486 119.101 103.263C116.867 116.348 117.505 129.241 127.909 138.752L130.973 141.943C132.186 143.347 130.016 145.007 128.994 143.475Z" fill="black"/>
<path d="M136.526 123.178C136.526 123.178 134.547 113.603 125.228 114.752C117.186 115.773 114.377 135.05 132.632 140.411" fill="white"/>
<path d="M131.803 132.05C130.335 131.22 129.314 129.816 129.25 128.092C129.314 126.816 129.505 125.348 129.186 124.071C128.994 122.859 127.718 122.539 126.76 122.603C125.739 122.795 125.101 124.071 124.909 125.092C124.909 125.156 124.846 125.348 124.846 125.412C124.782 125.731 124.271 125.731 124.143 125.412C123.314 122.922 125.165 120.178 127.845 120.497C131.611 120.752 132.122 124.71 131.42 127.709C131.037 128.986 131.548 130.135 132.25 131.22L132.377 131.411C132.696 131.794 132.186 132.305 131.803 132.05Z" fill="black"/>
<path d="M182.865 116.412C183.822 120.944 185.61 125.156 187.844 129.113C189.822 133.964 184.716 138.56 180.184 138.369C179.674 138.369 179.61 137.666 180.057 137.539C182.929 136.645 185.546 134.73 185.993 131.794C186.184 130.901 185.929 130.135 185.482 129.369C183.376 125.411 182.099 120.88 182.418 116.412C182.418 116.093 182.865 116.093 182.865 116.412Z" fill="black"/>
<path d="M136.207 123.241C134.739 119.476 131.547 115.901 127.271 115.965C126.888 115.901 126.25 116.029 125.867 116.029C124.782 116.093 123.888 116.476 123.058 117.242C118.973 121.327 119.675 128.539 122.995 133.071C124.143 134.667 125.611 136.071 127.271 137.22C128.931 138.369 130.782 139.262 132.76 140.028C133.207 140.156 133.016 140.858 132.569 140.794C128.292 139.901 124.207 137.794 121.399 134.284C117.058 129.05 116.165 120.305 121.335 115.199C122.484 114.178 124.08 113.412 125.675 113.412C126.186 113.412 126.952 113.284 127.462 113.412C130.143 113.54 132.696 114.88 134.356 116.986C135.824 118.774 136.654 120.944 136.909 123.114C136.909 123.497 136.335 123.624 136.207 123.241Z" fill="black"/>
<path d="M178.015 144.688C176.036 146.283 173.291 146.347 170.93 145.773C170.164 145.581 169.27 145.454 168.824 144.624C168.377 143.922 168.823 143.028 169.653 142.901C170.483 142.709 170.994 143.092 171.696 143.284C173.547 143.922 175.589 144.305 177.504 143.667C178.015 143.539 178.525 144.305 178.015 144.688Z" fill="black"/>
<path d="M170.993 140.603C172.334 142.964 170.419 145.773 168.121 146.666C167.61 146.922 165.185 147.432 165.249 146.475C165.249 146.347 165.376 146.219 165.504 146.156C167.802 145.134 169.461 143.028 169.844 140.603C169.908 140.092 170.61 139.964 170.866 140.411L170.993 140.603Z" fill="black"/>
<path d="M159.058 122.922C157.526 122.858 156.377 121.582 156.505 120.05L156.569 118.263C156.632 116.731 157.909 115.582 159.441 115.71C160.973 115.773 162.122 117.05 161.994 118.582L161.93 120.369C161.866 121.837 160.59 122.986 159.058 122.922Z" fill="black"/>
<path d="M185.929 123.88C184.525 123.816 183.44 122.603 183.504 121.199L183.567 119.539C183.631 118.135 184.844 117.05 186.248 117.114C187.652 117.178 188.738 118.391 188.674 119.795L188.61 121.454C188.546 122.859 187.333 123.944 185.929 123.88Z" fill="black"/>
<path d="M164.802 119.476C162.696 118.071 160.398 117.114 157.845 117.625C157.015 117.752 156.186 118.008 155.675 118.582C155.483 118.837 155.037 118.774 155.037 118.391C155.1 117.114 156.186 116.284 157.207 115.774C159.185 114.752 161.93 114.944 163.717 116.284C164.356 116.667 166.526 119.029 165.377 119.539C165.121 119.667 164.994 119.603 164.802 119.476Z" fill="black"/>
<path d="M183.057 119.795C183.057 117.114 186.376 116.156 188.419 117.114C189.568 117.624 190.397 118.646 190.716 119.858C190.844 120.241 190.27 120.561 190.014 120.241C188.929 118.965 187.078 118.327 185.61 119.092C185.163 119.348 185.1 119.539 184.972 119.795C184.972 121.071 183.121 121.007 183.057 119.795Z" fill="black"/>
<path d="M167.866 108.944C169.207 109.391 170.547 108.178 170.292 106.71C170.164 105.944 169.845 105.178 169.207 104.604C167.292 102.88 159.377 101.348 154.59 103.582C150.377 105.625 161.739 106.901 167.866 108.944Z" fill="black"/>
<path d="M186.951 109.965C185.866 110.348 184.717 109.199 184.908 107.859C184.972 107.157 185.227 106.455 185.738 105.944C187.27 104.412 192.504 103.199 195.823 105.561C198.695 107.54 191.929 108.114 186.951 109.965Z" fill="black"/>
<path d="M202.654 108.816C205.526 98.9866 200.548 92.157 196.973 88.8379C195.314 84.37 192.505 79.9658 188.037 76.5829C187.144 75.8808 186.186 75.2426 185.101 74.6681C184.208 74.1575 183.25 73.7107 182.293 73.2639C173.867 69.6257 160.4 65.3492 147.06 67.647C141.953 68.4768 136.847 70.3278 132.06 73.4554C131.996 73.4554 131.996 73.5192 131.996 73.5192C131.613 73.7745 131.23 74.0298 130.911 74.2851C130.018 73.2001 128.996 72.2426 127.847 71.349C119.869 65.3492 111.188 66.3705 105.188 74.4128C99.1887 82.3913 98.1674 94.3271 106.146 100.327C108.635 102.178 111.444 103.327 114.316 103.774C114.252 104.093 114.252 104.476 114.188 104.795C110.678 136.262 134.741 150.432 132.89 140.539C132.379 140.347 132.124 140.156 132.124 140.028C114.444 134.411 117.252 115.518 125.231 114.497C128.103 114.114 130.209 114.816 131.869 115.837C132.507 116.475 133.081 117.05 133.656 117.624C135.188 119.539 136.528 121.965 136.528 122.922C136.592 122.156 136.656 121.263 136.847 120.369C144.57 126.114 151.528 124.071 164.166 103.901C172.527 90.5613 177.506 87.9443 180.25 88.3273C181.335 88.7103 182.357 89.54 183.314 90.9443C183.569 91.3272 183.825 91.7102 184.016 92.0932C189.633 91.9655 192.25 95.2207 193.59 98.6036C193.59 98.6036 193.59 98.6036 193.59 98.6675C194.675 101.54 194.803 104.476 194.931 105.242C194.931 105.369 194.931 105.433 194.995 105.433C194.867 107.986 194.548 112.327 194.484 117.944C194.484 120.497 194.739 125.603 194.548 128.539C194.484 129.433 194.42 130.326 194.356 131.156C194.292 131.603 194.292 132.05 194.229 132.432C194.165 132.815 194.165 133.262 194.101 133.709C194.037 134.22 193.973 134.666 193.973 135.177C195.25 136.709 197.101 136.964 198.633 137.986C199.016 133.645 197.867 130.007 197.42 125.092C197.803 126.752 198.314 128.348 199.08 130.007C201.633 135.496 200.228 139.517 200.228 139.517L204.441 139.773C204.888 138.56 205.271 136.326 203.93 133.39C201.888 128.858 201.76 126.752 201.76 126.752C201.76 126.752 202.845 130.454 204.888 132.943C206.484 134.986 207.122 137.73 206.484 139.9L208.016 140.028C212.611 133.135 198.377 123.305 202.654 108.816ZM150.57 114.369C145.719 117.88 141.634 117.178 139.145 116.093C139.209 116.093 139.273 116.029 139.273 116.029C140.805 115.901 142.336 115.582 143.804 115.007C150.826 112.518 157.336 106.072 163.081 100.135C158.23 106.135 153.57 112.199 150.57 114.369Z" fill="black"/>
<path d="M148.317 135.316C150.104 134.359 151.827 133.338 153.806 132.827C153.998 132.827 154.125 132.763 154.508 132.891C155.849 133.912 151.955 136.465 151.253 137.103C151.444 136.848 151.381 136.401 151.061 136.274C150.998 136.274 150.998 136.21 150.934 136.21C150.806 136.21 150.806 136.21 150.806 136.21C152.402 135.635 153.998 134.997 155.529 134.231C156.423 133.848 157.636 133.018 158.593 132.955C158.976 132.955 159.423 133.338 159.359 133.721C159.295 134.231 159.168 134.423 159.04 134.742C158.912 134.997 158.657 135.38 158.593 135.635C158.593 135.699 158.529 135.572 158.529 135.572C158.529 135.635 158.912 135.635 158.976 135.572C159.997 135.444 161.082 135.061 162.104 134.678C162.295 134.614 162.423 134.869 162.231 134.997C161.146 135.699 159.997 136.465 158.593 136.593C157.7 136.657 157.253 135.827 157.572 135.061C157.7 134.614 158.019 134.104 158.146 133.721C158.146 133.848 158.274 134.04 158.402 134.104C158.529 134.167 158.593 134.104 158.529 134.167C157.891 134.359 156.615 135.061 156.04 135.316C154.381 136.082 152.785 136.784 150.998 137.295C150.87 137.295 150.87 137.359 150.678 137.295C150.168 137.231 150.04 136.593 150.423 136.274C151.189 135.635 152.083 135.125 152.785 134.487C153.168 134.167 153.615 133.721 153.87 133.338C153.87 133.401 153.934 133.529 153.998 133.593C153.423 133.657 152.274 133.976 151.572 134.295C150.551 134.678 149.466 135.125 148.445 135.572C148.317 135.699 148.125 135.38 148.317 135.316Z" fill="black"/>
<path d="M189.677 135.316C190.252 134.678 192.677 131.614 193.316 133.21C193.316 133.338 193.316 133.465 193.316 133.529C193.06 134.806 192.23 135.891 191.592 136.976C191.72 136.657 191.465 136.21 191.145 136.146C191.018 136.146 190.954 136.146 190.89 136.146C190.826 136.146 190.89 136.146 190.954 136.082C192.23 135.252 193.188 134.231 194.464 133.338C194.72 133.21 195.039 133.018 195.358 133.21C195.677 133.465 195.613 133.848 195.486 134.104C195.358 134.423 195.23 134.678 195.103 134.997C195.039 135.061 194.975 135.125 194.847 135.061C194.784 135.061 194.784 134.997 194.784 134.933C194.784 134.806 194.784 133.976 194.784 133.848C194.72 133.721 194.784 133.784 194.784 133.848C194.784 133.912 194.911 134.04 195.039 134.04C195.103 134.04 195.23 134.04 195.23 134.04C194.145 135.316 192.869 136.529 191.401 137.359C190.954 137.55 190.443 137.167 190.507 136.657C190.507 136.593 190.571 136.465 190.635 136.401C191.082 135.763 191.592 135.125 191.975 134.486C192.167 134.167 192.422 133.721 192.486 133.401C192.486 133.529 192.741 133.721 192.805 133.657C191.784 134.04 190.89 134.869 189.996 135.508C189.741 135.699 189.55 135.444 189.677 135.316Z" fill="black"/>
</g>
</svg>
