<svg width="276" height="267" viewBox="0 0 276 267" fill="none" xmlns="http://www.w3.org/2000/svg">
<path d="M140.069 44.8359C48.9838 48.4203 20.8168 104.167 26.0325 134.162C43.8941 236.883 157.398 248.52 170.195 218.317C185.806 181.474 213.795 162.293 227.68 144.316C241.565 126.339 253.926 40.3555 140.069 44.8359Z" fill="#0067D1"/>
<mask id="mask0_228_597" style="mask-type:alpha" maskUnits="userSpaceOnUse" x="41" y="43" width="195" height="195">
<circle cx="138.481" cy="140.518" r="97.3368" fill="#D9D9D9"/>
</mask>
<g mask="url(#mask0_228_597)">
<path d="M191.842 220.879C191.395 221.198 190.885 221.517 190.438 221.837C189.927 222.156 189.481 222.475 188.97 222.73C188.523 222.985 188.14 223.241 187.693 223.496C187.63 223.56 187.566 223.56 187.502 223.624C186.034 224.517 184.502 225.347 182.97 226.113C182.523 226.368 182.013 226.624 181.566 226.815C181.566 226.815 181.502 226.879 181.438 226.879C180.928 227.134 180.417 227.39 179.906 227.645C178.885 228.156 177.8 228.602 176.779 229.049C176.268 229.304 175.694 229.496 175.183 229.687C174.673 229.879 174.098 230.134 173.587 230.326C173.077 230.517 172.502 230.772 171.992 230.964C171.992 230.964 171.992 230.964 171.928 230.964C171.417 231.155 170.843 231.347 170.332 231.538C169.183 231.921 167.971 232.304 166.822 232.687C166.439 232.815 165.992 232.943 165.609 233.07C164.396 233.453 163.183 233.772 161.971 234.028C161.524 234.155 161.077 234.219 160.567 234.347C159.418 234.602 158.205 234.857 157.056 235.113C156.801 235.177 156.609 235.177 156.354 235.24C155.971 235.304 155.524 235.368 155.141 235.432C154.567 235.496 154.056 235.623 153.482 235.687C153.226 235.751 152.971 235.751 152.716 235.815C152.397 235.879 152.014 235.943 151.631 235.943C150.609 236.07 149.524 236.198 148.503 236.326C148.184 236.389 147.801 236.389 147.482 236.453H147.418C146.971 236.517 146.524 236.517 146.078 236.581C145.631 236.645 145.184 236.645 144.737 236.645C144.482 236.645 144.163 236.708 143.907 236.708C143.397 236.708 142.95 236.772 142.503 236.772C141.865 236.772 141.29 236.836 140.652 236.836C140.014 236.836 139.439 236.836 138.801 236.836C138.354 236.836 137.908 236.836 137.461 236.836C110.525 236.453 86.3345 225.028 69.0371 206.901C69.0371 206.901 69.0371 206.837 68.9733 206.837C67.0584 205.114 68.718 195.922 76.4412 190.114C86.143 182.774 109.376 178.178 109.376 178.178C109.376 178.178 118.376 176.71 151.758 183.667C171.29 187.752 186.162 193.688 194.459 209.773C196.183 213.092 197.906 218.198 191.842 220.879Z" fill="white"/>
<path d="M151.95 182.965C164.205 185.454 177.289 188.135 187.374 196.241C190.757 198.986 192.991 203.007 194.842 206.901C195.736 208.815 196.629 210.794 197.331 212.9C197.714 214.305 198.289 215.9 197.97 217.56C197.906 218.007 197.523 218.581 197.204 218.9C195.736 220.368 194.14 221.262 192.544 222.411C183.161 228.921 172.375 233.517 161.205 235.942C136.312 241.368 109.376 237.155 87.4832 224.07C80.2068 219.666 73.5049 214.305 67.7604 207.986C67.1221 207.22 67.1221 205.943 67.1221 205.113C67.1859 203.198 67.6965 201.347 68.3348 199.624C69.8667 195.667 71.8453 191.709 75.2282 188.965C77.6537 187.305 80.2707 185.901 82.9514 184.752C91.3767 181.178 100.249 178.689 109.376 177.667C110.142 177.603 110.27 178.689 109.504 178.816C100.759 180.603 92.0788 183.284 83.9727 186.922C81.0366 188.39 77.909 189.667 75.5474 191.965C73.3134 194.39 71.7177 197.39 70.4411 200.454C69.6114 202.305 69.0369 205.241 69.2922 206.709C73.3134 211.496 78.0367 215.709 83.1429 219.347C111.1 238.878 153.545 240.155 183.289 223.879C185.97 222.411 188.587 220.751 191.076 219.028C192.289 218.198 193.565 217.496 194.523 216.539C194.587 216.475 194.523 216.539 194.523 216.602C194.523 216.666 194.459 216.73 194.459 216.73C194.523 215.964 194.268 214.943 193.948 213.922C192.8 210.22 190.949 206.326 188.97 202.943C185.842 197.901 180.545 194.709 175.183 192.156C171.481 190.433 167.587 189.092 163.63 187.816C159.673 186.539 155.652 185.454 151.63 184.497C150.609 184.242 150.928 182.774 151.95 182.965Z" fill="black"/>
<path d="M200.587 229.942C199.374 220.496 194.013 204.603 190.758 200.326C187.183 195.667 185.715 194.199 173.779 190.177C173.141 186.986 170.779 178.944 167.971 175.561C163.694 169.114 152.014 167.646 148.503 168.412C148.503 168.412 129.61 161.774 107.845 161.774C100.951 163.306 92.973 166.433 88.6327 173.008C85.6966 177.348 89.0156 178.752 87.5476 182.71C87.1646 183.731 78.2287 188.837 74.5905 191.901C72.931 193.241 71.0799 196.624 69.8034 201.028C67.2503 210.028 69.9949 222.474 66.8035 233.325C60.676 254.261 48.2295 260.516 48.2295 260.516H213.161C213.034 260.452 203.204 249.857 200.587 229.942Z" fill="white"/>
<path d="M199.629 230.07C198.353 221.709 195.8 213.411 192.545 205.624C190.949 201.858 188.523 198.22 185.14 195.986C183.417 194.901 181.502 194.071 179.524 193.241C177.545 192.476 175.502 191.773 173.524 191.071C173.205 190.944 172.949 190.688 172.885 190.369C172.63 189.093 172.311 187.88 171.928 186.603C170.269 181.433 168.481 175.689 163.63 172.689C159.928 170.455 155.524 169.37 151.248 169.178C150.418 169.178 149.524 169.178 148.758 169.306H148.503C148.439 169.306 148.312 169.306 148.248 169.242C145.184 167.774 141.801 166.88 138.482 165.987C128.525 163.689 118.121 162.732 107.908 162.668C101.653 164.136 92.9089 167.583 89.0792 173.965C88.4409 174.987 88.1218 176.008 88.2495 177.157C88.3771 178.433 88.8239 179.838 88.5048 181.178C88.3771 181.752 88.2495 182.391 87.9941 182.901C87.4835 183.603 86.6538 184.05 86.0155 184.497C82.6964 186.667 79.3135 188.582 76.1221 190.816C75.037 191.582 74.0158 192.284 73.2499 193.369C71.0159 196.561 69.6755 200.39 69.101 204.22C68.0798 212.007 69.101 219.922 68.0798 227.709C66.9309 235.496 63.931 243.027 59.7183 249.665C56.7822 254.133 53.2078 258.282 48.6761 261.155L48.2293 259.367H213.161L212.459 260.963C210.544 258.793 209.012 256.431 207.608 253.942C203.268 246.666 200.715 238.432 199.629 230.07ZM201.544 229.815C202.246 235.24 203.587 240.602 205.629 245.708C207.672 250.751 210.225 255.665 213.799 259.814C214.31 260.389 213.863 261.474 213.097 261.41H48.1654C47.6548 261.41 47.208 260.963 47.208 260.452C47.208 260.069 47.3995 259.75 47.7186 259.623C48.7399 259.048 49.7611 258.218 50.7186 257.389C59.08 249.857 64.3139 238.687 66.0373 227.581C67.5053 217.177 64.7607 205.943 69.4202 196.05C70.5053 193.752 71.8456 191.327 74.0158 189.859C77.9731 186.922 82.3134 184.752 86.207 181.88C86.2708 181.88 86.2708 181.816 86.2708 181.816C86.207 181.88 86.1431 182.008 86.1431 182.072C86.5261 181.178 86.6538 180.412 86.5261 179.391C86.3346 178.114 86.0155 176.391 86.4623 175.05C86.6538 174.285 87.0367 173.582 87.4197 173.008C92.0153 166.115 100.121 163.051 107.845 161.327C110.015 161.391 112.249 161.008 114.419 161.008C117.419 161.008 120.483 161.455 123.483 161.838C132.099 163.178 140.397 165.476 148.886 167.327L148.312 167.263C150.29 166.88 152.141 167.072 154.056 167.327C166.311 169.178 170.46 174.54 173.779 185.965C174.162 187.242 174.481 188.518 174.8 189.859L174.162 189.093C180.29 191.263 187.183 193.241 191.076 198.922C192.481 200.646 193.502 202.688 194.396 204.731C197.651 212.901 200.204 221.134 201.544 229.815Z" fill="black"/>
<path d="M99.9941 187.944C104.717 198.029 112.058 206.582 120.802 213.348C121.121 213.603 120.802 214.114 120.419 213.922C112.632 210.22 106.058 203.901 102.164 196.242C100.888 193.689 99.8026 190.944 99.4196 188.072C99.292 187.753 99.8026 187.625 99.9941 187.944Z" fill="black"/>
<path d="M174.737 190.05C174.928 200.709 170.588 211.624 162.29 218.517C162.099 218.709 161.843 218.645 161.652 218.453C161.46 218.262 161.524 218.007 161.716 217.815C163.567 216.028 165.418 214.177 166.822 212.007C169.758 207.794 171.545 202.816 172.375 197.773C172.758 195.284 173.013 192.603 172.822 190.114C172.758 188.901 174.673 188.773 174.737 190.05Z" fill="black"/>
<path d="M137.142 215.39C135.674 220.56 134.461 226.177 135.163 231.539C135.355 232.751 133.504 233.07 133.249 231.794C132.929 228.858 133.312 225.985 133.823 223.177C134.397 220.369 135.1 217.688 136.057 215.007C136.312 214.369 137.397 214.688 137.142 215.39Z" fill="black"/>
<path d="M157.439 214.433C159.546 218.964 161.014 223.688 162.162 228.475C162.29 228.985 161.971 229.496 161.46 229.624C160.95 229.751 160.439 229.432 160.311 228.922C159.673 225.347 158.843 221.773 157.695 218.262C157.312 217.113 156.929 215.964 156.482 214.816C156.226 214.241 157.12 213.794 157.439 214.433Z" fill="black"/>
<path d="M88.8878 182.454C91.2495 195.348 100.313 206.262 111.228 213.219C114.93 215.581 118.887 217.624 122.972 219.283C123.227 219.411 123.355 219.666 123.227 219.921C123.163 220.177 122.844 220.304 122.653 220.177C118.44 218.645 114.355 216.73 110.526 214.432C102.739 209.837 95.9089 203.454 91.3133 195.667C88.9517 191.646 87.1006 187.433 86.207 182.837C86.0794 182.071 86.59 181.369 87.356 181.242C88.0581 181.05 88.824 181.625 88.8878 182.454Z" fill="black"/>
<path d="M133.312 232.942C131.525 232.751 130.249 231.091 130.632 229.304L131.334 225.921C131.589 224.581 132.866 223.623 134.206 223.815C135.546 223.943 136.631 225.091 136.631 226.496V229.942C136.695 231.73 135.163 233.134 133.312 232.942Z" fill="black"/>
<path d="M162.737 230.581C161.013 231.219 159.162 230.198 158.716 228.411L157.886 225.028C157.567 223.687 158.269 222.347 159.609 221.836C160.886 221.39 162.354 221.964 162.928 223.177L164.46 226.304C165.226 228.028 164.46 230.006 162.737 230.581Z" fill="black"/>
<path d="M192.226 228.666C192.226 228.666 195.8 248.708 194.396 260.452" stroke="black" stroke-width="0.884255" stroke-miterlimit="10" stroke-linecap="round" stroke-linejoin="round"/>
<path d="M108.866 180.157C107.972 177.604 107.589 174.987 107.781 172.306C107.781 172.051 107.972 171.923 108.227 171.923C108.419 171.923 108.61 172.114 108.61 172.306C108.802 174.731 109.504 177.221 110.653 179.327C111.227 180.603 109.312 181.433 108.866 180.157Z" fill="black"/>
<path d="M152.013 183.539C150.226 179.518 145.822 177.476 141.928 176.072C139.503 175.306 136.822 174.731 134.269 174.348C128.077 173.391 119.333 171.923 113.142 171.284C113.078 171.284 113.078 171.157 113.142 171.157C114.929 170.965 116.716 170.965 118.503 170.965C123.865 171.093 129.226 171.667 134.524 172.497C139.822 173.327 145.502 174.923 149.524 178.752C150.8 180.093 151.949 181.625 152.268 183.476C152.332 183.667 152.077 183.731 152.013 183.539Z" fill="black"/>
<path d="M157.949 199.943C156.609 206.517 147.928 210.475 133.312 204.539C118.121 198.411 111.546 183.795 109.887 179.454C118.886 162.604 112.631 150.923 112.631 150.923C133.375 149.136 151.503 173.391 151.503 173.391L154.311 185.39C154.566 186.412 155.077 187.305 155.843 187.944C157.183 190.305 158.779 195.731 157.949 199.943Z" fill="white"/>
<path d="M109.568 179.646C110.781 177.795 111.547 175.625 112.058 173.519C113.015 169.114 113.334 164.646 113.398 160.178V158.519C113.206 156.859 112.632 155.136 111.994 153.604C111.164 151.562 114.164 150.285 115.121 152.328C115.249 152.583 115.249 153.03 115.249 153.285C115.44 161.966 115.823 173.136 110.334 180.348C109.951 180.731 109.185 180.157 109.568 179.646Z" fill="black"/>
<path d="M152.204 173.263C153.162 173.838 153.481 174.604 153.609 175.37C153.992 176.901 153.864 178.561 154.247 180.157C154.566 181.689 155.523 183.157 155.779 184.752C156.098 186.412 157.055 189.922 157.438 191.646C157.566 192.029 157.311 192.475 156.864 192.539C156.609 192.603 156.417 192.539 156.226 192.412C155.396 191.71 155.013 191.007 154.502 190.114C153.672 188.582 153.098 187.178 152.587 185.454C152.141 183.922 152.332 182.263 151.949 180.667C151.63 179.135 150.736 177.667 150.417 176.072C150.226 175.306 150.162 174.476 150.736 173.519C151.119 173.136 151.758 173.008 152.204 173.263Z" fill="black"/>
<path d="M156.801 190.114C144.61 189.475 134.653 185.646 124.951 168.348C133.121 175.561 142.759 178.305 152.908 179.582L154.248 185.454C154.504 186.475 156.035 189.475 156.801 190.114Z" fill="black"/>
<path d="M156.29 187.752C158.46 191.837 159.737 196.943 158.396 201.475C157.375 204.666 154.439 207.028 151.248 207.922C143.843 209.9 135.29 206.773 128.716 203.262C120.61 198.73 114.61 191.135 110.781 182.837C110.525 182.199 111.419 181.688 111.802 182.327C113.142 185.007 114.674 187.624 116.397 189.986C118.121 192.411 120.099 194.645 122.333 196.624C128.844 202.496 137.652 206.134 146.46 206.134C155.524 205.879 158.971 201.092 156.864 192.284C156.545 190.879 156.035 189.411 155.332 188.199C154.95 187.688 155.907 187.114 156.29 187.752Z" fill="black"/>
<path d="M180.992 111.095C182.141 116.456 182.715 120.797 179.588 135.094C176.524 149.328 183.992 152.264 166.311 175.05C159.099 184.369 141.61 181.752 127.44 172.114C122.653 168.859 120.61 160.498 117.036 154.562C114.228 149.902 112.951 154.753 109.249 150.732C104.207 145.243 98.143 134.2 101.143 114.669C105.994 83.0103 131.078 79.3083 149.652 82.8188C168.354 86.3932 177.928 96.9887 180.992 111.095Z" fill="white"/>
<path d="M112.44 156.413C110.972 153.923 109.057 151.753 107.27 149.455C105.546 147.094 104.142 144.477 102.993 141.796C95.3976 123.158 98.3337 96.9249 116.971 85.9465C124.695 81.4785 134.014 80.3934 142.694 81.0956C161.268 82.4359 178.31 90.9889 182.331 110.648C184.502 119.329 181.565 128.264 179.906 136.754C179.14 140.966 179.778 145.307 179.714 149.647C179.651 154.051 178.438 158.455 176.778 162.54C175.757 165.349 173.97 167.838 172.119 170.136C169.055 173.838 165.991 177.604 162.098 180.476C161.204 181.114 159.609 181.433 158.524 181.561C155.524 182.008 152.588 182.135 149.588 181.944C137.843 181.433 125.269 175.753 120.546 164.391C120.354 163.944 120.993 163.625 121.248 164.008C127.375 173.71 138.609 178.497 149.779 179.135C153.226 179.327 156.736 179.263 160.119 178.561C161.779 177.731 163.247 176.263 164.651 174.923C168.098 171.476 171.608 167.774 174.098 163.561C177.098 157.881 178.757 151.689 178.246 145.243C178.119 142.37 178.055 139.371 178.629 136.498C179.14 133.626 179.778 130.881 180.161 127.945C180.544 125.137 180.736 122.265 180.736 119.456C180.417 111.222 177.736 102.733 172.502 96.3505C160.949 81.9891 133.631 78.2233 118.248 88.0528C108.546 94.0526 104.014 105.286 102.546 116.201C100.312 129.286 100.951 142.179 111.355 151.689L114.418 154.881C115.631 156.285 113.461 157.945 112.44 156.413Z" fill="black"/>
<path d="M119.971 136.115C119.971 136.115 117.992 126.541 108.674 127.69C100.631 128.711 97.8228 147.987 116.078 153.349" fill="white"/>
<path d="M115.248 144.987C113.78 144.158 112.759 142.754 112.695 141.03C112.759 139.754 112.95 138.286 112.631 137.009C112.44 135.796 111.163 135.477 110.206 135.541C109.184 135.732 108.546 137.009 108.355 138.03C108.355 138.094 108.291 138.286 108.291 138.349C108.227 138.669 107.716 138.669 107.589 138.349C106.759 135.86 108.61 133.115 111.291 133.435C115.057 133.69 115.567 137.647 114.865 140.647C114.482 141.924 114.993 143.073 115.695 144.158L115.823 144.349C116.142 144.732 115.631 145.243 115.248 144.987Z" fill="black"/>
<path d="M166.31 129.35C167.268 133.881 169.055 138.094 171.289 142.051C173.268 146.902 168.161 151.498 163.63 151.307C163.119 151.307 163.055 150.604 163.502 150.477C166.374 149.583 168.991 147.668 169.438 144.732C169.629 143.839 169.374 143.073 168.927 142.307C166.821 138.349 165.544 133.818 165.864 129.35C165.864 129.031 166.31 129.031 166.31 129.35Z" fill="black"/>
<path d="M119.653 136.179C118.185 132.413 114.993 128.839 110.717 128.903C110.334 128.839 109.696 128.967 109.313 128.967C108.227 129.03 107.334 129.413 106.504 130.179C102.419 134.264 103.121 141.477 106.44 146.009C107.589 147.604 109.057 149.009 110.717 150.158C112.376 151.306 114.227 152.2 116.206 152.966C116.653 153.094 116.461 153.796 116.015 153.732C111.738 152.838 107.653 150.732 104.845 147.221C100.504 141.988 99.6107 133.243 104.781 128.137C105.93 127.116 107.525 126.35 109.121 126.35C109.632 126.35 110.398 126.222 110.908 126.35C113.589 126.477 116.142 127.818 117.802 129.924C119.27 131.711 120.1 133.881 120.355 136.052C120.355 136.435 119.78 136.562 119.653 136.179Z" fill="black"/>
<path d="M159.993 157.434C160.056 158.455 159.29 160.242 157.886 161.519C150.674 157.115 147.418 159.412 147.418 159.412C144.865 155.519 145.44 150.221 151.631 154.242C155.908 157.051 158.588 157.498 159.993 157.434Z" fill="black"/>
<path d="M157.822 161.582C156.29 162.923 153.993 163.753 150.865 162.476C149.397 161.902 148.248 160.753 147.354 159.476C147.418 159.476 150.61 157.178 157.822 161.582Z" fill="white"/>
<path d="M161.205 157.242C161.205 157.242 158.524 158.71 151.631 154.306C143.397 149.009 145.056 160.115 150.865 162.476C156.928 164.966 160.056 159.54 159.992 157.498" stroke="black" stroke-width="0.517542" stroke-miterlimit="10" stroke-linecap="round" stroke-linejoin="round"/>
<path d="M147.418 159.476C147.418 159.476 150.673 157.178 157.886 161.582" stroke="black" stroke-width="0.517542" stroke-miterlimit="10" stroke-linecap="round" stroke-linejoin="round"/>
<path d="M142.504 135.86C140.972 135.796 139.823 134.52 139.951 132.988L140.015 131.201C140.079 129.669 141.355 128.52 142.887 128.647C144.419 128.711 145.568 129.988 145.44 131.52L145.376 133.307C145.313 134.775 144.036 135.924 142.504 135.86Z" fill="black"/>
<path d="M169.375 136.817C167.971 136.753 166.886 135.541 166.95 134.137L167.014 132.477C167.078 131.073 168.29 129.988 169.695 130.052C171.099 130.115 172.184 131.328 172.12 132.732L172.056 134.392C171.992 135.796 170.78 136.881 169.375 136.817Z" fill="black"/>
<path d="M148.248 132.413C146.142 131.009 143.844 130.052 141.291 130.562C140.461 130.69 139.631 130.945 139.121 131.52C138.929 131.775 138.482 131.711 138.482 131.328C138.546 130.052 139.631 129.222 140.653 128.711C142.631 127.69 145.376 127.882 147.163 129.222C147.801 129.605 149.971 131.967 148.823 132.477C148.567 132.605 148.44 132.541 148.248 132.413Z" fill="black"/>
<path d="M166.503 132.732C166.503 130.052 169.822 129.094 171.864 130.052C173.013 130.562 173.843 131.583 174.162 132.796C174.29 133.179 173.716 133.498 173.46 133.179C172.375 131.903 170.524 131.264 169.056 132.03C168.609 132.286 168.545 132.477 168.418 132.732C168.418 134.009 166.567 133.945 166.503 132.732Z" fill="black"/>
<path d="M151.312 121.882C152.652 122.329 153.993 121.116 153.737 119.648C153.61 118.882 153.291 118.116 152.652 117.541C150.738 115.818 142.823 114.286 138.036 116.52C133.823 118.563 145.185 119.839 151.312 121.882Z" fill="black"/>
<path d="M170.397 122.903C169.311 123.286 168.163 122.137 168.354 120.796C168.418 120.094 168.673 119.392 169.184 118.882C170.716 117.35 175.95 116.137 179.269 118.499C182.141 120.477 175.375 121.052 170.397 122.903Z" fill="black"/>
<path d="M182.97 81.7976C167.652 77.4573 165.992 85.372 150.673 76.9467C135.355 68.4576 107.59 74.1383 102.419 93.8612C102.419 93.8612 93.8665 99.0951 93.292 117.158C92.909 129.286 99.228 140.392 103.377 146.328C106.185 150.923 109.121 154.306 110.845 157.37C113.589 162.285 114.93 167.646 114.93 167.646C115.568 161.519 117.036 155.902 116.142 153.413L114.036 152.711C98.0791 146.583 100.951 128.775 108.738 127.754C116.908 126.733 119.462 134.009 119.908 135.796C120.993 134.456 120.61 130.435 120.355 125.648C133.121 131.966 145.886 117.605 150.163 106.499C155.461 92.7761 167.141 103.499 167.141 103.499C167.141 103.499 178.694 125.137 190.949 115.499C201.8 106.818 199.63 86.4571 182.97 81.7976Z" fill="black"/>
<path d="M170.014 144.094C170.014 144.094 170.78 148.434 175.822 150.604C177.099 151.115 178.439 150.285 178.439 148.881C178.375 148.881 170.333 144.604 170.014 144.094Z" fill="black"/>
<path d="M130.568 144.094C130.568 144.094 132.93 149.455 140.015 150.732C147.1 152.072 153.546 146.966 156.546 138.413C156.546 138.413 154.121 146.328 144.419 147.796C134.845 149.392 130.568 144.094 130.568 144.094Z" fill="black"/>
<path d="M157.951 132.158C157.759 141.285 150.419 148.626 141.547 148.626C132.675 148.626 125.59 141.285 125.59 132.158C125.654 122.967 132.994 115.435 141.994 115.435C150.993 115.435 158.206 122.967 157.951 132.158Z" stroke="black" stroke-width="0.517542" stroke-miterlimit="10" stroke-linecap="round" stroke-linejoin="round"/>
<path d="M166.695 130.052C167.717 121.818 173.078 115.371 179.397 115.371C186.227 115.371 191.461 122.903 191.078 132.094C190.695 141.221 184.95 148.562 178.248 148.562C175.759 148.562 173.525 147.604 171.674 145.881" stroke="black" stroke-width="0.517542" stroke-miterlimit="10" stroke-linecap="round" stroke-linejoin="round"/>
<path d="M125.781 130.371H116.718" stroke="black" stroke-width="0.517542" stroke-miterlimit="10" stroke-linecap="round" stroke-linejoin="round"/>
<path d="M158.015 130.371C158.015 130.371 165.61 127.435 166.568 130.371" stroke="black" stroke-width="0.517542" stroke-miterlimit="10" stroke-linecap="round" stroke-linejoin="round"/>
</g>
</svg>
