<svg width="244" height="122" viewBox="0 0 244 122" fill="none" xmlns="http://www.w3.org/2000/svg">
<path d="M17.936 1.296C26.7253 4.79467 35.0453 9.488 42.896 15.376C38.8853 20.3253 35.1307 25.5733 31.632 31.12C33.936 31.0347 36.1973 30.7787 38.416 30.352C38.0747 34.192 37.904 37.9893 37.904 41.744C42.1707 39.696 44.9867 37.6053 46.352 35.472C48.0587 32.5707 48.912 29.3707 48.912 25.872V20.368C48.912 14.5653 48.272 8.71999 46.992 2.83199C55.44 3.51466 63.9307 3.856 72.464 3.856H78.48C86.5867 3.856 94.736 3.51466 102.928 2.83199C102.245 9.99999 101.904 17.168 101.904 24.336V26.384C101.904 29.712 104.08 31.376 108.432 31.376C112.016 31.376 115.173 30.6933 117.904 29.328C116.027 36.0693 115.045 42.5973 114.96 48.912C107.792 49.5093 101.435 49.808 95.888 49.808C85.5627 49.808 80.4 45.1573 80.4 35.856V24.336H70.416V35.344C70.416 39.696 69.3493 43.792 67.216 47.632C65.8507 49.7653 64.272 51.6853 62.48 53.392H101.392C104.891 53.392 108.389 53.0507 111.888 52.368C111.547 55.8667 111.376 59.3653 111.376 62.864V74.384C108.901 80.3573 105.659 85.776 101.648 90.64C106.256 91.5787 111.333 92.304 116.88 92.816C111.504 102.032 107.707 110.565 105.488 118.416C96.6987 116.027 88.336 112.613 80.4 108.176C72.976 112.357 64.3147 115.899 54.416 118.8C51.2587 112.827 47.8453 107.493 44.176 102.8L19.472 118.8C15.5467 112.997 10.8533 108.176 5.392 104.336C12.7307 99.5573 16.4 94.736 16.4 89.872V52.88C11.1093 52.88 5.776 53.0507 0.4 53.392C0.741333 49.552 0.912 45.712 0.912 41.872C0.912 38.032 0.741333 34.192 0.4 30.352C3.728 31.0347 7.056 31.376 10.384 31.376H28.176C20.8373 26.0853 13.2427 21.7333 5.392 18.32C10.0853 13.2 14.2667 7.52533 17.936 1.296ZM50.448 96.016C53.6907 95.3333 56.8053 94.48 59.792 93.456C55.184 89.36 50.7467 84.8373 46.48 79.888C50.32 77.7547 53.776 75.408 56.848 72.848H55.952C53.3067 72.848 49.9787 73.0187 45.968 73.36C46.3093 69.0933 46.48 65.5947 46.48 62.864C46.48 59.8773 46.3093 56.3787 45.968 52.368C48.1867 52.7947 50.2773 53.0933 52.24 53.264C47.12 49.3387 42.3413 46.0107 37.904 43.28V83.472L42.384 80.4C44.432 86.7147 47.12 91.92 50.448 96.016ZM68.496 72.848C72.08 76.6027 75.8347 79.7173 79.76 82.192C83.1733 79.2907 86.2453 76.176 88.976 72.848H68.496ZM143.376 0.911995C153.275 4.66666 162.619 9.65866 171.408 15.888C167.312 20.8373 163.6 26 160.272 31.376C163.429 31.2907 166.501 31.12 169.488 30.864C169.147 34.5333 168.976 38.2027 168.976 41.872V85.136L177.936 78.864C180.325 86.3733 183.653 92.3893 187.92 96.912L150.928 121.872C146.917 115.813 142.096 110.821 136.464 106.896C143.461 101.861 146.96 96.8693 146.96 91.92V52.368C141.072 52.368 135.227 52.5387 129.424 52.88C129.765 49.2107 129.936 45.5413 129.936 41.872C129.936 38.2027 129.765 34.5333 129.424 30.864C132.752 31.2053 136.08 31.376 139.408 31.376H156.304C148.283 25.5733 140.005 20.752 131.472 16.912C135.909 12.048 139.877 6.71466 143.376 0.911995ZM173.968 35.344C177.296 35.6853 180.453 35.856 183.44 35.856H196.88V16.912C196.88 12.048 196.752 6.84266 196.496 1.296C201.957 2.23466 210.448 2.70399 221.968 2.70399C223.589 2.70399 224.4 3.08799 224.4 3.856C224.4 4.53866 223.931 5.34933 222.992 6.28799C221.627 7.312 220.944 8.848 220.944 10.896V35.856H234C237.157 35.856 240.315 35.6853 243.472 35.344C243.131 39.44 242.96 43.4507 242.96 47.376C242.96 51.3867 243.131 55.696 243.472 60.304C240.656 59.7067 237.499 59.408 234 59.408H220.944V108.816C220.944 111.632 221.285 114.96 221.968 118.8C217.104 118.544 212.752 118.416 208.912 118.416C204.731 118.416 200.592 118.544 196.496 118.8C196.752 115.472 196.88 112.144 196.88 108.816V59.408H183.44C180.624 59.408 177.467 59.7067 173.968 60.304C174.309 55.44 174.48 51.1307 174.48 47.376C174.48 43.3653 174.309 39.3547 173.968 35.344Z" fill="currentColor"/>
</svg>
