<svg width="90" height="67" viewBox="0 0 90 67" fill="none" xmlns="http://www.w3.org/2000/svg">
<path d="M74.4716 26.7068C71.2816 40.2868 38.1416 57.7568 29.4516 60.0568C29.1875 60.1455 28.8968 60.1007 28.6716 59.9368L25.1416 57.0368C25.1416 57.0368 52.0316 43.9168 56.7516 39.3768C61.4716 34.8368 74.1916 25.6868 74.1916 25.6868L74.4716 26.7068Z" fill="currentColor"/>
<path d="M24.1417 60.7467C21.8778 59.2659 19.785 57.5387 17.9017 55.5967C16.0445 53.6087 14.4453 51.3946 13.1417 49.0067C10.5532 44.1895 9.32266 38.7593 9.58173 33.2967C9.65238 31.3301 9.8899 29.3731 10.2917 27.4467C10.6731 25.5232 11.2494 23.6435 12.0117 21.8367C14.6905 15.4848 19.1366 10.0356 24.8217 6.13673C27.6511 4.21825 30.7523 2.73508 34.0217 1.73673C34.8517 1.53673 35.6617 1.26673 36.5017 1.12673L39.0317 0.676727L41.5717 0.486727C42.4217 0.406727 43.2717 0.486727 44.1117 0.486727H45.2417L46.3617 0.606727C47.1017 0.696727 47.8517 0.736727 48.5917 0.856727C50.0634 1.10459 51.5192 1.43849 52.9517 1.85673C54.375 2.26326 55.774 2.75072 57.1417 3.31673C57.8317 3.59673 58.4817 3.94673 59.1417 4.25673C59.8292 4.54681 60.4972 4.88083 61.1417 5.25673C64.5124 7.10443 67.51 9.5629 69.9817 12.5067C72.4498 15.5065 74.103 19.0919 74.7817 22.9167C74.7817 24.1367 74.6817 24.6667 74.4217 24.6867C74.1617 24.7067 73.7217 24.2167 72.9617 23.4667L66.9617 16.5567C62.6254 11.4826 56.7451 7.96987 50.2217 6.55673C46.9858 5.78307 43.6514 5.50324 40.3317 5.72673C38.6814 5.86601 37.0456 6.14365 35.4417 6.55673C33.816 7.01777 32.228 7.60282 30.6917 8.30673C26.9612 10.1359 23.6955 12.7895 21.1417 16.0667C18.5152 19.4155 16.581 23.2533 15.4517 27.3567C14.1455 31.8213 14.018 36.5482 15.0817 41.0767C16.1996 45.6268 18.5529 49.7795 21.8817 53.0767C23.955 55.1463 26.3119 56.9106 28.8817 58.3167C31.4502 59.7487 34.2221 60.7806 37.1017 61.3767C41.412 62.3293 45.8906 62.2056 50.1417 61.0167C54.4116 59.6813 58.3935 57.558 61.8817 54.7567C64.4694 52.5386 66.6666 49.902 68.3817 46.9567C70.0302 44.0272 71.2461 40.8745 71.9917 37.5967L72.2417 36.5267C72.3117 36.1667 72.3517 35.8067 72.4117 35.4467C72.5017 34.7267 72.6717 34.0067 72.7217 33.2767C73.0917 30.5467 72.9917 28.7867 73.2117 27.5267C73.3033 26.9805 73.437 26.4423 73.6117 25.9167C73.8217 25.4567 74.0017 25.0967 74.1817 24.7367C74.3617 24.3767 74.4717 23.9867 74.6017 23.7367C74.8417 23.3667 75.2217 23.6867 76.0117 24.7367C76.7191 25.7852 77.1743 26.9831 77.3417 28.2367C77.4419 28.7917 77.502 29.3531 77.5217 29.9167C77.7107 33.3908 77.3736 36.8734 76.5217 40.2467C75.6016 43.7069 74.1763 47.0124 72.2917 50.0567C71.2959 51.5829 70.1931 53.0365 68.9917 54.4067C68.4016 55.1068 67.774 55.7744 67.1117 56.4067L65.0417 58.2267L64.5317 58.6867L63.9717 59.0867L62.8417 59.9167C62.0817 60.4267 61.3617 61.0167 60.5617 61.4467L58.1417 62.7167C57.7417 62.9267 57.3417 63.1567 56.9317 63.3467L55.6617 63.8567L53.7917 64.6167C53.1616 64.8881 52.5134 65.1153 51.8517 65.2967C51.1717 65.4867 50.4917 65.6967 49.8517 65.8567L47.7817 66.2267C45.0311 66.6196 42.241 66.6532 39.4817 66.3267C34.0367 65.6127 28.8068 63.7444 24.1417 60.8467V60.7467Z" fill="currentColor"/>
<path d="M65.6418 36.0267C60.0356 40.3996 54.0289 44.2332 47.7018 47.4767C45.4118 48.6467 43.1418 49.9167 40.8518 50.9167C36.7718 52.8167 32.6285 54.59 28.4218 56.2367C24.1804 57.874 19.8381 59.2369 15.4218 60.3167C13.4467 60.8323 11.4433 61.233 9.42179 61.5167C8.37112 61.6544 7.31052 61.7013 6.2518 61.6567C5.10323 61.6373 3.97047 61.3855 2.9218 60.9167C2.15071 60.5499 1.48884 59.988 1.0018 59.2867C0.533492 58.5749 0.238915 57.7631 0.141795 56.9167C0.0449692 56.1265 0.0787534 55.3258 0.241795 54.5467C0.411896 53.8225 0.666999 53.1209 1.0018 52.4567C2.26885 49.9294 4.34112 47.8958 6.8918 46.6767C7.7118 46.3067 8.2018 46.4167 8.2718 46.6767C8.34179 46.9367 8.1118 47.4867 7.7818 48.1567C7.4518 48.8267 6.9918 49.6367 6.4818 50.5967C6.2218 51.0567 5.98179 51.5967 5.69179 52.0667L4.7418 53.6067C4.2351 54.3317 3.91248 55.1691 3.8018 56.0467C3.77823 56.3839 3.81549 56.7226 3.9118 57.0467C3.97042 57.258 4.09692 57.4443 4.2718 57.5767C4.972 58.0196 5.78325 58.2554 6.61179 58.2567C7.75128 58.307 8.89297 58.25 10.0218 58.0867C11.2118 57.9367 12.4218 57.7067 13.6318 57.4367C14.8418 57.1667 16.0418 56.7467 17.2418 56.3667C19.6418 55.5867 22.0418 54.7267 24.4418 53.8267C30.3348 51.6016 36.0857 49.0167 41.6618 46.0867C44.7818 44.5367 47.8418 42.9767 50.7918 41.2067C53.7418 39.4367 56.6318 37.5367 59.4118 35.4967C62.8442 32.9833 66.1328 30.279 69.2618 27.3967C71.6218 25.1767 73.9218 22.9167 76.1418 20.5367C77.2318 19.3567 78.2918 18.1267 79.4018 16.9067C80.5118 15.6867 81.5518 14.5067 82.4918 13.2667C83.2183 12.3348 83.845 11.3293 84.3618 10.2667C84.4818 10.0067 84.6118 9.75666 84.7018 9.49666L84.8518 9.11666C84.8865 9.02491 84.9165 8.93145 84.9418 8.83666C85.0331 8.53816 85.0835 8.22869 85.0918 7.91666C85.0868 7.61713 84.9331 7.33971 84.6818 7.17666C84.4301 7.03062 84.1426 6.95788 83.8518 6.96666C83.5155 6.9835 83.1812 7.02697 82.8518 7.09666C82.3256 7.18988 81.8121 7.34426 81.3218 7.55666C80.4155 7.93766 79.5592 8.42796 78.7718 9.01666C77.6024 9.65483 76.3894 10.2095 75.1418 10.6767C74.7357 10.7722 74.3186 10.8126 73.9018 10.7967C73.5119 10.7284 73.1275 10.6314 72.7518 10.5067C72.4218 10.3967 72.0518 10.3567 71.8218 10.2467C71.4218 10.0667 71.4618 9.60666 71.7318 8.67666C72.1961 7.45188 73.0318 6.40294 74.1218 5.67666C76.1725 4.11551 78.577 3.085 81.1218 2.67666C81.8617 2.48209 82.6185 2.3582 83.3818 2.30666C84.4433 2.22309 85.5108 2.35228 86.5218 2.68666C87.4926 3.0167 88.3447 3.62535 88.9718 4.43666C89.5838 5.26825 89.9133 6.27411 89.9118 7.30666C89.8518 8.39135 89.6258 9.46043 89.2418 10.4767C89.1782 10.6847 89.1014 10.8884 89.0118 11.0867L88.8018 11.5767C88.6518 11.9067 88.4918 12.2067 88.3318 12.5267C87.7053 13.7203 86.9723 14.8549 86.1418 15.9167C84.5818 17.9167 82.8818 19.6967 81.3918 21.3667C76.6024 26.7187 71.3595 31.647 65.7218 36.0967L65.6418 36.0267Z" fill="currentColor"/>
<path d="M33.4522 27.8468C33.034 28.1051 32.592 28.3228 32.1322 28.4968C31.6864 28.6235 31.2318 28.7171 30.7722 28.7768C29.9297 28.8509 29.0807 28.7799 28.2622 28.5668L27.3922 28.3468C27.096 28.2431 26.8084 28.116 26.5322 27.9668C25.5397 27.3969 24.7681 26.5091 24.3422 25.4468C24.1425 24.9332 24.0374 24.3878 24.0322 23.8368C24.0322 23.5668 24.0322 23.3068 24.1222 23.0568L24.3222 22.3168C24.6055 21.5023 25.0512 20.7539 25.6322 20.1168C26.3078 19.2903 27.2811 18.7624 28.3422 18.6468C28.6622 18.6468 28.6722 18.8968 28.5422 19.2768C28.3985 19.7034 28.1668 20.0952 27.8622 20.4268C27.5758 20.6606 27.3351 20.9454 27.1522 21.2668C26.9786 21.5615 26.8537 21.8823 26.7822 22.2168C26.7105 22.5146 26.6769 22.8204 26.6822 23.1268C26.7022 23.4131 26.7022 23.7004 26.6822 23.9868C26.6822 24.7168 27.3822 25.1968 28.1522 25.4868C29.0405 25.8653 30.0369 25.9044 30.9522 25.5968C31.4523 25.3752 31.869 25.0005 32.1422 24.5268C32.6066 23.7379 32.7121 22.7883 32.4322 21.9168C32.1876 21.2527 31.7614 20.6706 31.2022 20.2368C31.068 20.1617 30.9408 20.0747 30.8222 19.9768C30.4403 19.6365 30.302 19.0991 30.4722 18.6168C30.4722 18.4768 30.5222 18.3268 30.5522 18.1868C30.6722 17.7368 31.1222 17.5068 31.8722 17.5668C33.0396 17.7671 34.1005 18.3683 34.8722 19.2668C35.2922 19.7445 35.6301 20.2886 35.8722 20.8768C35.9522 21.1868 36.0222 21.5068 36.0722 21.8268C36.1222 22.1468 36.0722 22.4868 36.1222 22.8268C36.0971 24.8408 35.1268 26.726 33.5022 27.9168L33.4522 27.8468Z" fill="currentColor"/>
</svg>
