<svg viewBox="0 0 586 93" fill="none" xmlns="http://www.w3.org/2000/svg">
<path d="M1.632 46.688C3.168 37.8133 6.45333 29.92 11.488 23.008C16.5227 16.0107 22.8373 10.592 30.432 6.752C38.0267 2.82667 46.3467 0.863998 55.392 0.863998C66.7413 0.863998 75.616 3.59467 82.016 9.056C88.5013 14.5173 91.8293 21.984 92 31.456H64.992C64.0533 29.0667 62.432 27.232 60.128 25.952C57.824 24.672 54.9227 24.032 51.424 24.032C45.1947 24.032 39.8613 26.08 35.424 30.176C31.072 34.272 28.2987 39.776 27.104 46.688C26.6773 49.248 26.464 51.3813 26.464 53.088C26.464 58.8053 28.0853 63.1573 31.328 66.144C34.5707 69.0453 39.3493 70.496 45.664 70.496C54.4533 70.496 61.4507 66.528 66.656 58.592H41.44L44.64 40.544H91.488L87.136 64.864C82.6987 72.4587 76.3413 78.9867 68.064 84.448C59.7867 89.9093 50.2293 92.64 39.392 92.64C31.3707 92.64 24.4587 91.1467 18.656 88.16C12.8533 85.088 8.416 80.8213 5.344 75.36C2.272 69.8987 0.736 63.584 0.736 56.416C0.736 53.0027 1.03467 49.76 1.632 46.688ZM149.067 1.75999C158.539 1.75999 165.75 3.89333 170.699 8.16C175.648 12.3413 178.123 17.9307 178.123 24.928C178.123 27.0613 177.952 28.9813 177.611 30.688C176.587 36.832 173.984 42.2507 169.803 46.944C165.622 51.552 160.075 54.8373 153.163 56.8L167.243 92H139.339L127.307 58.72H124.619L118.731 92H93.515L109.515 1.75999H149.067ZM127.691 41.568H140.107C146.763 41.568 150.688 38.4107 151.883 32.096C152.054 31.072 152.139 30.3467 152.139 29.92C152.139 27.616 151.371 25.824 149.835 24.544C148.384 23.264 146.208 22.624 143.307 22.624H130.891L127.691 41.568ZM237.916 77.28H205.916L198.492 92H172.124L220.892 1.75999H249.82L266.716 92H240.22L237.916 77.28ZM234.972 58.208L230.492 28.896L215.644 58.208H234.972ZM356.685 31.84C355.746 37.3013 353.613 42.2933 350.285 46.816C347.042 51.2533 342.648 54.8373 337.101 57.568C331.554 60.2133 325.112 61.536 317.773 61.536H305.357L299.981 92H274.765L290.765 1.75999H328.269C337.741 1.75999 344.952 3.93599 349.901 8.28799C354.85 12.5547 357.325 18.3147 357.325 25.568C357.325 27.36 357.112 29.4507 356.685 31.84ZM318.925 41.696C326.008 41.696 330.104 38.4107 331.213 31.84C331.384 30.6453 331.469 29.792 331.469 29.28C331.469 26.976 330.701 25.184 329.165 23.904C327.714 22.5387 325.453 21.856 322.381 21.856H312.397L308.941 41.696H318.925ZM452.908 1.75999L437.036 92H411.82L418.22 55.776H387.756L381.356 92H356.14L372.14 1.75999H397.228L391.212 35.808H421.804L427.82 1.75999H452.908ZM492.353 1.75999L476.481 92H451.265L467.265 1.75999H492.353ZM495.632 46.688C497.168 37.8133 500.411 29.92 505.36 23.008C510.309 16.0107 516.539 10.592 524.048 6.752C531.557 2.82667 539.749 0.863998 548.624 0.863998C556.048 0.863998 562.533 2.22933 568.08 4.96C573.627 7.69067 577.936 11.5733 581.008 16.608C584.08 21.6427 585.744 27.5733 586 34.4H558.992C557.968 31.072 556.176 28.512 553.616 26.72C551.056 24.928 547.899 24.032 544.144 24.032C538.341 24.032 533.349 26.08 529.168 30.176C524.987 34.272 522.299 39.776 521.104 46.688C520.763 48.48 520.592 50.4 520.592 52.448C520.592 57.7387 521.957 61.92 524.688 64.992C527.504 67.9787 531.344 69.472 536.208 69.472C539.963 69.472 543.419 68.576 546.576 66.784C549.819 64.992 552.507 62.432 554.64 59.104H581.776C577.68 69.4293 571.237 77.6213 562.448 83.68C553.659 89.6533 543.632 92.64 532.368 92.64C524.603 92.64 517.861 91.1467 512.144 88.16C506.512 85.1733 502.203 80.9493 499.216 75.488C496.229 70.0267 494.736 63.712 494.736 56.544C494.736 53.216 495.035 49.9307 495.632 46.688Z" fill="currentColor"/>
</svg>
