<svg viewBox="0 0 879 93" fill="none" xmlns="http://www.w3.org/2000/svg">
<path d="M41.728 1.75999L25.856 92H0.64L16.64 1.75999H41.728ZM123.727 92H98.511L74.191 41.568L65.231 92H40.015L56.015 1.75999H81.103L105.551 52.832L114.511 1.75999H139.599L123.727 92ZM221.858 1.75999L218.274 21.728H194.338L181.922 92H156.706L169.122 21.728H145.314L148.898 1.75999H221.858ZM252.772 21.6L250.212 36.576H279.012L275.556 55.648H246.756L243.812 72.032H276.452L272.996 92H215.14L231.14 1.75999H288.868L285.412 21.6H252.772ZM340.817 1.75999C350.289 1.75999 357.5 3.89333 362.449 8.16C367.398 12.3413 369.873 17.9307 369.873 24.928C369.873 27.0613 369.702 28.9813 369.361 30.688C368.337 36.832 365.734 42.2507 361.553 46.944C357.372 51.552 351.825 54.8373 344.913 56.8L358.993 92H331.089L319.057 58.72H316.369L310.481 92H285.265L301.265 1.75999H340.817ZM319.441 41.568H331.857C338.513 41.568 342.438 38.4107 343.633 32.096C343.804 31.072 343.889 30.3467 343.889 29.92C343.889 27.616 343.121 25.824 341.585 24.544C340.134 23.264 337.958 22.624 335.057 22.624H322.641L319.441 41.568ZM429.666 77.28H397.666L390.242 92H363.874L412.642 1.75999H441.57L458.466 92H431.97L429.666 77.28ZM426.722 58.208L422.242 28.896L407.394 58.208H426.722ZM471.507 46.688C473.043 37.8133 476.286 29.92 481.235 23.008C486.184 16.0107 492.414 10.592 499.923 6.752C507.432 2.82667 515.624 0.863998 524.499 0.863998C531.923 0.863998 538.408 2.22933 543.955 4.96C549.502 7.69067 553.811 11.5733 556.883 16.608C559.955 21.6427 561.619 27.5733 561.875 34.4H534.867C533.843 31.072 532.051 28.512 529.491 26.72C526.931 24.928 523.774 24.032 520.019 24.032C514.216 24.032 509.224 26.08 505.043 30.176C500.862 34.272 498.174 39.776 496.979 46.688C496.638 48.48 496.467 50.4 496.467 52.448C496.467 57.7387 497.832 61.92 500.563 64.992C503.379 67.9787 507.219 69.472 512.083 69.472C515.838 69.472 519.294 68.576 522.451 66.784C525.694 64.992 528.382 62.432 530.515 59.104H557.651C553.555 69.4293 547.112 77.6213 538.323 83.68C529.534 89.6533 519.507 92.64 508.243 92.64C500.478 92.64 493.736 91.1467 488.019 88.16C482.387 85.1733 478.078 80.9493 475.091 75.488C472.104 70.0267 470.611 63.712 470.611 56.544C470.611 53.216 470.91 49.9307 471.507 46.688ZM647.483 1.75999L643.899 21.728H619.963L607.547 92H582.331L594.747 21.728H570.939L574.523 1.75999H647.483ZM681.853 1.75999L665.981 92H640.765L656.765 1.75999H681.853ZM723.788 92.896C716.193 92.896 709.495 91.3173 703.692 88.16C697.889 85.0027 693.409 80.5653 690.252 74.848C687.095 69.1307 685.516 62.56 685.516 55.136C685.516 44.4693 687.735 34.9973 692.172 26.72C696.695 18.3573 702.967 11.872 710.988 7.26399C719.095 2.656 728.353 0.351997 738.764 0.351997C746.529 0.351997 753.313 1.93066 759.116 5.088C765.004 8.16 769.527 12.5547 772.684 18.272C775.841 23.904 777.42 30.432 777.42 37.856C777.42 48.4373 775.159 57.9093 770.636 66.272C766.113 74.6347 759.799 81.1627 751.692 85.856C743.585 90.5493 734.284 92.896 723.788 92.896ZM727.628 69.6C732.663 69.6 737.057 68.2773 740.812 65.632C744.652 62.9867 747.553 59.488 749.516 55.136C751.564 50.6987 752.588 45.92 752.588 40.8C752.588 35.3387 751.095 31.1147 748.108 28.128C745.207 25.056 741.025 23.52 735.564 23.52C730.529 23.52 726.092 24.8427 722.252 27.488C718.412 30.048 715.468 33.504 713.42 37.856C711.372 42.208 710.348 46.9867 710.348 52.192C710.348 57.568 711.841 61.8347 714.828 64.992C717.815 68.064 722.081 69.6 727.628 69.6ZM864.602 92H839.386L815.066 41.568L806.106 92H780.89L796.89 1.75999H821.978L846.426 52.832L855.386 1.75999H880.474L864.602 92Z" fill="currentColor"/>
</svg>
