<svg viewBox="0 0 627 93" fill="none" xmlns="http://www.w3.org/2000/svg">
<path d="M82.56 31.84C81.6213 37.3013 79.488 42.2933 76.16 46.816C72.9173 51.2533 68.5227 54.8373 62.976 57.568C57.4293 60.2133 50.9867 61.536 43.648 61.536H31.232L25.856 92H0.64L16.64 1.75999H54.144C63.616 1.75999 70.8267 3.93599 75.776 8.28799C80.7253 12.5547 83.2 18.3147 83.2 25.568C83.2 27.36 82.9867 29.4507 82.56 31.84ZM44.8 41.696C51.8827 41.696 55.9787 38.4107 57.088 31.84C57.2587 30.6453 57.344 29.792 57.344 29.28C57.344 26.976 56.576 25.184 55.04 23.904C53.5893 22.5387 51.328 21.856 48.256 21.856H38.272L34.816 41.696H44.8ZM137.567 1.75999C147.039 1.75999 154.25 3.89333 159.199 8.16C164.148 12.3413 166.623 17.9307 166.623 24.928C166.623 27.0613 166.452 28.9813 166.111 30.688C165.087 36.832 162.484 42.2507 158.303 46.944C154.122 51.552 148.575 54.8373 141.663 56.8L155.743 92H127.839L115.807 58.72H113.119L107.231 92H82.015L98.015 1.75999H137.567ZM116.191 41.568H128.607C135.263 41.568 139.188 38.4107 140.383 32.096C140.554 31.072 140.639 30.3467 140.639 29.92C140.639 27.616 139.871 25.824 138.335 24.544C136.884 23.264 134.708 22.624 131.807 22.624H119.391L116.191 41.568ZM210.288 92.896C202.693 92.896 195.995 91.3173 190.192 88.16C184.389 85.0027 179.909 80.5653 176.752 74.848C173.595 69.1307 172.016 62.56 172.016 55.136C172.016 44.4693 174.235 34.9973 178.672 26.72C183.195 18.3573 189.467 11.872 197.488 7.26399C205.595 2.656 214.853 0.351997 225.264 0.351997C233.029 0.351997 239.813 1.93066 245.616 5.088C251.504 8.16 256.027 12.5547 259.184 18.272C262.341 23.904 263.92 30.432 263.92 37.856C263.92 48.4373 261.659 57.9093 257.136 66.272C252.613 74.6347 246.299 81.1627 238.192 85.856C230.085 90.5493 220.784 92.896 210.288 92.896ZM214.128 69.6C219.163 69.6 223.557 68.2773 227.312 65.632C231.152 62.9867 234.053 59.488 236.016 55.136C238.064 50.6987 239.088 45.92 239.088 40.8C239.088 35.3387 237.595 31.1147 234.608 28.128C231.707 25.056 227.525 23.52 222.064 23.52C217.029 23.52 212.592 24.8427 208.752 27.488C204.912 30.048 201.968 33.504 199.92 37.856C197.872 42.208 196.848 46.9867 196.848 52.192C196.848 57.568 198.341 61.8347 201.328 64.992C204.315 68.064 208.581 69.6 214.128 69.6ZM319.102 1.75999C327.379 1.75999 334.547 3.25333 340.606 6.24C346.665 9.14133 351.273 13.28 354.43 18.656C357.587 24.032 359.166 30.304 359.166 37.472C359.166 40.7147 358.867 43.8293 358.27 46.816C356.734 55.52 353.406 63.2853 348.286 70.112C343.251 76.9387 336.809 82.3147 328.958 86.24C321.193 90.08 312.574 92 303.102 92H267.39L283.39 1.75999H319.102ZM305.15 69.984C312.489 69.984 318.59 67.9787 323.454 63.968C328.318 59.872 331.433 54.1547 332.798 46.816C333.139 45.1093 333.31 43.2747 333.31 41.312C333.31 35.5947 331.561 31.2 328.062 28.128C324.563 25.056 319.657 23.52 313.342 23.52H304.766L296.446 69.984H305.15ZM402.091 1.75999L393.003 54.112C392.747 55.648 392.619 57.0987 392.619 58.464C392.619 61.8773 393.515 64.5227 395.307 66.4C397.184 68.2773 400.043 69.216 403.883 69.216C408.491 69.216 412.203 67.8933 415.019 65.248C417.835 62.6027 419.67 58.8907 420.523 54.112L429.739 1.75999H454.827L445.611 54.112C444.16 62.6453 441.216 69.8133 436.779 75.616C432.342 81.4187 426.923 85.7707 420.523 88.672C414.123 91.488 407.126 92.896 399.531 92.896C389.718 92.896 381.824 90.336 375.851 85.216C369.963 80.096 367.019 72.7573 367.019 63.2C367.019 60.128 367.318 57.0987 367.915 54.112L377.131 1.75999H402.091ZM457.632 46.688C459.168 37.8133 462.411 29.92 467.36 23.008C472.309 16.0107 478.539 10.592 486.048 6.752C493.557 2.82667 501.749 0.863998 510.624 0.863998C518.048 0.863998 524.533 2.22933 530.08 4.96C535.627 7.69067 539.936 11.5733 543.008 16.608C546.08 21.6427 547.744 27.5733 548 34.4H520.992C519.968 31.072 518.176 28.512 515.616 26.72C513.056 24.928 509.899 24.032 506.144 24.032C500.341 24.032 495.349 26.08 491.168 30.176C486.987 34.272 484.299 39.776 483.104 46.688C482.763 48.48 482.592 50.4 482.592 52.448C482.592 57.7387 483.957 61.92 486.688 64.992C489.504 67.9787 493.344 69.472 498.208 69.472C501.963 69.472 505.419 68.576 508.576 66.784C511.819 64.992 514.507 62.432 516.64 59.104H543.776C539.68 69.4293 533.237 77.6213 524.448 83.68C515.659 89.6533 505.632 92.64 494.368 92.64C486.603 92.64 479.861 91.1467 474.144 88.16C468.512 85.1733 464.203 80.9493 461.216 75.488C458.229 70.0267 456.736 63.712 456.736 56.544C456.736 53.216 457.035 49.9307 457.632 46.688ZM633.608 1.75999L630.024 21.728H606.088L593.672 92H568.456L580.872 21.728H557.064L560.648 1.75999H633.608Z" fill="currentColor"/>
</svg>
