<svg viewBox="0 0 716 91" fill="none" xmlns="http://www.w3.org/2000/svg">
<path d="M131.744 0.759995L93.728 91H62.88L60.192 35.576L37.664 91H6.816L0.928 0.759995H28.064L27.808 62.456L52.768 0.759995H80.288L83.232 62.2L104.608 0.759995H131.744ZM223.158 0.759995L207.286 91H182.07L188.47 54.776H158.006L151.606 91H126.39L142.39 0.759995H167.478L161.462 34.808H192.054L198.07 0.759995H223.158ZM281.291 76.28H249.291L241.867 91H215.499L264.267 0.759995H293.195L310.091 91H283.595L281.291 76.28ZM278.347 57.208L273.867 27.896L259.019 57.208H278.347ZM402.108 0.759995L398.524 20.728H374.588L362.172 91H336.956L349.372 20.728H325.564L329.148 0.759995H402.108ZM433.022 20.6L430.462 35.576H459.262L455.806 54.648H427.006L424.062 71.032H456.702L453.246 91H395.39L411.39 0.759995H469.118L465.662 20.6H433.022ZM501.739 0.759995L510.699 65.784L542.571 0.759995H569.323L522.219 91H490.219L474.987 0.759995H501.739ZM598.772 20.6L596.212 35.576H625.012L621.556 54.648H592.756L589.812 71.032H622.452L618.996 91H561.14L577.14 0.759995H634.868L631.412 20.6H598.772ZM686.817 0.759995C696.289 0.759995 703.5 2.89333 708.449 7.16C713.398 11.3413 715.873 16.9307 715.873 23.928C715.873 26.0613 715.702 27.9813 715.361 29.688C714.337 35.832 711.734 41.2507 707.553 45.944C703.372 50.552 697.825 53.8373 690.913 55.8L704.993 91H677.089L665.057 57.72H662.369L656.481 91H631.265L647.265 0.759995H686.817ZM665.441 40.568H677.857C684.513 40.568 688.438 37.4107 689.633 31.096C689.804 30.072 689.889 29.3467 689.889 28.92C689.889 26.616 689.121 24.824 687.585 23.544C686.134 22.264 683.958 21.624 681.057 21.624H668.641L665.441 40.568Z" fill="currentColor"/>
</svg>
