<svg width="24" height="24" viewBox="0 0 24 24" fill="none" xmlns="http://www.w3.org/2000/svg">
<g>
<path fill-rule="evenodd" clip-rule="evenodd" d="M10.6824 9.01691C8.45454 7.18561 6.64935 5.00474 5.29283 2.46387C5.02152 1.95778 4.39024 1.76474 3.87894 2.03604C3.37285 2.30735 3.17977 2.93866 3.45107 3.44997C4.94325 6.23084 6.91546 8.62041 9.3572 10.6291C9.80067 10.9943 10.4633 10.9317 10.8285 10.4882C11.1937 10.0395 11.1258 9.38213 10.6824 9.01691Z" fill="#175DDC"/>
<path fill-rule="evenodd" clip-rule="evenodd" d="M9.49429 1.88476C9.60907 3.99259 9.71344 6.10041 9.84388 8.20824C9.8804 8.78215 10.3761 9.22041 10.95 9.18389C11.5239 9.14736 11.9621 8.65172 11.9256 8.0778C11.7952 5.97519 11.6908 3.8726 11.576 1.76477C11.5447 1.19242 11.0491 0.751551 10.4752 0.783899C9.90125 0.816247 9.45777 1.30928 9.49429 1.88476Z" fill="#175DDC"/>
<path fill-rule="evenodd" clip-rule="evenodd" d="M17.24 2.31286C15.9044 4.32678 14.3914 6.18415 12.8679 8.06241C12.5027 8.5111 12.5705 9.16853 13.0192 9.52853C13.4679 9.89374 14.1253 9.8259 14.4853 9.3772C16.0505 7.45198 17.6053 5.53719 18.9827 3.46589C19.3009 2.98589 19.1652 2.33895 18.6852 2.02069C18.2105 1.70243 17.5583 1.83286 17.24 2.31286Z" fill="#175DDC"/>
<path fill-rule="evenodd" clip-rule="evenodd" d="M22.4139 9.79955C18.793 9.96129 14.9478 9.96651 11.327 9.73695C10.753 9.70564 10.2574 10.1387 10.2209 10.7178C10.1844 11.2917 10.6226 11.7874 11.1965 11.8239C14.8904 12.0535 18.8139 12.0482 22.5079 11.8865C23.0818 11.8604 23.5304 11.37 23.5043 10.7961C23.4782 10.2222 22.9878 9.77347 22.4139 9.79955Z" fill="#175DDC"/>
<path fill-rule="evenodd" clip-rule="evenodd" d="M9.35436 10.4623C11.5874 13.1963 13.8987 15.878 15.97 18.7371C16.3092 19.2015 16.9614 19.3058 17.4309 18.9667C17.8953 18.6276 17.9996 17.9754 17.6605 17.511C15.5631 14.6206 13.2257 11.9075 10.9666 9.14232C10.6014 8.69885 9.94394 8.63104 9.50046 8.99625C9.05177 9.36147 8.98914 10.0189 9.35436 10.4623Z" fill="#175DDC"/>
<path fill-rule="evenodd" clip-rule="evenodd" d="M10.0306 11.2551C10.615 14.1038 10.7767 16.8273 10.8185 19.7125C10.8237 20.2865 11.2985 20.7456 11.8724 20.7403C12.4515 20.7299 12.9106 20.2603 12.9002 19.6812C12.8585 16.6603 12.6863 13.8169 12.0759 10.8325C11.9559 10.2691 11.4081 9.90381 10.8394 10.0238C10.2759 10.1386 9.91064 10.6917 10.0306 11.2551Z" fill="#175DDC"/>
<path fill-rule="evenodd" clip-rule="evenodd" d="M10.1248 11.0259C8.43441 14.4068 7.5631 18.1633 5.75267 21.4711C5.47615 21.972 5.66393 22.6085 6.17002 22.885C6.67611 23.1616 7.30746 22.9737 7.58398 22.4728C9.40485 19.1441 10.2866 15.3668 11.9926 11.9598C12.2483 11.4433 12.0396 10.8172 11.5283 10.5563C11.0118 10.3007 10.3857 10.5094 10.1248 11.0259Z" fill="#175DDC"/>
<path fill-rule="evenodd" clip-rule="evenodd" d="M11.0552 10.2584C7.68995 10.8532 4.32995 11.1245 0.943864 11.5263C0.369951 11.5941 -0.0370052 12.1106 0.0308208 12.6845C0.0986469 13.2584 0.615217 13.6654 1.18913 13.5976C4.61174 13.1958 8.01347 12.9141 11.4204 12.3141C11.9839 12.2097 12.3648 11.6671 12.2656 11.1036C12.1613 10.5349 11.6239 10.1541 11.0552 10.2584Z" fill="#175DDC"/>
<path fill-rule="evenodd" clip-rule="evenodd" d="M13.3969 8.67288C12.703 8.64158 12.0456 8.59461 11.3673 8.49547C10.7934 8.412 10.2665 8.80852 10.183 9.37722C10.0995 9.94591 10.496 10.4781 11.0647 10.5616C11.816 10.6711 12.5412 10.7233 13.303 10.7546C13.8769 10.7807 14.3673 10.3372 14.3882 9.75808C14.4142 9.18416 13.9708 8.69897 13.3969 8.67288Z" fill="#175DDC"/>
</g>
</svg>
