<svg width="963" height="159" viewBox="0 0 963 159" fill="none" xmlns="http://www.w3.org/2000/svg">
<path d="M0.268004 133.355H4.996C5.1 132.627 5.16 131.863 5.176 131.063V130.151H5.824V130.919C5.824 131.783 5.764 132.595 5.644 133.355H10.732V134.003H5.92C6.76 136.827 8.436 138.991 10.948 140.495L10.552 141.023C8.032 139.487 6.332 137.275 5.452 134.387C4.772 137.483 3.1 139.719 0.436004 141.095L0.0280042 140.555C2.66 139.259 4.28 137.075 4.888 134.003H0.268004V133.355ZM19.444 136.319C19.084 136.447 18.776 136.539 18.52 136.595C18.72 137.179 18.832 137.823 18.856 138.527C18.856 139.447 18.732 140.095 18.484 140.471C18.212 140.863 17.58 141.059 16.588 141.059H16.168L15.952 140.495H16.504C17.24 140.479 17.704 140.367 17.896 140.159C18.12 139.871 18.232 139.327 18.232 138.527C18.224 138.247 18.2 137.979 18.16 137.723C16.84 138.803 15.032 139.695 12.736 140.399L12.412 139.835C14.852 139.115 16.72 138.199 18.016 137.087C17.928 136.743 17.792 136.391 17.608 136.031C16.456 136.959 14.88 137.711 12.88 138.287L12.568 137.723C14.64 137.155 16.224 136.431 17.32 135.551C17.12 135.255 16.924 135.007 16.732 134.807L16.348 134.999C15.46 135.407 14.38 135.787 13.108 136.139L12.76 135.599C13.928 135.327 14.972 134.995 15.892 134.603C16.42 134.371 16.924 134.111 17.404 133.823H13.888V133.211H21.124V133.823H18.34C17.956 134.087 17.584 134.327 17.224 134.543C17.68 135.007 18.04 135.519 18.304 136.079C19.472 135.767 20.576 135.267 21.616 134.579L22.06 135.011C21.412 135.451 20.716 135.823 19.972 136.127C20.548 137.711 21.484 138.971 22.78 139.907L22.324 140.447C20.964 139.367 20.004 137.991 19.444 136.319ZM17.548 130.055C17.708 130.431 17.852 130.835 17.98 131.267H22.504V133.235H21.856V131.879H13.132V133.235H12.484V131.267H17.344C17.224 130.931 17.072 130.563 16.888 130.163L17.548 130.055ZM24.196 130.907H34.84V131.543H33.208V139.871C33.208 140.615 32.84 140.987 32.104 140.987H30.124L29.98 140.363C30.86 140.395 31.492 140.411 31.876 140.411C32.324 140.411 32.548 140.175 32.548 139.703V131.543H24.196V130.907ZM30.136 133.583V137.831H26.272V138.923H25.648V133.583H30.136ZM26.272 137.231H29.512V134.171H26.272V137.231ZM39.904 131.471C40.984 132.679 41.84 133.775 42.472 134.759L41.932 135.143C41.3 134.119 40.44 133.011 39.352 131.819L39.904 131.471ZM44.152 137.123C43.384 138.659 42.108 139.951 40.324 140.999L39.88 140.459C41.896 139.307 43.24 137.827 43.912 136.019C44.416 134.483 44.668 132.559 44.668 130.247H45.34C45.34 132.495 45.1 134.399 44.62 135.959C44.54 136.199 44.476 136.375 44.428 136.487C45.412 137.751 46.26 139.047 46.972 140.375L46.48 140.867C45.864 139.643 45.088 138.395 44.152 137.123ZM36.904 139.091C37.096 138.971 37.192 138.795 37.192 138.563V130.655H37.864V138.743C38.864 138.351 39.836 137.867 40.78 137.291L40.972 137.939C39.788 138.619 38.5 139.207 37.108 139.703L36.904 139.091ZM48.64 132.047H50.596V131.267H48.16V130.739H50.596V130.127H51.196V130.739H53.5V131.267H51.196V132.047H53.164V134.027H51.196V134.303C51.948 134.639 52.68 135.015 53.392 135.431L53.068 135.923C52.34 135.419 51.716 135.023 51.196 134.735V136.055H50.596V134.567C49.844 135.223 49.08 135.747 48.304 136.139L48.016 135.623C48.88 135.287 49.74 134.763 50.596 134.051V134.027H48.64V132.047ZM52.612 133.559V132.527H51.196V133.559H52.612ZM50.596 133.559V132.527H49.18V133.559H50.596ZM55.06 131.747C54.972 131.939 54.868 132.151 54.748 132.383C55.108 133.095 55.596 133.707 56.212 134.219L56.344 134.087C56.84 133.503 57.16 132.723 57.304 131.747H55.06ZM55.756 134.603C55.22 134.139 54.772 133.583 54.412 132.935C54.22 133.223 54.016 133.487 53.8 133.727L53.416 133.235C54.176 132.371 54.692 131.319 54.964 130.079L55.564 130.151C55.484 130.495 55.388 130.835 55.276 131.171H58.708V131.747H57.892C57.724 132.883 57.364 133.787 56.812 134.459L56.692 134.579C57.324 135.003 58.04 135.335 58.84 135.575L58.492 136.103C57.612 135.815 56.86 135.443 56.236 134.987C55.652 135.411 54.88 135.763 53.92 136.043L53.692 135.503C54.548 135.263 55.236 134.963 55.756 134.603ZM53.092 137.147H48.784V136.571H58.24V137.147H53.74V138.371H57.568V138.947H53.74V140.171H58.804V140.771H48.196V140.171H50.176V137.807H50.8V140.171H53.092V137.147ZM64.66 130.655H70.312V136.067H67.816V137.711H70.552V138.335H67.816V140.063H70.936V140.699H64.048V140.063H67.168V138.335H64.408V137.711H67.168V136.067H64.66V130.655ZM69.676 135.479V133.643H67.816V135.479H69.676ZM67.168 135.479V133.643H65.296V135.479H67.168ZM65.296 133.067H67.168V131.243H65.296V133.067ZM67.816 131.243V133.067H69.676V131.243H67.816ZM60.316 134.651H61.684V131.603H60.136V130.979H63.868V131.603H62.332V134.651H63.724V135.275H62.332V138.215C62.852 138.031 63.372 137.827 63.892 137.603V138.227C62.748 138.731 61.492 139.151 60.124 139.487L59.968 138.875C60.488 138.771 61.06 138.623 61.684 138.431V135.275H60.316V134.651ZM72.124 135.179H82.864V135.827H72.124V135.179ZM84.196 130.835H94.792V131.471H89.5V133.475C91.012 134.251 92.548 135.151 94.108 136.175L93.724 136.751C92.068 135.631 90.66 134.763 89.5 134.147V141.107H88.864V131.471H84.196V130.835ZM99.904 131.471C100.984 132.679 101.84 133.775 102.472 134.759L101.932 135.143C101.3 134.119 100.44 133.011 99.352 131.819L99.904 131.471ZM104.152 137.123C103.384 138.659 102.108 139.951 100.324 140.999L99.88 140.459C101.896 139.307 103.24 137.827 103.912 136.019C104.416 134.483 104.668 132.559 104.668 130.247H105.34C105.34 132.495 105.1 134.399 104.62 135.959C104.54 136.199 104.476 136.375 104.428 136.487C105.412 137.751 106.26 139.047 106.972 140.375L106.48 140.867C105.864 139.643 105.088 138.395 104.152 137.123ZM96.904 139.091C97.096 138.971 97.192 138.795 97.192 138.563V130.655H97.864V138.743C98.864 138.351 99.836 137.867 100.78 137.291L100.972 137.939C99.788 138.619 98.5 139.207 97.108 139.703L96.904 139.091ZM116.308 130.271C116.06 130.799 115.776 131.275 115.456 131.699H118.84V132.347H108.148V131.699H111.568C111.32 131.123 111.044 130.627 110.74 130.211L111.412 130.103C111.692 130.527 111.972 131.059 112.252 131.699H114.748C115.084 131.203 115.392 130.651 115.672 130.043L116.308 130.271ZM111.34 140.999L111.16 140.363L112.072 140.387C112.432 140.387 112.612 140.183 112.612 139.775V138.419H109.684V141.095H109.048V133.487H113.248V139.907C113.248 140.635 112.928 140.999 112.288 140.999H111.34ZM109.684 137.819H112.612V136.271H109.684V137.819ZM109.684 135.683H112.612V134.099H109.684V135.683ZM115.372 140.963L115.228 140.351C115.756 140.375 116.252 140.387 116.716 140.387C117.092 140.387 117.28 140.187 117.28 139.787V133.103H117.928V139.955C117.928 140.627 117.6 140.963 116.944 140.963H115.372ZM114.76 134.003H115.408V139.199H114.76V134.003ZM124.252 132.275V140.339H123.628V139.607H121.204V140.675H120.58V132.275H121.66C121.908 131.595 122.088 130.879 122.2 130.127L122.86 130.211C122.732 130.947 122.54 131.635 122.284 132.275H124.252ZM121.204 139.007H123.628V136.163H121.204V139.007ZM121.204 135.575H123.628V132.899H121.204V135.575ZM126.292 134.987C127.212 136.003 127.908 136.883 128.38 137.627L127.864 137.999C127.384 137.223 126.684 136.331 125.764 135.323L126.292 134.987ZM130.468 132.287C130.468 136.135 130.412 138.531 130.3 139.475C130.18 140.435 129.624 140.915 128.632 140.915L127.456 140.891L127.3 140.291C127.78 140.315 128.2 140.327 128.56 140.327C129.208 140.327 129.58 139.971 129.676 139.259C129.764 138.603 129.82 136.495 129.844 132.935H126.304C125.96 133.727 125.556 134.427 125.092 135.035L124.708 134.531C125.572 133.331 126.16 131.859 126.472 130.115L127.108 130.187C126.956 130.971 126.772 131.671 126.556 132.287H130.468ZM139.144 137.087H136.684V136.463H142.276V137.087H139.792V140.027H142.828V140.675H136.132V140.027H139.144V137.087ZM139.828 133.691C138.932 134.507 137.808 135.179 136.456 135.707L136.036 135.179C138.356 134.291 139.96 133.023 140.848 131.375H136.612V130.739H141.64V131.255C141.288 132.007 140.824 132.683 140.248 133.283C141.312 133.963 142.208 134.643 142.936 135.323L142.48 135.791C141.832 135.143 140.948 134.443 139.828 133.691ZM135.988 139.163C134.86 139.747 133.592 140.211 132.184 140.555L132.1 139.919C133.572 139.583 134.868 139.131 135.988 138.563V139.163ZM134.836 130.403C134.204 131.995 133.568 133.255 132.928 134.183C133.56 134.111 134.212 134.027 134.884 133.931C135.204 133.315 135.448 132.859 135.616 132.563L136.216 132.779C135.008 134.963 134.028 136.467 133.276 137.291C134.204 137.123 135.116 136.883 136.012 136.571V137.171C134.82 137.571 133.644 137.851 132.484 138.011L132.304 137.411C132.416 137.363 132.52 137.299 132.616 137.219C133.168 136.659 133.808 135.759 134.536 134.519C134.112 134.583 133.372 134.683 132.316 134.819L132.16 134.219C132.264 134.163 132.356 134.087 132.436 133.991C133.116 132.911 133.708 131.635 134.212 130.163L134.836 130.403ZM10.636 147.763V148.411H1.78V152.083C1.732 154.595 1.304 156.587 0.496004 158.059L-0.00799561 157.615C0.720004 156.279 1.096 154.435 1.12 152.083V147.763H10.636ZM10.048 151.327C10.024 154.487 9.876 156.375 9.604 156.991C9.316 157.615 8.812 157.927 8.092 157.927C7.7 157.927 7.228 157.915 6.676 157.891L6.496 157.291C7.072 157.299 7.552 157.311 7.936 157.327C8.568 157.303 8.96001 157.003 9.11201 156.427C9.28001 155.851 9.376 154.347 9.4 151.915H6.412C6.268 153.267 5.968 154.399 5.512 155.311C4.904 156.471 3.896 157.387 2.488 158.059L2.128 157.483C3.48 156.843 4.448 155.951 5.032 154.807C5.4 153.967 5.644 153.003 5.764 151.915H2.848V151.327H5.812C5.828 151.103 5.844 150.751 5.86 150.271V149.107H6.496V150.271C6.496 150.639 6.484 150.991 6.46 151.327H10.048ZM22.324 148.015V157.603H21.676V156.607H18.532V157.711H17.896V148.015H22.324ZM18.532 155.995H21.676V148.627H18.532V155.995ZM12.388 150.499H14.56V148.567C13.888 148.679 13.232 148.759 12.592 148.807L12.376 148.207C14.112 148.087 15.608 147.779 16.864 147.283L17.176 147.835C16.496 148.091 15.832 148.291 15.184 148.435V150.499H17.308V151.111H15.184V151.795C15.928 152.475 16.644 153.211 17.332 154.003L16.948 154.555C16.268 153.643 15.68 152.923 15.184 152.395V158.023H14.56V152.263C14.04 153.519 13.304 154.659 12.352 155.683L12.076 154.999C13.252 153.847 14.08 152.551 14.56 151.111H12.388V150.499ZM29.2 149.539C28.656 150.699 28.008 151.727 27.256 152.623L26.8 152.083C27.92 150.771 28.808 149.099 29.464 147.067L30.112 147.223C29.96 147.695 29.752 148.255 29.488 148.903H34.864V149.539H30.676V151.723H34.312V152.371H30.676V154.591H34.408V155.227H30.676V158.083H30.028V149.539H29.2ZM25.588 151.051C25.14 151.643 24.668 152.195 24.172 152.707L23.968 152.023C25.296 150.583 26.264 148.951 26.872 147.127L27.472 147.403C27.144 148.371 26.732 149.263 26.236 150.079V158.083H25.588V151.051ZM38.248 147.703H44.728V151.435H38.248V147.703ZM44.068 150.811V148.327H38.908V150.811H44.068ZM40.732 152.851V157.891H40.096V157.255H37.324V157.891H36.688V152.851H40.732ZM37.324 156.643H40.096V153.463H37.324V156.643ZM46.312 152.851V157.891H45.664V157.255H42.772V157.891H42.136V152.851H46.312ZM42.772 156.643H45.664V153.463H42.772V156.643ZM48.364 155.107V154.495H53.212V153.775H53.86V154.495H58.636V155.107H54.796C55.628 155.987 56.952 156.679 58.768 157.183L58.492 157.759C56.452 157.087 55.008 156.203 54.16 155.107H53.86V158.095H53.212V155.107H52.888C52.152 156.155 50.716 157.059 48.58 157.819L48.232 157.255C50.216 156.631 51.564 155.915 52.276 155.107H48.364ZM49.588 149.887C49.212 150.327 48.816 150.731 48.4 151.099L48.064 150.583C49.16 149.607 49.984 148.451 50.536 147.115L51.136 147.271C51.016 147.591 50.864 147.927 50.68 148.279H53.488C53.312 147.855 53.14 147.491 52.972 147.187L53.62 147.067C53.796 147.451 53.96 147.855 54.112 148.279H58.072V148.855H54.172V149.815H57.652V150.343H54.172V151.279H57.652V151.807H54.172V152.827H58.288V153.391H49.588V149.887ZM53.536 152.827V151.807H50.2V152.827H53.536ZM53.536 151.279V150.343H50.2V151.279H53.536ZM53.536 149.815V148.855H50.344L50.2 149.083V149.815H53.536ZM63.904 148.471C64.984 149.679 65.84 150.775 66.472 151.759L65.932 152.143C65.3 151.119 64.44 150.011 63.352 148.819L63.904 148.471ZM68.152 154.123C67.384 155.659 66.108 156.951 64.324 157.999L63.88 157.459C65.896 156.307 67.24 154.827 67.912 153.019C68.416 151.483 68.668 149.559 68.668 147.247H69.34C69.34 149.495 69.1 151.399 68.62 152.959C68.54 153.199 68.476 153.375 68.428 153.487C69.412 154.751 70.26 156.047 70.972 157.375L70.48 157.867C69.864 156.643 69.088 155.395 68.152 154.123ZM60.904 156.091C61.096 155.971 61.192 155.795 61.192 155.563V147.655H61.864V155.743C62.864 155.351 63.836 154.867 64.78 154.291L64.972 154.939C63.788 155.619 62.5 156.207 61.108 156.703L60.904 156.091ZM81.196 152.935V158.071H80.572V157.495H74.452V158.071H73.828V152.935H81.196ZM74.452 156.919H77.188V155.491H74.452V156.919ZM77.812 156.919H80.572V155.491H77.812V156.919ZM74.452 154.939H77.188V153.511H74.452V154.939ZM77.812 153.511V154.939H80.572V153.511H77.812ZM76.66 147.139C76.484 147.427 76.272 147.727 76.024 148.039H81.016V148.543C80.256 149.479 79.3 150.291 78.148 150.979C79.492 151.579 81.092 151.999 82.948 152.239L82.648 152.827C80.648 152.523 78.944 152.019 77.536 151.315C76.072 152.059 74.336 152.599 72.328 152.935L72.04 152.371C73.888 152.099 75.516 151.635 76.924 150.979C76.092 150.499 75.388 149.955 74.812 149.347C74.26 149.843 73.672 150.283 73.048 150.667L72.628 150.163C74.044 149.323 75.172 148.267 76.012 146.995L76.66 147.139ZM75.208 148.963C75.832 149.627 76.604 150.199 77.524 150.679C78.564 150.111 79.46 149.427 80.212 148.627H75.532C75.38 148.779 75.272 148.891 75.208 148.963ZM89.2 147.151H89.848V149.035H93.664V155.623H93.028V154.819H89.848V158.047H89.2V154.819H85.972V155.707H85.336V149.035H89.2V147.151ZM85.972 154.195H89.2V152.203H85.972V154.195ZM89.848 154.195H93.028V152.203H89.848V154.195ZM85.972 151.615H89.2V149.647H85.972V151.615ZM89.848 151.615H93.028V149.647H89.848V151.615ZM102.964 147.127H103.6V147.979H106.636V148.531H103.6V149.479H106.192V150.019H103.6V150.991H106.948V151.555H99.652V150.991H102.964V150.019H100.456V149.479H102.964V148.531H99.976V147.979H102.964V147.127ZM101.236 154.579V155.611H105.364V154.579H101.236ZM105.364 154.063V153.019H101.236V154.063H105.364ZM101.236 156.139V158.071H100.624V152.467H105.988V157.135C105.988 157.719 105.68 158.011 105.064 158.011H104.056L103.888 157.423L104.872 157.459C105.2 157.459 105.364 157.307 105.364 157.003V156.139H101.236ZM97.348 147.283C98.188 147.915 98.888 148.535 99.448 149.143L99.004 149.599C98.46 148.991 97.756 148.367 96.892 147.727L97.348 147.283ZM96.028 150.871H98.452V156.343C98.812 156.023 99.24 155.603 99.736 155.083L99.904 155.779C99.264 156.451 98.572 157.063 97.828 157.615L97.576 157.027C97.736 156.883 97.816 156.727 97.816 156.559V151.507H96.028V150.871ZM118.324 148.015V157.603H117.676V156.607H114.532V157.711H113.896V148.015H118.324ZM114.532 155.995H117.676V148.627H114.532V155.995ZM108.388 150.499H110.56V148.567C109.888 148.679 109.232 148.759 108.592 148.807L108.376 148.207C110.112 148.087 111.608 147.779 112.864 147.283L113.176 147.835C112.496 148.091 111.832 148.291 111.184 148.435V150.499H113.308V151.111H111.184V151.795C111.928 152.475 112.644 153.211 113.332 154.003L112.948 154.555C112.268 153.643 111.68 152.923 111.184 152.395V158.023H110.56V152.263C110.04 153.519 109.304 154.659 108.352 155.683L108.076 154.999C109.252 153.847 110.08 152.551 110.56 151.111H108.388V150.499ZM120.196 147.679H130.816V148.303H125.932C125.812 148.919 125.644 149.499 125.428 150.043H130.108V158.107H129.472V157.459H121.564V158.107H120.928V150.043H124.78C125.012 149.483 125.176 148.903 125.272 148.303H120.196V147.679ZM121.564 156.835H123.424V150.655H121.564V156.835ZM124.036 156.835H126.964V155.119H124.036V156.835ZM127.576 156.835H129.472V150.655H127.576V156.835ZM124.036 154.555H126.964V152.899H124.036V154.555ZM124.036 152.323H126.964V150.655H124.036V152.323ZM137.248 152.695H136.048V152.083H139.084V152.695H137.884V156.163C138.428 156.035 138.984 155.891 139.552 155.731V156.355C138.52 156.659 137.388 156.915 136.156 157.123L136 156.499L137.248 156.283V152.695ZM141.688 157.855C141.304 157.855 140.956 157.547 140.644 156.931C140.292 156.227 140.044 155.251 139.9 154.003C139.764 153.011 139.672 151.679 139.624 150.007H135.772V149.359H139.612C139.596 148.879 139.588 148.123 139.588 147.091H140.236C140.236 148.139 140.244 148.895 140.26 149.359H142.708V150.007H140.272C140.328 152.223 140.468 153.911 140.692 155.071C140.972 156.415 141.304 157.107 141.688 157.147C141.984 157.099 142.268 156.335 142.54 154.855L143.044 155.275C142.668 156.995 142.216 157.855 141.688 157.855ZM141.268 147.079C141.836 147.727 142.248 148.247 142.504 148.639L142.036 148.963C141.74 148.483 141.332 147.955 140.812 147.379L141.268 147.079ZM133.348 147.259C134.14 147.891 134.8 148.527 135.328 149.167L134.872 149.623C134.352 148.991 133.688 148.351 132.88 147.703L133.348 147.259ZM132.028 150.871H134.416V156.319C134.792 155.991 135.224 155.555 135.712 155.011L135.88 155.695C135.224 156.415 134.536 157.051 133.816 157.603L133.564 157.015C133.716 156.879 133.792 156.743 133.792 156.607V151.507H132.028V150.871Z" fill="#848484"/>
<path d="M47.16 91.007C46.7867 91.673 46.38 92.287 45.94 92.847H51V94.687H32.98V92.847H38.18C37.8333 92.153 37.44 91.493 37 90.867L39 90.547C39.4 91.2 39.8067 91.967 40.22 92.847H43.84C44.3733 92.113 44.8667 91.287 45.32 90.367L47.16 91.007ZM38.42 108.847L37.92 106.987L39.36 107.047C39.8133 107.047 40.04 106.733 40.04 106.107V104.767H36.12V109.007H34.26V95.927H41.88V106.527C41.88 108.073 41.2467 108.847 39.98 108.847H38.42ZM36.12 103.087H40.04V101.227H36.12V103.087ZM36.12 99.547H40.04V97.687H36.12V99.547ZM45.08 108.787L44.68 106.967C45.52 107.047 46.3333 107.087 47.12 107.087C47.6 107.087 47.84 106.813 47.84 106.267V95.507H49.74V106.747C49.74 108.107 49.0867 108.787 47.78 108.787H45.08ZM43.72 97.007H45.56V105.547H43.72V97.007ZM54.28 90.607H56.12V92.667H59.58V90.647H61.42V92.667H62.46V94.427H61.42V102.447H62.56V104.207H52.98V102.447H54.28V94.427H53.2V92.667H54.28V90.607ZM56.12 102.447H59.58V100.887H56.12V102.447ZM59.58 94.427H56.12V96.007H59.58V94.427ZM56.12 99.227H59.58V97.667H56.12V99.227ZM59.68 104.447C60.4933 105.473 61.1467 106.4 61.64 107.227C62.7733 105.453 63.3467 103.28 63.36 100.707V91.147H70.44V106.827C70.44 108.133 69.7867 108.787 68.48 108.787H66.4L65.88 106.927C66.84 106.98 67.5067 107.007 67.88 107.007C68.32 107.007 68.54 106.72 68.54 106.147V102.547H65.14C64.86 105.16 64.06 107.347 62.74 109.107L61.38 107.847L60.24 108.647C59.7733 107.7 59.1 106.613 58.22 105.387L59.68 104.447ZM56.86 105.227C56.1533 106.627 55.3067 107.86 54.32 108.927L52.82 107.847C53.78 106.9 54.62 105.78 55.34 104.487L56.86 105.227ZM65.26 97.727V100.807H68.54V97.727H65.26ZM68.54 96.007V92.947H65.26V96.007H68.54ZM74.52 91.047C75.84 92.86 76.8333 94.42 77.5 95.727L75.92 96.807C75.1733 95.38 74.1667 93.793 72.9 92.047L74.52 91.047ZM77.56 100.507C76.7333 103.4 75.7867 106.187 74.72 108.867L72.92 108.087C74.0533 105.353 75.0267 102.6 75.84 99.827L77.56 100.507ZM81.18 99.627V101.907H84.86V99.627H81.18ZM81.18 103.647V106.127H84.86V103.647H81.18ZM81.18 107.887V108.987H79.32V97.847C78.6933 98.767 78.16 99.5 77.72 100.047L77.1 98.087C78.78 95.74 79.9533 93.207 80.62 90.487L82.44 90.847C82.16 91.86 81.8333 92.833 81.46 93.767H85.16C84.8667 92.793 84.5133 91.82 84.1 90.847L85.92 90.327C86.4133 91.74 86.76 92.887 86.96 93.767H90.7V95.567H86.7V97.867H90.28V99.627H86.7V101.907H90.32V103.647H86.7V106.127H91.12V107.887H81.18ZM84.86 95.567H81.18V97.867H84.86V95.567ZM108.5 100.027V108.967H106.7V108.207H97.34V108.967H95.54V100.107C94.9 100.24 94.26 100.36 93.62 100.467L92.8 98.807C95.613 98.433 98.1 97.793 100.26 96.887C99.233 96.233 98.327 95.513 97.54 94.727C96.74 95.46 95.853 96.133 94.88 96.747L93.66 95.267C95.78 94.053 97.593 92.387 99.1 90.267L100.98 90.687L100.22 91.787H108.08V93.227C106.933 94.613 105.54 95.833 103.9 96.887C106.033 97.7 108.467 98.287 111.2 98.647L110.38 100.327C107.207 99.86 104.44 99.053 102.08 97.907C100.213 98.813 98.153 99.52 95.9 100.027H108.5ZM98.66 93.647C99.633 94.58 100.76 95.38 102.04 96.047C103.453 95.273 104.667 94.407 105.68 93.447H98.86L98.66 93.647ZM97.34 106.607H101.1V104.847H97.34V106.607ZM102.9 106.607H106.7V104.847H102.9V106.607ZM97.34 103.327H101.1V101.607H97.34V103.327ZM102.9 101.607V103.327H106.7V101.607H102.9Z" fill="#525252"/>
<path d="M72 70.907C91.33 70.907 107 55.2369 107 35.907C107 16.577 91.33 0.906982 72 0.906982C52.67 0.906982 37 16.577 37 35.907C37 55.2369 52.67 70.907 72 70.907Z" fill="#E4E4E4"/>
<path d="M70.3333 48.282V36.865L60.3333 31.0736V42.49L70.3333 48.282ZM73.6667 48.282L83.6667 42.49V31.0736L73.6667 36.865V48.282ZM70.3333 52.115L58.6667 45.407C58.1389 45.101 57.7289 44.699 57.4367 44.199C57.1445 43.699 56.9989 43.143 57 42.532V29.2819C57 28.6708 57.1461 28.1152 57.4383 27.6152C57.7306 27.1152 58.14 26.7125 58.6667 26.4069L70.3333 19.6986C70.8611 19.393 71.4167 19.2402 72 19.2402C72.5833 19.2402 73.1389 19.393 73.6667 19.6986L85.3333 26.4069C85.8611 26.7125 86.2711 27.1152 86.5633 27.6152C86.8556 28.1152 87.0011 28.6708 87 29.2819V42.532C87 43.143 86.8539 43.699 86.5617 44.199C86.2695 44.699 85.86 45.101 85.3333 45.407L73.6667 52.115C73.1389 52.421 72.5833 52.574 72 52.574C71.4167 52.574 70.8611 52.421 70.3333 52.115ZM78.6667 30.1152L81.875 28.2819L72 22.5736L68.75 24.4486L78.6667 30.1152ZM72 33.9902L75.25 32.1152L65.375 26.4069L62.125 28.2819L72 33.9902Z" fill="#545454"/>
<path d="M213.22 104.347C212.66 103.44 212.133 102.64 211.64 101.947C210.96 103.747 210.16 105.307 209.24 106.627L208.02 105.147C208.94 103.747 209.727 102.087 210.38 100.167C209.607 99.1 208.727 97.987 207.74 96.827L208.9 95.687C209.46 96.273 210.153 97.093 210.98 98.147C211.3 96.813 211.553 95.473 211.74 94.127L213.48 94.427C213.173 96.493 212.787 98.327 212.32 99.927C213 100.887 213.72 101.947 214.48 103.107L213.22 104.347ZM218.98 105.307C218.473 104.4 217.9 103.44 217.26 102.427C216.513 104.24 215.647 105.8 214.66 107.107L213.46 105.647C214.487 104.193 215.353 102.507 216.06 100.587C215.22 99.347 214.36 98.167 213.48 97.047L214.66 95.927C215.327 96.673 216.007 97.54 216.7 98.527C217.06 97.18 217.36 95.733 217.6 94.187L219.36 94.487C219 96.66 218.54 98.64 217.98 100.427C218.753 101.613 219.513 102.82 220.26 104.047L218.98 105.307ZM218.16 108.847L217.66 107.007L219.54 107.087C220.033 107.087 220.28 106.853 220.28 106.387V93.027H207.72V108.967H205.84V91.207H222.16V106.807C222.16 108.167 221.493 108.847 220.16 108.847H218.16ZM232.08 90.507H234.04V96.527H241.44V98.367H234.04V106.407H242.98V108.247H225.06V106.407H232.08V90.507ZM251.8 100.207C251.093 100.553 250.38 100.88 249.66 101.187V106.907C249.66 108.24 249.02 108.907 247.74 108.907H245.86L245.42 107.087C246.007 107.167 246.553 107.207 247.06 107.207C247.553 107.207 247.8 106.953 247.8 106.447V101.927C246.92 102.247 246.04 102.547 245.16 102.827L244.68 100.947C245.84 100.68 246.88 100.387 247.8 100.067V95.847H245.06V94.027H247.8V90.567H249.66V94.027H251.74V95.847H249.66V99.347C250.433 99 251.147 98.66 251.8 98.327V100.207ZM254.42 100.087V108.967H252.62V91.207H261.84C261.84 93.513 261.713 95.08 261.46 95.907C261.207 96.667 260.407 97.047 259.06 97.047H257.56L257.04 95.407L258.2 95.427C258.667 95.427 259.02 95.407 259.26 95.367C259.473 95.3 259.64 95.167 259.76 94.967C259.893 94.687 259.98 94.007 260.02 92.927H254.42V98.347H261.98V99.987C261.66 102.053 261.02 103.807 260.06 105.247C260.993 106.1 262.087 106.86 263.34 107.527L262.06 109.007C260.847 108.233 259.82 107.44 258.98 106.627C258.073 107.6 256.967 108.4 255.66 109.027L254.74 107.367C255.9 106.807 256.88 106.087 257.68 105.207C256.413 103.647 255.62 101.94 255.3 100.087H254.42ZM257 100.087C257.253 101.433 257.833 102.68 258.74 103.827C259.38 102.773 259.867 101.527 260.2 100.087H257ZM271.34 107.847V108.907H269.44V102.047C268.347 102.38 267.153 102.7 265.86 103.007L264.86 101.167C268.233 100.513 271.02 99.68 273.22 98.667C272.38 97.987 271.273 97.253 269.9 96.467L271.54 95.447C272.913 96.287 274.02 97.067 274.86 97.787C276.66 96.693 278.007 95.42 278.9 93.967H271.98C270.607 95.22 268.893 96.34 266.84 97.327L265.56 95.687C268.933 94.247 271.22 92.5 272.42 90.447L274.5 90.687C274.193 91.247 273.887 91.747 273.58 92.187H281.08V93.867C279.773 96.413 277.433 98.527 274.06 100.207H281.72V108.907H279.8V107.847H271.34ZM279.8 106.007V101.967H271.34V106.007H279.8Z" fill="#525252"/>
<path d="M244 70.907C263.33 70.907 279 55.2369 279 35.907C279 16.577 263.33 0.906982 244 0.906982C224.67 0.906982 209 16.577 209 35.907C209 55.2369 224.67 70.907 244 70.907Z" fill="#0067D1"/>
<path d="M249.357 24.1216H252.571C253.139 24.1216 253.684 24.3473 254.086 24.7492C254.488 25.1511 254.714 25.6961 254.714 26.2644V47.693C254.714 48.261 254.488 48.806 254.086 49.208C253.684 49.61 253.139 49.836 252.571 49.836H235.428C234.86 49.836 234.315 49.61 233.913 49.208C233.511 48.806 233.285 48.261 233.285 47.693V26.2644C233.285 25.6961 233.511 25.1511 233.913 24.7492C234.315 24.3473 234.86 24.1216 235.428 24.1216H238.642" stroke="white" stroke-width="3" stroke-linecap="round" stroke-linejoin="round"/>
<path d="M247.214 21.9785H240.785C239.602 21.9785 238.643 22.9379 238.643 24.1214V25.1928C238.643 26.3763 239.602 27.3357 240.785 27.3357H247.214C248.397 27.3357 249.357 26.3763 249.357 25.1928V24.1214C249.357 22.9379 248.397 21.9785 247.214 21.9785Z" stroke="white" stroke-width="3" stroke-linecap="round" stroke-linejoin="round"/>
<path d="M238.643 39.121L242.928 42.336L248.285 33.7642" stroke="white" stroke-width="3" stroke-linecap="round" stroke-linejoin="round"/>
<path d="M378.24 98.207H380.12V108.987H378.24V98.207ZM389.98 108.907L389.52 107.187L391.32 107.247C391.76 107.247 391.98 106.953 391.98 106.367V97.647H384.56V95.907H393.86V106.887C393.86 108.233 393.14 108.907 391.7 108.907H389.98ZM382.26 99.047H389.8V106.847H382.26V99.047ZM388.04 105.267V103.667H384.06V105.267H388.04ZM384.06 102.147H388.04V100.587H384.06V102.147ZM380.66 95.087C381.7 96.007 382.5 96.827 383.06 97.547L381.66 98.507C381.1 97.8 380.3 96.947 379.26 95.947L380.66 95.087ZM380.12 93.467C379.64 94.307 379.1 95.067 378.5 95.747L376.9 94.707C378.073 93.413 378.927 91.993 379.46 90.447L381.3 90.847C381.287 90.9 381.16 91.22 380.92 91.807H385.88V93.467H383.24C383.64 94.027 383.98 94.593 384.26 95.167L382.58 95.787C382.193 94.96 381.753 94.187 381.26 93.467H380.12ZM388.62 93.467C388.273 94.16 387.86 94.82 387.38 95.447L385.78 94.407C386.767 93.18 387.46 91.867 387.86 90.467L389.68 90.867L389.36 91.807H394.96V93.467H391.96C392.32 93.987 392.64 94.5 392.92 95.007L391.24 95.627C390.88 94.88 390.46 94.16 389.98 93.467H388.62ZM414.66 91.367V93.227H400.28V98.867C400.2 103.067 399.5 106.427 398.18 108.947L396.7 107.627C397.753 105.493 398.3 102.573 398.34 98.867V91.367H414.66ZM413.98 97.307C413.94 102.773 413.66 106.047 413.14 107.127C412.607 108.207 411.673 108.747 410.34 108.747C409.993 108.747 409.207 108.72 407.98 108.667L407.48 106.887C408.44 106.927 409.247 106.967 409.9 107.007C410.833 106.967 411.407 106.52 411.62 105.667C411.873 104.773 412.02 102.553 412.06 99.007H407.86C407.62 101.14 407.12 102.94 406.36 104.407C405.307 106.393 403.633 107.9 401.34 108.927L400.28 107.267C402.533 106.133 404.06 104.733 404.86 103.067C405.367 101.92 405.733 100.567 405.96 99.007H401.46V97.307H406.12L406.18 96.007V94.027H408.08V96.007L408.02 97.307H413.98ZM427.18 93.707H424.36V91.887H434.54C434.54 98.66 434.433 102.9 434.22 104.607C433.98 107.3 432.887 108.647 430.94 108.647C430.62 108.647 429.84 108.613 428.6 108.547L428.14 106.807C429.207 106.873 430.033 106.907 430.62 106.907C431.633 106.907 432.22 105.853 432.38 103.747C432.487 102.867 432.56 99.52 432.6 93.707H429.06V95.247C428.98 101.54 427.247 106.12 423.86 108.987L422.4 107.707C425.533 105.107 427.127 100.953 427.18 95.247V93.707ZM419.48 101.387C418.747 102.133 418.007 102.847 417.26 103.527L416.7 101.607C419.14 99.407 420.78 97.267 421.62 95.187H417.16V93.467H419.64C419.32 92.6 418.96 91.76 418.56 90.947L420.4 90.467C420.893 91.613 421.267 92.613 421.52 93.467H423.48V95.007C423 96.407 422.273 97.793 421.3 99.167V99.207L422.12 99.787C422.72 99.32 423.327 98.64 423.94 97.747L425.08 98.887C424.507 99.66 423.907 100.273 423.28 100.727C423.88 101.247 424.353 101.7 424.7 102.087L423.68 103.687C422.84 102.593 422.047 101.693 421.3 100.987V108.947H419.48V101.387ZM440.26 93.567C439.78 94.447 439.24 95.247 438.64 95.967L437 94.967C438.213 93.527 439.08 92.013 439.6 90.427L441.42 90.827C441.38 90.96 441.32 91.133 441.24 91.347C441.133 91.6 441.067 91.773 441.04 91.867H445.98V93.567H443.72C444.013 93.953 444.3 94.387 444.58 94.867L442.82 95.527C442.513 94.887 442.133 94.233 441.68 93.567H440.26ZM448.92 93.567C448.533 94.3 448.08 95 447.56 95.667L445.96 94.647C447 93.367 447.74 91.993 448.18 90.527L450.02 90.907L449.68 91.867H455.08V93.567H452.38C452.74 94.02 453.04 94.46 453.28 94.887L451.54 95.547C451.18 94.867 450.78 94.207 450.34 93.567H448.92ZM441.18 95.847H443V101.067C442.96 104.68 441.853 107.313 439.68 108.967L438.28 107.747C440.173 106.333 441.14 104.107 441.18 101.067V95.847ZM437.82 97.587H439.64V104.247H437.82V97.587ZM448.48 97.747H443.92V96.007H454.88V97.747H450.28V99.247H454.14V104.967C454.14 106.287 453.527 106.947 452.3 106.947H451.24L450.78 105.267L451.74 105.327C452.18 105.327 452.4 105.073 452.4 104.567V100.907H450.28V109.027H448.48V100.907H446.44V107.127H444.74V99.247H448.48V97.747Z" fill="#525252"/>
<path d="M416 70.907C435.33 70.907 451 55.2369 451 35.907C451 16.577 435.33 0.906982 416 0.906982C396.67 0.906982 381 16.577 381 35.907C381 55.2369 396.67 70.907 416 70.907Z" fill="#0067D1"/>
<path d="M428.881 28.8074L420.787 20.7137C420.679 20.6064 420.552 20.5212 420.411 20.4632C420.271 20.4052 420.121 20.3754 419.969 20.3755H406.094C405.48 20.3755 404.892 20.6191 404.459 21.0528C404.025 21.4865 403.781 22.0747 403.781 22.688V48.125C403.781 48.739 404.025 49.327 404.459 49.761C404.892 50.194 405.48 50.438 406.094 50.438H426.906C427.52 50.438 428.108 50.194 428.541 49.761C428.975 49.327 429.219 48.739 429.219 48.125V29.6255C429.219 29.4736 429.189 29.3232 429.131 29.1828C429.073 29.0425 428.988 28.9149 428.881 28.8074ZM421.125 24.3226L425.272 28.4692H421.125V24.3226ZM426.906 48.125H406.094V22.688H418.813V29.6255C418.813 29.9321 418.934 30.2262 419.151 30.4431C419.368 30.6599 419.662 30.7817 419.969 30.7817H426.906V48.125ZM420.324 41.065C421.007 39.981 421.266 38.683 421.052 37.42C420.838 36.157 420.166 35.017 419.165 34.218C418.163 33.4184 416.902 33.0162 415.623 33.0878C414.344 33.1594 413.136 33.6998 412.23 34.606C411.324 35.512 410.784 36.72 410.712 37.999C410.641 39.278 411.043 40.539 411.842 41.54C412.641 42.541 413.781 43.213 415.044 43.427C416.308 43.641 417.605 43.382 418.69 42.7L420.307 44.319C420.414 44.426 420.542 44.511 420.682 44.569C420.823 44.627 420.973 44.657 421.125 44.657C421.277 44.657 421.427 44.627 421.568 44.569C421.708 44.511 421.836 44.426 421.943 44.319C422.05 44.211 422.136 44.084 422.194 43.943C422.252 43.803 422.282 43.652 422.282 43.5C422.282 43.349 422.252 43.198 422.194 43.058C422.136 42.917 422.05 42.79 421.943 42.682L420.324 41.065ZM413.031 38.297C413.031 37.726 413.201 37.167 413.518 36.691C413.836 36.216 414.287 35.846 414.816 35.627C415.344 35.408 415.925 35.351 416.486 35.462C417.047 35.574 417.562 35.849 417.966 36.253C418.37 36.658 418.645 37.173 418.757 37.733C418.868 38.294 418.811 38.875 418.592 39.404C418.374 39.932 418.003 40.383 417.528 40.701C417.052 41.018 416.494 41.188 415.922 41.188C415.155 41.188 414.42 40.883 413.878 40.341C413.336 39.799 413.031 39.064 413.031 38.297Z" fill="white"/>
<path d="M899.74 93.88V109.76H897.88V108.52H894.8V109.76H892.94V93.88H899.74ZM894.8 106.68H897.88V95.72H894.8V106.68ZM885.48 91.66H887.4V95.02H891.42C891.42 101.82 891.32 106.02 891.12 107.62C890.92 109.14 889.92 109.9 888.14 109.9C887.9 109.9 887.38 109.866 886.58 109.8L886.1 108.06C886.86 108.126 887.44 108.16 887.84 108.16C888.68 108.16 889.18 107.693 889.34 106.76C889.44 105.893 889.52 102.6 889.56 96.88H887.4V97.42C887.33 103.26 886.04 107.526 883.54 110.22L882 108.86C884.28 106.5 885.44 102.686 885.48 97.42V96.88H882.46V95.02H885.48V91.66ZM910.3 96.38C909.42 94.766 908.34 93.506 907.08 92.6L908.66 91.6C910.34 92.773 911.82 95.02 913.12 98.34C915.01 103.006 917.48 106.32 920.52 108.28L919.34 109.78C916.2 107.9 913.58 104.293 911.46 98.96L911.32 98.58C909.96 103.42 907.26 107.16 903.22 109.8L902.08 108.18C906.24 105.446 908.98 101.513 910.3 96.38ZM922.8 93.72H929.32C930.72 93.72 931.81 94.053 932.6 94.72C933.36 95.36 933.74 96.226 933.74 97.32C933.74 98.12 933.54 98.8 933.14 99.36C932.72 99.893 932.17 100.286 931.48 100.54C932.42 100.726 933.14 101.106 933.62 101.68C934.1 102.253 934.34 103.026 934.34 104C934.34 105.426 933.84 106.48 932.86 107.16C932.02 107.72 930.84 108 929.32 108H922.8V93.72ZM924.98 95.52V99.78H928.74C929.72 99.78 930.44 99.606 930.9 99.26C931.34 98.9 931.56 98.34 931.56 97.58C931.56 96.86 931.34 96.34 930.9 96.02C930.47 95.686 929.76 95.52 928.78 95.52H924.98ZM924.98 101.56V106.2H929.02C929.91 106.2 930.63 106.053 931.18 105.76C931.83 105.373 932.16 104.773 932.16 103.96C932.16 103.12 931.9 102.506 931.4 102.12C930.9 101.746 930.13 101.56 929.08 101.56H924.98ZM935.23 93.72H937.85L941.97 100.26L946.09 93.72H948.71L943.05 102.3V108H940.89V102.3L935.23 93.72ZM950.2 93.72H956.52C957.98 93.72 959.13 94.046 959.96 94.7C960.84 95.42 961.28 96.453 961.28 97.8C961.28 98.546 961.08 99.213 960.68 99.8C960.22 100.44 959.6 100.86 958.82 101.06V101.1C960.08 101.38 960.8 102.22 960.96 103.62L961.2 105.9C961.28 106.78 961.56 107.48 962.04 108H959.68C959.34 107.573 959.14 106.946 959.06 106.12L958.88 104.34C958.8 103.566 958.54 102.993 958.12 102.62C957.69 102.273 957.06 102.1 956.24 102.1H952.38V108H950.2V93.72ZM952.38 95.58V100.24H956.24C957.18 100.24 957.9 100.033 958.4 99.62C958.86 99.22 959.1 98.64 959.1 97.88C959.1 97.093 958.87 96.513 958.42 96.14C957.95 95.766 957.22 95.58 956.22 95.58H952.38Z" fill="#525252"/>
<path d="M922.02 72C941.35 72 957.02 56.33 957.02 37C957.02 17.67 941.35 2 922.02 2C902.69 2 887.02 17.67 887.02 37C887.02 56.33 902.69 72 922.02 72Z" fill="#0067D1"/>
<path d="M934.66 38.647C934.9 36.849 934.75 35.0211 934.22 33.286C933.69 31.5508 932.8 29.9484 931.6 28.5856C930.41 27.2228 928.93 26.1311 927.28 25.3834C925.63 24.6357 923.83 24.2492 922.02 24.2497C918.64 24.2497 915.4 25.593 913 27.9841C910.61 30.3752 909.27 33.6182 909.27 37C909.27 40.381 910.61 43.624 913 46.015C915.4 48.406 918.64 49.75 922.02 49.75M917.77 34.1664H917.78M926.27 34.1664H926.28" stroke="white" stroke-width="2.8" stroke-linecap="round" stroke-linejoin="round"/>
<path d="M918.48 41.25C919.41 42.156 920.69 42.666 922.02 42.666C923.35 42.666 924.63 42.156 925.56 41.25M926.27 46.916L929.1 49.75L934.77 44.083" stroke="white" stroke-width="2.8" stroke-linecap="round" stroke-linejoin="round"/>
<path d="M553 17C553 10.3726 558.373 5 565 5H768C774.627 5 780 10.3726 780 17V60C780 66.6275 774.627 71.9995 768 71.9995H565C558.373 71.9995 553 66.6275 553 60V17Z" fill="#0067D1" fill-opacity="0.1" stroke="#0067D1" stroke-width="3" stroke-linecap="round" stroke-linejoin="round" stroke-dasharray="10 10"/>
<path d="M631.408 42.298C629.836 43.054 628.066 43.642 626.098 44.062L625.882 42.37C627.994 41.938 629.836 41.362 631.408 40.642V42.298ZM629.914 28.798C629.146 31.006 628.36 32.8 627.556 34.18C628.168 34.084 628.756 33.976 629.32 33.856L630.22 31.858L631.804 32.434C630.364 35.35 629.2 37.432 628.312 38.68C629.296 38.428 630.346 38.074 631.462 37.618V39.148C629.65 39.82 627.958 40.264 626.386 40.48L625.954 38.968C626.242 38.848 626.494 38.692 626.71 38.5C627.202 37.9 627.832 36.844 628.6 35.332C626.86 35.644 626.038 35.794 626.134 35.782L625.72 34.306C625.984 34.198 626.212 34 626.404 33.712C627.136 32.08 627.784 30.238 628.348 28.186L629.914 28.798ZM641.704 30.058V33.676H640.192V34.756H633.55V33.676H632.038V30.058H635.854C635.626 29.482 635.362 28.93 635.062 28.402L636.808 28.114C637.06 28.69 637.312 29.338 637.564 30.058H641.704ZM633.658 33.19H640.048V31.624H633.658V33.19ZM634.792 39.472C634.324 41.308 633.646 42.904 632.758 44.26L631.336 43.342C632.212 42.034 632.836 40.636 633.208 39.148L634.792 39.472ZM640.336 38.986C641.08 40.426 641.716 41.914 642.244 43.45L640.732 44.116C640.144 42.316 639.526 40.768 638.878 39.472L640.336 38.986ZM634.612 44.692L634.27 43.072C634.822 43.156 635.278 43.198 635.638 43.198C636.034 43.198 636.232 42.904 636.232 42.316V37.978H632.182V36.358H641.542V37.978H637.87V42.73C637.87 44.038 637.318 44.692 636.214 44.692H634.612ZM652.63 28.204C654.91 30.772 657.514 32.788 660.442 34.252L659.524 35.89C658.504 35.338 657.574 34.762 656.734 34.162V35.44H647.266V34.126C646.402 34.75 645.448 35.35 644.404 35.926L643.504 34.27C646.648 32.65 649.27 30.628 651.37 28.204H652.63ZM656.248 33.802C654.652 32.602 653.236 31.252 652 29.752C650.788 31.24 649.36 32.59 647.716 33.802H656.248ZM657.868 37.366V44.836H656.212V43.864H647.788V44.836H646.132V37.366H657.868ZM647.788 42.244H656.212V38.968H647.788V42.244ZM663.7 29.914H668.38V28.204H670.072V29.914H674.068V30.796C674.752 30.076 675.382 29.338 675.958 28.582L677.218 29.536C676.294 30.796 675.238 31.966 674.05 33.046H677.956V34.666H672.07C671.278 35.23 670.522 35.728 669.802 36.16H676.966V37.69H668.02L667.516 39.184H676.102C675.982 41.788 675.7 43.348 675.256 43.864C674.812 44.344 673.948 44.584 672.664 44.584C671.92 44.584 671.17 44.542 670.414 44.458L669.856 42.964C670.924 43.048 671.74 43.09 672.304 43.09C673.18 43.09 673.738 42.958 673.978 42.694C674.158 42.406 674.302 41.734 674.41 40.678H665.5L666.274 37.942C664.954 38.506 663.634 38.986 662.314 39.382L661.63 37.852C664.414 37.036 666.91 35.974 669.118 34.666H662.368V33.046H668.38V31.48H663.7V29.914ZM671.512 33.046C672.232 32.482 672.85 31.96 673.366 31.48H670.072V33.046H671.512ZM683.896 44.854H682.258V36.538C681.718 38.134 681.064 39.562 680.296 40.822L679.594 39.058C680.782 37.378 681.646 35.446 682.186 33.262H679.918V31.624H682.258V28.258H683.896V31.624H685.876V33.262H683.896V34.234C684.688 35.11 685.522 36.136 686.398 37.312L685.444 38.77C684.88 37.774 684.364 36.898 683.896 36.142V44.854ZM686.218 30.076H690.484C690.244 29.476 689.986 28.954 689.71 28.51L691.456 28.222C691.696 28.738 691.93 29.356 692.158 30.076H696.082V31.642H691.15C690.274 33.166 689.5 34.282 688.828 34.99C689.692 34.954 690.664 34.888 691.744 34.792C692.188 34.144 692.584 33.49 692.932 32.83L694.318 33.568C692.518 37.144 689.884 39.58 686.416 40.876L685.48 39.454C687.472 38.758 689.164 37.684 690.556 36.232C689.716 36.28 688.498 36.34 686.902 36.412L686.56 35.026C686.692 34.99 686.8 34.942 686.884 34.882C687.52 34.474 688.354 33.394 689.386 31.642H686.218V30.076ZM692.05 41.398C690.37 42.886 688.408 44.026 686.164 44.818L685.228 43.36C689.392 41.992 692.518 39.37 694.606 35.494L696.028 36.232C695.188 37.804 694.216 39.178 693.112 40.354C694.396 41.482 695.452 42.556 696.28 43.576L695.02 44.836C694.264 43.744 693.274 42.598 692.05 41.398Z" fill="#333333"/>
<path d="M186.5 37.604L176.44 31.9355L176.561 43.482L186.5 37.604ZM128.51 39.209L177.511 38.698L177.49 36.698L128.49 37.209L128.51 39.209Z" fill="#979797"/>
<path d="M358.5 37.604L348.5 31.831V43.378L358.5 37.604ZM300.5 38.604H349.5V36.604H300.5V38.604Z" fill="#979797"/>
<path d="M531 39.773L521 34V45.547L531 39.773ZM473 40.773H522V38.773H473V40.773Z" fill="#979797"/>
<path d="M860 40.773L850 35V46.547L860 40.773ZM802 41.773H851V39.773H802V41.773Z" fill="#979797"/>
</svg>
