<svg width="596" height="421" viewBox="0 0 596 421" fill="none" xmlns="http://www.w3.org/2000/svg">
<path d="M6.268 132.742H10.996C11.1 132.014 11.16 131.25 11.176 130.45V129.538H11.824V130.306C11.824 131.17 11.764 131.982 11.644 132.742H16.732V133.39H11.92C12.76 136.214 14.436 138.378 16.948 139.882L16.552 140.41C14.032 138.874 12.332 136.662 11.452 133.774C10.772 136.87 9.1 139.106 6.436 140.482L6.028 139.942C8.66 138.646 10.28 136.462 10.888 133.39H6.268V132.742ZM25.444 135.706C25.084 135.834 24.776 135.926 24.52 135.982C24.72 136.566 24.832 137.21 24.856 137.914C24.856 138.834 24.732 139.482 24.484 139.858C24.212 140.25 23.58 140.446 22.588 140.446H22.168L21.952 139.882H22.504C23.24 139.866 23.704 139.754 23.896 139.546C24.12 139.258 24.232 138.714 24.232 137.914C24.224 137.634 24.2 137.366 24.16 137.11C22.84 138.19 21.032 139.082 18.736 139.786L18.412 139.222C20.852 138.502 22.72 137.586 24.016 136.474C23.928 136.13 23.792 135.778 23.608 135.418C22.456 136.346 20.88 137.098 18.88 137.674L18.568 137.11C20.64 136.542 22.224 135.818 23.32 134.938C23.12 134.642 22.924 134.394 22.732 134.194L22.348 134.386C21.46 134.794 20.38 135.174 19.108 135.526L18.76 134.986C19.928 134.714 20.972 134.382 21.892 133.99C22.42 133.758 22.924 133.498 23.404 133.21H19.888V132.598H27.124V133.21H24.34C23.956 133.474 23.584 133.714 23.224 133.93C23.68 134.394 24.04 134.906 24.304 135.466C25.472 135.154 26.576 134.654 27.616 133.966L28.06 134.398C27.412 134.838 26.716 135.21 25.972 135.514C26.548 137.098 27.484 138.358 28.78 139.294L28.324 139.834C26.964 138.754 26.004 137.378 25.444 135.706ZM23.548 129.442C23.708 129.818 23.852 130.222 23.98 130.654H28.504V132.622H27.856V131.266H19.132V132.622H18.484V130.654H23.344C23.224 130.318 23.072 129.95 22.888 129.55L23.548 129.442ZM30.196 130.294H40.84V130.93H39.208V139.258C39.208 140.002 38.84 140.374 38.104 140.374H36.124L35.98 139.75C36.86 139.782 37.492 139.798 37.876 139.798C38.324 139.798 38.548 139.562 38.548 139.09V130.93H30.196V130.294ZM36.136 132.97V137.218H32.272V138.31H31.648V132.97H36.136ZM32.272 136.618H35.512V133.558H32.272V136.618ZM45.904 130.858C46.984 132.066 47.84 133.162 48.472 134.146L47.932 134.53C47.3 133.506 46.44 132.398 45.352 131.206L45.904 130.858ZM50.152 136.51C49.384 138.046 48.108 139.338 46.324 140.386L45.88 139.846C47.896 138.694 49.24 137.214 49.912 135.406C50.416 133.87 50.668 131.946 50.668 129.634H51.34C51.34 131.882 51.1 133.786 50.62 135.346C50.54 135.586 50.476 135.762 50.428 135.874C51.412 137.138 52.26 138.434 52.972 139.762L52.48 140.254C51.864 139.03 51.088 137.782 50.152 136.51ZM42.904 138.478C43.096 138.358 43.192 138.182 43.192 137.95V130.042H43.864V138.13C44.864 137.738 45.836 137.254 46.78 136.678L46.972 137.326C45.788 138.006 44.5 138.594 43.108 139.09L42.904 138.478ZM54.64 131.434H56.596V130.654H54.16V130.126H56.596V129.514H57.196V130.126H59.5V130.654H57.196V131.434H59.164V133.414H57.196V133.69C57.948 134.026 58.68 134.402 59.392 134.818L59.068 135.31C58.34 134.806 57.716 134.41 57.196 134.122V135.442H56.596V133.954C55.844 134.61 55.08 135.134 54.304 135.526L54.016 135.01C54.88 134.674 55.74 134.15 56.596 133.438V133.414H54.64V131.434ZM58.612 132.946V131.914H57.196V132.946H58.612ZM56.596 132.946V131.914H55.18V132.946H56.596ZM61.06 131.134C60.972 131.326 60.868 131.538 60.748 131.77C61.108 132.482 61.596 133.094 62.212 133.606L62.344 133.474C62.84 132.89 63.16 132.11 63.304 131.134H61.06ZM61.756 133.99C61.22 133.526 60.772 132.97 60.412 132.322C60.22 132.61 60.016 132.874 59.8 133.114L59.416 132.622C60.176 131.758 60.692 130.706 60.964 129.466L61.564 129.538C61.484 129.882 61.388 130.222 61.276 130.558H64.708V131.134H63.892C63.724 132.27 63.364 133.174 62.812 133.846L62.692 133.966C63.324 134.39 64.04 134.722 64.84 134.962L64.492 135.49C63.612 135.202 62.86 134.83 62.236 134.374C61.652 134.798 60.88 135.15 59.92 135.43L59.692 134.89C60.548 134.65 61.236 134.35 61.756 133.99ZM59.092 136.534H54.784V135.958H64.24V136.534H59.74V137.758H63.568V138.334H59.74V139.558H64.804V140.158H54.196V139.558H56.176V137.194H56.8V139.558H59.092V136.534ZM70.66 130.042H76.312V135.454H73.816V137.098H76.552V137.722H73.816V139.45H76.936V140.086H70.048V139.45H73.168V137.722H70.408V137.098H73.168V135.454H70.66V130.042ZM75.676 134.866V133.03H73.816V134.866H75.676ZM73.168 134.866V133.03H71.296V134.866H73.168ZM71.296 132.454H73.168V130.63H71.296V132.454ZM73.816 130.63V132.454H75.676V130.63H73.816ZM66.316 134.038H67.684V130.99H66.136V130.366H69.868V130.99H68.332V134.038H69.724V134.662H68.332V137.602C68.852 137.418 69.372 137.214 69.892 136.99V137.614C68.748 138.118 67.492 138.538 66.124 138.874L65.968 138.262C66.488 138.158 67.06 138.01 67.684 137.818V134.662H66.316V134.038ZM78.124 134.566H88.864V135.214H78.124V134.566ZM90.196 130.222H100.792V130.858H95.5V132.862C97.012 133.638 98.548 134.538 100.108 135.562L99.724 136.138C98.068 135.018 96.66 134.15 95.5 133.534V140.494H94.864V130.858H90.196V130.222ZM105.904 130.858C106.984 132.066 107.84 133.162 108.472 134.146L107.932 134.53C107.3 133.506 106.44 132.398 105.352 131.206L105.904 130.858ZM110.152 136.51C109.384 138.046 108.108 139.338 106.324 140.386L105.88 139.846C107.896 138.694 109.24 137.214 109.912 135.406C110.416 133.87 110.668 131.946 110.668 129.634H111.34C111.34 131.882 111.1 133.786 110.62 135.346C110.54 135.586 110.476 135.762 110.428 135.874C111.412 137.138 112.26 138.434 112.972 139.762L112.48 140.254C111.864 139.03 111.088 137.782 110.152 136.51ZM102.904 138.478C103.096 138.358 103.192 138.182 103.192 137.95V130.042H103.864V138.13C104.864 137.738 105.836 137.254 106.78 136.678L106.972 137.326C105.788 138.006 104.5 138.594 103.108 139.09L102.904 138.478ZM122.308 129.658C122.06 130.186 121.776 130.662 121.456 131.086H124.84V131.734H114.148V131.086H117.568C117.32 130.51 117.044 130.014 116.74 129.598L117.412 129.49C117.692 129.914 117.972 130.446 118.252 131.086H120.748C121.084 130.59 121.392 130.038 121.672 129.43L122.308 129.658ZM117.34 140.386L117.16 139.75L118.072 139.774C118.432 139.774 118.612 139.57 118.612 139.162V137.806H115.684V140.482H115.048V132.874H119.248V139.294C119.248 140.022 118.928 140.386 118.288 140.386H117.34ZM115.684 137.206H118.612V135.658H115.684V137.206ZM115.684 135.07H118.612V133.486H115.684V135.07ZM121.372 140.35L121.228 139.738C121.756 139.762 122.252 139.774 122.716 139.774C123.092 139.774 123.28 139.574 123.28 139.174V132.49H123.928V139.342C123.928 140.014 123.6 140.35 122.944 140.35H121.372ZM120.76 133.39H121.408V138.586H120.76V133.39ZM130.252 131.662V139.726H129.628V138.994H127.204V140.062H126.58V131.662H127.66C127.908 130.982 128.088 130.266 128.2 129.514L128.86 129.598C128.732 130.334 128.54 131.022 128.284 131.662H130.252ZM127.204 138.394H129.628V135.55H127.204V138.394ZM127.204 134.962H129.628V132.286H127.204V134.962ZM132.292 134.374C133.212 135.39 133.908 136.27 134.38 137.014L133.864 137.386C133.384 136.61 132.684 135.718 131.764 134.71L132.292 134.374ZM136.468 131.674C136.468 135.522 136.412 137.918 136.3 138.862C136.18 139.822 135.624 140.302 134.632 140.302L133.456 140.278L133.3 139.678C133.78 139.702 134.2 139.714 134.56 139.714C135.208 139.714 135.58 139.358 135.676 138.646C135.764 137.99 135.82 135.882 135.844 132.322H132.304C131.96 133.114 131.556 133.814 131.092 134.422L130.708 133.918C131.572 132.718 132.16 131.246 132.472 129.502L133.108 129.574C132.956 130.358 132.772 131.058 132.556 131.674H136.468ZM145.144 136.474H142.684V135.85H148.276V136.474H145.792V139.414H148.828V140.062H142.132V139.414H145.144V136.474ZM145.828 133.078C144.932 133.894 143.808 134.566 142.456 135.094L142.036 134.566C144.356 133.678 145.96 132.41 146.848 130.762H142.612V130.126H147.64V130.642C147.288 131.394 146.824 132.07 146.248 132.67C147.312 133.35 148.208 134.03 148.936 134.71L148.48 135.178C147.832 134.53 146.948 133.83 145.828 133.078ZM141.988 138.55C140.86 139.134 139.592 139.598 138.184 139.942L138.1 139.306C139.572 138.97 140.868 138.518 141.988 137.95V138.55ZM140.836 129.79C140.204 131.382 139.568 132.642 138.928 133.57C139.56 133.498 140.212 133.414 140.884 133.318C141.204 132.702 141.448 132.246 141.616 131.95L142.216 132.166C141.008 134.35 140.028 135.854 139.276 136.678C140.204 136.51 141.116 136.27 142.012 135.958V136.558C140.82 136.958 139.644 137.238 138.484 137.398L138.304 136.798C138.416 136.75 138.52 136.686 138.616 136.606C139.168 136.046 139.808 135.146 140.536 133.906C140.112 133.97 139.372 134.07 138.316 134.206L138.16 133.606C138.264 133.55 138.356 133.474 138.436 133.378C139.116 132.298 139.708 131.022 140.212 129.55L140.836 129.79ZM16.636 147.15V147.798H7.78V151.47C7.732 153.982 7.304 155.974 6.496 157.446L5.992 157.002C6.72 155.666 7.096 153.822 7.12 151.47V147.15H16.636ZM16.048 150.714C16.024 153.874 15.876 155.762 15.604 156.378C15.316 157.002 14.812 157.314 14.092 157.314C13.7 157.314 13.228 157.302 12.676 157.278L12.496 156.678C13.072 156.686 13.552 156.698 13.936 156.714C14.568 156.69 14.96 156.39 15.112 155.814C15.28 155.238 15.376 153.734 15.4 151.302H12.412C12.268 152.654 11.968 153.786 11.512 154.698C10.904 155.858 9.896 156.774 8.488 157.446L8.128 156.87C9.48 156.23 10.448 155.338 11.032 154.194C11.4 153.354 11.644 152.39 11.764 151.302H8.848V150.714H11.812C11.828 150.49 11.844 150.138 11.86 149.658V148.494H12.496V149.658C12.496 150.026 12.484 150.378 12.46 150.714H16.048ZM28.324 147.402V156.99H27.676V155.994H24.532V157.098H23.896V147.402H28.324ZM24.532 155.382H27.676V148.014H24.532V155.382ZM18.388 149.886H20.56V147.954C19.888 148.066 19.232 148.146 18.592 148.194L18.376 147.594C20.112 147.474 21.608 147.166 22.864 146.67L23.176 147.222C22.496 147.478 21.832 147.678 21.184 147.822V149.886H23.308V150.498H21.184V151.182C21.928 151.862 22.644 152.598 23.332 153.39L22.948 153.942C22.268 153.03 21.68 152.31 21.184 151.782V157.41H20.56V151.65C20.04 152.906 19.304 154.046 18.352 155.07L18.076 154.386C19.252 153.234 20.08 151.938 20.56 150.498H18.388V149.886ZM35.2 148.926C34.656 150.086 34.008 151.114 33.256 152.01L32.8 151.47C33.92 150.158 34.808 148.486 35.464 146.454L36.112 146.61C35.96 147.082 35.752 147.642 35.488 148.29H40.864V148.926H36.676V151.11H40.312V151.758H36.676V153.978H40.408V154.614H36.676V157.47H36.028V148.926H35.2ZM31.588 150.438C31.14 151.03 30.668 151.582 30.172 152.094L29.968 151.41C31.296 149.97 32.264 148.338 32.872 146.514L33.472 146.79C33.144 147.758 32.732 148.65 32.236 149.466V157.47H31.588V150.438ZM44.248 147.09H50.728V150.822H44.248V147.09ZM50.068 150.198V147.714H44.908V150.198H50.068ZM46.732 152.238V157.278H46.096V156.642H43.324V157.278H42.688V152.238H46.732ZM43.324 156.03H46.096V152.85H43.324V156.03ZM52.312 152.238V157.278H51.664V156.642H48.772V157.278H48.136V152.238H52.312ZM48.772 156.03H51.664V152.85H48.772V156.03ZM54.364 154.494V153.882H59.212V153.162H59.86V153.882H64.636V154.494H60.796C61.628 155.374 62.952 156.066 64.768 156.57L64.492 157.146C62.452 156.474 61.008 155.59 60.16 154.494H59.86V157.482H59.212V154.494H58.888C58.152 155.542 56.716 156.446 54.58 157.206L54.232 156.642C56.216 156.018 57.564 155.302 58.276 154.494H54.364ZM55.588 149.274C55.212 149.714 54.816 150.118 54.4 150.486L54.064 149.97C55.16 148.994 55.984 147.838 56.536 146.502L57.136 146.658C57.016 146.978 56.864 147.314 56.68 147.666H59.488C59.312 147.242 59.14 146.878 58.972 146.574L59.62 146.454C59.796 146.838 59.96 147.242 60.112 147.666H64.072V148.242H60.172V149.202H63.652V149.73H60.172V150.666H63.652V151.194H60.172V152.214H64.288V152.778H55.588V149.274ZM59.536 152.214V151.194H56.2V152.214H59.536ZM59.536 150.666V149.73H56.2V150.666H59.536ZM59.536 149.202V148.242H56.344L56.2 148.47V149.202H59.536ZM69.904 147.858C70.984 149.066 71.84 150.162 72.472 151.146L71.932 151.53C71.3 150.506 70.44 149.398 69.352 148.206L69.904 147.858ZM74.152 153.51C73.384 155.046 72.108 156.338 70.324 157.386L69.88 156.846C71.896 155.694 73.24 154.214 73.912 152.406C74.416 150.87 74.668 148.946 74.668 146.634H75.34C75.34 148.882 75.1 150.786 74.62 152.346C74.54 152.586 74.476 152.762 74.428 152.874C75.412 154.138 76.26 155.434 76.972 156.762L76.48 157.254C75.864 156.03 75.088 154.782 74.152 153.51ZM66.904 155.478C67.096 155.358 67.192 155.182 67.192 154.95V147.042H67.864V155.13C68.864 154.738 69.836 154.254 70.78 153.678L70.972 154.326C69.788 155.006 68.5 155.594 67.108 156.09L66.904 155.478ZM87.196 152.322V157.458H86.572V156.882H80.452V157.458H79.828V152.322H87.196ZM80.452 156.306H83.188V154.878H80.452V156.306ZM83.812 156.306H86.572V154.878H83.812V156.306ZM80.452 154.326H83.188V152.898H80.452V154.326ZM83.812 152.898V154.326H86.572V152.898H83.812ZM82.66 146.526C82.484 146.814 82.272 147.114 82.024 147.426H87.016V147.93C86.256 148.866 85.3 149.678 84.148 150.366C85.492 150.966 87.092 151.386 88.948 151.626L88.648 152.214C86.648 151.91 84.944 151.406 83.536 150.702C82.072 151.446 80.336 151.986 78.328 152.322L78.04 151.758C79.888 151.486 81.516 151.022 82.924 150.366C82.092 149.886 81.388 149.342 80.812 148.734C80.26 149.23 79.672 149.67 79.048 150.054L78.628 149.55C80.044 148.71 81.172 147.654 82.012 146.382L82.66 146.526ZM81.208 148.35C81.832 149.014 82.604 149.586 83.524 150.066C84.564 149.498 85.46 148.814 86.212 148.014H81.532C81.38 148.166 81.272 148.278 81.208 148.35ZM95.2 146.538H95.848V148.422H99.664V155.01H99.028V154.206H95.848V157.434H95.2V154.206H91.972V155.094H91.336V148.422H95.2V146.538ZM91.972 153.582H95.2V151.59H91.972V153.582ZM95.848 153.582H99.028V151.59H95.848V153.582ZM91.972 151.002H95.2V149.034H91.972V151.002ZM95.848 151.002H99.028V149.034H95.848V151.002ZM108.964 146.514H109.6V147.366H112.636V147.918H109.6V148.866H112.192V149.406H109.6V150.378H112.948V150.942H105.652V150.378H108.964V149.406H106.456V148.866H108.964V147.918H105.976V147.366H108.964V146.514ZM107.236 153.966V154.998H111.364V153.966H107.236ZM111.364 153.45V152.406H107.236V153.45H111.364ZM107.236 155.526V157.458H106.624V151.854H111.988V156.522C111.988 157.106 111.68 157.398 111.064 157.398H110.056L109.888 156.81L110.872 156.846C111.2 156.846 111.364 156.694 111.364 156.39V155.526H107.236ZM103.348 146.67C104.188 147.302 104.888 147.922 105.448 148.53L105.004 148.986C104.46 148.378 103.756 147.754 102.892 147.114L103.348 146.67ZM102.028 150.258H104.452V155.73C104.812 155.41 105.24 154.99 105.736 154.47L105.904 155.166C105.264 155.838 104.572 156.45 103.828 157.002L103.576 156.414C103.736 156.27 103.816 156.114 103.816 155.946V150.894H102.028V150.258ZM124.324 147.402V156.99H123.676V155.994H120.532V157.098H119.896V147.402H124.324ZM120.532 155.382H123.676V148.014H120.532V155.382ZM114.388 149.886H116.56V147.954C115.888 148.066 115.232 148.146 114.592 148.194L114.376 147.594C116.112 147.474 117.608 147.166 118.864 146.67L119.176 147.222C118.496 147.478 117.832 147.678 117.184 147.822V149.886H119.308V150.498H117.184V151.182C117.928 151.862 118.644 152.598 119.332 153.39L118.948 153.942C118.268 153.03 117.68 152.31 117.184 151.782V157.41H116.56V151.65C116.04 152.906 115.304 154.046 114.352 155.07L114.076 154.386C115.252 153.234 116.08 151.938 116.56 150.498H114.388V149.886ZM126.196 147.066H136.816V147.69H131.932C131.812 148.306 131.644 148.886 131.428 149.43H136.108V157.494H135.472V156.846H127.564V157.494H126.928V149.43H130.78C131.012 148.87 131.176 148.29 131.272 147.69H126.196V147.066ZM127.564 156.222H129.424V150.042H127.564V156.222ZM130.036 156.222H132.964V154.506H130.036V156.222ZM133.576 156.222H135.472V150.042H133.576V156.222ZM130.036 153.942H132.964V152.286H130.036V153.942ZM130.036 151.71H132.964V150.042H130.036V151.71ZM143.248 152.082H142.048V151.47H145.084V152.082H143.884V155.55C144.428 155.422 144.984 155.278 145.552 155.118V155.742C144.52 156.046 143.388 156.302 142.156 156.51L142 155.886L143.248 155.67V152.082ZM147.688 157.242C147.304 157.242 146.956 156.934 146.644 156.318C146.292 155.614 146.044 154.638 145.9 153.39C145.764 152.398 145.672 151.066 145.624 149.394H141.772V148.746H145.612C145.596 148.266 145.588 147.51 145.588 146.478H146.236C146.236 147.526 146.244 148.282 146.26 148.746H148.708V149.394H146.272C146.328 151.61 146.468 153.298 146.692 154.458C146.972 155.802 147.304 156.494 147.688 156.534C147.984 156.486 148.268 155.722 148.54 154.242L149.044 154.662C148.668 156.382 148.216 157.242 147.688 157.242ZM147.268 146.466C147.836 147.114 148.248 147.634 148.504 148.026L148.036 148.35C147.74 147.87 147.332 147.342 146.812 146.766L147.268 146.466ZM139.348 146.646C140.14 147.278 140.8 147.914 141.328 148.554L140.872 149.01C140.352 148.378 139.688 147.738 138.88 147.09L139.348 146.646ZM138.028 150.258H140.416V155.706C140.792 155.378 141.224 154.942 141.712 154.398L141.88 155.082C141.224 155.802 140.536 156.438 139.816 156.99L139.564 156.402C139.716 156.266 139.792 156.13 139.792 155.994V150.894H138.028V150.258Z" fill="#848484"/>
<path d="M53.16 90.3939C52.7867 91.0606 52.38 91.6739 51.94 92.2339H57V94.0739H38.98V92.2339H44.18C43.8333 91.5406 43.44 90.8806 43 90.2539L45 89.9339C45.4 90.5873 45.8067 91.3539 46.22 92.2339H49.84C50.3733 91.5006 50.8667 90.6739 51.32 89.7539L53.16 90.3939ZM44.42 108.234L43.92 106.374L45.36 106.434C45.8133 106.434 46.04 106.121 46.04 105.494V104.154H42.12V108.394H40.26V95.3139H47.88V105.914C47.88 107.461 47.2467 108.234 45.98 108.234H44.42ZM42.12 102.474H46.04V100.614H42.12V102.474ZM42.12 98.9339H46.04V97.0739H42.12V98.9339ZM51.08 108.174L50.68 106.354C51.52 106.434 52.3333 106.474 53.12 106.474C53.6 106.474 53.84 106.201 53.84 105.654V94.8939H55.74V106.134C55.74 107.494 55.0867 108.174 53.78 108.174H51.08ZM49.72 96.3939H51.56V104.934H49.72V96.3939ZM60.28 89.9939H62.12V92.0539H65.58V90.0339H67.42V92.0539H68.46V93.8139H67.42V101.834H68.56V103.594H58.98V101.834H60.28V93.8139H59.2V92.0539H60.28V89.9939ZM62.12 101.834H65.58V100.274H62.12V101.834ZM65.58 93.8139H62.12V95.3939H65.58V93.8139ZM62.12 98.6139H65.58V97.0539H62.12V98.6139ZM65.68 103.834C66.4933 104.861 67.1467 105.787 67.64 106.614C68.7733 104.841 69.3467 102.667 69.36 100.094V90.5339H76.44V106.214C76.44 107.521 75.7867 108.174 74.48 108.174H72.4L71.88 106.314C72.84 106.367 73.5067 106.394 73.88 106.394C74.32 106.394 74.54 106.107 74.54 105.534V101.934H71.14C70.86 104.547 70.06 106.734 68.74 108.494L67.38 107.234L66.24 108.034C65.7733 107.087 65.1 106.001 64.22 104.774L65.68 103.834ZM62.86 104.614C62.1533 106.014 61.3067 107.247 60.32 108.314L58.82 107.234C59.78 106.287 60.62 105.167 61.34 103.874L62.86 104.614ZM71.26 97.1139V100.194H74.54V97.1139H71.26ZM74.54 95.3939V92.3339H71.26V95.3939H74.54ZM80.52 90.4339C81.84 92.2473 82.8333 93.8073 83.5 95.1139L81.92 96.1939C81.1733 94.7673 80.1667 93.1806 78.9 91.4339L80.52 90.4339ZM83.56 99.8939C82.7333 102.787 81.7867 105.574 80.72 108.254L78.92 107.474C80.0533 104.741 81.0267 101.987 81.84 99.2139L83.56 99.8939ZM87.18 99.0139V101.294H90.86V99.0139H87.18ZM87.18 103.034V105.514H90.86V103.034H87.18ZM87.18 107.274V108.374H85.32V97.2339C84.6933 98.1539 84.16 98.8873 83.72 99.4339L83.1 97.4739C84.78 95.1273 85.9533 92.5939 86.62 89.8739L88.44 90.2339C88.16 91.2473 87.8333 92.2206 87.46 93.1539H91.16C90.8667 92.1806 90.5133 91.2073 90.1 90.2339L91.92 89.7139C92.4133 91.1273 92.76 92.2739 92.96 93.1539H96.7V94.9539H92.7V97.2539H96.28V99.0139H92.7V101.294H96.32V103.034H92.7V105.514H97.12V107.274H87.18ZM90.86 94.9539H87.18V97.2539H90.86V94.9539ZM114.5 99.4139V108.354H112.7V107.594H103.34V108.354H101.54V99.4939C100.9 99.6273 100.26 99.7473 99.62 99.8539L98.8 98.1939C101.613 97.8206 104.1 97.1806 106.26 96.2739C105.233 95.6206 104.327 94.9006 103.54 94.1139C102.74 94.8473 101.853 95.5206 100.88 96.1339L99.66 94.6539C101.78 93.4406 103.593 91.7739 105.1 89.6539L106.98 90.0739L106.22 91.1739H114.08V92.6139C112.933 94.0006 111.54 95.2206 109.9 96.2739C112.033 97.0873 114.467 97.6739 117.2 98.0339L116.38 99.7139C113.207 99.2473 110.44 98.4406 108.08 97.2939C106.213 98.2006 104.153 98.9073 101.9 99.4139H114.5ZM104.66 93.0339C105.633 93.9673 106.76 94.7673 108.04 95.4339C109.453 94.6606 110.667 93.7939 111.68 92.8339H104.86L104.66 93.0339ZM103.34 105.994H107.1V104.234H103.34V105.994ZM108.9 105.994H112.7V104.234H108.9V105.994ZM103.34 102.714H107.1V100.994H103.34V102.714ZM108.9 100.994V102.714H112.7V100.994H108.9Z" fill="#525252"/>
<circle cx="78" cy="35.2939" r="35" fill="#E4E4E4"/>
<path d="M76.3333 47.6691V36.2524L66.3333 30.4608V41.8774L76.3333 47.6691ZM79.6667 47.6691L89.6667 41.8774V30.4608L79.6667 36.2524V47.6691ZM76.3333 51.5024L64.6667 44.7941C64.1389 44.4886 63.7289 44.0858 63.4367 43.5858C63.1445 43.0858 62.9989 42.5302 63 41.9191V28.6691C63 28.058 63.1461 27.5024 63.4383 27.0024C63.7306 26.5024 64.14 26.0997 64.6667 25.7941L76.3333 19.0858C76.8611 18.7802 77.4167 18.6274 78 18.6274C78.5833 18.6274 79.1389 18.7802 79.6667 19.0858L91.3333 25.7941C91.8611 26.0997 92.2711 26.5024 92.5633 27.0024C92.8556 27.5024 93.0011 28.058 93 28.6691V41.9191C93 42.5302 92.8539 43.0858 92.5617 43.5858C92.2695 44.0858 91.86 44.4886 91.3333 44.7941L79.6667 51.5024C79.1389 51.808 78.5833 51.9608 78 51.9608C77.4167 51.9608 76.8611 51.808 76.3333 51.5024ZM84.6667 29.5024L87.875 27.6691L78 21.9608L74.75 23.8358L84.6667 29.5024ZM78 33.3774L81.25 31.5024L71.375 25.7941L68.125 27.6691L78 33.3774Z" fill="#545454"/>
<path d="M219.22 103.734C218.66 102.827 218.133 102.027 217.64 101.334C216.96 103.134 216.16 104.694 215.24 106.014L214.02 104.534C214.94 103.134 215.727 101.474 216.38 99.5539C215.607 98.4873 214.727 97.3739 213.74 96.2139L214.9 95.0739C215.46 95.6606 216.153 96.4806 216.98 97.5339C217.3 96.2006 217.553 94.8606 217.74 93.5139L219.48 93.8139C219.173 95.8806 218.787 97.7139 218.32 99.3139C219 100.274 219.72 101.334 220.48 102.494L219.22 103.734ZM224.98 104.694C224.473 103.787 223.9 102.827 223.26 101.814C222.513 103.627 221.647 105.187 220.66 106.494L219.46 105.034C220.487 103.581 221.353 101.894 222.06 99.9739C221.22 98.7339 220.36 97.5539 219.48 96.4339L220.66 95.3139C221.327 96.0606 222.007 96.9273 222.7 97.9139C223.06 96.5673 223.36 95.1206 223.6 93.5739L225.36 93.8739C225 96.0473 224.54 98.0273 223.98 99.8139C224.753 101.001 225.513 102.207 226.26 103.434L224.98 104.694ZM224.16 108.234L223.66 106.394L225.54 106.474C226.033 106.474 226.28 106.241 226.28 105.774V92.4139H213.72V108.354H211.84V90.5939H228.16V106.194C228.16 107.554 227.493 108.234 226.16 108.234H224.16ZM238.08 89.8939H240.04V95.9139H247.44V97.7539H240.04V105.794H248.98V107.634H231.06V105.794H238.08V89.8939ZM257.8 99.5939C257.093 99.9406 256.38 100.267 255.66 100.574V106.294C255.66 107.627 255.02 108.294 253.74 108.294H251.86L251.42 106.474C252.007 106.554 252.553 106.594 253.06 106.594C253.553 106.594 253.8 106.341 253.8 105.834V101.314C252.92 101.634 252.04 101.934 251.16 102.214L250.68 100.334C251.84 100.067 252.88 99.7739 253.8 99.4539V95.2339H251.06V93.4139H253.8V89.9539H255.66V93.4139H257.74V95.2339H255.66V98.7339C256.433 98.3873 257.147 98.0473 257.8 97.7139V99.5939ZM260.42 99.4739V108.354H258.62V90.5939H267.84C267.84 92.9006 267.713 94.4673 267.46 95.2939C267.207 96.0539 266.407 96.4339 265.06 96.4339H263.56L263.04 94.7939L264.2 94.8139C264.667 94.8139 265.02 94.7939 265.26 94.7539C265.473 94.6873 265.64 94.5539 265.76 94.3539C265.893 94.0739 265.98 93.3939 266.02 92.3139H260.42V97.7339H267.98V99.3739C267.66 101.441 267.02 103.194 266.06 104.634C266.993 105.487 268.087 106.247 269.34 106.914L268.06 108.394C266.847 107.621 265.82 106.827 264.98 106.014C264.073 106.987 262.967 107.787 261.66 108.414L260.74 106.754C261.9 106.194 262.88 105.474 263.68 104.594C262.413 103.034 261.62 101.327 261.3 99.4739H260.42ZM263 99.4739C263.253 100.821 263.833 102.067 264.74 103.214C265.38 102.161 265.867 100.914 266.2 99.4739H263ZM277.34 107.234V108.294H275.44V101.434C274.347 101.767 273.153 102.087 271.86 102.394L270.86 100.554C274.233 99.9006 277.02 99.0673 279.22 98.0539C278.38 97.3739 277.273 96.6406 275.9 95.8539L277.54 94.8339C278.913 95.6739 280.02 96.4539 280.86 97.1739C282.66 96.0806 284.007 94.8073 284.9 93.3539H277.98C276.607 94.6073 274.893 95.7273 272.84 96.7139L271.56 95.0739C274.933 93.6339 277.22 91.8873 278.42 89.8339L280.5 90.0739C280.193 90.6339 279.887 91.1339 279.58 91.5739H287.08V93.2539C285.773 95.8006 283.433 97.9139 280.06 99.5939H287.72V108.294H285.8V107.234H277.34ZM285.8 105.394V101.354H277.34V105.394H285.8Z" fill="#525252"/>
<circle cx="250" cy="35.2939" r="35" fill="#0067D1"/>
<path d="M255.357 23.5083H258.571C259.14 23.5083 259.685 23.7341 260.087 24.1359C260.488 24.5378 260.714 25.0828 260.714 25.6512V47.0797C260.714 47.648 260.488 48.1931 260.087 48.595C259.685 48.9968 259.14 49.2226 258.571 49.2226H241.429C240.86 49.2226 240.315 48.9968 239.913 48.595C239.511 48.1931 239.286 47.648 239.286 47.0797V25.6512C239.286 25.0828 239.511 24.5378 239.913 24.1359C240.315 23.7341 240.86 23.5083 241.429 23.5083H244.643" stroke="white" stroke-width="3" stroke-linecap="round" stroke-linejoin="round"/>
<path d="M253.214 21.3652H246.786C245.602 21.3652 244.643 22.3246 244.643 23.5081V24.5795C244.643 25.763 245.602 26.7224 246.786 26.7224H253.214C254.398 26.7224 255.357 25.763 255.357 24.5795V23.5081C255.357 22.3246 254.398 21.3652 253.214 21.3652Z" stroke="white" stroke-width="3" stroke-linecap="round" stroke-linejoin="round"/>
<path d="M244.643 38.508L248.928 41.7223L254.286 33.1509" stroke="white" stroke-width="3" stroke-linecap="round" stroke-linejoin="round"/>
<path d="M384.24 97.5939H386.12V108.374H384.24V97.5939ZM395.98 108.294L395.52 106.574L397.32 106.634C397.76 106.634 397.98 106.341 397.98 105.754V97.0339H390.56V95.2939H399.86V106.274C399.86 107.621 399.14 108.294 397.7 108.294H395.98ZM388.26 98.4339H395.8V106.234H388.26V98.4339ZM394.04 104.654V103.054H390.06V104.654H394.04ZM390.06 101.534H394.04V99.9739H390.06V101.534ZM386.66 94.4739C387.7 95.3939 388.5 96.2139 389.06 96.9339L387.66 97.8939C387.1 97.1873 386.3 96.3339 385.26 95.3339L386.66 94.4739ZM386.12 92.8539C385.64 93.6939 385.1 94.4539 384.5 95.1339L382.9 94.0939C384.073 92.8006 384.927 91.3806 385.46 89.8339L387.3 90.2339C387.287 90.2873 387.16 90.6073 386.92 91.1939H391.88V92.8539H389.24C389.64 93.4139 389.98 93.9806 390.26 94.5539L388.58 95.1739C388.193 94.3473 387.753 93.5739 387.26 92.8539H386.12ZM394.62 92.8539C394.273 93.5473 393.86 94.2073 393.38 94.8339L391.78 93.7939C392.767 92.5673 393.46 91.2539 393.86 89.8539L395.68 90.2539L395.36 91.1939H400.96V92.8539H397.96C398.32 93.3739 398.64 93.8873 398.92 94.3939L397.24 95.0139C396.88 94.2673 396.46 93.5473 395.98 92.8539H394.62ZM420.66 90.7539V92.6139H406.28V98.2539C406.2 102.454 405.5 105.814 404.18 108.334L402.7 107.014C403.753 104.881 404.3 101.961 404.34 98.2539V90.7539H420.66ZM419.98 96.6939C419.94 102.161 419.66 105.434 419.14 106.514C418.607 107.594 417.673 108.134 416.34 108.134C415.993 108.134 415.207 108.107 413.98 108.054L413.48 106.274C414.44 106.314 415.247 106.354 415.9 106.394C416.833 106.354 417.407 105.907 417.62 105.054C417.873 104.161 418.02 101.941 418.06 98.3939H413.86C413.62 100.527 413.12 102.327 412.36 103.794C411.307 105.781 409.633 107.287 407.34 108.314L406.28 106.654C408.533 105.521 410.06 104.121 410.86 102.454C411.367 101.307 411.733 99.9539 411.96 98.3939H407.46V96.6939H412.12L412.18 95.3939V93.4139H414.08V95.3939L414.02 96.6939H419.98ZM433.18 93.0939H430.36V91.2739H440.54C440.54 98.0473 440.433 102.287 440.22 103.994C439.98 106.687 438.887 108.034 436.94 108.034C436.62 108.034 435.84 108.001 434.6 107.934L434.14 106.194C435.207 106.261 436.033 106.294 436.62 106.294C437.633 106.294 438.22 105.241 438.38 103.134C438.487 102.254 438.56 98.9073 438.6 93.0939H435.06V94.6339C434.98 100.927 433.247 105.507 429.86 108.374L428.4 107.094C431.533 104.494 433.127 100.341 433.18 94.6339V93.0939ZM425.48 100.774C424.747 101.521 424.007 102.234 423.26 102.914L422.7 100.994C425.14 98.7939 426.78 96.6539 427.62 94.5739H423.16V92.8539H425.64C425.32 91.9873 424.96 91.1473 424.56 90.3339L426.4 89.8539C426.893 91.0006 427.267 92.0006 427.52 92.8539H429.48V94.3939C429 95.7939 428.273 97.1806 427.3 98.5539V98.5939L428.12 99.1739C428.72 98.7073 429.327 98.0273 429.94 97.1339L431.08 98.2739C430.507 99.0473 429.907 99.6606 429.28 100.114C429.88 100.634 430.353 101.087 430.7 101.474L429.68 103.074C428.84 101.981 428.047 101.081 427.3 100.374V108.334H425.48V100.774ZM446.26 92.9539C445.78 93.8339 445.24 94.6339 444.64 95.3539L443 94.3539C444.213 92.9139 445.08 91.4006 445.6 89.8139L447.42 90.2139C447.38 90.3473 447.32 90.5206 447.24 90.7339C447.133 90.9873 447.067 91.1606 447.04 91.2539H451.98V92.9539H449.72C450.013 93.3406 450.3 93.7739 450.58 94.2539L448.82 94.9139C448.513 94.2739 448.133 93.6206 447.68 92.9539H446.26ZM454.92 92.9539C454.533 93.6873 454.08 94.3873 453.56 95.0539L451.96 94.0339C453 92.7539 453.74 91.3806 454.18 89.9139L456.02 90.2939L455.68 91.2539H461.08V92.9539H458.38C458.74 93.4073 459.04 93.8473 459.28 94.2739L457.54 94.9339C457.18 94.2539 456.78 93.5939 456.34 92.9539H454.92ZM447.18 95.2339H449V100.454C448.96 104.067 447.853 106.701 445.68 108.354L444.28 107.134C446.173 105.721 447.14 103.494 447.18 100.454V95.2339ZM443.82 96.9739H445.64V103.634H443.82V96.9739ZM454.48 97.1339H449.92V95.3939H460.88V97.1339H456.28V98.6339H460.14V104.354C460.14 105.674 459.527 106.334 458.3 106.334H457.24L456.78 104.654L457.74 104.714C458.18 104.714 458.4 104.461 458.4 103.954V100.294H456.28V108.414H454.48V100.294H452.44V106.514H450.74V98.6339H454.48V97.1339Z" fill="#525252"/>
<circle cx="422" cy="35.2939" r="35" fill="#0067D1"/>
<path d="M434.881 28.1946L426.787 20.1009C426.679 19.9936 426.552 19.9084 426.411 19.8504C426.271 19.7924 426.121 19.7626 425.969 19.7627H412.094C411.48 19.7627 410.892 20.0063 410.459 20.44C410.025 20.8737 409.781 21.4619 409.781 22.0752V47.5127C409.781 48.126 410.025 48.7142 410.459 49.1479C410.892 49.5816 411.48 49.8252 412.094 49.8252H432.906C433.52 49.8252 434.108 49.5816 434.541 49.1479C434.975 48.7142 435.219 48.126 435.219 47.5127V29.0127C435.219 28.8608 435.189 28.7104 435.131 28.57C435.073 28.4297 434.988 28.3021 434.881 28.1946ZM427.125 23.7098L431.272 27.8564H427.125V23.7098ZM432.906 47.5127H412.094V22.0752H424.813V29.0127C424.813 29.3194 424.934 29.6134 425.151 29.8303C425.368 30.0471 425.662 30.1689 425.969 30.1689H432.906V47.5127ZM426.324 40.4523C427.007 39.368 427.266 38.0703 427.052 36.8071C426.838 35.5439 426.166 34.4039 425.165 33.6047C424.163 32.8056 422.902 32.4034 421.623 32.475C420.344 32.5466 419.136 33.087 418.23 33.9929C417.324 34.8988 416.784 36.1068 416.712 37.386C416.641 38.6651 417.043 39.9258 417.842 40.9272C418.641 41.9286 419.781 42.6004 421.044 42.8144C422.308 43.0283 423.605 42.7694 424.69 42.087L426.307 43.7057C426.414 43.8132 426.542 43.8984 426.682 43.9565C426.823 44.0147 426.973 44.0446 427.125 44.0446C427.277 44.0446 427.427 44.0147 427.568 43.9565C427.708 43.8984 427.836 43.8132 427.943 43.7057C428.05 43.5983 428.136 43.4708 428.194 43.3304C428.252 43.1901 428.282 43.0396 428.282 42.8877C428.282 42.7358 428.252 42.5853 428.194 42.445C428.136 42.3046 428.05 42.1771 427.943 42.0696L426.324 40.4523ZM419.031 37.6846C419.031 37.1129 419.201 36.554 419.518 36.0786C419.836 35.6033 420.287 35.2328 420.816 35.014C421.344 34.7952 421.925 34.738 422.486 34.8495C423.047 34.961 423.562 35.2363 423.966 35.6406C424.37 36.0449 424.645 36.5599 424.757 37.1206C424.868 37.6814 424.811 38.2626 424.592 38.7908C424.374 39.319 424.003 39.7704 423.528 40.088C423.052 40.4057 422.494 40.5752 421.922 40.5752C421.155 40.5752 420.42 40.2706 419.878 39.7286C419.336 39.1865 419.031 38.4512 419.031 37.6846Z" fill="white"/>
<path d="M54.715 366.569V382.449H52.855V381.209H49.775V382.449H47.915V366.569H54.715ZM49.775 379.369H52.855V368.409H49.775V379.369ZM40.455 364.349H42.375V367.709H46.395C46.395 374.509 46.295 378.709 46.095 380.309C45.895 381.829 44.9017 382.589 43.115 382.589C42.875 382.589 42.355 382.556 41.555 382.489L41.075 380.749C41.835 380.816 42.415 380.849 42.815 380.849C43.655 380.849 44.155 380.383 44.315 379.449C44.4217 378.583 44.495 375.289 44.535 369.569H42.375V370.109C42.3083 375.949 41.0217 380.216 38.515 382.909L36.975 381.549C39.255 379.189 40.415 375.376 40.455 370.109V369.569H37.435V367.709H40.455V364.349ZM65.275 369.069C64.395 367.456 63.3217 366.196 62.055 365.289L63.635 364.289C65.315 365.463 66.8017 367.709 68.095 371.029C69.9883 375.696 72.455 379.009 75.495 380.969L74.315 382.469C71.1817 380.589 68.555 376.983 66.435 371.649L66.295 371.269C64.935 376.109 62.235 379.849 58.195 382.489L57.055 380.869C61.215 378.136 63.955 374.203 65.275 369.069ZM77.775 366.409H84.295C85.695 366.409 86.7883 366.743 87.575 367.409C88.335 368.049 88.715 368.916 88.715 370.009C88.715 370.809 88.515 371.489 88.115 372.049C87.7017 372.583 87.1483 372.976 86.455 373.229C87.4017 373.416 88.115 373.796 88.595 374.369C89.075 374.943 89.315 375.716 89.315 376.689C89.315 378.116 88.8217 379.169 87.835 379.849C86.995 380.409 85.815 380.689 84.295 380.689H77.775V366.409ZM79.955 368.209V372.469H83.715C84.7017 372.469 85.4217 372.296 85.875 371.949C86.315 371.589 86.535 371.029 86.535 370.269C86.535 369.549 86.315 369.029 85.875 368.709C85.4483 368.376 84.7417 368.209 83.755 368.209H79.955ZM79.955 374.249V378.889H83.995C84.8883 378.889 85.6083 378.743 86.155 378.449C86.8083 378.063 87.135 377.463 87.135 376.649C87.135 375.809 86.8817 375.196 86.375 374.809C85.8817 374.436 85.1083 374.249 84.055 374.249H79.955ZM90.2055 366.409H92.8255L96.9455 372.949L101.065 366.409H103.685L98.0255 374.989V380.689H95.8655V374.989L90.2055 366.409ZM105.177 366.409H111.497C112.964 366.409 114.111 366.736 114.937 367.389C115.817 368.109 116.257 369.143 116.257 370.489C116.257 371.236 116.057 371.903 115.657 372.489C115.204 373.129 114.584 373.549 113.797 373.749V373.789C115.064 374.069 115.777 374.909 115.937 376.309L116.177 378.589C116.257 379.469 116.537 380.169 117.017 380.689H114.657C114.324 380.263 114.117 379.636 114.037 378.809L113.857 377.029C113.777 376.256 113.524 375.683 113.097 375.309C112.671 374.963 112.044 374.789 111.217 374.789H107.357V380.689H105.177V366.409ZM107.357 368.269V372.929H111.217C112.164 372.929 112.884 372.723 113.377 372.309C113.844 371.909 114.077 371.329 114.077 370.569C114.077 369.783 113.851 369.203 113.397 368.829C112.931 368.456 112.197 368.269 111.197 368.269H107.357Z" fill="#525252"/>
<circle cx="77" cy="309.689" r="35" fill="#0067D1"/>
<path d="M89.6437 311.337C89.8786 309.539 89.7269 307.711 89.1989 305.976C88.6709 304.241 87.7787 302.638 86.582 301.275C85.3852 299.913 83.9114 298.821 82.259 298.073C80.6066 297.325 78.8137 296.939 77 296.939C73.6185 296.939 70.3755 298.283 67.9844 300.674C65.5933 303.065 64.25 306.308 64.25 309.689C64.25 313.071 65.5933 316.314 67.9844 318.705C70.3755 321.096 73.6185 322.439 77 322.439M72.75 306.856H72.7642M81.25 306.856H81.2642" stroke="white" stroke-width="2.8" stroke-linecap="round" stroke-linejoin="round"/>
<path d="M73.458 313.939C74.3902 314.846 75.668 315.356 76.9997 315.356C78.3313 315.356 79.6092 314.846 80.5413 313.939M81.2497 319.606L84.083 322.439L89.7497 316.773" stroke="white" stroke-width="2.8" stroke-linecap="round" stroke-linejoin="round"/>
<rect x="226" y="355.689" width="227" height="63" rx="12" fill="#0067D1" fill-opacity="0.1" stroke="#0067D1" stroke-width="3" stroke-linecap="round" stroke-linejoin="round" stroke-dasharray="10 10"/>
<path d="M284.756 387.502V394.486H283.046V393.73H276.008V394.486H274.316V387.502H284.756ZM276.008 392.074H283.046V389.104H276.008V392.074ZM278.618 378.106L277.988 379.15H284.612V380.518C283.604 381.922 282.404 383.134 281.012 384.154C282.932 385.102 285.182 385.774 287.762 386.17L287.006 387.718C284.078 387.214 281.576 386.35 279.5 385.126C277.34 386.362 274.838 387.25 271.994 387.79L271.238 386.26C273.806 385.84 276.056 385.132 277.988 384.136C277.16 383.512 276.404 382.816 275.72 382.048C275.024 382.78 274.25 383.452 273.398 384.064L272.282 382.732C274.058 381.52 275.6 379.846 276.908 377.71L278.618 378.106ZM276.746 380.896C277.526 381.808 278.432 382.6 279.464 383.272C280.568 382.528 281.552 381.676 282.416 380.716H276.89C276.842 380.764 276.794 380.824 276.746 380.896ZM299.156 378.646H305.204V379.87C304.664 381.718 304.088 383.428 303.476 385C304.748 386.812 305.39 388.282 305.402 389.41C305.402 390.442 305.18 391.168 304.736 391.588C304.244 392.008 303.278 392.218 301.838 392.218L301.334 390.508C301.946 390.58 302.462 390.616 302.882 390.616C303.29 390.58 303.548 390.484 303.656 390.328C303.752 390.196 303.812 389.89 303.836 389.41C303.812 388.282 303.128 386.812 301.784 385C302.36 383.668 302.918 382.054 303.458 380.158H300.794V394.468H299.156V378.646ZM289.706 379.438H293.108C292.964 378.91 292.802 378.424 292.622 377.98L294.368 377.692C294.512 378.16 294.662 378.742 294.818 379.438H298.238V381.058H289.706V379.438ZM289.364 384.352H291.578C291.314 383.536 290.99 382.78 290.606 382.084L292.154 381.526C292.514 382.33 292.856 383.272 293.18 384.352H294.818C295.262 383.404 295.64 382.426 295.952 381.418L297.518 381.958C297.17 382.918 296.834 383.716 296.51 384.352H298.346V385.99H289.364V384.352ZM297.608 387.286V394.126H295.97V393.262H291.92V394.162H290.264V387.286H297.608ZM291.92 391.678H295.97V388.834H291.92V391.678ZM319.37 394.306L318.938 392.704L320.504 392.74C320.984 392.74 321.224 392.422 321.224 391.786V380.212H314.456V378.628H322.88V392.254C322.88 393.622 322.202 394.306 320.846 394.306H319.37ZM308.084 380.824H309.74V394.468H308.084V380.824ZM311.09 377.656C311.918 378.628 312.65 379.696 313.286 380.86L311.756 381.67C311.096 380.446 310.358 379.336 309.542 378.34L311.09 377.656ZM331.646 391.678C329.942 392.518 327.98 393.19 325.76 393.694L325.544 391.984C327.86 391.516 329.894 390.874 331.646 390.058V391.678ZM330.188 378.412C329.288 380.5 328.37 382.192 327.434 383.488C328.154 383.416 328.844 383.326 329.504 383.218L330.62 381.184L332.168 381.76C330.608 384.568 329.282 386.632 328.19 387.952C329.426 387.652 330.626 387.28 331.79 386.836V388.402C329.738 389.146 327.818 389.644 326.03 389.896L325.58 388.33C325.892 388.186 326.15 388.018 326.354 387.826C326.93 387.25 327.674 386.242 328.586 384.802L325.742 385.18L325.31 383.596C325.586 383.488 325.832 383.272 326.048 382.948C326.996 381.424 327.836 379.702 328.568 377.782L330.188 378.412ZM340.304 378.628V392.164H341.744V393.82H331.232V392.164H332.708V378.628H340.304ZM334.382 392.164H338.63V389.248H334.382V392.164ZM334.382 387.628H338.63V384.676H334.382V387.628ZM334.382 383.074H338.63V380.266H334.382V383.074ZM349.592 392.218C347.84 392.854 345.8 393.382 343.472 393.802L343.238 392.11C345.662 391.714 347.78 391.192 349.592 390.544V392.218ZM347.99 378.394C347.078 380.614 346.16 382.42 345.236 383.812C345.944 383.74 346.646 383.65 347.342 383.542C347.798 382.714 348.206 381.964 348.566 381.292L350.096 381.886C348.536 384.718 347.222 386.8 346.154 388.132C347.246 387.892 348.404 387.556 349.628 387.124V388.6C347.576 389.38 345.686 389.89 343.958 390.13L343.49 388.528C343.802 388.384 344.066 388.216 344.282 388.024C344.834 387.472 345.554 386.494 346.442 385.09C346.082 385.15 345.62 385.216 345.056 385.288L343.616 385.504L343.166 383.938C343.442 383.818 343.688 383.596 343.904 383.272C344.828 381.64 345.644 379.804 346.352 377.764L347.99 378.394ZM350.456 378.772H358.844V387.556H350.456V378.772ZM357.152 385.954V380.392H352.13V385.954H357.152ZM353.516 389.05C352.64 391.15 351.626 392.95 350.474 394.45L349.016 393.406C350.204 391.99 351.206 390.298 352.022 388.33L353.516 389.05ZM356.972 388.33C358.244 390.262 359.24 391.972 359.96 393.46L358.502 394.468C357.806 392.932 356.834 391.174 355.586 389.194L356.972 388.33ZM361.436 378.448H377.564V380.086H370.472C370.316 380.77 370.13 381.4 369.914 381.976H376.718V394.504H375.062V393.748H363.992V394.504H362.336V381.976H368.186C368.426 381.364 368.606 380.734 368.726 380.086H361.436V378.448ZM363.992 392.164H366.044V383.542H363.992V392.164ZM367.646 392.164H371.354V390.22H367.646V392.164ZM372.956 392.164H375.062V383.542H372.956V392.164ZM367.646 388.762H371.354V386.89H367.646V388.762ZM367.646 385.414H371.354V383.542H367.646V385.414ZM386.762 386.62H385.214V385.018H389.984V386.62H388.436V391.048C389.18 390.88 389.894 390.7 390.578 390.508V392.11C388.958 392.554 387.284 392.926 385.556 393.226L385.142 391.588C385.862 391.492 386.402 391.414 386.762 391.354V386.62ZM393.782 394.288C393.134 394.288 392.552 393.814 392.036 392.866C391.46 391.738 391.046 390.25 390.794 388.402C390.578 386.818 390.434 384.88 390.362 382.588H384.8V380.932H390.326C390.302 380.26 390.29 379.21 390.29 377.782H391.946C391.946 379.222 391.958 380.272 391.982 380.932H395.42V382.588H392.018C392.09 385.252 392.258 387.46 392.522 389.212C392.882 391.264 393.302 392.332 393.782 392.416C394.058 392.38 394.358 391.33 394.682 389.266L396.032 390.364C395.384 392.98 394.634 394.288 393.782 394.288ZM393.458 377.764C394.118 378.496 394.706 379.222 395.222 379.942L394.034 380.77C393.638 380.134 393.056 379.378 392.288 378.502L393.458 377.764ZM381.614 377.98C382.742 378.868 383.678 379.756 384.422 380.644L383.252 381.832C382.58 380.992 381.638 380.098 380.426 379.15L381.614 377.98ZM379.184 383.2H383.234V390.616C383.702 390.148 384.134 389.692 384.53 389.248L384.98 391.048C383.96 392.14 382.892 393.094 381.776 393.91L381.128 392.38C381.428 392.116 381.578 391.822 381.578 391.498V384.838H379.184V383.2Z" fill="#333333"/>
<path d="M230.22 324.409H232.06L231.84 328.089L235.2 326.729L235.78 328.449L232.24 329.409L234.66 332.149L233.24 333.269L231.14 330.209L229.02 333.269L227.6 332.149L230.02 329.409L226.5 328.449L227.08 326.729L230.44 328.089L230.22 324.409ZM242.973 322.309H244.893V340.749H242.973V336.189H237.093V334.369H242.973V331.629H238.013V329.789H242.973V327.129H237.553V325.309H242.973V322.309ZM247.653 322.309H249.573V325.309H254.973V327.129H249.573V329.789H254.533V331.629H249.573V334.369H255.293V336.189H249.573V340.749H247.653V322.309ZM257.773 340.529L257.373 338.749C257.893 338.829 258.38 338.869 258.833 338.869C259.313 338.869 259.553 338.596 259.553 338.049V333.809C258.673 334.156 257.947 334.423 257.373 334.609L256.893 332.729C257.773 332.529 258.66 332.269 259.553 331.949V327.629H257.293V325.809H259.553V322.309H261.393V325.809H263.353V327.629H261.393V331.189C262.02 330.896 262.687 330.556 263.393 330.169V332.029C262.873 332.309 262.207 332.643 261.393 333.029V338.529C261.393 339.863 260.753 340.529 259.473 340.529H257.773ZM263.913 325.029H268.593V322.349H270.433V325.029H275.113V326.849H270.433V329.709H274.353V331.389C273.7 333.496 272.627 335.289 271.133 336.769C272.387 337.703 273.9 338.516 275.673 339.209L274.693 340.769C272.813 339.943 271.193 338.996 269.833 337.929C268.327 339.103 266.487 340.069 264.313 340.829L263.413 339.249C265.453 338.596 267.147 337.763 268.493 336.749C266.933 335.189 265.887 333.436 265.353 331.489H264.313V329.709H268.593V326.849H263.913V325.029ZM267.133 331.489C267.613 333.049 268.5 334.436 269.793 335.649C270.993 334.449 271.893 333.063 272.493 331.489H267.133ZM277.733 326.869H285.333V322.249H287.213V326.869H294.833V328.689H288.953C290.233 331.809 292.393 334.589 295.433 337.029L294.153 338.629C290.847 335.696 288.533 332.416 287.213 328.789V340.709H285.333V328.829C283.867 332.843 281.447 336.136 278.073 338.709L277.033 337.009C280.047 334.836 282.233 332.063 283.593 328.689H277.733V326.869ZM290.473 322.269C291.62 323.469 292.5 324.509 293.113 325.389L291.593 326.469C291.02 325.563 290.153 324.469 288.993 323.189L290.473 322.269ZM304.213 337.669C302.32 338.603 300.14 339.349 297.673 339.909L297.433 338.009C300.007 337.489 302.267 336.776 304.213 335.869V337.669ZM302.593 322.929C301.593 325.249 300.573 327.129 299.533 328.569C300.333 328.489 301.1 328.389 301.833 328.269L303.073 326.009L304.793 326.649C303.06 329.769 301.587 332.063 300.373 333.529C301.747 333.196 303.08 332.783 304.373 332.289V334.029C302.093 334.856 299.96 335.409 297.973 335.689L297.473 333.949C297.82 333.789 298.107 333.603 298.333 333.389C298.973 332.749 299.8 331.629 300.813 330.029L297.653 330.449L297.173 328.689C297.48 328.569 297.753 328.329 297.993 327.969C299.047 326.276 299.98 324.363 300.793 322.229L302.593 322.929ZM313.833 323.169V338.209H315.433V340.049H303.753V338.209H305.393V323.169H313.833ZM307.253 338.209H311.973V334.969H307.253V338.209ZM307.253 333.169H311.973V329.889H307.253V333.169ZM307.253 328.109H311.973V324.989H307.253V328.109Z" fill="#0067D1"/>
<path d="M192.5 36.9917L182.44 31.3227L182.561 42.8691L192.5 36.9917ZM134.51 38.5961L183.511 38.0854L183.49 36.0855L134.49 36.5962L134.51 38.5961Z" fill="#979797"/>
<path d="M364.5 36.9917L354.5 31.2182V42.7652L364.5 36.9917ZM306.5 37.9917H355.5V35.9917H306.5V37.9917Z" fill="#979797"/>
<rect x="226" y="231" width="227" height="67" rx="12" fill="#0067D1" fill-opacity="0.1" stroke="#0067D1" stroke-width="3" stroke-linecap="round" stroke-linejoin="round" stroke-dasharray="10 10"/>
<path d="M123 313.689L133 307.916V319.463L123 313.689ZM208 386.689H180.542V384.689H208V386.689ZM169.542 375.689V323.689H171.542V375.689H169.542ZM160.542 314.689H132V312.689H160.542V314.689ZM169.542 323.689C169.542 318.719 165.512 314.689 160.542 314.689V312.689C166.617 312.689 171.542 317.614 171.542 323.689H169.542ZM180.542 386.689C174.467 386.689 169.542 381.765 169.542 375.689H171.542C171.542 380.66 175.571 384.689 180.542 384.689V386.689Z" fill="#979797"/>
<path d="M123 313.689L133 319.463V307.916L123 313.689ZM208 259.689H180.542V261.689H208V259.689ZM169.542 270.689V303.689H171.542V270.689H169.542ZM160.542 312.689H132V314.689H160.542V312.689ZM169.542 303.689C169.542 308.66 165.512 312.689 160.542 312.689V314.689C166.617 314.689 171.542 309.765 171.542 303.689H169.542ZM180.542 259.689C174.467 259.689 169.542 264.614 169.542 270.689H171.542C171.542 265.719 175.571 261.689 180.542 261.689V259.689Z" fill="#979797"/>
<path d="M480 266.689L490 260.916V272.463L480 266.689ZM480 35.6895H585V37.6895H480V35.6895ZM596 46.6895V256.689H594V46.6895H596ZM585 267.689H489V265.689H585V267.689ZM596 256.689C596 262.765 591.075 267.689 585 267.689V265.689C589.971 265.689 594 261.66 594 256.689H596ZM585 35.6895C591.075 35.6895 596 40.6143 596 46.6895H594C594 41.7189 589.971 37.6895 585 37.6895V35.6895Z" fill="#979797"/>
<path d="M480 385.689L490 379.916V391.463L480 385.689ZM480 35.6895H585V37.6895H480V35.6895ZM596 46.6895V375.689H594V46.6895H596ZM585 386.689H489V384.689H585V386.689ZM596 375.689C596 381.765 591.075 386.689 585 386.689V384.689C589.971 384.689 594 380.66 594 375.689H596ZM585 35.6895C591.075 35.6895 596 40.6143 596 46.6895H594C594 41.7189 589.971 37.6895 585 37.6895V35.6895Z" fill="#979797"/>
<path d="M309.408 270.298C307.836 271.054 306.066 271.642 304.098 272.062L303.882 270.37C305.994 269.938 307.836 269.362 309.408 268.642V270.298ZM307.914 256.798C307.146 259.006 306.36 260.8 305.556 262.18C306.168 262.084 306.756 261.976 307.32 261.856L308.22 259.858L309.804 260.434C308.364 263.35 307.2 265.432 306.312 266.68C307.296 266.428 308.346 266.074 309.462 265.618V267.148C307.65 267.82 305.958 268.264 304.386 268.48L303.954 266.968C304.242 266.848 304.494 266.692 304.71 266.5C305.202 265.9 305.832 264.844 306.6 263.332C304.86 263.644 304.038 263.794 304.134 263.782L303.72 262.306C303.984 262.198 304.212 262 304.404 261.712C305.136 260.08 305.784 258.238 306.348 256.186L307.914 256.798ZM319.704 258.058V261.676H318.192V262.756H311.55V261.676H310.038V258.058H313.854C313.626 257.482 313.362 256.93 313.062 256.402L314.808 256.114C315.06 256.69 315.312 257.338 315.564 258.058H319.704ZM311.658 261.19H318.048V259.624H311.658V261.19ZM312.792 267.472C312.324 269.308 311.646 270.904 310.758 272.26L309.336 271.342C310.212 270.034 310.836 268.636 311.208 267.148L312.792 267.472ZM318.336 266.986C319.08 268.426 319.716 269.914 320.244 271.45L318.732 272.116C318.144 270.316 317.526 268.768 316.878 267.472L318.336 266.986ZM312.612 272.692L312.27 271.072C312.822 271.156 313.278 271.198 313.638 271.198C314.034 271.198 314.232 270.904 314.232 270.316V265.978H310.182V264.358H319.542V265.978H315.87V270.73C315.87 272.038 315.318 272.692 314.214 272.692H312.612ZM330.63 256.204C332.91 258.772 335.514 260.788 338.442 262.252L337.524 263.89C336.504 263.338 335.574 262.762 334.734 262.162V263.44H325.266V262.126C324.402 262.75 323.448 263.35 322.404 263.926L321.504 262.27C324.648 260.65 327.27 258.628 329.37 256.204H330.63ZM334.248 261.802C332.652 260.602 331.236 259.252 330 257.752C328.788 259.24 327.36 260.59 325.716 261.802H334.248ZM335.868 265.366V272.836H334.212V271.864H325.788V272.836H324.132V265.366H335.868ZM325.788 270.244H334.212V266.968H325.788V270.244ZM341.7 257.914H346.38V256.204H348.072V257.914H352.068V258.796C352.752 258.076 353.382 257.338 353.958 256.582L355.218 257.536C354.294 258.796 353.238 259.966 352.05 261.046H355.956V262.666H350.07C349.278 263.23 348.522 263.728 347.802 264.16H354.966V265.69H346.02L345.516 267.184H354.102C353.982 269.788 353.7 271.348 353.256 271.864C352.812 272.344 351.948 272.584 350.664 272.584C349.92 272.584 349.17 272.542 348.414 272.458L347.856 270.964C348.924 271.048 349.74 271.09 350.304 271.09C351.18 271.09 351.738 270.958 351.978 270.694C352.158 270.406 352.302 269.734 352.41 268.678H343.5L344.274 265.942C342.954 266.506 341.634 266.986 340.314 267.382L339.63 265.852C342.414 265.036 344.91 263.974 347.118 262.666H340.368V261.046H346.38V259.48H341.7V257.914ZM349.512 261.046C350.232 260.482 350.85 259.96 351.366 259.48H348.072V261.046H349.512ZM361.896 272.854H360.258V264.538C359.718 266.134 359.064 267.562 358.296 268.822L357.594 267.058C358.782 265.378 359.646 263.446 360.186 261.262H357.918V259.624H360.258V256.258H361.896V259.624H363.876V261.262H361.896V262.234C362.688 263.11 363.522 264.136 364.398 265.312L363.444 266.77C362.88 265.774 362.364 264.898 361.896 264.142V272.854ZM364.218 258.076H368.484C368.244 257.476 367.986 256.954 367.71 256.51L369.456 256.222C369.696 256.738 369.93 257.356 370.158 258.076H374.082V259.642H369.15C368.274 261.166 367.5 262.282 366.828 262.99C367.692 262.954 368.664 262.888 369.744 262.792C370.188 262.144 370.584 261.49 370.932 260.83L372.318 261.568C370.518 265.144 367.884 267.58 364.416 268.876L363.48 267.454C365.472 266.758 367.164 265.684 368.556 264.232C367.716 264.28 366.498 264.34 364.902 264.412L364.56 263.026C364.692 262.99 364.8 262.942 364.884 262.882C365.52 262.474 366.354 261.394 367.386 259.642H364.218V258.076ZM370.05 269.398C368.37 270.886 366.408 272.026 364.164 272.818L363.228 271.36C367.392 269.992 370.518 267.37 372.606 263.494L374.028 264.232C373.188 265.804 372.216 267.178 371.112 268.354C372.396 269.482 373.452 270.556 374.28 271.576L373.02 272.836C372.264 271.744 371.274 270.598 370.05 269.398Z" fill="#333333"/>
<path d="M230.22 202.409H232.06L231.84 206.089L235.2 204.729L235.78 206.449L232.24 207.409L234.66 210.149L233.24 211.269L231.14 208.209L229.02 211.269L227.6 210.149L230.02 207.409L226.5 206.449L227.08 204.729L230.44 206.089L230.22 202.409ZM237.773 218.529L237.373 216.749C237.893 216.829 238.38 216.869 238.833 216.869C239.313 216.869 239.553 216.596 239.553 216.049V211.809C238.673 212.156 237.947 212.423 237.373 212.609L236.893 210.729C237.773 210.529 238.66 210.269 239.553 209.949V205.629H237.293V203.809H239.553V200.309H241.393V203.809H243.353V205.629H241.393V209.189C242.02 208.896 242.687 208.556 243.393 208.169V210.029C242.873 210.309 242.207 210.643 241.393 211.029V216.529C241.393 217.863 240.753 218.529 239.473 218.529H237.773ZM243.913 203.029H248.593V200.349H250.433V203.029H255.113V204.849H250.433V207.709H254.353V209.389C253.7 211.496 252.627 213.289 251.133 214.769C252.387 215.703 253.9 216.516 255.673 217.209L254.693 218.769C252.813 217.943 251.193 216.996 249.833 215.929C248.327 217.103 246.487 218.069 244.313 218.829L243.413 217.249C245.453 216.596 247.147 215.763 248.493 214.749C246.933 213.189 245.887 211.436 245.353 209.489H244.313V207.709H248.593V204.849H243.913V203.029ZM247.133 209.489C247.613 211.049 248.5 212.436 249.793 213.649C250.993 212.449 251.893 211.063 252.493 209.489H247.133ZM257.733 204.869H265.333V200.249H267.213V204.869H274.833V206.689H268.953C270.233 209.809 272.393 212.589 275.433 215.029L274.153 216.629C270.847 213.696 268.533 210.416 267.213 206.789V218.709H265.333V206.829C263.867 210.843 261.447 214.136 258.073 216.709L257.033 215.009C260.047 212.836 262.233 210.063 263.593 206.689H257.733V204.869ZM270.473 200.269C271.62 201.469 272.5 202.509 273.113 203.389L271.593 204.469C271.02 203.563 270.153 202.469 268.993 201.189L270.473 200.269ZM284.213 215.669C282.32 216.603 280.14 217.349 277.673 217.909L277.433 216.009C280.007 215.489 282.267 214.776 284.213 213.869V215.669ZM282.593 200.929C281.593 203.249 280.573 205.129 279.533 206.569C280.333 206.489 281.1 206.389 281.833 206.269L283.073 204.009L284.793 204.649C283.06 207.769 281.587 210.063 280.373 211.529C281.747 211.196 283.08 210.783 284.373 210.289V212.029C282.093 212.856 279.96 213.409 277.973 213.689L277.473 211.949C277.82 211.789 278.107 211.603 278.333 211.389C278.973 210.749 279.8 209.629 280.813 208.029L277.653 208.449L277.173 206.689C277.48 206.569 277.753 206.329 277.993 205.969C279.047 204.276 279.98 202.363 280.793 200.229L282.593 200.929ZM293.833 201.169V216.209H295.433V218.049H283.753V216.209H285.393V201.169H293.833ZM287.253 216.209H291.973V212.969H287.253V216.209ZM287.253 211.169H291.973V207.889H287.253V211.169ZM287.253 206.109H291.973V202.989H287.253V206.109Z" fill="#0067D1"/>
</svg>
