<svg width="596" height="421" viewBox="0 0 596 421" fill="none" xmlns="http://www.w3.org/2000/svg">
<path d="M6.268 132.742H10.996C11.1 132.014 11.16 131.25 11.176 130.45V129.538H11.824V130.306C11.824 131.17 11.764 131.982 11.644 132.742H16.732V133.39H11.92C12.76 136.214 14.436 138.378 16.948 139.882L16.552 140.41C14.032 138.874 12.332 136.662 11.452 133.774C10.772 136.87 9.1 139.106 6.436 140.482L6.028 139.942C8.66 138.646 10.28 136.462 10.888 133.39H6.268V132.742ZM25.444 135.706C25.084 135.834 24.776 135.926 24.52 135.982C24.72 136.566 24.832 137.21 24.856 137.914C24.856 138.834 24.732 139.482 24.484 139.858C24.212 140.25 23.58 140.446 22.588 140.446H22.168L21.952 139.882H22.504C23.24 139.866 23.704 139.754 23.896 139.546C24.12 139.258 24.232 138.714 24.232 137.914C24.224 137.634 24.2 137.366 24.16 137.11C22.84 138.19 21.032 139.082 18.736 139.786L18.412 139.222C20.852 138.502 22.72 137.586 24.016 136.474C23.928 136.13 23.792 135.778 23.608 135.418C22.456 136.346 20.88 137.098 18.88 137.674L18.568 137.11C20.64 136.542 22.224 135.818 23.32 134.938C23.12 134.642 22.924 134.394 22.732 134.194L22.348 134.386C21.46 134.794 20.38 135.174 19.108 135.526L18.76 134.986C19.928 134.714 20.972 134.382 21.892 133.99C22.42 133.758 22.924 133.498 23.404 133.21H19.888V132.598H27.124V133.21H24.34C23.956 133.474 23.584 133.714 23.224 133.93C23.68 134.394 24.04 134.906 24.304 135.466C25.472 135.154 26.576 134.654 27.616 133.966L28.06 134.398C27.412 134.838 26.716 135.21 25.972 135.514C26.548 137.098 27.484 138.358 28.78 139.294L28.324 139.834C26.964 138.754 26.004 137.378 25.444 135.706ZM23.548 129.442C23.708 129.818 23.852 130.222 23.98 130.654H28.504V132.622H27.856V131.266H19.132V132.622H18.484V130.654H23.344C23.224 130.318 23.072 129.95 22.888 129.55L23.548 129.442ZM30.196 130.294H40.84V130.93H39.208V139.258C39.208 140.002 38.84 140.374 38.104 140.374H36.124L35.98 139.75C36.86 139.782 37.492 139.798 37.876 139.798C38.324 139.798 38.548 139.562 38.548 139.09V130.93H30.196V130.294ZM36.136 132.97V137.218H32.272V138.31H31.648V132.97H36.136ZM32.272 136.618H35.512V133.558H32.272V136.618ZM45.904 130.858C46.984 132.066 47.84 133.162 48.472 134.146L47.932 134.53C47.3 133.506 46.44 132.398 45.352 131.206L45.904 130.858ZM50.152 136.51C49.384 138.046 48.108 139.338 46.324 140.386L45.88 139.846C47.896 138.694 49.24 137.214 49.912 135.406C50.416 133.87 50.668 131.946 50.668 129.634H51.34C51.34 131.882 51.1 133.786 50.62 135.346C50.54 135.586 50.476 135.762 50.428 135.874C51.412 137.138 52.26 138.434 52.972 139.762L52.48 140.254C51.864 139.03 51.088 137.782 50.152 136.51ZM42.904 138.478C43.096 138.358 43.192 138.182 43.192 137.95V130.042H43.864V138.13C44.864 137.738 45.836 137.254 46.78 136.678L46.972 137.326C45.788 138.006 44.5 138.594 43.108 139.09L42.904 138.478ZM54.64 131.434H56.596V130.654H54.16V130.126H56.596V129.514H57.196V130.126H59.5V130.654H57.196V131.434H59.164V133.414H57.196V133.69C57.948 134.026 58.68 134.402 59.392 134.818L59.068 135.31C58.34 134.806 57.716 134.41 57.196 134.122V135.442H56.596V133.954C55.844 134.61 55.08 135.134 54.304 135.526L54.016 135.01C54.88 134.674 55.74 134.15 56.596 133.438V133.414H54.64V131.434ZM58.612 132.946V131.914H57.196V132.946H58.612ZM56.596 132.946V131.914H55.18V132.946H56.596ZM61.06 131.134C60.972 131.326 60.868 131.538 60.748 131.77C61.108 132.482 61.596 133.094 62.212 133.606L62.344 133.474C62.84 132.89 63.16 132.11 63.304 131.134H61.06ZM61.756 133.99C61.22 133.526 60.772 132.97 60.412 132.322C60.22 132.61 60.016 132.874 59.8 133.114L59.416 132.622C60.176 131.758 60.692 130.706 60.964 129.466L61.564 129.538C61.484 129.882 61.388 130.222 61.276 130.558H64.708V131.134H63.892C63.724 132.27 63.364 133.174 62.812 133.846L62.692 133.966C63.324 134.39 64.04 134.722 64.84 134.962L64.492 135.49C63.612 135.202 62.86 134.83 62.236 134.374C61.652 134.798 60.88 135.15 59.92 135.43L59.692 134.89C60.548 134.65 61.236 134.35 61.756 133.99ZM59.092 136.534H54.784V135.958H64.24V136.534H59.74V137.758H63.568V138.334H59.74V139.558H64.804V140.158H54.196V139.558H56.176V137.194H56.8V139.558H59.092V136.534ZM70.66 130.042H76.312V135.454H73.816V137.098H76.552V137.722H73.816V139.45H76.936V140.086H70.048V139.45H73.168V137.722H70.408V137.098H73.168V135.454H70.66V130.042ZM75.676 134.866V133.03H73.816V134.866H75.676ZM73.168 134.866V133.03H71.296V134.866H73.168ZM71.296 132.454H73.168V130.63H71.296V132.454ZM73.816 130.63V132.454H75.676V130.63H73.816ZM66.316 134.038H67.684V130.99H66.136V130.366H69.868V130.99H68.332V134.038H69.724V134.662H68.332V137.602C68.852 137.418 69.372 137.214 69.892 136.99V137.614C68.748 138.118 67.492 138.538 66.124 138.874L65.968 138.262C66.488 138.158 67.06 138.01 67.684 137.818V134.662H66.316V134.038ZM78.124 134.566H88.864V135.214H78.124V134.566ZM90.196 130.222H100.792V130.858H95.5V132.862C97.012 133.638 98.548 134.538 100.108 135.562L99.724 136.138C98.068 135.018 96.66 134.15 95.5 133.534V140.494H94.864V130.858H90.196V130.222ZM105.904 130.858C106.984 132.066 107.84 133.162 108.472 134.146L107.932 134.53C107.3 133.506 106.44 132.398 105.352 131.206L105.904 130.858ZM110.152 136.51C109.384 138.046 108.108 139.338 106.324 140.386L105.88 139.846C107.896 138.694 109.24 137.214 109.912 135.406C110.416 133.87 110.668 131.946 110.668 129.634H111.34C111.34 131.882 111.1 133.786 110.62 135.346C110.54 135.586 110.476 135.762 110.428 135.874C111.412 137.138 112.26 138.434 112.972 139.762L112.48 140.254C111.864 139.03 111.088 137.782 110.152 136.51ZM102.904 138.478C103.096 138.358 103.192 138.182 103.192 137.95V130.042H103.864V138.13C104.864 137.738 105.836 137.254 106.78 136.678L106.972 137.326C105.788 138.006 104.5 138.594 103.108 139.09L102.904 138.478ZM122.308 129.658C122.06 130.186 121.776 130.662 121.456 131.086H124.84V131.734H114.148V131.086H117.568C117.32 130.51 117.044 130.014 116.74 129.598L117.412 129.49C117.692 129.914 117.972 130.446 118.252 131.086H120.748C121.084 130.59 121.392 130.038 121.672 129.43L122.308 129.658ZM117.34 140.386L117.16 139.75L118.072 139.774C118.432 139.774 118.612 139.57 118.612 139.162V137.806H115.684V140.482H115.048V132.874H119.248V139.294C119.248 140.022 118.928 140.386 118.288 140.386H117.34ZM115.684 137.206H118.612V135.658H115.684V137.206ZM115.684 135.07H118.612V133.486H115.684V135.07ZM121.372 140.35L121.228 139.738C121.756 139.762 122.252 139.774 122.716 139.774C123.092 139.774 123.28 139.574 123.28 139.174V132.49H123.928V139.342C123.928 140.014 123.6 140.35 122.944 140.35H121.372ZM120.76 133.39H121.408V138.586H120.76V133.39ZM130.252 131.662V139.726H129.628V138.994H127.204V140.062H126.58V131.662H127.66C127.908 130.982 128.088 130.266 128.2 129.514L128.86 129.598C128.732 130.334 128.54 131.022 128.284 131.662H130.252ZM127.204 138.394H129.628V135.55H127.204V138.394ZM127.204 134.962H129.628V132.286H127.204V134.962ZM132.292 134.374C133.212 135.39 133.908 136.27 134.38 137.014L133.864 137.386C133.384 136.61 132.684 135.718 131.764 134.71L132.292 134.374ZM136.468 131.674C136.468 135.522 136.412 137.918 136.3 138.862C136.18 139.822 135.624 140.302 134.632 140.302L133.456 140.278L133.3 139.678C133.78 139.702 134.2 139.714 134.56 139.714C135.208 139.714 135.58 139.358 135.676 138.646C135.764 137.99 135.82 135.882 135.844 132.322H132.304C131.96 133.114 131.556 133.814 131.092 134.422L130.708 133.918C131.572 132.718 132.16 131.246 132.472 129.502L133.108 129.574C132.956 130.358 132.772 131.058 132.556 131.674H136.468ZM145.144 136.474H142.684V135.85H148.276V136.474H145.792V139.414H148.828V140.062H142.132V139.414H145.144V136.474ZM145.828 133.078C144.932 133.894 143.808 134.566 142.456 135.094L142.036 134.566C144.356 133.678 145.96 132.41 146.848 130.762H142.612V130.126H147.64V130.642C147.288 131.394 146.824 132.07 146.248 132.67C147.312 133.35 148.208 134.03 148.936 134.71L148.48 135.178C147.832 134.53 146.948 133.83 145.828 133.078ZM141.988 138.55C140.86 139.134 139.592 139.598 138.184 139.942L138.1 139.306C139.572 138.97 140.868 138.518 141.988 137.95V138.55ZM140.836 129.79C140.204 131.382 139.568 132.642 138.928 133.57C139.56 133.498 140.212 133.414 140.884 133.318C141.204 132.702 141.448 132.246 141.616 131.95L142.216 132.166C141.008 134.35 140.028 135.854 139.276 136.678C140.204 136.51 141.116 136.27 142.012 135.958V136.558C140.82 136.958 139.644 137.238 138.484 137.398L138.304 136.798C138.416 136.75 138.52 136.686 138.616 136.606C139.168 136.046 139.808 135.146 140.536 133.906C140.112 133.97 139.372 134.07 138.316 134.206L138.16 133.606C138.264 133.55 138.356 133.474 138.436 133.378C139.116 132.298 139.708 131.022 140.212 129.55L140.836 129.79ZM16.636 147.15V147.798H7.78V151.47C7.732 153.982 7.304 155.974 6.496 157.446L5.992 157.002C6.72 155.666 7.096 153.822 7.12 151.47V147.15H16.636ZM16.048 150.714C16.024 153.874 15.876 155.762 15.604 156.378C15.316 157.002 14.812 157.314 14.092 157.314C13.7 157.314 13.228 157.302 12.676 157.278L12.496 156.678C13.072 156.686 13.552 156.698 13.936 156.714C14.568 156.69 14.96 156.39 15.112 155.814C15.28 155.238 15.376 153.734 15.4 151.302H12.412C12.268 152.654 11.968 153.786 11.512 154.698C10.904 155.858 9.896 156.774 8.488 157.446L8.128 156.87C9.48 156.23 10.448 155.338 11.032 154.194C11.4 153.354 11.644 152.39 11.764 151.302H8.848V150.714H11.812C11.828 150.49 11.844 150.138 11.86 149.658V148.494H12.496V149.658C12.496 150.026 12.484 150.378 12.46 150.714H16.048ZM28.324 147.402V156.99H27.676V155.994H24.532V157.098H23.896V147.402H28.324ZM24.532 155.382H27.676V148.014H24.532V155.382ZM18.388 149.886H20.56V147.954C19.888 148.066 19.232 148.146 18.592 148.194L18.376 147.594C20.112 147.474 21.608 147.166 22.864 146.67L23.176 147.222C22.496 147.478 21.832 147.678 21.184 147.822V149.886H23.308V150.498H21.184V151.182C21.928 151.862 22.644 152.598 23.332 153.39L22.948 153.942C22.268 153.03 21.68 152.31 21.184 151.782V157.41H20.56V151.65C20.04 152.906 19.304 154.046 18.352 155.07L18.076 154.386C19.252 153.234 20.08 151.938 20.56 150.498H18.388V149.886ZM35.2 148.926C34.656 150.086 34.008 151.114 33.256 152.01L32.8 151.47C33.92 150.158 34.808 148.486 35.464 146.454L36.112 146.61C35.96 147.082 35.752 147.642 35.488 148.29H40.864V148.926H36.676V151.11H40.312V151.758H36.676V153.978H40.408V154.614H36.676V157.47H36.028V148.926H35.2ZM31.588 150.438C31.14 151.03 30.668 151.582 30.172 152.094L29.968 151.41C31.296 149.97 32.264 148.338 32.872 146.514L33.472 146.79C33.144 147.758 32.732 148.65 32.236 149.466V157.47H31.588V150.438ZM44.248 147.09H50.728V150.822H44.248V147.09ZM50.068 150.198V147.714H44.908V150.198H50.068ZM46.732 152.238V157.278H46.096V156.642H43.324V157.278H42.688V152.238H46.732ZM43.324 156.03H46.096V152.85H43.324V156.03ZM52.312 152.238V157.278H51.664V156.642H48.772V157.278H48.136V152.238H52.312ZM48.772 156.03H51.664V152.85H48.772V156.03ZM54.364 154.494V153.882H59.212V153.162H59.86V153.882H64.636V154.494H60.796C61.628 155.374 62.952 156.066 64.768 156.57L64.492 157.146C62.452 156.474 61.008 155.59 60.16 154.494H59.86V157.482H59.212V154.494H58.888C58.152 155.542 56.716 156.446 54.58 157.206L54.232 156.642C56.216 156.018 57.564 155.302 58.276 154.494H54.364ZM55.588 149.274C55.212 149.714 54.816 150.118 54.4 150.486L54.064 149.97C55.16 148.994 55.984 147.838 56.536 146.502L57.136 146.658C57.016 146.978 56.864 147.314 56.68 147.666H59.488C59.312 147.242 59.14 146.878 58.972 146.574L59.62 146.454C59.796 146.838 59.96 147.242 60.112 147.666H64.072V148.242H60.172V149.202H63.652V149.73H60.172V150.666H63.652V151.194H60.172V152.214H64.288V152.778H55.588V149.274ZM59.536 152.214V151.194H56.2V152.214H59.536ZM59.536 150.666V149.73H56.2V150.666H59.536ZM59.536 149.202V148.242H56.344L56.2 148.47V149.202H59.536ZM69.904 147.858C70.984 149.066 71.84 150.162 72.472 151.146L71.932 151.53C71.3 150.506 70.44 149.398 69.352 148.206L69.904 147.858ZM74.152 153.51C73.384 155.046 72.108 156.338 70.324 157.386L69.88 156.846C71.896 155.694 73.24 154.214 73.912 152.406C74.416 150.87 74.668 148.946 74.668 146.634H75.34C75.34 148.882 75.1 150.786 74.62 152.346C74.54 152.586 74.476 152.762 74.428 152.874C75.412 154.138 76.26 155.434 76.972 156.762L76.48 157.254C75.864 156.03 75.088 154.782 74.152 153.51ZM66.904 155.478C67.096 155.358 67.192 155.182 67.192 154.95V147.042H67.864V155.13C68.864 154.738 69.836 154.254 70.78 153.678L70.972 154.326C69.788 155.006 68.5 155.594 67.108 156.09L66.904 155.478ZM87.196 152.322V157.458H86.572V156.882H80.452V157.458H79.828V152.322H87.196ZM80.452 156.306H83.188V154.878H80.452V156.306ZM83.812 156.306H86.572V154.878H83.812V156.306ZM80.452 154.326H83.188V152.898H80.452V154.326ZM83.812 152.898V154.326H86.572V152.898H83.812ZM82.66 146.526C82.484 146.814 82.272 147.114 82.024 147.426H87.016V147.93C86.256 148.866 85.3 149.678 84.148 150.366C85.492 150.966 87.092 151.386 88.948 151.626L88.648 152.214C86.648 151.91 84.944 151.406 83.536 150.702C82.072 151.446 80.336 151.986 78.328 152.322L78.04 151.758C79.888 151.486 81.516 151.022 82.924 150.366C82.092 149.886 81.388 149.342 80.812 148.734C80.26 149.23 79.672 149.67 79.048 150.054L78.628 149.55C80.044 148.71 81.172 147.654 82.012 146.382L82.66 146.526ZM81.208 148.35C81.832 149.014 82.604 149.586 83.524 150.066C84.564 149.498 85.46 148.814 86.212 148.014H81.532C81.38 148.166 81.272 148.278 81.208 148.35ZM95.2 146.538H95.848V148.422H99.664V155.01H99.028V154.206H95.848V157.434H95.2V154.206H91.972V155.094H91.336V148.422H95.2V146.538ZM91.972 153.582H95.2V151.59H91.972V153.582ZM95.848 153.582H99.028V151.59H95.848V153.582ZM91.972 151.002H95.2V149.034H91.972V151.002ZM95.848 151.002H99.028V149.034H95.848V151.002ZM108.964 146.514H109.6V147.366H112.636V147.918H109.6V148.866H112.192V149.406H109.6V150.378H112.948V150.942H105.652V150.378H108.964V149.406H106.456V148.866H108.964V147.918H105.976V147.366H108.964V146.514ZM107.236 153.966V154.998H111.364V153.966H107.236ZM111.364 153.45V152.406H107.236V153.45H111.364ZM107.236 155.526V157.458H106.624V151.854H111.988V156.522C111.988 157.106 111.68 157.398 111.064 157.398H110.056L109.888 156.81L110.872 156.846C111.2 156.846 111.364 156.694 111.364 156.39V155.526H107.236ZM103.348 146.67C104.188 147.302 104.888 147.922 105.448 148.53L105.004 148.986C104.46 148.378 103.756 147.754 102.892 147.114L103.348 146.67ZM102.028 150.258H104.452V155.73C104.812 155.41 105.24 154.99 105.736 154.47L105.904 155.166C105.264 155.838 104.572 156.45 103.828 157.002L103.576 156.414C103.736 156.27 103.816 156.114 103.816 155.946V150.894H102.028V150.258ZM124.324 147.402V156.99H123.676V155.994H120.532V157.098H119.896V147.402H124.324ZM120.532 155.382H123.676V148.014H120.532V155.382ZM114.388 149.886H116.56V147.954C115.888 148.066 115.232 148.146 114.592 148.194L114.376 147.594C116.112 147.474 117.608 147.166 118.864 146.67L119.176 147.222C118.496 147.478 117.832 147.678 117.184 147.822V149.886H119.308V150.498H117.184V151.182C117.928 151.862 118.644 152.598 119.332 153.39L118.948 153.942C118.268 153.03 117.68 152.31 117.184 151.782V157.41H116.56V151.65C116.04 152.906 115.304 154.046 114.352 155.07L114.076 154.386C115.252 153.234 116.08 151.938 116.56 150.498H114.388V149.886ZM126.196 147.066H136.816V147.69H131.932C131.812 148.306 131.644 148.886 131.428 149.43H136.108V157.494H135.472V156.846H127.564V157.494H126.928V149.43H130.78C131.012 148.87 131.176 148.29 131.272 147.69H126.196V147.066ZM127.564 156.222H129.424V150.042H127.564V156.222ZM130.036 156.222H132.964V154.506H130.036V156.222ZM133.576 156.222H135.472V150.042H133.576V156.222ZM130.036 153.942H132.964V152.286H130.036V153.942ZM130.036 151.71H132.964V150.042H130.036V151.71ZM143.248 152.082H142.048V151.47H145.084V152.082H143.884V155.55C144.428 155.422 144.984 155.278 145.552 155.118V155.742C144.52 156.046 143.388 156.302 142.156 156.51L142 155.886L143.248 155.67V152.082ZM147.688 157.242C147.304 157.242 146.956 156.934 146.644 156.318C146.292 155.614 146.044 154.638 145.9 153.39C145.764 152.398 145.672 151.066 145.624 149.394H141.772V148.746H145.612C145.596 148.266 145.588 147.51 145.588 146.478H146.236C146.236 147.526 146.244 148.282 146.26 148.746H148.708V149.394H146.272C146.328 151.61 146.468 153.298 146.692 154.458C146.972 155.802 147.304 156.494 147.688 156.534C147.984 156.486 148.268 155.722 148.54 154.242L149.044 154.662C148.668 156.382 148.216 157.242 147.688 157.242ZM147.268 146.466C147.836 147.114 148.248 147.634 148.504 148.026L148.036 148.35C147.74 147.87 147.332 147.342 146.812 146.766L147.268 146.466ZM139.348 146.646C140.14 147.278 140.8 147.914 141.328 148.554L140.872 149.01C140.352 148.378 139.688 147.738 138.88 147.09L139.348 146.646ZM138.028 150.258H140.416V155.706C140.792 155.378 141.224 154.942 141.712 154.398L141.88 155.082C141.224 155.802 140.536 156.438 139.816 156.99L139.564 156.402C139.716 156.266 139.792 156.13 139.792 155.994V150.894H138.028V150.258Z" fill="#848484"/>
<path d="M53.16 90.3939C52.7867 91.0606 52.38 91.6739 51.94 92.2339H57V94.0739H38.98V92.2339H44.18C43.8333 91.5406 43.44 90.8806 43 90.2539L45 89.9339C45.4 90.5873 45.8067 91.3539 46.22 92.2339H49.84C50.3733 91.5006 50.8667 90.6739 51.32 89.7539L53.16 90.3939ZM44.42 108.234L43.92 106.374L45.36 106.434C45.8133 106.434 46.04 106.121 46.04 105.494V104.154H42.12V108.394H40.26V95.3139H47.88V105.914C47.88 107.461 47.2467 108.234 45.98 108.234H44.42ZM42.12 102.474H46.04V100.614H42.12V102.474ZM42.12 98.9339H46.04V97.0739H42.12V98.9339ZM51.08 108.174L50.68 106.354C51.52 106.434 52.3333 106.474 53.12 106.474C53.6 106.474 53.84 106.201 53.84 105.654V94.8939H55.74V106.134C55.74 107.494 55.0867 108.174 53.78 108.174H51.08ZM49.72 96.3939H51.56V104.934H49.72V96.3939ZM60.28 89.9939H62.12V92.0539H65.58V90.0339H67.42V92.0539H68.46V93.8139H67.42V101.834H68.56V103.594H58.98V101.834H60.28V93.8139H59.2V92.0539H60.28V89.9939ZM62.12 101.834H65.58V100.274H62.12V101.834ZM65.58 93.8139H62.12V95.3939H65.58V93.8139ZM62.12 98.6139H65.58V97.0539H62.12V98.6139ZM65.68 103.834C66.4933 104.861 67.1467 105.787 67.64 106.614C68.7733 104.841 69.3467 102.667 69.36 100.094V90.5339H76.44V106.214C76.44 107.521 75.7867 108.174 74.48 108.174H72.4L71.88 106.314C72.84 106.367 73.5067 106.394 73.88 106.394C74.32 106.394 74.54 106.107 74.54 105.534V101.934H71.14C70.86 104.547 70.06 106.734 68.74 108.494L67.38 107.234L66.24 108.034C65.7733 107.087 65.1 106.001 64.22 104.774L65.68 103.834ZM62.86 104.614C62.1533 106.014 61.3067 107.247 60.32 108.314L58.82 107.234C59.78 106.287 60.62 105.167 61.34 103.874L62.86 104.614ZM71.26 97.1139V100.194H74.54V97.1139H71.26ZM74.54 95.3939V92.3339H71.26V95.3939H74.54ZM80.52 90.4339C81.84 92.2473 82.8333 93.8073 83.5 95.1139L81.92 96.1939C81.1733 94.7673 80.1667 93.1806 78.9 91.4339L80.52 90.4339ZM83.56 99.8939C82.7333 102.787 81.7867 105.574 80.72 108.254L78.92 107.474C80.0533 104.741 81.0267 101.987 81.84 99.2139L83.56 99.8939ZM87.18 99.0139V101.294H90.86V99.0139H87.18ZM87.18 103.034V105.514H90.86V103.034H87.18ZM87.18 107.274V108.374H85.32V97.2339C84.6933 98.1539 84.16 98.8873 83.72 99.4339L83.1 97.4739C84.78 95.1273 85.9533 92.5939 86.62 89.8739L88.44 90.2339C88.16 91.2473 87.8333 92.2206 87.46 93.1539H91.16C90.8667 92.1806 90.5133 91.2073 90.1 90.2339L91.92 89.7139C92.4133 91.1273 92.76 92.2739 92.96 93.1539H96.7V94.9539H92.7V97.2539H96.28V99.0139H92.7V101.294H96.32V103.034H92.7V105.514H97.12V107.274H87.18ZM90.86 94.9539H87.18V97.2539H90.86V94.9539ZM114.5 99.4139V108.354H112.7V107.594H103.34V108.354H101.54V99.4939C100.9 99.6273 100.26 99.7473 99.62 99.8539L98.8 98.1939C101.613 97.8206 104.1 97.1806 106.26 96.2739C105.233 95.6206 104.327 94.9006 103.54 94.1139C102.74 94.8473 101.853 95.5206 100.88 96.1339L99.66 94.6539C101.78 93.4406 103.593 91.7739 105.1 89.6539L106.98 90.0739L106.22 91.1739H114.08V92.6139C112.933 94.0006 111.54 95.2206 109.9 96.2739C112.033 97.0873 114.467 97.6739 117.2 98.0339L116.38 99.7139C113.207 99.2473 110.44 98.4406 108.08 97.2939C106.213 98.2006 104.153 98.9073 101.9 99.4139H114.5ZM104.66 93.0339C105.633 93.9673 106.76 94.7673 108.04 95.4339C109.453 94.6606 110.667 93.7939 111.68 92.8339H104.86L104.66 93.0339ZM103.34 105.994H107.1V104.234H103.34V105.994ZM108.9 105.994H112.7V104.234H108.9V105.994ZM103.34 102.714H107.1V100.994H103.34V102.714ZM108.9 100.994V102.714H112.7V100.994H108.9Z" fill="#525252"/>
<path d="M78 70.2939C97.33 70.2939 113 54.6238 113 35.2939C113 15.9639 97.33 0.293884 78 0.293884C58.67 0.293884 43 15.9639 43 35.2939C43 54.6238 58.67 70.2939 78 70.2939Z" fill="#E4E4E4"/>
<path d="M76.3333 47.6691V36.2524L66.3333 30.4608V41.8774L76.3333 47.6691ZM79.6667 47.6691L89.6667 41.8774V30.4608L79.6667 36.2524V47.6691ZM76.3333 51.5024L64.6667 44.7941C64.1389 44.4886 63.7289 44.0858 63.4367 43.5858C63.1445 43.0858 62.9989 42.5302 63 41.9191V28.6691C63 28.058 63.1461 27.5024 63.4383 27.0024C63.7306 26.5024 64.14 26.0997 64.6667 25.7941L76.3333 19.0858C76.8611 18.7802 77.4167 18.6274 78 18.6274C78.5833 18.6274 79.1389 18.7802 79.6667 19.0858L91.3333 25.7941C91.8611 26.0997 92.2711 26.5024 92.5633 27.0024C92.8556 27.5024 93.0011 28.058 93 28.6691V41.9191C93 42.5302 92.8539 43.0858 92.5617 43.5858C92.2695 44.0858 91.86 44.4886 91.3333 44.7941L79.6667 51.5024C79.1389 51.808 78.5833 51.9608 78 51.9608C77.4167 51.9608 76.8611 51.808 76.3333 51.5024ZM84.6667 29.5024L87.875 27.6691L78 21.9608L74.75 23.8358L84.6667 29.5024ZM78 33.3774L81.25 31.5024L71.375 25.7941L68.125 27.6691L78 33.3774Z" fill="#545454"/>
<path d="M219.22 103.734C218.66 102.827 218.133 102.027 217.64 101.334C216.96 103.134 216.16 104.694 215.24 106.014L214.02 104.534C214.94 103.134 215.727 101.474 216.38 99.5539C215.607 98.4873 214.727 97.3739 213.74 96.2139L214.9 95.0739C215.46 95.6606 216.153 96.4806 216.98 97.5339C217.3 96.2006 217.553 94.8606 217.74 93.5139L219.48 93.8139C219.173 95.8806 218.787 97.7139 218.32 99.3139C219 100.274 219.72 101.334 220.48 102.494L219.22 103.734ZM224.98 104.694C224.473 103.787 223.9 102.827 223.26 101.814C222.513 103.627 221.647 105.187 220.66 106.494L219.46 105.034C220.487 103.581 221.353 101.894 222.06 99.9739C221.22 98.7339 220.36 97.5539 219.48 96.4339L220.66 95.3139C221.327 96.0606 222.007 96.9273 222.7 97.9139C223.06 96.5673 223.36 95.1206 223.6 93.5739L225.36 93.8739C225 96.0473 224.54 98.0273 223.98 99.8139C224.753 101.001 225.513 102.207 226.26 103.434L224.98 104.694ZM224.16 108.234L223.66 106.394L225.54 106.474C226.033 106.474 226.28 106.241 226.28 105.774V92.4139H213.72V108.354H211.84V90.5939H228.16V106.194C228.16 107.554 227.493 108.234 226.16 108.234H224.16ZM238.08 89.8939H240.04V95.9139H247.44V97.7539H240.04V105.794H248.98V107.634H231.06V105.794H238.08V89.8939ZM257.8 99.5939C257.093 99.9406 256.38 100.267 255.66 100.574V106.294C255.66 107.627 255.02 108.294 253.74 108.294H251.86L251.42 106.474C252.007 106.554 252.553 106.594 253.06 106.594C253.553 106.594 253.8 106.341 253.8 105.834V101.314C252.92 101.634 252.04 101.934 251.16 102.214L250.68 100.334C251.84 100.067 252.88 99.7739 253.8 99.4539V95.2339H251.06V93.4139H253.8V89.9539H255.66V93.4139H257.74V95.2339H255.66V98.7339C256.433 98.3873 257.147 98.0473 257.8 97.7139V99.5939ZM260.42 99.4739V108.354H258.62V90.5939H267.84C267.84 92.9006 267.713 94.4673 267.46 95.2939C267.207 96.0539 266.407 96.4339 265.06 96.4339H263.56L263.04 94.7939L264.2 94.8139C264.667 94.8139 265.02 94.7939 265.26 94.7539C265.473 94.6873 265.64 94.5539 265.76 94.3539C265.893 94.0739 265.98 93.3939 266.02 92.3139H260.42V97.7339H267.98V99.3739C267.66 101.441 267.02 103.194 266.06 104.634C266.993 105.487 268.087 106.247 269.34 106.914L268.06 108.394C266.847 107.621 265.82 106.827 264.98 106.014C264.073 106.987 262.967 107.787 261.66 108.414L260.74 106.754C261.9 106.194 262.88 105.474 263.68 104.594C262.413 103.034 261.62 101.327 261.3 99.4739H260.42ZM263 99.4739C263.253 100.821 263.833 102.067 264.74 103.214C265.38 102.161 265.867 100.914 266.2 99.4739H263ZM277.34 107.234V108.294H275.44V101.434C274.347 101.767 273.153 102.087 271.86 102.394L270.86 100.554C274.233 99.9006 277.02 99.0673 279.22 98.0539C278.38 97.3739 277.273 96.6406 275.9 95.8539L277.54 94.8339C278.913 95.6739 280.02 96.4539 280.86 97.1739C282.66 96.0806 284.007 94.8073 284.9 93.3539H277.98C276.607 94.6073 274.893 95.7273 272.84 96.7139L271.56 95.0739C274.933 93.6339 277.22 91.8873 278.42 89.8339L280.5 90.0739C280.193 90.6339 279.887 91.1339 279.58 91.5739H287.08V93.2539C285.773 95.8006 283.433 97.9139 280.06 99.5939H287.72V108.294H285.8V107.234H277.34ZM285.8 105.394V101.354H277.34V105.394H285.8Z" fill="#525252"/>
<path d="M250 70.2939C269.33 70.2939 285 54.6238 285 35.2939C285 15.9639 269.33 0.293884 250 0.293884C230.67 0.293884 215 15.9639 215 35.2939C215 54.6238 230.67 70.2939 250 70.2939Z" fill="#0067D1"/>
<path d="M255.357 23.5083H258.571C259.14 23.5083 259.685 23.7341 260.087 24.1359C260.488 24.5378 260.714 25.0828 260.714 25.6512V47.0797C260.714 47.648 260.488 48.1931 260.087 48.595C259.685 48.9968 259.14 49.2226 258.571 49.2226H241.429C240.86 49.2226 240.315 48.9968 239.913 48.595C239.511 48.1931 239.286 47.648 239.286 47.0797V25.6512C239.286 25.0828 239.511 24.5378 239.913 24.1359C240.315 23.7341 240.86 23.5083 241.429 23.5083H244.643" stroke="white" stroke-width="3" stroke-linecap="round" stroke-linejoin="round"/>
<path d="M253.214 21.3652H246.786C245.602 21.3652 244.643 22.3246 244.643 23.5081V24.5795C244.643 25.763 245.602 26.7224 246.786 26.7224H253.214C254.398 26.7224 255.357 25.763 255.357 24.5795V23.5081C255.357 22.3246 254.398 21.3652 253.214 21.3652Z" stroke="white" stroke-width="3" stroke-linecap="round" stroke-linejoin="round"/>
<path d="M244.643 38.508L248.928 41.7223L254.286 33.1509" stroke="white" stroke-width="3" stroke-linecap="round" stroke-linejoin="round"/>
<path d="M384.24 97.5939H386.12V108.374H384.24V97.5939ZM395.98 108.294L395.52 106.574L397.32 106.634C397.76 106.634 397.98 106.341 397.98 105.754V97.0339H390.56V95.2939H399.86V106.274C399.86 107.621 399.14 108.294 397.7 108.294H395.98ZM388.26 98.4339H395.8V106.234H388.26V98.4339ZM394.04 104.654V103.054H390.06V104.654H394.04ZM390.06 101.534H394.04V99.9739H390.06V101.534ZM386.66 94.4739C387.7 95.3939 388.5 96.2139 389.06 96.9339L387.66 97.8939C387.1 97.1873 386.3 96.3339 385.26 95.3339L386.66 94.4739ZM386.12 92.8539C385.64 93.6939 385.1 94.4539 384.5 95.1339L382.9 94.0939C384.073 92.8006 384.927 91.3806 385.46 89.8339L387.3 90.2339C387.287 90.2873 387.16 90.6073 386.92 91.1939H391.88V92.8539H389.24C389.64 93.4139 389.98 93.9806 390.26 94.5539L388.58 95.1739C388.193 94.3473 387.753 93.5739 387.26 92.8539H386.12ZM394.62 92.8539C394.273 93.5473 393.86 94.2073 393.38 94.8339L391.78 93.7939C392.767 92.5673 393.46 91.2539 393.86 89.8539L395.68 90.2539L395.36 91.1939H400.96V92.8539H397.96C398.32 93.3739 398.64 93.8873 398.92 94.3939L397.24 95.0139C396.88 94.2673 396.46 93.5473 395.98 92.8539H394.62ZM420.66 90.7539V92.6139H406.28V98.2539C406.2 102.454 405.5 105.814 404.18 108.334L402.7 107.014C403.753 104.881 404.3 101.961 404.34 98.2539V90.7539H420.66ZM419.98 96.6939C419.94 102.161 419.66 105.434 419.14 106.514C418.607 107.594 417.673 108.134 416.34 108.134C415.993 108.134 415.207 108.107 413.98 108.054L413.48 106.274C414.44 106.314 415.247 106.354 415.9 106.394C416.833 106.354 417.407 105.907 417.62 105.054C417.873 104.161 418.02 101.941 418.06 98.3939H413.86C413.62 100.527 413.12 102.327 412.36 103.794C411.307 105.781 409.633 107.287 407.34 108.314L406.28 106.654C408.533 105.521 410.06 104.121 410.86 102.454C411.367 101.307 411.733 99.9539 411.96 98.3939H407.46V96.6939H412.12L412.18 95.3939V93.4139H414.08V95.3939L414.02 96.6939H419.98ZM433.18 93.0939H430.36V91.2739H440.54C440.54 98.0473 440.433 102.287 440.22 103.994C439.98 106.687 438.887 108.034 436.94 108.034C436.62 108.034 435.84 108.001 434.6 107.934L434.14 106.194C435.207 106.261 436.033 106.294 436.62 106.294C437.633 106.294 438.22 105.241 438.38 103.134C438.487 102.254 438.56 98.9073 438.6 93.0939H435.06V94.6339C434.98 100.927 433.247 105.507 429.86 108.374L428.4 107.094C431.533 104.494 433.127 100.341 433.18 94.6339V93.0939ZM425.48 100.774C424.747 101.521 424.007 102.234 423.26 102.914L422.7 100.994C425.14 98.7939 426.78 96.6539 427.62 94.5739H423.16V92.8539H425.64C425.32 91.9873 424.96 91.1473 424.56 90.3339L426.4 89.8539C426.893 91.0006 427.267 92.0006 427.52 92.8539H429.48V94.3939C429 95.7939 428.273 97.1806 427.3 98.5539V98.5939L428.12 99.1739C428.72 98.7073 429.327 98.0273 429.94 97.1339L431.08 98.2739C430.507 99.0473 429.907 99.6606 429.28 100.114C429.88 100.634 430.353 101.087 430.7 101.474L429.68 103.074C428.84 101.981 428.047 101.081 427.3 100.374V108.334H425.48V100.774ZM446.26 92.9539C445.78 93.8339 445.24 94.6339 444.64 95.3539L443 94.3539C444.213 92.9139 445.08 91.4006 445.6 89.8139L447.42 90.2139C447.38 90.3473 447.32 90.5206 447.24 90.7339C447.133 90.9873 447.067 91.1606 447.04 91.2539H451.98V92.9539H449.72C450.013 93.3406 450.3 93.7739 450.58 94.2539L448.82 94.9139C448.513 94.2739 448.133 93.6206 447.68 92.9539H446.26ZM454.92 92.9539C454.533 93.6873 454.08 94.3873 453.56 95.0539L451.96 94.0339C453 92.7539 453.74 91.3806 454.18 89.9139L456.02 90.2939L455.68 91.2539H461.08V92.9539H458.38C458.74 93.4073 459.04 93.8473 459.28 94.2739L457.54 94.9339C457.18 94.2539 456.78 93.5939 456.34 92.9539H454.92ZM447.18 95.2339H449V100.454C448.96 104.067 447.853 106.701 445.68 108.354L444.28 107.134C446.173 105.721 447.14 103.494 447.18 100.454V95.2339ZM443.82 96.9739H445.64V103.634H443.82V96.9739ZM454.48 97.1339H449.92V95.3939H460.88V97.1339H456.28V98.6339H460.14V104.354C460.14 105.674 459.527 106.334 458.3 106.334H457.24L456.78 104.654L457.74 104.714C458.18 104.714 458.4 104.461 458.4 103.954V100.294H456.28V108.414H454.48V100.294H452.44V106.514H450.74V98.6339H454.48V97.1339Z" fill="#525252"/>
<path d="M422 70.2939C441.33 70.2939 457 54.6238 457 35.2939C457 15.9639 441.33 0.293884 422 0.293884C402.67 0.293884 387 15.9639 387 35.2939C387 54.6238 402.67 70.2939 422 70.2939Z" fill="#0067D1"/>
<path d="M434.881 28.1946L426.787 20.1009C426.679 19.9936 426.552 19.9084 426.411 19.8504C426.271 19.7924 426.121 19.7626 425.969 19.7627H412.094C411.48 19.7627 410.892 20.0063 410.459 20.44C410.025 20.8737 409.781 21.4619 409.781 22.0752V47.5127C409.781 48.126 410.025 48.7142 410.459 49.1479C410.892 49.5816 411.48 49.8252 412.094 49.8252H432.906C433.52 49.8252 434.108 49.5816 434.541 49.1479C434.975 48.7142 435.219 48.126 435.219 47.5127V29.0127C435.219 28.8608 435.189 28.7104 435.131 28.57C435.073 28.4297 434.988 28.3021 434.881 28.1946ZM427.125 23.7098L431.272 27.8564H427.125V23.7098ZM432.906 47.5127H412.094V22.0752H424.813V29.0127C424.813 29.3194 424.934 29.6134 425.151 29.8303C425.368 30.0471 425.662 30.1689 425.969 30.1689H432.906V47.5127ZM426.324 40.4523C427.007 39.368 427.266 38.0703 427.052 36.8071C426.838 35.5439 426.166 34.4039 425.165 33.6047C424.163 32.8056 422.902 32.4034 421.623 32.475C420.344 32.5466 419.136 33.087 418.23 33.9929C417.324 34.8988 416.784 36.1068 416.712 37.386C416.641 38.6651 417.043 39.9258 417.842 40.9272C418.641 41.9286 419.781 42.6004 421.044 42.8144C422.308 43.0283 423.605 42.7694 424.69 42.087L426.307 43.7057C426.414 43.8132 426.542 43.8984 426.682 43.9565C426.823 44.0147 426.973 44.0446 427.125 44.0446C427.277 44.0446 427.427 44.0147 427.568 43.9565C427.708 43.8984 427.836 43.8132 427.943 43.7057C428.05 43.5983 428.136 43.4708 428.194 43.3304C428.252 43.1901 428.282 43.0396 428.282 42.8877C428.282 42.7358 428.252 42.5853 428.194 42.445C428.136 42.3046 428.05 42.1771 427.943 42.0696L426.324 40.4523ZM419.031 37.6846C419.031 37.1129 419.201 36.554 419.518 36.0786C419.836 35.6033 420.287 35.2328 420.816 35.014C421.344 34.7952 421.925 34.738 422.486 34.8495C423.047 34.961 423.562 35.2363 423.966 35.6406C424.37 36.0449 424.645 36.5599 424.757 37.1206C424.868 37.6814 424.811 38.2626 424.592 38.7908C424.374 39.319 424.003 39.7704 423.528 40.088C423.052 40.4057 422.494 40.5752 421.922 40.5752C421.155 40.5752 420.42 40.2706 419.878 39.7286C419.336 39.1865 419.031 38.4512 419.031 37.6846Z" fill="white"/>
<path d="M60.74 358.88V374.76H58.88V373.52H55.8V374.76H53.94V358.88H60.74ZM55.8 371.68H58.88V360.72H55.8V371.68ZM46.48 356.66H48.4V360.02H52.42C52.42 366.82 52.32 371.02 52.12 372.62C51.92 374.14 50.9267 374.9 49.14 374.9C48.9 374.9 48.38 374.867 47.58 374.8L47.1 373.06C47.86 373.127 48.44 373.16 48.84 373.16C49.68 373.16 50.18 372.694 50.34 371.76C50.4467 370.894 50.52 367.6 50.56 361.88H48.4V362.42C48.3333 368.26 47.0467 372.527 44.54 375.22L43 373.86C45.28 371.5 46.44 367.687 46.48 362.42V361.88H43.46V360.02H46.48V356.66ZM71.3 361.38C70.42 359.767 69.3467 358.507 68.08 357.6L69.66 356.6C71.34 357.774 72.8267 360.02 74.12 363.34C76.0133 368.007 78.48 371.32 81.52 373.28L80.34 374.78C77.2067 372.9 74.58 369.294 72.46 363.96L72.32 363.58C70.96 368.42 68.26 372.16 64.22 374.8L63.08 373.18C67.24 370.447 69.98 366.514 71.3 361.38ZM83.8 358.72H90.32C91.72 358.72 92.8133 359.054 93.6 359.72C94.36 360.36 94.74 361.227 94.74 362.32C94.74 363.12 94.54 363.8 94.14 364.36C93.7267 364.894 93.1733 365.287 92.48 365.54C93.4267 365.727 94.14 366.107 94.62 366.68C95.1 367.254 95.34 368.027 95.34 369C95.34 370.427 94.8467 371.48 93.86 372.16C93.02 372.72 91.84 373 90.32 373H83.8V358.72ZM85.98 360.52V364.78H89.74C90.7267 364.78 91.4467 364.607 91.9 364.26C92.34 363.9 92.56 363.34 92.56 362.58C92.56 361.86 92.34 361.34 91.9 361.02C91.4733 360.687 90.7667 360.52 89.78 360.52H85.98ZM85.98 366.56V371.2H90.02C90.9133 371.2 91.6333 371.054 92.18 370.76C92.8333 370.374 93.16 369.774 93.16 368.96C93.16 368.12 92.9067 367.507 92.4 367.12C91.9067 366.747 91.1333 366.56 90.08 366.56H85.98ZM96.2305 358.72H98.8505L102.971 365.26L107.09 358.72H109.71L104.05 367.3V373H101.891V367.3L96.2305 358.72ZM111.202 358.72H117.522C118.989 358.72 120.136 359.047 120.962 359.7C121.842 360.42 122.282 361.454 122.282 362.8C122.282 363.547 122.082 364.214 121.682 364.8C121.229 365.44 120.609 365.86 119.822 366.06V366.1C121.089 366.38 121.802 367.22 121.962 368.62L122.202 370.9C122.282 371.78 122.562 372.48 123.042 373H120.682C120.349 372.574 120.142 371.947 120.062 371.12L119.882 369.34C119.802 368.567 119.549 367.994 119.122 367.62C118.696 367.274 118.069 367.1 117.242 367.1H113.382V373H111.202V358.72ZM113.382 360.58V365.24H117.242C118.189 365.24 118.909 365.034 119.402 364.62C119.869 364.22 120.102 363.64 120.102 362.88C120.102 362.094 119.876 361.514 119.422 361.14C118.956 360.767 118.222 360.58 117.222 360.58H113.382Z" fill="#525252"/>
<path d="M83.025 337C102.355 337 118.025 321.33 118.025 302C118.025 282.67 102.355 267 83.025 267C63.6951 267 48.025 282.67 48.025 302C48.025 321.33 63.6951 337 83.025 337Z" fill="#0067D1"/>
<path d="M95.6687 303.648C95.9036 301.85 95.7519 300.022 95.2239 298.287C94.6959 296.552 93.8037 294.949 92.607 293.586C91.4102 292.224 89.9364 291.132 88.284 290.384C86.6316 289.636 84.8387 289.25 83.025 289.25C79.6435 289.25 76.4005 290.594 74.0094 292.985C71.6183 295.376 70.275 298.619 70.275 302C70.275 305.382 71.6183 308.625 74.0094 311.016C76.4005 313.407 79.6435 314.75 83.025 314.75M78.775 299.167H78.7892M87.275 299.167H87.2892" stroke="white" stroke-width="2.8" stroke-linecap="round" stroke-linejoin="round"/>
<path d="M79.483 306.25C80.4152 307.157 81.693 307.667 83.0247 307.667C84.3563 307.667 85.6342 307.157 86.5663 306.25M87.2747 311.917L90.108 314.75L95.7747 309.084" stroke="white" stroke-width="2.8" stroke-linecap="round" stroke-linejoin="round"/>
<path d="M192.5 36.9917L182.44 31.3227L182.561 42.8691L192.5 36.9917ZM134.51 38.5961L183.511 38.0854L183.49 36.0855L134.49 36.5962L134.51 38.5961Z" fill="#979797"/>
<path d="M145 302.877L155.06 308.546L154.939 297L145 302.877ZM202.99 301.273L153.989 301.784L154.01 303.784L203.01 303.273L202.99 301.273Z" fill="#979797"/>
<path d="M364.5 36.9917L354.5 31.2182V42.7652L364.5 36.9917ZM306.5 37.9917H355.5V35.9917H306.5V37.9917Z" fill="#979797"/>
<path d="M445 267H242C235.373 267 230 272.373 230 279V322C230 328.627 235.373 334 242 334H445C451.627 334 457 328.627 457 322V279C457 272.373 451.627 267 445 267Z" fill="#0067D1" fill-opacity="0.1" stroke="#0067D1" stroke-width="3" stroke-linecap="round" stroke-linejoin="round" stroke-dasharray="10 10"/>
<path d="M480 302.343L490 295.686V309L480 302.343ZM480 36H585V38.306H480V36ZM596 48.683V290.813H594V48.683H596ZM585 303.496H489V301.19H585V303.496ZM596 290.813C596 297.818 591.075 303.496 585 303.496V301.19C589.971 301.19 594 296.544 594 290.813H596ZM585 36C591.075 36 596 41.6783 596 48.683H594C594 42.9519 589.971 38.306 585 38.306V36Z" fill="#979797"/>
<path d="M313.408 306.298C311.836 307.054 310.066 307.642 308.098 308.062L307.882 306.37C309.994 305.938 311.836 305.362 313.408 304.642V306.298ZM311.914 292.798C311.146 295.006 310.36 296.8 309.556 298.18C310.168 298.084 310.756 297.976 311.32 297.856L312.22 295.858L313.804 296.434C312.364 299.35 311.2 301.432 310.312 302.68C311.296 302.428 312.346 302.074 313.462 301.618V303.148C311.65 303.82 309.958 304.264 308.386 304.48L307.954 302.968C308.242 302.848 308.494 302.692 308.71 302.5C309.202 301.9 309.832 300.844 310.6 299.332C308.86 299.644 308.038 299.794 308.134 299.782L307.72 298.306C307.984 298.198 308.212 298 308.404 297.712C309.136 296.08 309.784 294.238 310.348 292.186L311.914 292.798ZM323.704 294.058V297.676H322.192V298.756H315.55V297.676H314.038V294.058H317.854C317.626 293.482 317.362 292.93 317.062 292.402L318.808 292.114C319.06 292.69 319.312 293.338 319.564 294.058H323.704ZM315.658 297.19H322.048V295.624H315.658V297.19ZM316.792 303.472C316.324 305.308 315.646 306.904 314.758 308.26L313.336 307.342C314.212 306.034 314.836 304.636 315.208 303.148L316.792 303.472ZM322.336 302.986C323.08 304.426 323.716 305.914 324.244 307.45L322.732 308.116C322.144 306.316 321.526 304.768 320.878 303.472L322.336 302.986ZM316.612 308.692L316.27 307.072C316.822 307.156 317.278 307.198 317.638 307.198C318.034 307.198 318.232 306.904 318.232 306.316V301.978H314.182V300.358H323.542V301.978H319.87V306.73C319.87 308.038 319.318 308.692 318.214 308.692H316.612ZM334.63 292.204C336.91 294.772 339.514 296.788 342.442 298.252L341.524 299.89C340.504 299.338 339.574 298.762 338.734 298.162V299.44H329.266V298.126C328.402 298.75 327.448 299.35 326.404 299.926L325.504 298.27C328.648 296.65 331.27 294.628 333.37 292.204H334.63ZM338.248 297.802C336.652 296.602 335.236 295.252 334 293.752C332.788 295.24 331.36 296.59 329.716 297.802H338.248ZM339.868 301.366V308.836H338.212V307.864H329.788V308.836H328.132V301.366H339.868ZM329.788 306.244H338.212V302.968H329.788V306.244ZM345.7 293.914H350.38V292.204H352.072V293.914H356.068V294.796C356.752 294.076 357.382 293.338 357.958 292.582L359.218 293.536C358.294 294.796 357.238 295.966 356.05 297.046H359.956V298.666H354.07C353.278 299.23 352.522 299.728 351.802 300.16H358.966V301.69H350.02L349.516 303.184H358.102C357.982 305.788 357.7 307.348 357.256 307.864C356.812 308.344 355.948 308.584 354.664 308.584C353.92 308.584 353.17 308.542 352.414 308.458L351.856 306.964C352.924 307.048 353.74 307.09 354.304 307.09C355.18 307.09 355.738 306.958 355.978 306.694C356.158 306.406 356.302 305.734 356.41 304.678H347.5L348.274 301.942C346.954 302.506 345.634 302.986 344.314 303.382L343.63 301.852C346.414 301.036 348.91 299.974 351.118 298.666H344.368V297.046H350.38V295.48H345.7V293.914ZM353.512 297.046C354.232 296.482 354.85 295.96 355.366 295.48H352.072V297.046H353.512ZM365.896 308.854H364.258V300.538C363.718 302.134 363.064 303.562 362.296 304.822L361.594 303.058C362.782 301.378 363.646 299.446 364.186 297.262H361.918V295.624H364.258V292.258H365.896V295.624H367.876V297.262H365.896V298.234C366.688 299.11 367.522 300.136 368.398 301.312L367.444 302.77C366.88 301.774 366.364 300.898 365.896 300.142V308.854ZM368.218 294.076H372.484C372.244 293.476 371.986 292.954 371.71 292.51L373.456 292.222C373.696 292.738 373.93 293.356 374.158 294.076H378.082V295.642H373.15C372.274 297.166 371.5 298.282 370.828 298.99C371.692 298.954 372.664 298.888 373.744 298.792C374.188 298.144 374.584 297.49 374.932 296.83L376.318 297.568C374.518 301.144 371.884 303.58 368.416 304.876L367.48 303.454C369.472 302.758 371.164 301.684 372.556 300.232C371.716 300.28 370.498 300.34 368.902 300.412L368.56 299.026C368.692 298.99 368.8 298.942 368.884 298.882C369.52 298.474 370.354 297.394 371.386 295.642H368.218V294.076ZM374.05 305.398C372.37 306.886 370.408 308.026 368.164 308.818L367.228 307.36C371.392 305.992 374.518 303.37 376.606 299.494L378.028 300.232C377.188 301.804 376.216 303.178 375.112 304.354C376.396 305.482 377.452 306.556 378.28 307.576L377.02 308.836C376.264 307.744 375.274 306.598 374.05 305.398Z" fill="#333333"/>
</svg>
