<svg width="1104" height="244" viewBox="0 0 1104 244" fill="none" xmlns="http://www.w3.org/2000/svg">
<path d="M6.268 199.355H10.996C11.1 198.627 11.16 197.863 11.176 197.063V196.151H11.824V196.919C11.824 197.783 11.764 198.595 11.644 199.355H16.732V200.003H11.92C12.76 202.827 14.436 204.991 16.948 206.495L16.552 207.023C14.032 205.487 12.332 203.275 11.452 200.387C10.772 203.483 9.1 205.719 6.436 207.095L6.028 206.555C8.66 205.259 10.28 203.075 10.888 200.003H6.268V199.355ZM25.444 202.319C25.084 202.447 24.776 202.539 24.52 202.595C24.72 203.179 24.832 203.823 24.856 204.527C24.856 205.447 24.732 206.095 24.484 206.471C24.212 206.863 23.58 207.059 22.588 207.059H22.168L21.952 206.495H22.504C23.24 206.479 23.704 206.367 23.896 206.159C24.12 205.871 24.232 205.327 24.232 204.527C24.224 204.247 24.2 203.979 24.16 203.723C22.84 204.803 21.032 205.695 18.736 206.399L18.412 205.835C20.852 205.115 22.72 204.199 24.016 203.087C23.928 202.743 23.792 202.391 23.608 202.031C22.456 202.959 20.88 203.711 18.88 204.287L18.568 203.723C20.64 203.155 22.224 202.431 23.32 201.551C23.12 201.255 22.924 201.007 22.732 200.807L22.348 200.999C21.46 201.407 20.38 201.787 19.108 202.139L18.76 201.599C19.928 201.327 20.972 200.995 21.892 200.603C22.42 200.371 22.924 200.111 23.404 199.823H19.888V199.211H27.124V199.823H24.34C23.956 200.087 23.584 200.327 23.224 200.543C23.68 201.007 24.04 201.519 24.304 202.079C25.472 201.767 26.576 201.267 27.616 200.579L28.06 201.011C27.412 201.451 26.716 201.823 25.972 202.127C26.548 203.711 27.484 204.971 28.78 205.907L28.324 206.447C26.964 205.367 26.004 203.991 25.444 202.319ZM23.548 196.055C23.708 196.431 23.852 196.835 23.98 197.267H28.504V199.235H27.856V197.879H19.132V199.235H18.484V197.267H23.344C23.224 196.931 23.072 196.563 22.888 196.163L23.548 196.055ZM30.196 196.907H40.84V197.543H39.208V205.871C39.208 206.615 38.84 206.987 38.104 206.987H36.124L35.98 206.363C36.86 206.395 37.492 206.411 37.876 206.411C38.324 206.411 38.548 206.175 38.548 205.703V197.543H30.196V196.907ZM36.136 199.583V203.831H32.272V204.923H31.648V199.583H36.136ZM32.272 203.231H35.512V200.171H32.272V203.231ZM45.904 197.471C46.984 198.679 47.84 199.775 48.472 200.759L47.932 201.143C47.3 200.119 46.44 199.011 45.352 197.819L45.904 197.471ZM50.152 203.123C49.384 204.659 48.108 205.951 46.324 206.999L45.88 206.459C47.896 205.307 49.24 203.827 49.912 202.019C50.416 200.483 50.668 198.559 50.668 196.247H51.34C51.34 198.495 51.1 200.399 50.62 201.959C50.54 202.199 50.476 202.375 50.428 202.487C51.412 203.751 52.26 205.047 52.972 206.375L52.48 206.867C51.864 205.643 51.088 204.395 50.152 203.123ZM42.904 205.091C43.096 204.971 43.192 204.795 43.192 204.563V196.655H43.864V204.743C44.864 204.351 45.836 203.867 46.78 203.291L46.972 203.939C45.788 204.619 44.5 205.207 43.108 205.703L42.904 205.091ZM54.64 198.047H56.596V197.267H54.16V196.739H56.596V196.127H57.196V196.739H59.5V197.267H57.196V198.047H59.164V200.027H57.196V200.303C57.948 200.639 58.68 201.015 59.392 201.431L59.068 201.923C58.34 201.419 57.716 201.023 57.196 200.735V202.055H56.596V200.567C55.844 201.223 55.08 201.747 54.304 202.139L54.016 201.623C54.88 201.287 55.74 200.763 56.596 200.051V200.027H54.64V198.047ZM58.612 199.559V198.527H57.196V199.559H58.612ZM56.596 199.559V198.527H55.18V199.559H56.596ZM61.06 197.747C60.972 197.939 60.868 198.151 60.748 198.383C61.108 199.095 61.596 199.707 62.212 200.219L62.344 200.087C62.84 199.503 63.16 198.723 63.304 197.747H61.06ZM61.756 200.603C61.22 200.139 60.772 199.583 60.412 198.935C60.22 199.223 60.016 199.487 59.8 199.727L59.416 199.235C60.176 198.371 60.692 197.319 60.964 196.079L61.564 196.151C61.484 196.495 61.388 196.835 61.276 197.171H64.708V197.747H63.892C63.724 198.883 63.364 199.787 62.812 200.459L62.692 200.579C63.324 201.003 64.04 201.335 64.84 201.575L64.492 202.103C63.612 201.815 62.86 201.443 62.236 200.987C61.652 201.411 60.88 201.763 59.92 202.043L59.692 201.503C60.548 201.263 61.236 200.963 61.756 200.603ZM59.092 203.147H54.784V202.571H64.24V203.147H59.74V204.371H63.568V204.947H59.74V206.171H64.804V206.771H54.196V206.171H56.176V203.807H56.8V206.171H59.092V203.147ZM70.66 196.655H76.312V202.067H73.816V203.711H76.552V204.335H73.816V206.063H76.936V206.699H70.048V206.063H73.168V204.335H70.408V203.711H73.168V202.067H70.66V196.655ZM75.676 201.479V199.643H73.816V201.479H75.676ZM73.168 201.479V199.643H71.296V201.479H73.168ZM71.296 199.067H73.168V197.243H71.296V199.067ZM73.816 197.243V199.067H75.676V197.243H73.816ZM66.316 200.651H67.684V197.603H66.136V196.979H69.868V197.603H68.332V200.651H69.724V201.275H68.332V204.215C68.852 204.031 69.372 203.827 69.892 203.603V204.227C68.748 204.731 67.492 205.151 66.124 205.487L65.968 204.875C66.488 204.771 67.06 204.623 67.684 204.431V201.275H66.316V200.651ZM78.124 201.179H88.864V201.827H78.124V201.179ZM90.196 196.835H100.792V197.471H95.5V199.475C97.012 200.251 98.548 201.151 100.108 202.175L99.724 202.751C98.068 201.631 96.66 200.763 95.5 200.147V207.107H94.864V197.471H90.196V196.835ZM105.904 197.471C106.984 198.679 107.84 199.775 108.472 200.759L107.932 201.143C107.3 200.119 106.44 199.011 105.352 197.819L105.904 197.471ZM110.152 203.123C109.384 204.659 108.108 205.951 106.324 206.999L105.88 206.459C107.896 205.307 109.24 203.827 109.912 202.019C110.416 200.483 110.668 198.559 110.668 196.247H111.34C111.34 198.495 111.1 200.399 110.62 201.959C110.54 202.199 110.476 202.375 110.428 202.487C111.412 203.751 112.26 205.047 112.972 206.375L112.48 206.867C111.864 205.643 111.088 204.395 110.152 203.123ZM102.904 205.091C103.096 204.971 103.192 204.795 103.192 204.563V196.655H103.864V204.743C104.864 204.351 105.836 203.867 106.78 203.291L106.972 203.939C105.788 204.619 104.5 205.207 103.108 205.703L102.904 205.091ZM122.308 196.271C122.06 196.799 121.776 197.275 121.456 197.699H124.84V198.347H114.148V197.699H117.568C117.32 197.123 117.044 196.627 116.74 196.211L117.412 196.103C117.692 196.527 117.972 197.059 118.252 197.699H120.748C121.084 197.203 121.392 196.651 121.672 196.043L122.308 196.271ZM117.34 206.999L117.16 206.363L118.072 206.387C118.432 206.387 118.612 206.183 118.612 205.775V204.419H115.684V207.095H115.048V199.487H119.248V205.907C119.248 206.635 118.928 206.999 118.288 206.999H117.34ZM115.684 203.819H118.612V202.271H115.684V203.819ZM115.684 201.683H118.612V200.099H115.684V201.683ZM121.372 206.963L121.228 206.351C121.756 206.375 122.252 206.387 122.716 206.387C123.092 206.387 123.28 206.187 123.28 205.787V199.103H123.928V205.955C123.928 206.627 123.6 206.963 122.944 206.963H121.372ZM120.76 200.003H121.408V205.199H120.76V200.003ZM130.252 198.275V206.339H129.628V205.607H127.204V206.675H126.58V198.275H127.66C127.908 197.595 128.088 196.879 128.2 196.127L128.86 196.211C128.732 196.947 128.54 197.635 128.284 198.275H130.252ZM127.204 205.007H129.628V202.163H127.204V205.007ZM127.204 201.575H129.628V198.899H127.204V201.575ZM132.292 200.987C133.212 202.003 133.908 202.883 134.38 203.627L133.864 203.999C133.384 203.223 132.684 202.331 131.764 201.323L132.292 200.987ZM136.468 198.287C136.468 202.135 136.412 204.531 136.3 205.475C136.18 206.435 135.624 206.915 134.632 206.915L133.456 206.891L133.3 206.291C133.78 206.315 134.2 206.327 134.56 206.327C135.208 206.327 135.58 205.971 135.676 205.259C135.764 204.603 135.82 202.495 135.844 198.935H132.304C131.96 199.727 131.556 200.427 131.092 201.035L130.708 200.531C131.572 199.331 132.16 197.859 132.472 196.115L133.108 196.187C132.956 196.971 132.772 197.671 132.556 198.287H136.468ZM145.144 203.087H142.684V202.463H148.276V203.087H145.792V206.027H148.828V206.675H142.132V206.027H145.144V203.087ZM145.828 199.691C144.932 200.507 143.808 201.179 142.456 201.707L142.036 201.179C144.356 200.291 145.96 199.023 146.848 197.375H142.612V196.739H147.64V197.255C147.288 198.007 146.824 198.683 146.248 199.283C147.312 199.963 148.208 200.643 148.936 201.323L148.48 201.791C147.832 201.143 146.948 200.443 145.828 199.691ZM141.988 205.163C140.86 205.747 139.592 206.211 138.184 206.555L138.1 205.919C139.572 205.583 140.868 205.131 141.988 204.563V205.163ZM140.836 196.403C140.204 197.995 139.568 199.255 138.928 200.183C139.56 200.111 140.212 200.027 140.884 199.931C141.204 199.315 141.448 198.859 141.616 198.563L142.216 198.779C141.008 200.963 140.028 202.467 139.276 203.291C140.204 203.123 141.116 202.883 142.012 202.571V203.171C140.82 203.571 139.644 203.851 138.484 204.011L138.304 203.411C138.416 203.363 138.52 203.299 138.616 203.219C139.168 202.659 139.808 201.759 140.536 200.519C140.112 200.583 139.372 200.683 138.316 200.819L138.16 200.219C138.264 200.163 138.356 200.087 138.436 199.991C139.116 198.911 139.708 197.635 140.212 196.163L140.836 196.403ZM16.636 213.763V214.411H7.78V218.083C7.732 220.595 7.304 222.587 6.496 224.059L5.992 223.615C6.72 222.279 7.096 220.435 7.12 218.083V213.763H16.636ZM16.048 217.327C16.024 220.487 15.876 222.375 15.604 222.991C15.316 223.615 14.812 223.927 14.092 223.927C13.7 223.927 13.228 223.915 12.676 223.891L12.496 223.291C13.072 223.299 13.552 223.311 13.936 223.327C14.568 223.303 14.96 223.003 15.112 222.427C15.28 221.851 15.376 220.347 15.4 217.915H12.412C12.268 219.267 11.968 220.399 11.512 221.311C10.904 222.471 9.896 223.387 8.488 224.059L8.128 223.483C9.48 222.843 10.448 221.951 11.032 220.807C11.4 219.967 11.644 219.003 11.764 217.915H8.848V217.327H11.812C11.828 217.103 11.844 216.751 11.86 216.271V215.107H12.496V216.271C12.496 216.639 12.484 216.991 12.46 217.327H16.048ZM28.324 214.015V223.603H27.676V222.607H24.532V223.711H23.896V214.015H28.324ZM24.532 221.995H27.676V214.627H24.532V221.995ZM18.388 216.499H20.56V214.567C19.888 214.679 19.232 214.759 18.592 214.807L18.376 214.207C20.112 214.087 21.608 213.779 22.864 213.283L23.176 213.835C22.496 214.091 21.832 214.291 21.184 214.435V216.499H23.308V217.111H21.184V217.795C21.928 218.475 22.644 219.211 23.332 220.003L22.948 220.555C22.268 219.643 21.68 218.923 21.184 218.395V224.023H20.56V218.263C20.04 219.519 19.304 220.659 18.352 221.683L18.076 220.999C19.252 219.847 20.08 218.551 20.56 217.111H18.388V216.499ZM35.2 215.539C34.656 216.699 34.008 217.727 33.256 218.623L32.8 218.083C33.92 216.771 34.808 215.099 35.464 213.067L36.112 213.223C35.96 213.695 35.752 214.255 35.488 214.903H40.864V215.539H36.676V217.723H40.312V218.371H36.676V220.591H40.408V221.227H36.676V224.083H36.028V215.539H35.2ZM31.588 217.051C31.14 217.643 30.668 218.195 30.172 218.707L29.968 218.023C31.296 216.583 32.264 214.951 32.872 213.127L33.472 213.403C33.144 214.371 32.732 215.263 32.236 216.079V224.083H31.588V217.051ZM44.248 213.703H50.728V217.435H44.248V213.703ZM50.068 216.811V214.327H44.908V216.811H50.068ZM46.732 218.851V223.891H46.096V223.255H43.324V223.891H42.688V218.851H46.732ZM43.324 222.643H46.096V219.463H43.324V222.643ZM52.312 218.851V223.891H51.664V223.255H48.772V223.891H48.136V218.851H52.312ZM48.772 222.643H51.664V219.463H48.772V222.643ZM54.364 221.107V220.495H59.212V219.775H59.86V220.495H64.636V221.107H60.796C61.628 221.987 62.952 222.679 64.768 223.183L64.492 223.759C62.452 223.087 61.008 222.203 60.16 221.107H59.86V224.095H59.212V221.107H58.888C58.152 222.155 56.716 223.059 54.58 223.819L54.232 223.255C56.216 222.631 57.564 221.915 58.276 221.107H54.364ZM55.588 215.887C55.212 216.327 54.816 216.731 54.4 217.099L54.064 216.583C55.16 215.607 55.984 214.451 56.536 213.115L57.136 213.271C57.016 213.591 56.864 213.927 56.68 214.279H59.488C59.312 213.855 59.14 213.491 58.972 213.187L59.62 213.067C59.796 213.451 59.96 213.855 60.112 214.279H64.072V214.855H60.172V215.815H63.652V216.343H60.172V217.279H63.652V217.807H60.172V218.827H64.288V219.391H55.588V215.887ZM59.536 218.827V217.807H56.2V218.827H59.536ZM59.536 217.279V216.343H56.2V217.279H59.536ZM59.536 215.815V214.855H56.344L56.2 215.083V215.815H59.536ZM69.904 214.471C70.984 215.679 71.84 216.775 72.472 217.759L71.932 218.143C71.3 217.119 70.44 216.011 69.352 214.819L69.904 214.471ZM74.152 220.123C73.384 221.659 72.108 222.951 70.324 223.999L69.88 223.459C71.896 222.307 73.24 220.827 73.912 219.019C74.416 217.483 74.668 215.559 74.668 213.247H75.34C75.34 215.495 75.1 217.399 74.62 218.959C74.54 219.199 74.476 219.375 74.428 219.487C75.412 220.751 76.26 222.047 76.972 223.375L76.48 223.867C75.864 222.643 75.088 221.395 74.152 220.123ZM66.904 222.091C67.096 221.971 67.192 221.795 67.192 221.563V213.655H67.864V221.743C68.864 221.351 69.836 220.867 70.78 220.291L70.972 220.939C69.788 221.619 68.5 222.207 67.108 222.703L66.904 222.091ZM87.196 218.935V224.071H86.572V223.495H80.452V224.071H79.828V218.935H87.196ZM80.452 222.919H83.188V221.491H80.452V222.919ZM83.812 222.919H86.572V221.491H83.812V222.919ZM80.452 220.939H83.188V219.511H80.452V220.939ZM83.812 219.511V220.939H86.572V219.511H83.812ZM82.66 213.139C82.484 213.427 82.272 213.727 82.024 214.039H87.016V214.543C86.256 215.479 85.3 216.291 84.148 216.979C85.492 217.579 87.092 217.999 88.948 218.239L88.648 218.827C86.648 218.523 84.944 218.019 83.536 217.315C82.072 218.059 80.336 218.599 78.328 218.935L78.04 218.371C79.888 218.099 81.516 217.635 82.924 216.979C82.092 216.499 81.388 215.955 80.812 215.347C80.26 215.843 79.672 216.283 79.048 216.667L78.628 216.163C80.044 215.323 81.172 214.267 82.012 212.995L82.66 213.139ZM81.208 214.963C81.832 215.627 82.604 216.199 83.524 216.679C84.564 216.111 85.46 215.427 86.212 214.627H81.532C81.38 214.779 81.272 214.891 81.208 214.963ZM95.2 213.151H95.848V215.035H99.664V221.623H99.028V220.819H95.848V224.047H95.2V220.819H91.972V221.707H91.336V215.035H95.2V213.151ZM91.972 220.195H95.2V218.203H91.972V220.195ZM95.848 220.195H99.028V218.203H95.848V220.195ZM91.972 217.615H95.2V215.647H91.972V217.615ZM95.848 217.615H99.028V215.647H95.848V217.615ZM108.964 213.127H109.6V213.979H112.636V214.531H109.6V215.479H112.192V216.019H109.6V216.991H112.948V217.555H105.652V216.991H108.964V216.019H106.456V215.479H108.964V214.531H105.976V213.979H108.964V213.127ZM107.236 220.579V221.611H111.364V220.579H107.236ZM111.364 220.063V219.019H107.236V220.063H111.364ZM107.236 222.139V224.071H106.624V218.467H111.988V223.135C111.988 223.719 111.68 224.011 111.064 224.011H110.056L109.888 223.423L110.872 223.459C111.2 223.459 111.364 223.307 111.364 223.003V222.139H107.236ZM103.348 213.283C104.188 213.915 104.888 214.535 105.448 215.143L105.004 215.599C104.46 214.991 103.756 214.367 102.892 213.727L103.348 213.283ZM102.028 216.871H104.452V222.343C104.812 222.023 105.24 221.603 105.736 221.083L105.904 221.779C105.264 222.451 104.572 223.063 103.828 223.615L103.576 223.027C103.736 222.883 103.816 222.727 103.816 222.559V217.507H102.028V216.871ZM124.324 214.015V223.603H123.676V222.607H120.532V223.711H119.896V214.015H124.324ZM120.532 221.995H123.676V214.627H120.532V221.995ZM114.388 216.499H116.56V214.567C115.888 214.679 115.232 214.759 114.592 214.807L114.376 214.207C116.112 214.087 117.608 213.779 118.864 213.283L119.176 213.835C118.496 214.091 117.832 214.291 117.184 214.435V216.499H119.308V217.111H117.184V217.795C117.928 218.475 118.644 219.211 119.332 220.003L118.948 220.555C118.268 219.643 117.68 218.923 117.184 218.395V224.023H116.56V218.263C116.04 219.519 115.304 220.659 114.352 221.683L114.076 220.999C115.252 219.847 116.08 218.551 116.56 217.111H114.388V216.499ZM126.196 213.679H136.816V214.303H131.932C131.812 214.919 131.644 215.499 131.428 216.043H136.108V224.107H135.472V223.459H127.564V224.107H126.928V216.043H130.78C131.012 215.483 131.176 214.903 131.272 214.303H126.196V213.679ZM127.564 222.835H129.424V216.655H127.564V222.835ZM130.036 222.835H132.964V221.119H130.036V222.835ZM133.576 222.835H135.472V216.655H133.576V222.835ZM130.036 220.555H132.964V218.899H130.036V220.555ZM130.036 218.323H132.964V216.655H130.036V218.323ZM143.248 218.695H142.048V218.083H145.084V218.695H143.884V222.163C144.428 222.035 144.984 221.891 145.552 221.731V222.355C144.52 222.659 143.388 222.915 142.156 223.123L142 222.499L143.248 222.283V218.695ZM147.688 223.855C147.304 223.855 146.956 223.547 146.644 222.931C146.292 222.227 146.044 221.251 145.9 220.003C145.764 219.011 145.672 217.679 145.624 216.007H141.772V215.359H145.612C145.596 214.879 145.588 214.123 145.588 213.091H146.236C146.236 214.139 146.244 214.895 146.26 215.359H148.708V216.007H146.272C146.328 218.223 146.468 219.911 146.692 221.071C146.972 222.415 147.304 223.107 147.688 223.147C147.984 223.099 148.268 222.335 148.54 220.855L149.044 221.275C148.668 222.995 148.216 223.855 147.688 223.855ZM147.268 213.079C147.836 213.727 148.248 214.247 148.504 214.639L148.036 214.963C147.74 214.483 147.332 213.955 146.812 213.379L147.268 213.079ZM139.348 213.259C140.14 213.891 140.8 214.527 141.328 215.167L140.872 215.623C140.352 214.991 139.688 214.351 138.88 213.703L139.348 213.259ZM138.028 216.871H140.416V222.319C140.792 221.991 141.224 221.555 141.712 221.011L141.88 221.695C141.224 222.415 140.536 223.051 139.816 223.603L139.564 223.015C139.716 222.879 139.792 222.743 139.792 222.607V217.507H138.028V216.871Z" fill="#848484"/>
<path d="M53.16 157.007C52.7867 157.673 52.38 158.287 51.94 158.847H57V160.687H38.98V158.847H44.18C43.8333 158.153 43.44 157.493 43 156.867L45 156.547C45.4 157.2 45.8067 157.967 46.22 158.847H49.84C50.3733 158.113 50.8667 157.287 51.32 156.367L53.16 157.007ZM44.42 174.847L43.92 172.987L45.36 173.047C45.8133 173.047 46.04 172.733 46.04 172.107V170.767H42.12V175.007H40.26V161.927H47.88V172.527C47.88 174.073 47.2467 174.847 45.98 174.847H44.42ZM42.12 169.087H46.04V167.227H42.12V169.087ZM42.12 165.547H46.04V163.687H42.12V165.547ZM51.08 174.787L50.68 172.967C51.52 173.047 52.3333 173.087 53.12 173.087C53.6 173.087 53.84 172.813 53.84 172.267V161.507H55.74V172.747C55.74 174.107 55.0867 174.787 53.78 174.787H51.08ZM49.72 163.007H51.56V171.547H49.72V163.007ZM60.28 156.607H62.12V158.667H65.58V156.647H67.42V158.667H68.46V160.427H67.42V168.447H68.56V170.207H58.98V168.447H60.28V160.427H59.2V158.667H60.28V156.607ZM62.12 168.447H65.58V166.887H62.12V168.447ZM65.58 160.427H62.12V162.007H65.58V160.427ZM62.12 165.227H65.58V163.667H62.12V165.227ZM65.68 170.447C66.4933 171.473 67.1467 172.4 67.64 173.227C68.7733 171.453 69.3467 169.28 69.36 166.707V157.147H76.44V172.827C76.44 174.133 75.7867 174.787 74.48 174.787H72.4L71.88 172.927C72.84 172.98 73.5067 173.007 73.88 173.007C74.32 173.007 74.54 172.72 74.54 172.147V168.547H71.14C70.86 171.16 70.06 173.347 68.74 175.107L67.38 173.847L66.24 174.647C65.7733 173.7 65.1 172.613 64.22 171.387L65.68 170.447ZM62.86 171.227C62.1533 172.627 61.3067 173.86 60.32 174.927L58.82 173.847C59.78 172.9 60.62 171.78 61.34 170.487L62.86 171.227ZM71.26 163.727V166.807H74.54V163.727H71.26ZM74.54 162.007V158.947H71.26V162.007H74.54ZM80.52 157.047C81.84 158.86 82.8333 160.42 83.5 161.727L81.92 162.807C81.1733 161.38 80.1667 159.793 78.9 158.047L80.52 157.047ZM83.56 166.507C82.7333 169.4 81.7867 172.187 80.72 174.867L78.92 174.087C80.0533 171.353 81.0267 168.6 81.84 165.827L83.56 166.507ZM87.18 165.627V167.907H90.86V165.627H87.18ZM87.18 169.647V172.127H90.86V169.647H87.18ZM87.18 173.887V174.987H85.32V163.847C84.6933 164.767 84.16 165.5 83.72 166.047L83.1 164.087C84.78 161.74 85.9533 159.207 86.62 156.487L88.44 156.847C88.16 157.86 87.8333 158.833 87.46 159.767H91.16C90.8667 158.793 90.5133 157.82 90.1 156.847L91.92 156.327C92.4133 157.74 92.76 158.887 92.96 159.767H96.7V161.567H92.7V163.867H96.28V165.627H92.7V167.907H96.32V169.647H92.7V172.127H97.12V173.887H87.18ZM90.86 161.567H87.18V163.867H90.86V161.567ZM114.5 166.027V174.967H112.7V174.207H103.34V174.967H101.54V166.107C100.9 166.24 100.26 166.36 99.62 166.467L98.8 164.807C101.613 164.433 104.1 163.793 106.26 162.887C105.233 162.233 104.327 161.513 103.54 160.727C102.74 161.46 101.853 162.133 100.88 162.747L99.66 161.267C101.78 160.053 103.593 158.387 105.1 156.267L106.98 156.687L106.22 157.787H114.08V159.227C112.933 160.613 111.54 161.833 109.9 162.887C112.033 163.7 114.467 164.287 117.2 164.647L116.38 166.327C113.207 165.86 110.44 165.053 108.08 163.907C106.213 164.813 104.153 165.52 101.9 166.027H114.5ZM104.66 159.647C105.633 160.58 106.76 161.38 108.04 162.047C109.453 161.273 110.667 160.407 111.68 159.447H104.86L104.66 159.647ZM103.34 172.607H107.1V170.847H103.34V172.607ZM108.9 172.607H112.7V170.847H108.9V172.607ZM103.34 169.327H107.1V167.607H103.34V169.327ZM108.9 167.607V169.327H112.7V167.607H108.9Z" fill="#525252"/>
<circle cx="78" cy="101.907" r="35" fill="#E4E4E4"/>
<path d="M76.3333 114.282V102.865L66.3333 97.0736V108.49L76.3333 114.282ZM79.6667 114.282L89.6667 108.49V97.0736L79.6667 102.865V114.282ZM76.3333 118.115L64.6667 111.407C64.1389 111.101 63.7289 110.699 63.4367 110.199C63.1445 109.699 62.9989 109.143 63 108.532V95.2819C63 94.6708 63.1461 94.1152 63.4383 93.6152C63.7306 93.1152 64.14 92.7125 64.6667 92.4069L76.3333 85.6986C76.8611 85.393 77.4167 85.2402 78 85.2402C78.5833 85.2402 79.1389 85.393 79.6667 85.6986L91.3333 92.4069C91.8611 92.7125 92.2711 93.1152 92.5633 93.6152C92.8556 94.1152 93.0011 94.6708 93 95.2819V108.532C93 109.143 92.8539 109.699 92.5617 110.199C92.2695 110.699 91.86 111.101 91.3333 111.407L79.6667 118.115C79.1389 118.421 78.5833 118.574 78 118.574C77.4167 118.574 76.8611 118.421 76.3333 118.115ZM84.6667 96.1152L87.875 94.2819L78 88.5736L74.75 90.4486L84.6667 96.1152ZM78 99.9902L81.25 98.1152L71.375 92.4069L68.125 94.2819L78 99.9902Z" fill="#545454"/>
<rect x="551" y="178.604" width="227" height="63" rx="12" fill="#0067D1" fill-opacity="0.1" stroke="#0067D1" stroke-width="3" stroke-linecap="round" stroke-linejoin="round" stroke-dasharray="10 10"/>
<path d="M219.22 170.347C218.66 169.44 218.133 168.64 217.64 167.947C216.96 169.747 216.16 171.307 215.24 172.627L214.02 171.147C214.94 169.747 215.727 168.087 216.38 166.167C215.607 165.1 214.727 163.987 213.74 162.827L214.9 161.687C215.46 162.273 216.153 163.093 216.98 164.147C217.3 162.813 217.553 161.473 217.74 160.127L219.48 160.427C219.173 162.493 218.787 164.327 218.32 165.927C219 166.887 219.72 167.947 220.48 169.107L219.22 170.347ZM224.98 171.307C224.473 170.4 223.9 169.44 223.26 168.427C222.513 170.24 221.647 171.8 220.66 173.107L219.46 171.647C220.487 170.193 221.353 168.507 222.06 166.587C221.22 165.347 220.36 164.167 219.48 163.047L220.66 161.927C221.327 162.673 222.007 163.54 222.7 164.527C223.06 163.18 223.36 161.733 223.6 160.187L225.36 160.487C225 162.66 224.54 164.64 223.98 166.427C224.753 167.613 225.513 168.82 226.26 170.047L224.98 171.307ZM224.16 174.847L223.66 173.007L225.54 173.087C226.033 173.087 226.28 172.853 226.28 172.387V159.027H213.72V174.967H211.84V157.207H228.16V172.807C228.16 174.167 227.493 174.847 226.16 174.847H224.16ZM238.08 156.507H240.04V162.527H247.44V164.367H240.04V172.407H248.98V174.247H231.06V172.407H238.08V156.507ZM257.8 166.207C257.093 166.553 256.38 166.88 255.66 167.187V172.907C255.66 174.24 255.02 174.907 253.74 174.907H251.86L251.42 173.087C252.007 173.167 252.553 173.207 253.06 173.207C253.553 173.207 253.8 172.953 253.8 172.447V167.927C252.92 168.247 252.04 168.547 251.16 168.827L250.68 166.947C251.84 166.68 252.88 166.387 253.8 166.067V161.847H251.06V160.027H253.8V156.567H255.66V160.027H257.74V161.847H255.66V165.347C256.433 165 257.147 164.66 257.8 164.327V166.207ZM260.42 166.087V174.967H258.62V157.207H267.84C267.84 159.513 267.713 161.08 267.46 161.907C267.207 162.667 266.407 163.047 265.06 163.047H263.56L263.04 161.407L264.2 161.427C264.667 161.427 265.02 161.407 265.26 161.367C265.473 161.3 265.64 161.167 265.76 160.967C265.893 160.687 265.98 160.007 266.02 158.927H260.42V164.347H267.98V165.987C267.66 168.053 267.02 169.807 266.06 171.247C266.993 172.1 268.087 172.86 269.34 173.527L268.06 175.007C266.847 174.233 265.82 173.44 264.98 172.627C264.073 173.6 262.967 174.4 261.66 175.027L260.74 173.367C261.9 172.807 262.88 172.087 263.68 171.207C262.413 169.647 261.62 167.94 261.3 166.087H260.42ZM263 166.087C263.253 167.433 263.833 168.68 264.74 169.827C265.38 168.773 265.867 167.527 266.2 166.087H263ZM277.34 173.847V174.907H275.44V168.047C274.347 168.38 273.153 168.7 271.86 169.007L270.86 167.167C274.233 166.513 277.02 165.68 279.22 164.667C278.38 163.987 277.273 163.253 275.9 162.467L277.54 161.447C278.913 162.287 280.02 163.067 280.86 163.787C282.66 162.693 284.007 161.42 284.9 159.967H277.98C276.607 161.22 274.893 162.34 272.84 163.327L271.56 161.687C274.933 160.247 277.22 158.5 278.42 156.447L280.5 156.687C280.193 157.247 279.887 157.747 279.58 158.187H287.08V159.867C285.773 162.413 283.433 164.527 280.06 166.207H287.72V174.907H285.8V173.847H277.34ZM285.8 172.007V167.967H277.34V172.007H285.8Z" fill="#525252"/>
<circle cx="250" cy="101.907" r="35" fill="#0067D1"/>
<path d="M255.357 90.1216H258.571C259.139 90.1216 259.684 90.3473 260.086 90.7492C260.488 91.1511 260.714 91.6961 260.714 92.2644V113.693C260.714 114.261 260.488 114.806 260.086 115.208C259.684 115.61 259.139 115.836 258.571 115.836H241.428C240.86 115.836 240.315 115.61 239.913 115.208C239.511 114.806 239.285 114.261 239.285 113.693V92.2644C239.285 91.6961 239.511 91.1511 239.913 90.7492C240.315 90.3473 240.86 90.1216 241.428 90.1216H244.642" stroke="white" stroke-width="3" stroke-linecap="round" stroke-linejoin="round"/>
<path d="M253.214 87.9785H246.785C245.602 87.9785 244.643 88.9379 244.643 90.1214V91.1928C244.643 92.3763 245.602 93.3357 246.785 93.3357H253.214C254.397 93.3357 255.357 92.3763 255.357 91.1928V90.1214C255.357 88.9379 254.397 87.9785 253.214 87.9785Z" stroke="white" stroke-width="3" stroke-linecap="round" stroke-linejoin="round"/>
<path d="M244.643 105.121L248.928 108.336L254.285 99.7642" stroke="white" stroke-width="3" stroke-linecap="round" stroke-linejoin="round"/>
<path d="M384.24 164.207H386.12V174.987H384.24V164.207ZM395.98 174.907L395.52 173.187L397.32 173.247C397.76 173.247 397.98 172.953 397.98 172.367V163.647H390.56V161.907H399.86V172.887C399.86 174.233 399.14 174.907 397.7 174.907H395.98ZM388.26 165.047H395.8V172.847H388.26V165.047ZM394.04 171.267V169.667H390.06V171.267H394.04ZM390.06 168.147H394.04V166.587H390.06V168.147ZM386.66 161.087C387.7 162.007 388.5 162.827 389.06 163.547L387.66 164.507C387.1 163.8 386.3 162.947 385.26 161.947L386.66 161.087ZM386.12 159.467C385.64 160.307 385.1 161.067 384.5 161.747L382.9 160.707C384.073 159.413 384.927 157.993 385.46 156.447L387.3 156.847C387.287 156.9 387.16 157.22 386.92 157.807H391.88V159.467H389.24C389.64 160.027 389.98 160.593 390.26 161.167L388.58 161.787C388.193 160.96 387.753 160.187 387.26 159.467H386.12ZM394.62 159.467C394.273 160.16 393.86 160.82 393.38 161.447L391.78 160.407C392.767 159.18 393.46 157.867 393.86 156.467L395.68 156.867L395.36 157.807H400.96V159.467H397.96C398.32 159.987 398.64 160.5 398.92 161.007L397.24 161.627C396.88 160.88 396.46 160.16 395.98 159.467H394.62ZM420.66 157.367V159.227H406.28V164.867C406.2 169.067 405.5 172.427 404.18 174.947L402.7 173.627C403.753 171.493 404.3 168.573 404.34 164.867V157.367H420.66ZM419.98 163.307C419.94 168.773 419.66 172.047 419.14 173.127C418.607 174.207 417.673 174.747 416.34 174.747C415.993 174.747 415.207 174.72 413.98 174.667L413.48 172.887C414.44 172.927 415.247 172.967 415.9 173.007C416.833 172.967 417.407 172.52 417.62 171.667C417.873 170.773 418.02 168.553 418.06 165.007H413.86C413.62 167.14 413.12 168.94 412.36 170.407C411.307 172.393 409.633 173.9 407.34 174.927L406.28 173.267C408.533 172.133 410.06 170.733 410.86 169.067C411.367 167.92 411.733 166.567 411.96 165.007H407.46V163.307H412.12L412.18 162.007V160.027H414.08V162.007L414.02 163.307H419.98ZM433.18 159.707H430.36V157.887H440.54C440.54 164.66 440.433 168.9 440.22 170.607C439.98 173.3 438.887 174.647 436.94 174.647C436.62 174.647 435.84 174.613 434.6 174.547L434.14 172.807C435.207 172.873 436.033 172.907 436.62 172.907C437.633 172.907 438.22 171.853 438.38 169.747C438.487 168.867 438.56 165.52 438.6 159.707H435.06V161.247C434.98 167.54 433.247 172.12 429.86 174.987L428.4 173.707C431.533 171.107 433.127 166.953 433.18 161.247V159.707ZM425.48 167.387C424.747 168.133 424.007 168.847 423.26 169.527L422.7 167.607C425.14 165.407 426.78 163.267 427.62 161.187H423.16V159.467H425.64C425.32 158.6 424.96 157.76 424.56 156.947L426.4 156.467C426.893 157.613 427.267 158.613 427.52 159.467H429.48V161.007C429 162.407 428.273 163.793 427.3 165.167V165.207L428.12 165.787C428.72 165.32 429.327 164.64 429.94 163.747L431.08 164.887C430.507 165.66 429.907 166.273 429.28 166.727C429.88 167.247 430.353 167.7 430.7 168.087L429.68 169.687C428.84 168.593 428.047 167.693 427.3 166.987V174.947H425.48V167.387ZM446.26 159.567C445.78 160.447 445.24 161.247 444.64 161.967L443 160.967C444.213 159.527 445.08 158.013 445.6 156.427L447.42 156.827C447.38 156.96 447.32 157.133 447.24 157.347C447.133 157.6 447.067 157.773 447.04 157.867H451.98V159.567H449.72C450.013 159.953 450.3 160.387 450.58 160.867L448.82 161.527C448.513 160.887 448.133 160.233 447.68 159.567H446.26ZM454.92 159.567C454.533 160.3 454.08 161 453.56 161.667L451.96 160.647C453 159.367 453.74 157.993 454.18 156.527L456.02 156.907L455.68 157.867H461.08V159.567H458.38C458.74 160.02 459.04 160.46 459.28 160.887L457.54 161.547C457.18 160.867 456.78 160.207 456.34 159.567H454.92ZM447.18 161.847H449V167.067C448.96 170.68 447.853 173.313 445.68 174.967L444.28 173.747C446.173 172.333 447.14 170.107 447.18 167.067V161.847ZM443.82 163.587H445.64V170.247H443.82V163.587ZM454.48 163.747H449.92V162.007H460.88V163.747H456.28V165.247H460.14V170.967C460.14 172.287 459.527 172.947 458.3 172.947H457.24L456.78 171.267L457.74 171.327C458.18 171.327 458.4 171.073 458.4 170.567V166.907H456.28V175.027H454.48V166.907H452.44V173.127H450.74V165.247H454.48V163.747Z" fill="#525252"/>
<circle cx="422" cy="101.907" r="35" fill="#0067D1"/>
<path d="M434.881 94.8074L426.787 86.7137C426.679 86.6064 426.552 86.5212 426.411 86.4632C426.271 86.4052 426.121 86.3754 425.969 86.3755H412.094C411.48 86.3755 410.892 86.6191 410.459 87.0528C410.025 87.4865 409.781 88.0747 409.781 88.688V114.125C409.781 114.739 410.025 115.327 410.459 115.761C410.892 116.194 411.48 116.438 412.094 116.438H432.906C433.52 116.438 434.108 116.194 434.541 115.761C434.975 115.327 435.219 114.739 435.219 114.125V95.6255C435.219 95.4736 435.189 95.3232 435.131 95.1828C435.073 95.0425 434.988 94.9149 434.881 94.8074ZM427.125 90.3226L431.272 94.4692H427.125V90.3226ZM432.906 114.125H412.094V88.688H424.813V95.6255C424.813 95.9321 424.934 96.2262 425.151 96.4431C425.368 96.6599 425.662 96.7817 425.969 96.7817H432.906V114.125ZM426.324 107.065C427.007 105.981 427.266 104.683 427.052 103.42C426.838 102.157 426.166 101.017 425.165 100.218C424.163 99.4184 422.902 99.0162 421.623 99.0878C420.344 99.1594 419.136 99.6998 418.23 100.606C417.324 101.512 416.784 102.72 416.712 103.999C416.641 105.278 417.043 106.539 417.842 107.54C418.641 108.541 419.781 109.213 421.044 109.427C422.308 109.641 423.605 109.382 424.69 108.7L426.307 110.319C426.414 110.426 426.542 110.511 426.682 110.569C426.823 110.627 426.973 110.657 427.125 110.657C427.277 110.657 427.427 110.627 427.568 110.569C427.708 110.511 427.836 110.426 427.943 110.319C428.05 110.211 428.136 110.084 428.194 109.943C428.252 109.803 428.282 109.652 428.282 109.5C428.282 109.349 428.252 109.198 428.194 109.058C428.136 108.917 428.05 108.79 427.943 108.682L426.324 107.065ZM419.031 104.297C419.031 103.726 419.201 103.167 419.518 102.691C419.836 102.216 420.287 101.846 420.816 101.627C421.344 101.408 421.925 101.351 422.486 101.462C423.047 101.574 423.562 101.849 423.966 102.253C424.37 102.658 424.645 103.173 424.757 103.733C424.868 104.294 424.811 104.875 424.592 105.404C424.374 105.932 424.003 106.383 423.528 106.701C423.052 107.018 422.494 107.188 421.922 107.188C421.155 107.188 420.42 106.883 419.878 106.341C419.336 105.799 419.031 105.064 419.031 104.297Z" fill="white"/>
<path d="M1040.72 158.787V174.667H1038.86V173.427H1035.78V174.667H1033.92V158.787H1040.72ZM1035.78 171.587H1038.86V160.627H1035.78V171.587ZM1026.46 156.567H1028.38V159.927H1032.4C1032.4 166.727 1032.3 170.927 1032.1 172.527C1031.9 174.047 1030.9 174.807 1029.12 174.807C1028.88 174.807 1028.36 174.773 1027.56 174.707L1027.08 172.967C1027.84 173.033 1028.42 173.067 1028.82 173.067C1029.66 173.067 1030.16 172.6 1030.32 171.667C1030.42 170.8 1030.5 167.507 1030.54 161.787H1028.38V162.327C1028.31 168.167 1027.02 172.433 1024.52 175.127L1022.98 173.767C1025.26 171.407 1026.42 167.593 1026.46 162.327V161.787H1023.44V159.927H1026.46V156.567ZM1051.28 161.287C1050.4 159.673 1049.32 158.413 1048.06 157.507L1049.64 156.507C1051.32 157.68 1052.8 159.927 1054.1 163.247C1055.99 167.913 1058.46 171.227 1061.5 173.187L1060.32 174.687C1057.18 172.807 1054.56 169.2 1052.44 163.867L1052.3 163.487C1050.94 168.327 1048.24 172.067 1044.2 174.707L1043.06 173.087C1047.22 170.353 1049.96 166.42 1051.28 161.287ZM1063.78 158.627H1070.3C1071.7 158.627 1072.79 158.96 1073.58 159.627C1074.34 160.267 1074.72 161.133 1074.72 162.227C1074.72 163.027 1074.52 163.707 1074.12 164.267C1073.7 164.8 1073.15 165.193 1072.46 165.447C1073.4 165.633 1074.12 166.013 1074.6 166.587C1075.08 167.16 1075.32 167.933 1075.32 168.907C1075.32 170.333 1074.82 171.387 1073.84 172.067C1073 172.627 1071.82 172.907 1070.3 172.907H1063.78V158.627ZM1065.96 160.427V164.687H1069.72C1070.7 164.687 1071.42 164.513 1071.88 164.167C1072.32 163.807 1072.54 163.247 1072.54 162.487C1072.54 161.767 1072.32 161.247 1071.88 160.927C1071.45 160.593 1070.74 160.427 1069.76 160.427H1065.96ZM1065.96 166.467V171.107H1070C1070.89 171.107 1071.61 170.96 1072.16 170.667C1072.81 170.28 1073.14 169.68 1073.14 168.867C1073.14 168.027 1072.88 167.413 1072.38 167.027C1071.88 166.653 1071.11 166.467 1070.06 166.467H1065.96ZM1076.21 158.627H1078.83L1082.95 165.167L1087.07 158.627H1089.69L1084.03 167.207V172.907H1081.87V167.207L1076.21 158.627ZM1091.18 158.627H1097.5C1098.96 158.627 1100.11 158.953 1100.94 159.607C1101.82 160.327 1102.26 161.36 1102.26 162.707C1102.26 163.453 1102.06 164.12 1101.66 164.707C1101.2 165.347 1100.58 165.767 1099.8 165.967V166.007C1101.06 166.287 1101.78 167.127 1101.94 168.527L1102.18 170.807C1102.26 171.687 1102.54 172.387 1103.02 172.907H1100.66C1100.32 172.48 1100.12 171.853 1100.04 171.027L1099.86 169.247C1099.78 168.473 1099.52 167.9 1099.1 167.527C1098.67 167.18 1098.04 167.007 1097.22 167.007H1093.36V172.907H1091.18V158.627ZM1093.36 160.487V165.147H1097.22C1098.16 165.147 1098.88 164.94 1099.38 164.527C1099.84 164.127 1100.08 163.547 1100.08 162.787C1100.08 162 1099.85 161.42 1099.4 161.047C1098.93 160.673 1098.2 160.487 1097.2 160.487H1093.36Z" fill="#525252"/>
<circle cx="1063" cy="101.907" r="35" fill="#0067D1"/>
<path d="M1075.64 103.554C1075.88 101.756 1075.73 99.9281 1075.2 98.193C1074.67 96.4578 1073.78 94.8554 1072.58 93.4926C1071.39 92.1298 1069.91 91.0381 1068.26 90.2904C1066.61 89.5427 1064.81 89.1562 1063 89.1567C1059.62 89.1567 1056.38 90.5 1053.98 92.8911C1051.59 95.2822 1050.25 98.5252 1050.25 101.907C1050.25 105.288 1051.59 108.531 1053.98 110.922C1056.38 113.313 1059.62 114.657 1063 114.657M1058.75 99.0734H1058.76M1067.25 99.0734H1067.26" stroke="white" stroke-width="2.8" stroke-linecap="round" stroke-linejoin="round"/>
<path d="M1059.46 106.157C1060.39 107.063 1061.67 107.573 1063 107.573C1064.33 107.573 1065.61 107.063 1066.54 106.157M1067.25 111.823L1070.08 114.657L1075.75 108.99" stroke="white" stroke-width="2.8" stroke-linecap="round" stroke-linejoin="round"/>
<path d="M551 51.6045C551 44.9771 556.373 39.6045 563 39.6045H766C772.627 39.6045 778 44.9771 778 51.6045V94.6045C778 101.232 772.627 106.604 766 106.604H563C556.373 106.604 551 101.232 551 94.6045V51.6045Z" fill="#0067D1" fill-opacity="0.1" stroke="#0067D1" stroke-width="3" stroke-linecap="round" stroke-linejoin="round" stroke-dasharray="10 10"/>
<path d="M629.408 76.9025C627.836 77.6585 626.066 78.2465 624.098 78.6665L623.882 76.9745C625.994 76.5425 627.836 75.9665 629.408 75.2465V76.9025ZM627.914 63.4025C627.146 65.6105 626.36 67.4045 625.556 68.7845C626.168 68.6885 626.756 68.5805 627.32 68.4605L628.22 66.4625L629.804 67.0385C628.364 69.9545 627.2 72.0365 626.312 73.2845C627.296 73.0325 628.346 72.6785 629.462 72.2225V73.7525C627.65 74.4245 625.958 74.8685 624.386 75.0845L623.954 73.5725C624.242 73.4525 624.494 73.2965 624.71 73.1045C625.202 72.5045 625.832 71.4485 626.6 69.9365C624.86 70.2485 624.038 70.3985 624.134 70.3865L623.72 68.9105C623.984 68.8025 624.212 68.6045 624.404 68.3165C625.136 66.6845 625.784 64.8425 626.348 62.7905L627.914 63.4025ZM639.704 64.6625V68.2805H638.192V69.3605H631.55V68.2805H630.038V64.6625H633.854C633.626 64.0865 633.362 63.5345 633.062 63.0065L634.808 62.7185C635.06 63.2945 635.312 63.9425 635.564 64.6625H639.704ZM631.658 67.7945H638.048V66.2285H631.658V67.7945ZM632.792 74.0765C632.324 75.9125 631.646 77.5085 630.758 78.8645L629.336 77.9465C630.212 76.6385 630.836 75.2405 631.208 73.7525L632.792 74.0765ZM638.336 73.5905C639.08 75.0305 639.716 76.5185 640.244 78.0545L638.732 78.7205C638.144 76.9205 637.526 75.3725 636.878 74.0765L638.336 73.5905ZM632.612 79.2965L632.27 77.6765C632.822 77.7605 633.278 77.8025 633.638 77.8025C634.034 77.8025 634.232 77.5085 634.232 76.9205V72.5825H630.182V70.9625H639.542V72.5825H635.87V77.3345C635.87 78.6425 635.318 79.2965 634.214 79.2965H632.612ZM650.63 62.8085C652.91 65.3765 655.514 67.3925 658.442 68.8565L657.524 70.4945C656.504 69.9425 655.574 69.3665 654.734 68.7665V70.0445H645.266V68.7305C644.402 69.3545 643.448 69.9545 642.404 70.5305L641.504 68.8745C644.648 67.2545 647.27 65.2325 649.37 62.8085H650.63ZM654.248 68.4065C652.652 67.2065 651.236 65.8565 650 64.3565C648.788 65.8445 647.36 67.1945 645.716 68.4065H654.248ZM655.868 71.9705V79.4405H654.212V78.4685H645.788V79.4405H644.132V71.9705H655.868ZM645.788 76.8485H654.212V73.5725H645.788V76.8485ZM661.7 64.5185H666.38V62.8085H668.072V64.5185H672.068V65.4005C672.752 64.6805 673.382 63.9425 673.958 63.1865L675.218 64.1405C674.294 65.4005 673.238 66.5705 672.05 67.6505H675.956V69.2705H670.07C669.278 69.8345 668.522 70.3325 667.802 70.7645H674.966V72.2945H666.02L665.516 73.7885H674.102C673.982 76.3925 673.7 77.9525 673.256 78.4685C672.812 78.9485 671.948 79.1885 670.664 79.1885C669.92 79.1885 669.17 79.1465 668.414 79.0625L667.856 77.5685C668.924 77.6525 669.74 77.6945 670.304 77.6945C671.18 77.6945 671.738 77.5625 671.978 77.2985C672.158 77.0105 672.302 76.3385 672.41 75.2825H663.5L664.274 72.5465C662.954 73.1105 661.634 73.5905 660.314 73.9865L659.63 72.4565C662.414 71.6405 664.91 70.5785 667.118 69.2705H660.368V67.6505H666.38V66.0845H661.7V64.5185ZM669.512 67.6505C670.232 67.0865 670.85 66.5645 671.366 66.0845H668.072V67.6505H669.512ZM681.896 79.4585H680.258V71.1425C679.718 72.7385 679.064 74.1665 678.296 75.4265L677.594 73.6625C678.782 71.9825 679.646 70.0505 680.186 67.8665H677.918V66.2285H680.258V62.8625H681.896V66.2285H683.876V67.8665H681.896V68.8385C682.688 69.7145 683.522 70.7405 684.398 71.9165L683.444 73.3745C682.88 72.3785 682.364 71.5025 681.896 70.7465V79.4585ZM684.218 64.6805H688.484C688.244 64.0805 687.986 63.5585 687.71 63.1145L689.456 62.8265C689.696 63.3425 689.93 63.9605 690.158 64.6805H694.082V66.2465H689.15C688.274 67.7705 687.5 68.8865 686.828 69.5945C687.692 69.5585 688.664 69.4925 689.744 69.3965C690.188 68.7485 690.584 68.0945 690.932 67.4345L692.318 68.1725C690.518 71.7485 687.884 74.1845 684.416 75.4805L683.48 74.0585C685.472 73.3625 687.164 72.2885 688.556 70.8365C687.716 70.8845 686.498 70.9445 684.902 71.0165L684.56 69.6305C684.692 69.5945 684.8 69.5465 684.884 69.4865C685.52 69.0785 686.354 67.9985 687.386 66.2465H684.218V64.6805ZM690.05 76.0025C688.37 77.4905 686.408 78.6305 684.164 79.4225L683.228 77.9645C687.392 76.5965 690.518 73.9745 692.606 70.0985L694.028 70.8365C693.188 72.4085 692.216 73.7825 691.112 74.9585C692.396 76.0865 693.452 77.1605 694.28 78.1805L693.02 79.4405C692.264 78.3485 691.274 77.2025 690.05 76.0025Z" fill="#333333"/>
<path d="M610.256 211.813V218.797H608.546V218.041H601.508V218.797H599.816V211.813H610.256ZM601.508 216.385H608.546V213.415H601.508V216.385ZM604.118 202.417L603.488 203.461H610.112V204.829C609.104 206.233 607.904 207.445 606.512 208.465C608.432 209.413 610.682 210.085 613.262 210.481L612.506 212.029C609.578 211.525 607.076 210.661 605 209.437C602.84 210.673 600.338 211.561 597.494 212.101L596.738 210.571C599.306 210.151 601.556 209.443 603.488 208.447C602.66 207.823 601.904 207.127 601.22 206.359C600.524 207.091 599.75 207.763 598.898 208.375L597.782 207.043C599.558 205.831 601.1 204.157 602.408 202.021L604.118 202.417ZM602.246 205.207C603.026 206.119 603.932 206.911 604.964 207.583C606.068 206.839 607.052 205.987 607.916 205.027H602.39C602.342 205.075 602.294 205.135 602.246 205.207ZM624.656 202.957H630.704V204.181C630.164 206.029 629.588 207.739 628.976 209.311C630.248 211.123 630.89 212.593 630.902 213.721C630.902 214.753 630.68 215.479 630.236 215.899C629.744 216.319 628.778 216.529 627.338 216.529L626.834 214.819C627.446 214.891 627.962 214.927 628.382 214.927C628.79 214.891 629.048 214.795 629.156 214.639C629.252 214.507 629.312 214.201 629.336 213.721C629.312 212.593 628.628 211.123 627.284 209.311C627.86 207.979 628.418 206.365 628.958 204.469H626.294V218.779H624.656V202.957ZM615.206 203.749H618.608C618.464 203.221 618.302 202.735 618.122 202.291L619.868 202.003C620.012 202.471 620.162 203.053 620.318 203.749H623.738V205.369H615.206V203.749ZM614.864 208.663H617.078C616.814 207.847 616.49 207.091 616.106 206.395L617.654 205.837C618.014 206.641 618.356 207.583 618.68 208.663H620.318C620.762 207.715 621.14 206.737 621.452 205.729L623.018 206.269C622.67 207.229 622.334 208.027 622.01 208.663H623.846V210.301H614.864V208.663ZM623.108 211.597V218.437H621.47V217.573H617.42V218.473H615.764V211.597H623.108ZM617.42 215.989H621.47V213.145H617.42V215.989ZM644.87 218.617L644.438 217.015L646.004 217.051C646.484 217.051 646.724 216.733 646.724 216.097V204.523H639.956V202.939H648.38V216.565C648.38 217.933 647.702 218.617 646.346 218.617H644.87ZM633.584 205.135H635.24V218.779H633.584V205.135ZM636.59 201.967C637.418 202.939 638.15 204.007 638.786 205.171L637.256 205.981C636.596 204.757 635.858 203.647 635.042 202.651L636.59 201.967ZM657.146 215.989C655.442 216.829 653.48 217.501 651.26 218.005L651.044 216.295C653.36 215.827 655.394 215.185 657.146 214.369V215.989ZM655.688 202.723C654.788 204.811 653.87 206.503 652.934 207.799C653.654 207.727 654.344 207.637 655.004 207.529L656.12 205.495L657.668 206.071C656.108 208.879 654.782 210.943 653.69 212.263C654.926 211.963 656.126 211.591 657.29 211.147V212.713C655.238 213.457 653.318 213.955 651.53 214.207L651.08 212.641C651.392 212.497 651.65 212.329 651.854 212.137C652.43 211.561 653.174 210.553 654.086 209.113L651.242 209.491L650.81 207.907C651.086 207.799 651.332 207.583 651.548 207.259C652.496 205.735 653.336 204.013 654.068 202.093L655.688 202.723ZM665.804 202.939V216.475H667.244V218.131H656.732V216.475H658.208V202.939H665.804ZM659.882 216.475H664.13V213.559H659.882V216.475ZM659.882 211.939H664.13V208.987H659.882V211.939ZM659.882 207.385H664.13V204.577H659.882V207.385ZM675.092 216.529C673.34 217.165 671.3 217.693 668.972 218.113L668.738 216.421C671.162 216.025 673.28 215.503 675.092 214.855V216.529ZM673.49 202.705C672.578 204.925 671.66 206.731 670.736 208.123C671.444 208.051 672.146 207.961 672.842 207.853C673.298 207.025 673.706 206.275 674.066 205.603L675.596 206.197C674.036 209.029 672.722 211.111 671.654 212.443C672.746 212.203 673.904 211.867 675.128 211.435V212.911C673.076 213.691 671.186 214.201 669.458 214.441L668.99 212.839C669.302 212.695 669.566 212.527 669.782 212.335C670.334 211.783 671.054 210.805 671.942 209.401C671.582 209.461 671.12 209.527 670.556 209.599L669.116 209.815L668.666 208.249C668.942 208.129 669.188 207.907 669.404 207.583C670.328 205.951 671.144 204.115 671.852 202.075L673.49 202.705ZM675.956 203.083H684.344V211.867H675.956V203.083ZM682.652 210.265V204.703H677.63V210.265H682.652ZM679.016 213.361C678.14 215.461 677.126 217.261 675.974 218.761L674.516 217.717C675.704 216.301 676.706 214.609 677.522 212.641L679.016 213.361ZM682.472 212.641C683.744 214.573 684.74 216.283 685.46 217.771L684.002 218.779C683.306 217.243 682.334 215.485 681.086 213.505L682.472 212.641ZM686.936 202.759H703.064V204.397H695.972C695.816 205.081 695.63 205.711 695.414 206.287H702.218V218.815H700.562V218.059H689.492V218.815H687.836V206.287H693.686C693.926 205.675 694.106 205.045 694.226 204.397H686.936V202.759ZM689.492 216.475H691.544V207.853H689.492V216.475ZM693.146 216.475H696.854V214.531H693.146V216.475ZM698.456 216.475H700.562V207.853H698.456V216.475ZM693.146 213.073H696.854V211.201H693.146V213.073ZM693.146 209.725H696.854V207.853H693.146V209.725ZM712.262 210.931H710.714V209.329H715.484V210.931H713.936V215.359C714.68 215.191 715.394 215.011 716.078 214.819V216.421C714.458 216.865 712.784 217.237 711.056 217.537L710.642 215.899C711.362 215.803 711.902 215.725 712.262 215.665V210.931ZM719.282 218.599C718.634 218.599 718.052 218.125 717.536 217.177C716.96 216.049 716.546 214.561 716.294 212.713C716.078 211.129 715.934 209.191 715.862 206.899H710.3V205.243H715.826C715.802 204.571 715.79 203.521 715.79 202.093H717.446C717.446 203.533 717.458 204.583 717.482 205.243H720.92V206.899H717.518C717.59 209.563 717.758 211.771 718.022 213.523C718.382 215.575 718.802 216.643 719.282 216.727C719.558 216.691 719.858 215.641 720.182 213.577L721.532 214.675C720.884 217.291 720.134 218.599 719.282 218.599ZM718.958 202.075C719.618 202.807 720.206 203.533 720.722 204.253L719.534 205.081C719.138 204.445 718.556 203.689 717.788 202.813L718.958 202.075ZM707.114 202.291C708.242 203.179 709.178 204.067 709.922 204.955L708.752 206.143C708.08 205.303 707.138 204.409 705.926 203.461L707.114 202.291ZM704.684 207.511H708.734V214.927C709.202 214.459 709.634 214.003 710.03 213.559L710.48 215.359C709.46 216.451 708.392 217.405 707.276 218.221L706.628 216.691C706.928 216.427 707.078 216.133 707.078 215.809V209.149H704.684V207.511Z" fill="#333333"/>
<path d="M555.72 7.02225H557.56L557.34 10.7022L560.7 9.34225L561.28 11.0622L557.74 12.0222L560.16 14.7622L558.74 15.8822L556.64 12.8222L554.52 15.8822L553.1 14.7622L555.52 12.0222L552 11.0622L552.58 9.34225L555.94 10.7022L555.72 7.02225ZM563.273 23.1422L562.873 21.3622C563.393 21.4422 563.88 21.4822 564.333 21.4822C564.813 21.4822 565.053 21.2089 565.053 20.6622V16.4222C564.173 16.7689 563.447 17.0356 562.873 17.2222L562.393 15.3422C563.273 15.1422 564.16 14.8822 565.053 14.5622V10.2422H562.793V8.42225H565.053V4.92224H566.893V8.42225H568.853V10.2422H566.893V13.8022C567.52 13.5089 568.187 13.1689 568.893 12.7822V14.6422C568.373 14.9222 567.707 15.2556 566.893 15.6422V21.1422C566.893 22.4756 566.253 23.1422 564.973 23.1422H563.273ZM569.413 7.64225H574.093V4.96225H575.933V7.64225H580.613V9.46225H575.933V12.3222H579.853V14.0022C579.2 16.1089 578.127 17.9022 576.633 19.3822C577.887 20.3156 579.4 21.1289 581.173 21.8222L580.193 23.3822C578.313 22.5556 576.693 21.6089 575.333 20.5422C573.827 21.7156 571.987 22.6822 569.813 23.4422L568.913 21.8622C570.953 21.2089 572.647 20.3756 573.993 19.3622C572.433 17.8022 571.387 16.0489 570.853 14.1022H569.813V12.3222H574.093V9.46225H569.413V7.64225ZM572.633 14.1022C573.113 15.6622 574 17.0489 575.293 18.2622C576.493 17.0622 577.393 15.6756 577.993 14.1022H572.633ZM583.233 9.48225H590.833V4.86225H592.713V9.48225H600.333V11.3022H594.453C595.733 14.4222 597.893 17.2022 600.933 19.6422L599.653 21.2422C596.347 18.3089 594.033 15.0289 592.713 11.4022V23.3222H590.833V11.4422C589.367 15.4556 586.947 18.7489 583.573 21.3222L582.533 19.6222C585.547 17.4489 587.733 14.6756 589.093 11.3022H583.233V9.48225ZM595.973 4.88225C597.12 6.08225 598 7.12225 598.613 8.00225L597.093 9.08225C596.52 8.17558 595.653 7.08225 594.493 5.80225L595.973 4.88225ZM609.713 20.2822C607.82 21.2156 605.64 21.9622 603.173 22.5222L602.933 20.6222C605.507 20.1022 607.767 19.3889 609.713 18.4822V20.2822ZM608.093 5.54225C607.093 7.86225 606.073 9.74225 605.033 11.1822C605.833 11.1022 606.6 11.0022 607.333 10.8822L608.573 8.62225L610.293 9.26224C608.56 12.3822 607.087 14.6756 605.873 16.1422C607.247 15.8089 608.58 15.3956 609.873 14.9022V16.6422C607.593 17.4689 605.46 18.0222 603.473 18.3022L602.973 16.5622C603.32 16.4022 603.607 16.2156 603.833 16.0022C604.473 15.3622 605.3 14.2422 606.313 12.6422L603.153 13.0622L602.673 11.3022C602.98 11.1822 603.253 10.9422 603.493 10.5822C604.547 8.88891 605.48 6.97558 606.293 4.84225L608.093 5.54225ZM619.333 5.78225V20.8222H620.933V22.6622H609.253V20.8222H610.893V5.78225H619.333ZM612.753 20.8222H617.473V17.5822H612.753V20.8222ZM612.753 15.7822H617.473V12.5022H612.753V15.7822ZM612.753 10.7222H617.473V7.60224H612.753V10.7222Z" fill="#0067D1"/>
<path d="M555.22 147.324H557.06L556.84 151.004L560.2 149.644L560.78 151.364L557.24 152.324L559.66 155.064L558.24 156.184L556.14 153.124L554.02 156.184L552.6 155.064L555.02 152.324L551.5 151.364L552.08 149.644L555.44 151.004L555.22 147.324ZM567.973 145.224H569.893V163.664H567.973V159.104H562.093V157.284H567.973V154.544H563.013V152.704H567.973V150.044H562.553V148.224H567.973V145.224ZM572.653 145.224H574.573V148.224H579.973V150.044H574.573V152.704H579.533V154.544H574.573V157.284H580.293V159.104H574.573V163.664H572.653V145.224ZM582.773 163.444L582.373 161.664C582.893 161.744 583.38 161.784 583.833 161.784C584.313 161.784 584.553 161.511 584.553 160.964V156.724C583.673 157.071 582.947 157.338 582.373 157.524L581.893 155.644C582.773 155.444 583.66 155.184 584.553 154.864V150.544H582.293V148.724H584.553V145.224H586.393V148.724H588.353V150.544H586.393V154.104C587.02 153.811 587.687 153.471 588.393 153.084V154.944C587.873 155.224 587.207 155.558 586.393 155.944V161.444C586.393 162.778 585.753 163.444 584.473 163.444H582.773ZM588.913 147.944H593.593V145.264H595.433V147.944H600.113V149.764H595.433V152.624H599.353V154.304C598.7 156.411 597.627 158.204 596.133 159.684C597.387 160.618 598.9 161.431 600.673 162.124L599.693 163.684C597.813 162.858 596.193 161.911 594.833 160.844C593.327 162.018 591.487 162.984 589.313 163.744L588.413 162.164C590.453 161.511 592.147 160.678 593.493 159.664C591.933 158.104 590.887 156.351 590.353 154.404H589.313V152.624H593.593V149.764H588.913V147.944ZM592.133 154.404C592.613 155.964 593.5 157.351 594.793 158.564C595.993 157.364 596.893 155.978 597.493 154.404H592.133ZM602.733 149.784H610.333V145.164H612.213V149.784H619.833V151.604H613.953C615.233 154.724 617.393 157.504 620.433 159.944L619.153 161.544C615.847 158.611 613.533 155.331 612.213 151.704V163.624H610.333V151.744C608.867 155.758 606.447 159.051 603.073 161.624L602.033 159.924C605.047 157.751 607.233 154.978 608.593 151.604H602.733V149.784ZM615.473 145.184C616.62 146.384 617.5 147.424 618.113 148.304L616.593 149.384C616.02 148.478 615.153 147.384 613.993 146.104L615.473 145.184ZM629.213 160.584C627.32 161.518 625.14 162.264 622.673 162.824L622.433 160.924C625.007 160.404 627.267 159.691 629.213 158.784V160.584ZM627.593 145.844C626.593 148.164 625.573 150.044 624.533 151.484C625.333 151.404 626.1 151.304 626.833 151.184L628.073 148.924L629.793 149.564C628.06 152.684 626.587 154.978 625.373 156.444C626.747 156.111 628.08 155.698 629.373 155.204V156.944C627.093 157.771 624.96 158.324 622.973 158.604L622.473 156.864C622.82 156.704 623.107 156.518 623.333 156.304C623.973 155.664 624.8 154.544 625.813 152.944L622.653 153.364L622.173 151.604C622.48 151.484 622.753 151.244 622.993 150.884C624.047 149.191 624.98 147.278 625.793 145.144L627.593 145.844ZM638.833 146.084V161.124H640.433V162.964H628.753V161.124H630.393V146.084H638.833ZM632.253 161.124H636.973V157.884H632.253V161.124ZM632.253 156.084H636.973V152.804H632.253V156.084ZM632.253 151.024H636.973V147.904H632.253V151.024Z" fill="#0067D1"/>
<path d="M192.5 103.604L182.44 97.9355L182.561 109.482L192.5 103.604ZM134.51 105.209L183.511 104.698L183.49 102.698L134.49 103.209L134.51 105.209Z" fill="#979797"/>
<path d="M364.5 103.604L354.5 97.831V109.378L364.5 103.604ZM306.5 104.604H355.5V102.604H306.5V104.604Z" fill="#979797"/>
<path d="M579 71.9067L569 66.1332V77.6802L579 71.9067ZM482 104.907H514.747V102.907H482V104.907ZM525.747 93.9067V81.9067H523.747V93.9067H525.747ZM534.747 72.9067H570V70.9067H534.747V72.9067ZM525.747 81.9067C525.747 76.9362 529.776 72.9067 534.747 72.9067V70.9067C528.671 70.9067 523.747 75.8316 523.747 81.9067H525.747ZM514.747 104.907C520.822 104.907 525.747 99.9819 525.747 93.9067H523.747C523.747 98.8773 519.717 102.907 514.747 102.907V104.907Z" fill="#979797"/>
<path d="M581 208.907L571 214.68V203.133L581 208.907ZM482 102.907H514.747V104.907H482V102.907ZM525.747 113.907V198.907H523.747V113.907H525.747ZM534.747 207.907H572V209.907H534.747V207.907ZM525.747 198.907C525.747 203.877 529.776 207.907 534.747 207.907V209.907C528.671 209.907 523.747 204.982 523.747 198.907H525.747ZM514.747 102.907C520.822 102.907 525.747 107.832 525.747 113.907H523.747C523.747 108.936 519.717 104.907 514.747 104.907V102.907Z" fill="#979797"/>
<path d="M1012 105.604L1002 99.831V111.378L1012 105.604ZM740.5 209.604H926.032V207.604H740.5V209.604ZM937.032 198.604V115.604H935.032V198.604H937.032ZM946.032 106.604H1003V104.604H946.032V106.604ZM937.032 115.604C937.032 110.634 941.062 106.604 946.032 106.604V104.604C939.957 104.604 935.032 109.529 935.032 115.604H937.032ZM926.032 209.604C932.107 209.604 937.032 204.68 937.032 198.604H935.032C935.032 203.575 931.003 207.604 926.032 207.604V209.604Z" fill="#979797"/>
<path d="M1012 105.907L1002 111.68V100.133L1012 105.907ZM741 70.9067H926.111V72.9067H741V70.9067ZM937.111 81.9067V95.9067H935.111V81.9067H937.111ZM946.111 104.907H1003V106.907H946.111V104.907ZM937.111 95.9067C937.111 100.877 941.141 104.907 946.111 104.907V106.907C940.036 106.907 935.111 101.982 935.111 95.9067H937.111ZM926.111 70.9067C932.186 70.9067 937.111 75.8316 937.111 81.9067H935.111C935.111 76.9362 931.082 72.9067 926.111 72.9067V70.9067Z" fill="#979797"/>
</svg>
