<svg xmlns="http://www.w3.org/2000/svg" width="149" height="40" viewBox="0 0 149 40" fill="none">
<path d="M134.5 24.5L148.2 18.9V5.3C148.2 2.4 145.8 0 142.8 0C139.8 0 137.4 2.4 137.4 5.3C137.4 6.6 137.9 7.8 138.7 8.7L128.6 13.1C128.2 13.3 128 13.4 127.8 13.4C127.6 13.4 127.5 13.3 127.4 13.3C127.3 13.2 127.1 13 126.9 12.6C125.7 10.2 123.8 8.4 121.4 7.1C118.6 5.5 115.4 4.7 111.8 4.7C108.4 4.7 105.4 5.3 102.8 6.5C100.1 7.7 98 9.5 96.5 11.9C94.9 14.3 94.1 17.2 94.1 20.5V33.5L84 18.1C83.1 16.7 82.6 16 82.3 15.2C82 14.5 81.8 13.8 81.7 13.1C81.6 12.3 81.6 11.4 81.6 9.7V3.1H66.7V9.7C66.7 11.4 66.7 12.3 66.6 13.1C66.5 13.8 66.3 14.5 66 15.2C65.7 16 65.2 16.7 64.3 18.1L54 33.5V17.5C54 12.9 52.7 9.3 50.2 6.9C47.6 4.4 43.9 3.2 39.2 3.2C36.1 3.2 33.4 3.9 31 5.4C29.2 6.5 27.8 7.9 27 9.6C26.7 10.2 26.6 10.5 26.5 10.5C26.4 10.6 26.3 10.6 26.2 10.5C26.1 10.5 25.9 10.2 25.6 9.6C24.8 8.2 23.6 7.1 22.1 6.1C19.9 4.8 17.2 4.1 14.1 4.1C9.5 4.1 6 5.3 3.6 7.8C1.2 10.3 0 13.7 0 18.1V39.9H49.8H54H66.4L71.9 30.4C72.6 29.2 72.9 28.7 73.3 28.5C73.7 28.3 74.1 28.3 74.5 28.5C74.9 28.7 75.3 29.3 75.9 30.4L81.4 39.9H94.1H98.3H148.1V26.8H146L145 25C144.7 24.5 144 24.5 143.7 25L142.6 26.8H140L138.9 25C138.6 24.5 137.9 24.5 137.6 25L136.5 26.8H134.9C133.1 26.8 132.3 26.8 132 26.6C131.8 26.4 131.7 26.1 131.8 25.8C132 25.5 132.8 25.2 134.5 24.5ZM142.8 3.5C143.8 3.5 144.6 4.3 144.6 5.3C144.6 6.3 143.8 7.1 142.8 7.1C141.8 7.1 141 6.3 141 5.3C141 4.3 141.8 3.5 142.8 3.5ZM18.4 23.7H20.9C20.4 25.3 19 26.5 17.2 26.5C15.1 26.5 13.4 24.8 13.4 22.7V21.3C13.4 20.1 13.7 19.2 14.4 18.6C15 18 16 17.7 17.3 17.7C18.6 17.7 19.5 18 20.1 18.6C20.6 19.1 20.9 19.8 21 20.7H18.4C17.6 20.7 16.9 21.4 16.9 22.2C16.9 23 17.6 23.7 18.4 23.7ZM29.5 28.1C29.3 28.3 29 28.5 28.8 28.7C28.3 29 27.7 29.2 27.1 29.2C26.5 29.2 25.9 29.1 25.4 28.8C25.1 28.7 24.9 28.5 24.6 28.3C24.3 28 24.4 27.5 24.7 27.2C25.1 26.9 25.6 27.1 25.9 27.3C25.9 27.3 26 27.3 26 27.4C26.3 27.5 26.6 27.6 26.9 27.6C27.2 27.6 27.5 27.5 27.8 27.3L27.9 27.2C28.3 26.9 28.7 26.8 29.1 27C29.7 27.3 29.8 27.8 29.5 28.1ZM40.4 20.8H37.8C37 20.8 36.3 21.5 36.3 22.3C36.3 23.1 37 23.8 37.8 23.8H40.2C39.7 25.4 38.3 26.6 36.5 26.6C34.4 26.6 32.7 24.9 32.7 22.8V20.5C32.7 18.1 34 16.9 36.6 16.9C37.9 16.9 38.9 17.2 39.5 17.8C40.1 18.4 40.3 19.2 40.3 20.5V20.8H40.4ZM74.1 19.7C71.1 19.7 68.6 17.2 68.6 14.2C68.6 11.2 71.1 8.7 74.1 8.7C77.1 8.7 79.6 11.2 79.6 14.2C79.6 17.2 77.1 19.7 74.1 19.7ZM117.5 22.3C117.5 24.8 115.5 26.8 112.9 26.8C112.2 26.8 111.5 26.6 110.9 26.3L113.5 21.9C113.8 21.4 113.4 20.8 112.8 20.8H108.4C108.5 20 108.9 19.3 109.6 18.8C110.4 18.1 111.5 17.8 113 17.8C114.6 17.8 115.7 18.1 116.5 18.7C117.2 19.3 117.6 20.3 117.6 21.5V22.3H117.5Z" fill="currentColor"/>
<path d="M74.1 15.9C75.0942 15.9 75.9 15.0941 75.9 14.1C75.9 13.1059 75.0942 12.3 74.1 12.3C73.1059 12.3 72.3 13.1059 72.3 14.1C72.3 15.0941 73.1059 15.9 74.1 15.9Z" fill="currentColor"/>
</svg>