<svg width="141" height="147" viewBox="0 0 141 147" fill="none" xmlns="http://www.w3.org/2000/svg">
<path d="M84.2023 17.2223C79.3312 15.5986 76.7603 19.5902 76.0838 21.7889L71.5171 23.8186L68.4727 111.093C70.5023 120.429 77.606 136.801 82.1727 140.522C102.976 151.685 140.525 144.074 132.406 134.941C125.911 127.634 113.801 104.158 108.558 93.3334C103.484 84.2001 112.617 64.9186 114.139 62.889C115.662 60.8594 120.228 50.7112 113.632 48.1742C108.355 46.1445 102.3 55.447 99.9319 60.352C97.9023 58.3223 98.9171 29.9578 98.9171 27.3705C98.9171 24.8334 98.9171 20.2668 94.3504 19.7594C90.6971 19.3534 87.7541 22.2964 87.2467 23.8186C87.8132 22.1192 87.9816 18.4821 84.2023 17.2223Z" fill="black"/>
<path d="M8.71355 134.629C8.69155 134.656 8.67252 134.686 8.65677 134.718C7.93682 136.158 7.9144 137.506 8.51547 138.719C9.10174 139.902 10.2487 140.889 11.7319 141.717C14.6993 143.374 19.2366 144.512 24.2428 145.229C34.2629 146.664 46.4313 146.441 52.3468 145.069C52.873 144.947 53.2898 144.721 53.627 144.364C53.953 144.019 54.1776 143.579 54.3727 143.077C54.5428 142.64 54.7043 142.117 54.8879 141.523C54.9141 141.438 54.9407 141.352 54.9679 141.264C55.188 140.554 55.4503 139.728 55.81 138.765C57.2446 134.924 60.2548 128.838 68.3405 119.54C78.6007 107.74 82.414 89.5859 83.684 73.1393C84.636 60.8105 84.1616 49.338 83.8643 42.1482C83.765 39.7462 83.6855 37.8223 83.6855 36.5041C83.6855 32.1296 82.2921 29.4014 80.4719 27.795C78.8994 26.4074 77.0533 25.8971 75.6351 25.8492C75.7686 24.6385 75.756 23.5944 75.6521 22.7384C75.5333 21.7601 75.291 20.9925 74.9814 20.506C74.0458 19.0357 72.924 18.1061 71.7247 17.602C70.528 17.0991 69.2867 17.0335 68.1301 17.2376C66.4943 17.5263 64.9869 18.3626 63.9533 19.3297C63.8492 18.4591 63.5284 17.5226 62.9913 16.6963C62.088 15.3066 60.5447 14.1855 58.3225 14.1855C56.0806 14.1855 54.5059 15.3577 53.4687 16.8045C52.9124 17.5806 52.5035 18.4435 52.2172 19.2689C51.4613 17.1444 50.262 15.9503 48.919 15.4105C47.2468 14.7384 45.4871 15.138 44.3744 15.7738C43.6593 16.1824 42.9805 16.9979 42.4749 18.1566C41.9657 19.3237 41.6174 20.8706 41.5855 22.7959C41.581 23.0686 41.5755 23.4225 41.5688 23.8482C41.487 29.0417 41.237 44.9215 40.6961 54.2998C39.2762 51.473 37.5255 49.0618 35.6112 47.5304C34.4537 46.6044 33.2138 45.9822 31.9334 45.808C30.6417 45.6323 29.3465 45.9181 28.1081 46.7437C26.1117 48.0746 25.5046 49.9459 25.5644 51.7053C25.623 53.4338 26.3204 55.0648 26.9458 56.0493C34.9759 69.3024 34.6408 83.3242 33.4817 88.6457C28.2281 107.221 14.7835 127.041 8.71355 134.629Z" fill="black" stroke="white" stroke-linejoin="round"/>
<path d="M52.2335 20.7744C51.557 27.8781 50.4068 45.6374 51.2187 59.8448" stroke="white"/>
<path d="M63.397 20.7744C62.3822 21.2818 60.3525 29.5018 60.3525 58.3226" stroke="white"/>
<path d="M76.0822 25.8486C73.5452 25.8486 69.9933 28.7301 69.9933 38.1979C69.9933 47.6657 69.3168 58.2655 68.9785 62.382" stroke="white"/>
<path d="M41.0706 56.293C41.0706 61.8745 40.1572 73.7478 36.5039 76.5893" stroke="white"/>
<path d="M99.9318 60.3516C97.7331 62.7195 93.2341 68.4701 92.8281 72.5293" stroke="white"/>
<path d="M87.2472 23.8184C86.5706 31.2603 85.4205 48.3769 86.2324 57.3072" stroke="white"/>
<path d="M2 50.2041L8.5963 51.2189" stroke="#0067D1" stroke-width="3" stroke-linecap="round" stroke-linejoin="round"/>
<path d="M7.58203 72.0223L13.1635 69.9927" stroke="#0067D1" stroke-width="3" stroke-linecap="round" stroke-linejoin="round"/>
<path d="M11.6406 84.7075L16.7147 81.6631" stroke="#0067D1" stroke-width="3" stroke-linecap="round" stroke-linejoin="round"/>
<path d="M121.24 2.50781L113.629 8.5967" stroke="#0067D1" stroke-width="3" stroke-linecap="round" stroke-linejoin="round"/>
<path d="M133.418 17.2222L124.285 20.774" stroke="#0067D1" stroke-width="3" stroke-linecap="round" stroke-linejoin="round"/>
<path d="M139 49.6963H131.896" stroke="#0067D1" stroke-width="3" stroke-linecap="round" stroke-linejoin="round"/>
<path d="M125.3 74.5596L132.404 79.6336" stroke="#0067D1" stroke-width="3" stroke-linecap="round" stroke-linejoin="round"/>
<path d="M23.8184 2L28.8924 10.1185" stroke="#0067D1" stroke-width="3" stroke-linecap="round" stroke-linejoin="round"/>
<path d="M8.5957 25.3408L16.2068 29.4001" stroke="#0067D1" stroke-width="3" stroke-linecap="round" stroke-linejoin="round"/>
</svg>
