<svg width="160" height="153" viewBox="0 0 160 153" fill="none" xmlns="http://www.w3.org/2000/svg">
<path d="M96.689 149.141C95.5349 146.063 96.2081 130.868 96.689 123.656L109.191 122.694C109.03 126.541 108.998 134.811 110.152 137.119C111.306 139.427 113.198 139.043 113.999 138.562C129.002 131.638 130.829 144.332 129.867 151.545C126.02 152.026 98.1315 152.987 96.689 149.141Z" fill="black"/>
<path fill-rule="evenodd" clip-rule="evenodd" d="M107.747 58.2599C105.054 67.8769 97.6492 78.6159 94.2832 82.7832L104.862 107.788C109.67 101.537 131.79 82.7832 145.734 77.494C155.934 73.6254 155.12 68.926 153.068 66.5562C151.723 66.3831 149.079 66.4761 146.062 67.1757C142.86 67.9184 139.323 69.3256 136.544 71.734C136.272 71.9692 135.862 71.9398 135.627 71.6686C135.392 71.3973 135.421 70.9868 135.692 70.7517C138.684 68.1592 142.44 66.6813 145.768 65.9093C148.475 65.2816 150.958 65.1078 152.582 65.207C152.715 63.0853 151.191 61.2303 150.012 60.2871C148.546 60.1332 145.923 60.2215 143.057 60.8311C139.892 61.5044 136.534 62.7922 134.155 64.9887C133.891 65.2322 133.48 65.2157 133.236 64.9519C132.993 64.6882 133.009 64.2769 133.273 64.0334C135.894 61.6138 139.509 60.2568 142.787 59.5596C145.185 59.0495 147.459 58.881 149.112 58.9287C148.907 53.8084 142.886 53.4279 137.968 54.4386C137.953 54.4508 137.937 54.4624 137.921 54.4733C137.207 54.9492 135.052 56.4258 132.837 58.0617C130.598 59.7159 128.379 61.4748 127.475 62.53C127.241 62.8025 126.831 62.8341 126.558 62.6005C126.286 62.3668 126.254 61.9565 126.488 61.6839C127.507 60.4951 129.856 58.6477 132.065 57.0161C134.233 55.4145 136.343 53.9648 137.132 53.4369C140.029 50.7684 142.584 46.819 139.002 43.8345C135.103 40.5851 128.413 45.3411 124.208 49.4084C123.642 51.193 121.687 56.0027 120.55 58.7985L120.55 58.7985L120.55 58.7986L120.55 58.7987L120.55 58.8L120.548 58.8026L120.548 58.8045L120.548 58.8048C120.311 59.386 120.111 59.8798 119.965 60.2408C120.282 61.7413 120.594 64.0948 120.563 66.5631C120.53 69.1257 120.127 71.91 118.884 73.9818C118.699 74.2896 118.3 74.3895 117.992 74.2048C117.684 74.0201 117.584 73.6208 117.769 73.313C118.834 71.538 119.231 69.0329 119.263 66.5466C119.294 64.0776 118.964 61.7235 118.653 60.3246L118.61 60.1286L118.684 59.9422C118.84 59.553 119.079 58.9642 119.368 58.2544L119.37 58.25L119.37 58.2488L119.37 58.2485L119.37 58.2485C120.532 55.3891 122.489 50.5737 122.994 48.9329C123.027 48.8281 123.083 48.7374 123.155 48.6649C124.253 43.754 121.972 40.0633 118.326 40.4684C113.998 40.9492 111.113 46.2386 107.747 58.2599Z" fill="black"/>
<path fill-rule="evenodd" clip-rule="evenodd" d="M57.2178 58.2599C59.9106 67.8769 67.3157 78.6159 70.6816 82.7832L60.1029 107.788C55.2944 101.537 33.1753 82.7832 19.2306 77.494C9.03168 73.6255 9.84497 68.9263 11.8967 66.5564C13.2411 66.3832 15.8856 66.476 18.9035 67.1758C22.1061 67.9185 25.643 69.3257 28.422 71.7341C28.6932 71.9693 29.1037 71.9399 29.3389 71.6687C29.574 71.3974 29.5446 70.9869 29.2734 70.7518C26.2821 68.1593 22.5261 66.6814 19.1972 65.9095C16.4897 65.2816 14.0072 65.1079 12.3828 65.2072C12.2495 63.0857 13.7733 61.231 14.9522 60.2876C16.4176 60.1335 19.0413 60.2217 21.9084 60.8315C25.0739 61.5048 28.4315 62.7925 30.8111 64.989C31.0749 65.2325 31.4861 65.2161 31.7296 64.9523C31.9731 64.6885 31.9566 64.2773 31.6928 64.0338C29.0716 61.6141 25.4569 60.2571 22.1789 59.5599C19.7802 59.0497 17.5057 58.8813 15.8529 58.929C16.0572 53.8081 22.0796 53.4278 26.9978 54.4388C27.0129 54.4509 27.0286 54.4624 27.045 54.4733C27.7587 54.9492 29.9139 56.4258 32.1283 58.0617C34.3675 59.7159 36.5863 61.4748 37.4907 62.53C37.7243 62.8025 38.1347 62.8341 38.4072 62.6005C38.6798 62.3668 38.7114 61.9565 38.4777 61.6839C37.4587 60.4951 35.1094 58.6477 32.9008 57.0161C30.7305 55.4128 28.6178 53.9618 27.8313 53.4353C24.9348 50.7668 22.3818 46.8184 25.9625 43.8345C29.8622 40.5847 36.553 45.3422 40.7586 49.4097C41.325 51.1954 43.2794 56.0034 44.4157 58.7985L44.4157 58.7987L44.4163 58.8L44.4173 58.8026L44.4181 58.8045L44.4182 58.8048C44.6545 59.386 44.8552 59.8798 45.0005 60.2408C44.6842 61.7413 44.3716 64.0948 44.4029 66.5631C44.4354 69.1257 44.8392 71.91 46.0823 73.9818C46.267 74.2896 46.6662 74.3895 46.9741 74.2048C47.2819 74.0201 47.3817 73.6208 47.197 73.313C46.132 71.538 45.7344 69.0329 45.7028 66.5466C45.6714 64.0776 46.0016 61.7235 46.3125 60.3246L46.356 60.1286L46.2815 59.9422C46.1258 59.553 45.8865 58.9642 45.598 58.2544L45.5962 58.25L45.5958 58.2488L45.5956 58.2485L45.5956 58.2485C44.4335 55.3891 42.4764 50.5737 41.9715 48.9329C41.9391 48.8275 41.8824 48.7364 41.8093 48.6637C40.7126 43.7534 42.9933 40.0633 46.6391 40.4684C50.9668 40.9492 53.8519 46.2386 57.2178 58.2599Z" fill="black"/>
<path d="M104.863 83.2642H62.0677C59.7596 87.4956 59.1826 112.275 59.1826 124.136C66.8762 126.829 96.0478 125.258 109.672 124.136L104.863 83.2642Z" fill="white" stroke="black" stroke-width="3" stroke-linecap="round"/>
<path d="M55.8165 139.042C59.2787 137.504 59.5031 128.143 59.1825 123.655C60.721 125.194 66.8762 125.579 69.7615 125.579C70.1196 127.011 70.5054 141.605 70.6863 150.211C70.708 151.242 69.9438 152.117 68.9169 152.208C58.7247 153.102 42.7191 152.479 35.6211 152.025C34.8518 150.871 34.3387 148.018 34.1783 146.736C33.7936 133.657 44.2762 135.677 50.0463 139.042C51.4889 139.884 52.3544 140.581 55.8165 139.042Z" fill="black"/>
<path d="M98.1309 50.5663C98.1309 59.33 91.7729 66.4344 82.7437 66.4344C73.7144 66.4344 67.3564 59.33 67.3564 50.5663C67.3564 41.8026 73.7144 34.6982 82.7437 34.6982C91.7729 34.6982 98.1309 41.8026 98.1309 50.5663Z" fill="white" stroke="black" stroke-width="3"/>
<path d="M85.5903 52.4896C85.5903 54.1137 85.2393 55.2162 84.7809 55.8815C84.341 56.5201 83.7952 56.7789 83.2244 56.7789C82.6535 56.7789 82.1077 56.5201 81.6678 55.8815C81.2094 55.2162 80.8584 54.1137 80.8584 52.4896C80.8584 50.8654 81.2094 49.7629 81.6678 49.0976C82.1077 48.459 82.6535 48.2002 83.2244 48.2002C83.7952 48.2002 84.341 48.459 84.7809 49.0976C85.2393 49.7629 85.5903 50.8654 85.5903 52.4896Z" stroke="black" stroke-width="2"/>
<circle cx="76.4933" cy="44.7961" r="1.44255" fill="black"/>
<circle cx="88.9953" cy="44.7961" r="1.44255" fill="black"/>
<path d="M145.736 29.4087C150.705 29.4087 158.238 25.081 153.911 15.9448C152.99 14.0014 149.583 14.2547 149.583 17.3874C149.583 21.715 160.162 19.7916 158.238 9.21289" stroke="#175DDC" stroke-width="3"/>
<path d="M92.3611 20.2723C91.7199 16.7461 92.0726 8.15489 98.6121 2" stroke="#175DDC" stroke-width="3"/>
<path d="M31.7744 3.92334C31.7744 8.251 33.0246 16.9063 38.0255 16.9063C44.2765 16.9063 43.4321 11.0036 39.9489 10.6552C35.1404 10.1744 33.6978 26.5233 47.1616 22.1957" stroke="#175DDC" stroke-width="3"/>
<path d="M1 11.6172C3.72482 11.7775 10.7132 13.5406 16.8681 19.3108" stroke="#175DDC" stroke-width="3"/>
<path d="M64.4719 16.9066L56.7783 9.69387L60.6251 5.36621L68.3187 13.5407L64.4719 16.9066Z" fill="#175DDC"/>
<path d="M127.463 18.8301L122.174 26.0428L126.021 29.8896L131.791 23.6386L127.463 18.8301Z" fill="#175DDC"/>
<ellipse cx="16.8679" cy="27.0042" rx="3.36595" ry="2.8851" fill="#175DDC"/>
<ellipse cx="135.638" cy="10.1745" rx="2.8851" ry="3.36595" fill="#175DDC"/>
</svg>
