<svg width="135" height="153" viewBox="0 0 135 153" fill="none" xmlns="http://www.w3.org/2000/svg">
<path d="M69.4224 15.6047C71.1067 2.69201 95.809 -1.47974 109.844 0.446427C119.388 1.75637 137.691 8.75529 134.547 26.2715C130.617 48.1667 113.774 44.2368 109.844 44.2368C105.914 44.2368 95.809 34.6927 85.7035 34.1313C75.598 33.5699 75.0366 35.8155 67.1768 28.5171L85.7035 17.8504C73.5769 24.5873 69.4224 19.5345 69.4224 15.6047Z" fill="black"/>
<path d="M111.528 6.06091C103.668 5.68664 87.4997 7.5206 85.7032 17.8506C85.1417 20.4706 85.8154 25.486 93.0016 24.5877" stroke="white"/>
<path d="M118.266 10.5518C110.406 10.926 94.462 14.1448 93.5638 24.0257C93.3766 26.6457 95.1357 31.5487 103.669 30.2013" stroke="white"/>
<path d="M125.564 16.1661C119.014 15.2304 105.465 16.7275 103.669 30.2015C103.856 33.1957 106.251 38.5105 114.336 35.8157C124.441 32.4472 130.617 21.7803 116.582 24.5874" stroke="white"/>
<path d="M61.624 27.5762C61.624 27.7781 61.7455 27.9602 61.9319 28.0378C63.8534 28.8375 67.2187 29.7845 71.1276 30.0609C75.0373 30.3374 79.5259 29.9452 83.6677 28.03C83.8446 27.9482 83.9578 27.7711 83.9578 27.5762V22.9033C83.9578 22.7235 83.8613 22.5576 83.705 22.4687C83.5488 22.3798 83.3568 22.3817 83.2023 22.4735C80.7255 23.946 72.947 26.1276 62.2879 22.4309C62.135 22.3779 61.9659 22.4021 61.8341 22.4959C61.7023 22.5897 61.624 22.7415 61.624 22.9033V27.5762Z" fill="#175DDC" stroke="black" stroke-linejoin="round"/>
<path d="M72.7909 24.526C75.7604 24.526 78.4633 24.273 80.4366 23.8575C81.4191 23.6507 82.2475 23.3982 82.8424 23.1021C83.1389 22.9545 83.4032 22.7836 83.5996 22.5814C83.7979 22.3774 83.9578 22.1078 83.9578 21.7803C83.9578 21.4528 83.7979 21.1833 83.5996 20.9793C83.4032 20.7771 83.1389 20.6062 82.8424 20.4586C82.2475 20.1625 81.4191 19.91 80.4366 19.7031C78.4633 19.2877 75.7604 19.0347 72.7909 19.0347C69.8215 19.0347 67.1186 19.2877 65.1453 19.7031C64.1627 19.91 63.3344 20.1625 62.7395 20.4586C62.4429 20.6062 62.1787 20.7771 61.9822 20.9793C61.7839 21.1833 61.624 21.4528 61.624 21.7803C61.624 22.1078 61.7839 22.3774 61.9822 22.5814C62.1787 22.7836 62.4429 22.9545 62.7395 23.1021C63.3344 23.3982 64.1627 23.6507 65.1453 23.8575C67.1186 24.273 69.8215 24.526 72.7909 24.526Z" fill="#175DDC" stroke="black"/>
<path d="M70.5459 18.9736C72.2301 20.4707 76.8338 22.679 81.7742 19.535L70.5459 18.9736Z" fill="black"/>
<path d="M24.3562 90.0356C32.9073 45.1464 88.5084 49.962 107.943 63.2052C115.786 53.2986 126.346 55.2937 130.646 57.5296C136.012 66.1979 126.69 76.6205 121.359 80.7482C125.074 93.5442 123.25 108.095 121.875 113.77C120.327 115.318 119.811 124.09 119.811 133.377V145.76C117.231 146.792 108.975 147.308 107.427 146.008C104.251 143.34 102.268 138.612 102.268 134.657C98.9654 136.308 94.5282 137.161 92.4643 137.505V149.372C86.2727 151.849 77.8452 150.404 74.4054 149.372V138.537C61.1966 140.601 52.0467 137.677 49.1229 135.957C48.2973 138.846 48.7789 141.977 49.1229 143.18C42.5185 147.308 32.9558 144.9 29.0001 143.18C32.7152 134.512 32.6118 125.81 32.0957 122.542C22.6019 110.984 22.2922 100.871 24.3562 90.0356Z" fill="white"/>
<path d="M102.268 134.657C98.9654 136.308 94.5282 137.161 92.4643 137.505V149.372C86.2727 151.849 77.8452 150.404 74.4054 149.372V138.537C61.1966 140.601 52.0467 137.677 49.1229 135.957C48.2973 138.846 48.7789 141.977 49.1229 143.18C42.5185 147.308 32.9558 144.9 29.0001 143.18C32.7152 134.512 32.6118 125.81 32.0957 122.542C22.6019 110.984 22.2922 100.871 24.3562 90.0356C32.9073 45.1464 88.5084 49.962 107.943 63.2052C115.786 53.2986 126.346 55.2937 130.646 57.5296C136.012 66.1979 126.69 76.6205 121.359 80.7482C125.074 93.5442 123.25 108.095 121.875 113.77C120.327 115.318 119.811 124.09 119.811 133.377C119.811 139.785 119.811 143.696 119.811 145.76C117.231 146.792 108.975 147.308 107.427 146.008C104.251 143.34 102.268 138.612 102.268 134.657ZM102.268 134.657C103.643 133.886 106.499 132.242 106.911 131.829" stroke="black" stroke-width="3" stroke-linejoin="round"/>
<path d="M126.002 105.515C126.002 111.784 121.436 116.35 115.167 116.35C108.898 116.35 104.848 111.784 104.848 105.515C104.848 99.2457 109.414 94.1636 115.683 94.1636C121.952 94.1636 126.002 99.2457 126.002 105.515Z" fill="white" stroke="black" stroke-width="3" stroke-linejoin="round"/>
<path d="M112.587 102.419V107.063" stroke="black" stroke-width="2" stroke-linecap="round" stroke-linejoin="round"/>
<path d="M118.778 102.419V106.547" stroke="black" stroke-width="2" stroke-linecap="round" stroke-linejoin="round"/>
<rect x="96.0762" y="84.876" width="3.09582" height="3.09582" rx="1.54791" fill="black"/>
<rect x="113.619" y="84.876" width="3.09582" height="3.09582" rx="1.54791" fill="black"/>
<path d="M107.428 120.478C109.492 120.822 114.135 121.304 116.199 120.478" stroke="black" stroke-width="3" stroke-linecap="round" stroke-linejoin="round"/>
<path d="M112.587 69.9132C114.135 67.6773 119.914 62.1737 130.646 58.0459" stroke="black" stroke-width="2.3" stroke-linejoin="round"/>
<path d="M65.1182 81.7807C64.0863 76.1051 63.7772 63.1026 74.9221 60.626C77.8461 60.626 84.6217 63.5154 88.3367 70.9454" stroke="black" stroke-width="2.3" stroke-linecap="round" stroke-linejoin="round"/>
<path d="M65.1172 81.7802C65.8051 76.7925 69.0386 66.6107 76.4685 65.7852C78.0164 65.9571 82.557 67.2299 88.3358 70.9449" stroke="black" stroke-width="2.3" stroke-linecap="round" stroke-linejoin="round"/>
<path d="M58.41 139.053C58.238 140.945 58.7196 144.728 62.0218 144.728C65.324 144.728 71.6533 144.728 74.4052 144.728" stroke="black" stroke-width="3" stroke-linejoin="round"/>
<path d="M19.6582 32.3528C24.1083 30.1506 27.5094 26.2811 29.1225 21.5853C29.2257 21.3014 30.9031 30.8367 36.5545 32.6753C36.5545 32.6753 29.716 35.9527 28.0967 42.4428C28.1031 42.5331 27.7096 37.2881 19.6582 32.3528Z" fill="#175DDC"/>
<path d="M22.457 63.0171C27.7809 60.2848 31.8451 55.4821 33.7624 49.6575C33.8843 49.308 35.881 61.1141 42.668 63.386C42.668 63.386 34.503 67.4444 32.5625 75.4737C32.5344 75.5805 32.0657 69.0949 22.457 63.0171Z" fill="#175DDC"/>
<path d="M0 51.314C3.53653 49.5584 6.23911 46.4804 7.52238 42.7464C7.5998 42.5142 8.93525 50.0882 13.4448 51.5462C13.4448 51.5462 8.01269 54.1268 6.72886 59.2879C6.6966 59.3718 6.38693 55.2106 0 51.314Z" fill="#175DDC"/>
</svg>
