<svg width="306" height="442" viewBox="0 0 306 442" fill="none" xmlns="http://www.w3.org/2000/svg">
<path d="M0.999831 329.501C-1.00017 347.901 15.1665 411.501 23.4998 441.001L219 441.5C224.167 442.5 237.2 439.9 248 421.5C261.5 398.5 274 389.5 292 376C310 362.5 297 312 297 302.5C297 294.9 303 282 306 276.5C296.5 252.167 276.8 198.8 274 180C271.2 161.2 257.5 156.5 251 156.5C272.5 138.5 221 94 218.5 72C216.5 54.4 197.333 28.0005 188 17.0007C170.167 2.66735 128.3 -15.2993 103.5 27.5007C78.7 70.3007 64.8333 138.667 61 167.501C49.4 168.301 40.8333 174.834 38 178.001C14.4 237.601 18.4999 286.167 23.4998 303.001C16.8332 304.167 2.99983 311.101 0.999831 329.501Z" fill="white"/>
<path d="M188.438 117.528C187.799 115.542 187.166 113.549 186.527 111.563C188.547 112.218 188.554 110.821 188.351 109.585C188.046 107.679 187.442 105.816 187.094 103.918C184.928 92.061 184.041 79.9422 179.884 68.4781C179.658 67.8525 179.905 67.0378 180.843 66.514C181.766 67.547 182.58 68.769 183.67 69.6274C185.364 70.9586 187.588 71.3805 189.419 70.4857C191.556 69.4383 190.103 67.4015 189.623 65.9757C188.315 62.0768 186.687 58.2942 185.247 54.4389C184.688 52.9477 183.627 51.5074 184.194 49.667C186.054 50.038 187.174 51.2964 188.024 52.4894C193.417 60.0764 199.217 67.3797 203.956 75.4395C208.164 82.59 209.959 90.7371 213.601 98.1058C218.536 108.079 222.591 118.437 226.734 128.745C227.061 129.567 228.122 130.716 227.032 131.313C225.658 132.069 225.36 130.381 224.786 129.589C220.36 123.544 215.992 117.455 211.529 111.432C210.882 110.552 210.337 108.864 208.891 109.512C207.801 109.999 208.36 111.476 208.44 112.516C209.094 121.216 209.552 129.923 209.24 138.645C208.876 148.567 207.037 158.082 201.267 166.491C199.973 168.375 198.977 170.477 197.996 172.55C197.4 173.808 196.964 175.256 199.282 175.241C196.484 179.315 192.865 182.697 189.761 186.531C183.467 194.3 178.982 203.109 173.945 211.62C169.156 219.716 164.366 227.797 158.908 235.494C155.005 240.993 151.828 247.009 148.311 252.784C147.831 253.57 147.504 254.916 146.355 254.545C144.975 254.101 145.512 252.726 145.723 251.715C148.521 238.229 151.262 224.728 154.205 211.278C155.979 203.182 156.349 194.991 156.553 186.764C156.909 186.815 157.396 187.04 157.599 186.88C162.098 183.476 167.39 181.301 171.489 177.176C173.24 175.416 173.771 173.597 174.12 171.633C174.396 170.048 173.858 168.389 171.373 169.735C169.396 170.804 167.535 172.324 165.086 172.31C166.685 170.797 168.291 169.284 169.89 167.771C170.529 167.414 171.176 167.058 171.816 166.701C172.921 166.243 174.164 165.974 175.108 165.29C180.857 161.151 186.556 156.925 192.254 152.706C195.139 150.567 196.484 147.912 196.484 144.086C196.477 138.347 194.405 133.255 192.726 127.996C192.952 126.832 193.257 125.682 193.381 124.511C193.788 120.925 192.021 118.481 188.438 117.528ZM174.978 167.916L174.818 168.142L175.079 168.178L174.978 167.916Z" fill="#007EFF" fill-opacity="0.33"/>
<path d="M280.533 294.334C278.956 301.128 283.898 306.075 285.504 311.967C286.747 316.542 286.805 321.176 286.936 325.911C287.118 332.516 285.81 338.867 285.214 345.341C284.589 352.193 281.296 357.998 277.945 363.737C276.586 366.072 274.34 367.621 271.629 368.342C267.138 369.535 264.02 372.561 260.727 375.725C250.792 385.276 243.807 397.184 234.729 407.389C232.89 409.455 231.553 411.914 229.678 414.009C222.896 421.603 214.138 422.665 204.777 421.829C203.105 421.676 202.153 420.468 201.201 419.079C196.68 412.46 191.701 406.16 184.724 401.97C180.806 399.621 176.642 397.686 172.768 395.227C170.936 394.063 170.638 393.205 171.489 391.204C175.784 381.093 183.43 377.842 195.612 380.977C201.252 382.424 206.979 383.356 212.808 381.93C215.984 381.151 218.383 379.58 218.87 376.045C219.124 374.212 220.084 373.23 221.981 373.179C229.343 372.968 236.59 371.317 244.025 371.63C250.697 371.913 255.051 365.839 253.35 359.169C251.62 352.382 246.394 348.621 240.965 345.195C237.927 343.275 234.38 342.22 231.923 339.318C228.98 335.848 229.372 332.269 233.217 329.817C234.235 329.17 235.318 328.625 236.408 328.094C240.718 325.999 241.823 326.646 243.131 331.323C243.938 334.218 245.05 336.997 245.522 340.016C245.915 342.555 248.197 343.711 250.443 344.366C256.344 346.083 262.304 347.603 268.221 349.291C271.295 350.171 272.661 349.611 273.861 346.083C276.303 338.896 277.437 331.549 278.491 324.129C279.174 319.321 278.89 318.964 274.064 318.572C274.878 317.415 276.179 317.059 277.386 316.578C282.125 314.68 282.532 313.494 280.765 308.737C279.014 304.016 279.057 299.164 280.533 294.334Z" fill="#007EFF" fill-opacity="0.33"/>
<path d="M199.297 175.248C196.978 175.263 197.407 173.815 198.01 172.557C198.992 170.483 199.987 168.381 201.281 166.497C207.059 158.088 208.898 148.574 209.254 138.652C209.574 129.93 209.109 121.223 208.455 112.523C208.375 111.483 207.823 110.006 208.905 109.518C210.352 108.871 210.89 110.566 211.544 111.439C215.999 117.462 220.375 123.55 224.801 129.595C225.382 130.388 225.68 132.076 227.047 131.319C228.13 130.723 227.076 129.566 226.749 128.751C222.599 118.437 218.55 108.085 213.615 98.1125C209.967 90.7438 208.179 82.604 203.97 75.4462C199.232 67.3864 193.432 60.0831 188.039 52.4961C187.188 51.2958 186.069 50.0447 184.208 49.6737C183.641 51.5141 184.702 52.9471 185.262 54.4456C186.701 58.3009 188.329 62.0907 189.638 65.9824C190.117 67.4082 191.571 69.4522 189.434 70.4924C187.602 71.3872 185.378 70.9653 183.685 69.6341C182.587 68.7684 181.773 67.5537 180.858 66.5207C179.913 67.0517 179.673 67.8664 179.898 68.4848C184.056 79.9416 184.942 92.0604 187.108 103.925C187.457 105.83 188.06 107.685 188.366 109.591C188.562 110.821 188.555 112.224 186.541 111.57C186.301 110.988 186.062 110.399 185.822 109.817C185.778 108.886 185.604 108.013 184.891 107.336L184.971 107.176L184.826 107.06C184.921 106.485 184.739 106.034 184.223 105.736C180.487 93.3043 174.149 82.0729 168.087 70.7107C166.212 67.1899 163.886 63.8438 162.535 60.134C159.707 52.3942 154.605 47.1059 147.264 43.6216C146.276 43.1487 143.703 43.2942 144.531 40.7483C145.563 40.7701 146.595 40.7919 147.635 40.8137C147.817 40.981 148.02 41.0392 148.26 40.9738C148.551 41.0538 148.841 41.1338 149.132 41.2065C149.634 41.3302 150.142 41.4539 150.644 41.5775C150.898 42.1158 151.334 42.3559 151.923 42.3559C152.279 42.5523 152.628 42.7487 152.984 42.9451C153.231 43.4906 153.66 43.7452 154.249 43.767C154.525 43.978 154.808 44.189 155.085 44.3999C155.295 44.5599 155.514 44.7127 155.724 44.8727C155.87 45.091 156.066 45.2073 156.32 45.2437C157.185 46.4876 158.523 46.9895 159.867 47.4842C159.874 47.4842 160.049 47.4696 160.049 47.4696L159.794 47.4623C160.514 44.6036 159.097 42.5668 157.207 40.7119C157.018 40.45 156.829 40.1881 156.64 39.9263C156.582 39.3152 156.313 38.8642 155.71 38.646C155.492 38.3914 155.274 38.1295 155.048 37.875C154.83 37.5767 154.612 37.2785 154.394 36.9802L154.467 37.0821C154.431 36.4638 154.22 35.94 153.646 35.6272L153.66 35.649C153.449 35.0307 153.239 34.4197 153.028 33.8014L153.079 33.6268L152.933 33.5104C153.188 31.8519 153.442 30.1861 153.696 28.5276C153.915 28.2585 154.133 27.982 154.351 27.7129C154.729 27.5238 155.106 27.3419 155.484 27.1528L155.739 27.051C156.168 26.8764 156.604 26.7018 157.04 26.5272L157.185 26.4981C159.111 26.3963 161.037 26.3017 162.971 26.1999C163.283 26.3235 163.603 26.4472 163.916 26.5636C165.907 27.7565 168.124 27.7929 170.9 28.2803C169.926 26.2799 168.8 25.3852 167.346 24.8032C167.07 24.5777 166.794 24.3522 166.518 24.1267C166.314 23.5011 165.856 23.232 165.224 23.2247L165.282 23.2538C164.919 22.6792 164.366 22.49 163.719 22.5191L163.487 22.3882C161.953 20.8606 160.013 20.2496 157.941 19.9295C157.454 19.8495 156.974 19.7695 156.487 19.6895C152.577 18.6493 148.667 18.642 144.764 19.6895C142.358 20.4387 140.178 21.9154 137.554 21.9736C136.878 21.7262 136.413 22.0172 136.064 22.5773L136.107 22.5555C135.73 22.7737 135.344 22.9847 134.966 23.2029C134.806 23.152 134.697 23.2029 134.654 23.3702C131.819 24.374 130.344 26.7964 128.73 29.0659L128.796 29.0223C128.527 29.2914 128.258 29.5605 127.989 29.8297L128.069 29.7497C127.807 30.0188 127.538 30.288 127.277 30.5571L127.328 30.4844C124.217 33.9542 121.128 37.4385 117.995 40.8865C115.597 43.527 112.508 45.5492 110.88 48.8808L110.8 48.9972C110.24 49.2227 109.906 49.6155 109.869 50.2338C109.375 50.8667 108.881 51.4995 108.387 52.1324C108.161 52.467 107.936 52.8016 107.711 53.1362L107.733 53.0998C107.064 53.4126 106.737 53.9727 106.635 54.6783C106.41 54.8238 106.301 55.0202 106.301 55.2894C104.287 57.1079 103.292 59.5666 102.136 61.9162C97.7461 70.827 94.9769 80.3199 92.6148 89.9C89.7075 101.706 85.005 112.945 82.0977 124.736C79.314 136.026 78.2674 147.606 76.2759 159.034C75.7962 161.805 76.6975 163.769 78.8925 165.639C81.6907 168.018 84.9541 169.596 87.8977 171.698C88.5664 172.171 89.4604 172.782 89.1551 173.706C88.7554 174.921 87.6869 174.172 86.9747 174.048C84.0092 173.539 80.9639 173.437 78.122 172.309L78.1366 172.317C77.6133 171.218 76.7193 170.665 75.5418 170.498L75.5055 170.462C70.8757 165.275 71.2318 159.347 72.918 153.215C73.5431 150.93 74.4589 148.668 73.703 146.224C73.7321 145.773 73.7611 145.322 73.7902 144.871C75.9198 143.125 75.2293 140.441 75.9198 138.23C82.0178 118.829 85.9862 98.8545 91.6045 79.3233C91.6626 79.076 91.728 78.8287 91.7862 78.5813C93.4288 74.2968 95.1514 70.0633 96.4742 65.6333C98.0586 60.3449 101.191 55.6822 104.28 51.0922L104.273 51.1067C106.7 48.5462 108.241 45.3819 110.146 42.465C110.327 42.1595 110.509 41.8539 110.691 41.5484C111.926 40.2754 113.191 39.0315 113.7 37.2494L113.685 37.2712C117.341 32.9212 120.997 28.5785 124.653 24.2286L124.631 24.2504C126.564 22.781 128.498 21.3043 130.438 19.835L130.402 19.8568C139.872 17.1871 149.306 14.0956 159.337 16.9253L159.307 16.9107C160.856 17.9437 162.585 18.3074 164.41 18.351H164.417C165.231 19.0712 166.198 19.2457 167.244 19.1075L167.353 19.1512C167.579 19.2457 167.804 19.3403 168.029 19.4276C180.676 29.1314 193.751 38.2969 199.602 54.3292C202.524 62.3381 204.021 70.8343 208.041 78.4577C211.682 85.3682 215.534 92.1913 218.718 99.3128C224.932 113.199 229.801 127.588 233.218 142.427C233.923 145.504 233.944 148.77 233.188 151.803C232.098 156.182 227.912 157.666 224.554 159.827C223.769 160.336 222.766 160.511 221.857 160.838C221.378 160.918 220.898 161.005 220.418 161.085C219.822 161.245 219.226 161.405 218.63 161.558C219.706 159.31 220.6 158.488 224.154 156.568C218.223 157.615 214.16 161.129 210.468 165.239C209.458 165.704 208.673 166.439 208.077 167.37C206.412 168.105 205.293 169.429 204.297 170.884L204.37 170.84C203.89 170.891 203.6 171.145 203.527 171.626L203.622 171.516C203.331 171.8 203.04 172.084 202.749 172.368C201.354 173.051 200.155 173.946 199.297 175.248Z" fill="#0067D1"/>
<path d="M78.1 172.281C80.9419 173.408 83.9872 173.517 86.9527 174.019C87.6722 174.143 88.7406 174.892 89.1331 173.677C89.4384 172.746 88.5444 172.142 87.8757 171.67C84.9321 169.567 81.6687 167.989 78.8705 165.61C76.6682 163.741 75.7742 161.777 76.2539 159.005C78.2381 147.585 79.292 135.997 82.0757 124.707C84.983 112.916 89.6855 101.677 92.5928 89.8714C94.9549 80.2912 97.7241 70.7984 102.114 61.8875C103.27 59.538 104.273 57.0793 106.279 55.2607C106.141 58.7233 103.64 61.1528 102.434 64.1353C101.787 65.7356 100.079 67.8305 101.453 69.1035C102.841 70.3911 104.316 68.0997 105.697 67.3214C107.369 66.3757 108.881 65.1536 110.502 64.1062C111.679 63.3424 113.024 63.0005 114.23 63.8879C115.328 64.6954 114.804 65.8811 114.463 66.8922C111.316 76.2904 110.08 86.1251 107.856 95.7271C106.606 101.117 104.716 106.362 103.502 111.752C102.557 115.957 101.802 120.241 101.184 124.489C100.224 131.014 96.8156 136.79 95.9507 143.191C95.1439 149.178 95.7181 155.245 99.0614 160.627C100.559 163.035 102.55 164.941 105.29 165.93C105.603 169.735 105.85 173.539 106.257 177.336C106.511 179.744 105.712 180.202 103.655 179.118C102.499 178.507 101.285 177.984 100.057 177.525C99.4176 177.293 98.5672 177.06 98.2474 178.005C98.0003 178.726 98.7198 179.017 99.1632 179.373C100.544 180.479 102.47 180.821 103.51 182.428C101.569 182.836 100.05 181.832 98.4364 180.995C93.0652 178.216 87.4542 176.107 81.5161 174.878C79.9825 174.579 78.289 174.368 78.1 172.281Z" fill="#007EFF" fill-opacity="0.33"/>
<path d="M44.2522 318.579C47.5156 319.11 50.4447 321.394 52.6179 324.799C54.6166 327.934 54.4495 330.938 52.1382 333.862C49.8196 336.801 47.7555 339.973 45.1971 342.693C42.2753 345.799 40.6617 349.276 40.9888 353.466C42.1154 368.044 40.7199 382.73 43.0239 397.257C43.4309 399.817 42.9876 402.189 40.3129 403.367C37.7981 404.473 35.9883 404.422 34.6873 401.178C31.7946 393.991 29.9993 386.433 26.9031 379.304C25.5512 376.198 26.0236 372.488 25.0134 369.077C22.6149 360.973 20.4998 352.797 16.9457 345.079C14.3655 339.485 16.5532 334.386 19.3878 329.752C21.2848 326.675 39.7605 318.652 44.2522 318.579Z" fill="#007EFF" fill-opacity="0.33"/>
<path d="M61.6521 196.03C62.2917 198.794 64.0361 198.103 65.8386 197.42C66.9143 197.012 68.2734 195.892 69.1311 197.114C70.0541 198.431 68.506 199.267 67.6047 199.929C62.8295 203.414 61.812 207.051 64.0869 213.139C68.0917 223.847 71.2534 234.976 72.2346 246.513C72.409 248.586 75.2654 250.623 73.1358 252.413C71.7839 253.547 69.2183 253.162 67.2559 253.671C62.0155 255.024 56.8406 256.312 52.4579 259.978C47.6899 263.971 45.9892 269.572 43.9832 274.897C42.217 279.567 38.503 282.848 36.5478 287.278C36.308 287.816 35.792 288.311 35.0942 287.947C34.3311 287.547 34.3601 286.739 34.3674 286.034C34.3965 281.56 34.3747 277.079 34.5418 272.613C34.8326 264.953 37.8416 257.919 39.6368 250.594C40.8724 245.553 43.4308 240.934 44.0123 235.704C44.1867 234.147 44.0777 233.107 42.5368 232.525C43.7288 225.898 47.5809 220.29 49.6524 213.998C50.0303 212.855 50.2992 211.03 51.9927 211.233C53.4681 211.408 53.6644 213.088 54.1295 214.31C55.118 216.9 55.2343 219.831 57.3712 223.003C57.015 215.787 56.7243 209.517 56.3827 203.246C56.121 198.86 57.1676 197.383 61.6521 196.03Z" fill="#007EFF" fill-opacity="0.33"/>
<path d="M254.513 236.432C254.295 237.392 254.084 238.352 253.866 239.312C252.718 242.287 253.946 245.953 251.221 249.132C250.756 246.885 250.421 245.277 250.087 243.669C250.036 243.204 249.985 242.731 249.934 242.265C249.971 241.545 250.087 240.818 250.029 240.105C249.2 231.1 248.895 222.021 248.633 213.023C248.343 202.941 250.072 192.779 251.882 182.777C252.275 180.609 252.028 179.242 250.218 177.787C245.733 174.164 240.784 171.466 235.325 169.793C230.085 168.192 225.375 163.821 219.248 166.461C222.933 162.184 227.09 161.216 232.338 163.857C239.991 167.712 248.103 170.513 256.207 173.27C258.256 173.968 259.521 175.03 259.456 177.394C259.397 179.351 260.073 181.162 260.837 182.966C264.5 191.608 264.936 201.05 267.501 209.968C268.57 213.671 268.868 217.57 270.445 221.134C270.503 221.621 270.569 222.109 270.627 222.596C270.467 223.578 270.554 224.524 270.99 225.426C270.634 230.612 272.8 235.304 274.036 240.156C274.53 242.113 274.014 244.651 276.274 245.983C276.427 246.448 276.587 246.914 276.739 247.386C277.146 251.315 277.459 255.264 278.564 259.083C278.862 260.109 279.523 261.455 278.324 261.993C277.052 262.568 276.536 261.055 276.042 260.182C271.644 252.42 267.312 244.63 262.952 236.846C260.807 233.027 260.088 228.517 257.086 224.32C255.792 228.706 254.92 232.511 254.513 236.432Z" fill="#0067D1"/>
<path d="M214.763 240.81C212.721 240.97 211.362 239.246 210.482 237.166C207.575 230.306 202.654 224.691 198.998 218.304C197.203 215.161 195.517 211.946 194.027 208.651C193.002 206.389 194.005 204.33 195.721 202.781C198.504 200.271 201.419 197.907 204.261 195.463C205.358 194.525 206.659 193.841 207.873 194.794C210.533 196.874 213.702 198.438 215.693 201.195C217.045 203.064 218.666 204.265 220.643 205.254C229.212 209.56 230.048 212.492 226.014 221.439C223.892 226.145 221.566 230.808 220.883 236.089C220.505 239.013 218.586 240.839 214.763 240.81Z" fill="#007EFF" fill-opacity="0.33"/>
<path d="M219.248 166.461C225.375 163.82 230.085 168.185 235.325 169.792C240.783 171.465 245.733 174.164 250.217 177.786C252.027 179.249 252.274 180.609 251.882 182.777C250.072 192.779 248.342 202.948 248.633 213.023C248.895 222.021 249.2 231.099 250.028 240.104C250.094 240.817 249.97 241.545 249.934 242.265C248.153 241.101 248.669 239.253 248.633 237.631C248.371 226.873 247.572 216.151 246.496 205.443C246.198 202.49 244.948 200.315 242.731 198.322C234.831 191.222 226.69 184.319 220.745 175.342C219.4 173.313 217.947 172.876 215.919 174.288C213.731 175.808 211.522 177.292 209.269 178.703C208.418 179.234 207.422 180.602 206.47 179.62C205.38 178.492 206.776 177.386 207.437 176.506C210.613 172.28 214.887 169.312 219.248 166.461Z" fill="#007EFF" fill-opacity="0.33"/>
<path d="M61.6519 196.03C57.1747 197.383 56.1281 198.86 56.3679 203.232C56.7168 209.502 57.0002 215.772 57.3564 222.988C55.2123 219.817 55.096 216.885 54.1148 214.296C53.6496 213.074 53.4534 211.393 51.9779 211.219C50.2844 211.015 50.0083 212.834 49.6376 213.983C47.5662 220.275 43.714 225.884 42.522 232.51C42.4421 232.707 42.3694 232.896 42.2895 233.092C41.519 233.5 41.3083 234.169 41.4027 234.984L41.4318 235.1C40.9303 235.449 40.7631 235.937 40.8722 236.526C40.8722 236.526 40.8431 236.729 40.8358 236.729C38.401 240.919 36.6857 245.378 35.6318 250.107C35.1812 250.201 34.7451 250.31 35.3338 250.841C33.9819 247.852 36.4095 245.117 35.9153 242.178C36.017 241.756 36.1261 241.334 36.2278 240.912C36.7075 240.461 36.8747 239.916 36.693 239.275L36.8456 239.166L36.7584 239.006C38.1902 233.914 40.3561 229.026 40.8722 223.694C40.9739 223.214 41.0684 222.727 41.1702 222.247C42.9145 218.457 43.5687 214.39 44.2373 210.324L44.39 210.179L44.3027 209.99C45.2621 208.797 45.7128 207.422 45.6982 205.894L45.7855 205.654C46.3669 205.152 46.5559 204.534 46.3742 203.792C46.4687 203.508 46.5559 203.232 46.6504 202.948C48.2566 201.384 48.7073 199.406 48.1839 197.354C47.3699 194.175 48.9689 192.364 51.3819 190.866C52.1814 190.371 52.9737 189.869 53.7732 189.374C53.7732 189.374 53.9258 189.294 53.9331 189.294C54.5291 189.324 54.9797 189.113 55.2413 188.552C56.288 188.625 57.0584 188.051 57.7997 187.425C59.6967 187.323 61.2812 186.53 62.6258 185.214C63.5707 185.279 64.3266 184.944 64.8862 184.181C66.398 184.232 67.8298 184.093 68.7601 182.66L68.8619 182.624C70.0757 182.675 71.115 182.297 71.9363 181.38C72.8667 181.526 73.6516 181.242 74.2694 180.529C74.8509 180.624 75.3451 180.5 75.6576 179.947C75.9702 180.245 76.2027 180.114 76.4063 179.809C77.0095 179.947 77.511 179.802 77.889 179.285C78.703 179.474 79.5243 179.663 80.3456 179.853C80.6145 180.42 81.087 180.66 81.6975 180.667L81.7193 180.624C81.9446 181.22 82.3807 181.54 83.0058 181.591C83.3764 182.377 84.0524 182.653 84.8664 182.711C86.3055 184.428 86.3346 185.694 83.9361 186.618C81.2687 187.643 78.6521 188.836 76.0865 190.109C72.6922 191.804 68.6802 191.753 65.4749 193.95L65.3804 193.957C63.6433 193.746 62.5967 194.75 61.7027 196.03H61.6519Z" fill="#0067D1"/>
<path d="M243.386 285.133C241.162 284.958 238.531 285.315 235.929 285.904C233.93 286.355 232.709 285.642 232.062 283.671C230.339 278.397 228.13 273.305 229.584 267.442C230.238 264.816 229.896 261.892 229.743 259.12C229.445 253.614 231.96 249.031 234.475 244.499C235.849 242.026 237.084 242.491 238.967 244.71C242.666 249.074 241.976 254.785 243.996 259.673C245.828 264.118 247.95 268.424 249.775 272.868C249.913 273.203 250.145 273.494 250.32 273.814C254.034 280.768 251.548 285.111 243.386 285.133Z" fill="#007EFF" fill-opacity="0.33"/>
<path d="M280.533 294.334C279.05 299.157 279.014 304.009 280.766 308.73C282.539 313.487 282.132 314.673 277.386 316.572C276.18 317.052 274.879 317.415 274.064 318.565C273.846 318.659 273.636 318.754 273.418 318.848C273.003 318.739 272.778 318.907 272.713 319.321C272.444 319.488 272.175 319.663 271.899 319.83C271.244 319.845 270.721 320.078 270.445 320.725L270.467 320.711C269.355 320.885 268.439 321.372 267.785 322.311C267.458 322.485 267.131 322.667 266.804 322.842C265.713 322.878 264.885 323.373 264.296 324.282H264.1L264.013 324.457C262.683 324.69 261.789 325.482 261.178 326.646C260.895 326.879 260.618 327.112 260.335 327.345C260.088 327.577 259.833 327.803 259.586 328.036C258.859 328.748 258.133 329.461 257.406 330.174C257.151 330.429 256.89 330.683 256.635 330.931C256.41 331.171 256.185 331.411 255.959 331.644C255.669 331.869 255.378 332.102 255.087 332.327C254.244 332.531 253.459 332.589 253.045 331.593C255.741 326.763 257.588 321.54 260.219 316.659C265.713 306.46 271.077 296.16 275.969 285.663C279.334 278.447 282.932 271.028 280.424 262.553C280.206 261.819 280.7 261.164 281.413 260.793C284.531 264.408 286.188 268.773 287.547 273.232C288.608 276.723 287.583 279.837 285.061 282.448C283.506 283.438 283.753 285.082 283.579 286.565L283.571 286.587C282.895 287.155 282.786 287.918 282.823 288.733L282.815 288.74C282.27 289.09 282.154 289.613 282.234 290.217C282.059 290.348 281.994 290.523 282.038 290.741C281.151 291.599 280.671 292.625 280.671 293.869C280.519 293.992 280.468 294.145 280.533 294.334Z" fill="#0067D1"/>
<path d="M103.495 182.442C102.463 180.835 100.537 180.5 99.1488 179.387C98.7054 179.031 97.9859 178.74 98.233 178.02C98.5528 177.081 99.4032 177.307 100.043 177.54C101.271 177.991 102.485 178.522 103.64 179.133C105.705 180.216 106.497 179.758 106.242 177.35C105.843 173.561 105.596 169.749 105.276 165.945C104.636 149.672 108.045 133.654 108.27 117.433C108.307 115.054 107.609 112.676 108.481 110.275C109.201 108.297 109.731 106.158 112.093 105.7C114.397 105.256 115.96 106.762 117.225 108.457C118.119 109.657 119.216 110.828 119.274 112.603C114.216 110.472 113.234 111.206 112.137 116.72C108.663 134.215 106.744 151.84 107.282 169.691C107.355 171.778 108.06 173.742 108.139 175.903C108.27 179.525 109.811 182.384 113.976 183.89C118.548 185.548 122.632 188.582 126.019 192.212C126.848 193.099 129.319 194.234 126.826 196.06C123.177 190.815 117.312 189.113 111.09 185.985C117.356 205.778 118.613 225.404 119.565 245.43C117.821 243.349 117.654 243.007 117.276 239.167C115.975 226.073 114.034 213.067 112.042 200.061C111.287 195.136 109.426 190.509 108.176 185.723C107.951 184.857 107.674 183.759 106.352 183.839C105.676 182.828 104.709 182.428 103.531 182.45L103.495 182.442Z" fill="#0067D1"/>
<path d="M281.427 260.8C280.715 261.171 280.22 261.826 280.438 262.56C282.946 271.035 279.348 278.454 275.983 285.67C271.092 296.167 265.728 306.467 260.233 316.666C257.602 321.547 255.756 326.777 253.059 331.6C252.063 329.417 252.659 327.09 253.532 325.3C255.698 320.885 257.689 316.389 260.095 312.061C265.764 301.841 272.516 292.152 276.332 280.949C277.131 278.593 276.695 276.505 275.787 274.279C270.961 262.531 265.044 251.307 259.564 239.879C258.583 237.828 257.602 235.507 254.513 236.424C254.92 232.503 255.792 228.699 257.086 224.312C260.095 228.51 260.814 233.02 262.951 236.839C267.312 244.615 271.651 252.413 276.041 260.174C276.535 261.047 277.051 262.56 278.323 261.986C279.515 261.447 278.854 260.102 278.563 259.076C277.458 255.257 277.146 251.307 276.739 247.379C278.382 248.87 278.614 251.023 278.948 252.944C279.435 255.715 280.46 258.232 281.427 260.8Z" fill="#007EFF" fill-opacity="0.33"/>
<path d="M89.2421 335.688C89.9253 340.088 90.9356 344.467 91.2117 348.897C91.5388 354.106 92.1857 359.285 93.6466 364.217C95.6599 370.989 95.7253 378.045 97.3388 384.846C97.913 387.283 97.3315 389.255 95.093 390.833C92.0403 392.986 89.213 395.445 86.2839 397.765C85.5208 398.362 84.6849 399.104 83.6747 398.609C82.5045 398.035 82.5917 396.863 82.7443 395.736C84.307 384.49 85.0629 373.142 86.3784 361.896C87.4105 353.175 86.4438 344.3 89.2421 335.688Z" fill="#007EFF" fill-opacity="0.33"/>
<path d="M174.178 354.739C169.483 354.855 168.705 353.953 170.333 349.407C172.107 344.453 173.466 339.361 177.303 335.273C180 332.399 180.639 328.108 182.951 324.798C188.743 316.491 193.969 307.791 200.307 299.869C201.906 297.869 204.45 296.894 205.86 294.69C206.172 294.203 206.652 293.555 207.314 293.963C208.091 294.443 207.793 295.243 207.452 295.898C206.165 298.356 204.937 300.844 203.527 303.23C198.374 311.944 193.606 320.863 188.78 329.759C184.695 337.295 181.214 345.1 177.267 352.694C176.591 353.997 175.712 354.811 174.178 354.739Z" fill="#007EFF" fill-opacity="0.33"/>
<path d="M140.679 331.542C139.465 320.827 139.778 309.697 139.756 298.568C139.756 297.6 139.698 296.626 139.8 295.665C139.909 294.683 139.429 293.17 141.014 293.098C142.184 293.039 142.249 294.363 142.598 295.243C145.374 302.147 146.167 309.515 147.787 316.695C149.198 322.936 150.07 329.272 151.676 335.462C152.134 337.223 151.916 338.481 150.44 339.943C148.798 341.58 147.846 343.922 146.654 345.988C145.869 347.349 144.866 348.403 143.201 348.069C141.595 347.749 141.326 346.301 141.268 344.941C141.086 340.598 139.923 336.314 140.679 331.542Z" fill="#007EFF" fill-opacity="0.33"/>
<path d="M114.208 298.306C113.002 308.984 112.042 319.19 112.369 329.505C112.784 342.664 116.272 354.928 121.774 366.799C124.885 373.499 128.185 380.075 131.754 386.534C133.273 389.277 134.465 392.208 135.766 395.067C136.253 396.136 137.052 397.497 135.584 398.224C134.145 398.937 133.491 397.591 132.909 396.493C130.242 391.474 127.524 386.476 124.9 381.428C118.547 369.193 112.856 356.725 110.414 342.984C107.936 329.032 109.171 315.269 112.115 301.565C112.355 300.488 112.457 299.193 114.208 298.306Z" fill="#0067D1"/>
<path d="M188.438 117.528C192.021 118.481 193.788 120.932 193.402 124.518C193.279 125.689 192.974 126.846 192.748 128.003C191.273 130.752 189.797 133.502 188.315 136.244C182.827 146.399 177.332 156.554 171.838 166.709C171.198 167.065 170.551 167.421 169.912 167.778C172.397 161.544 174.956 155.324 177.361 149.061C179.644 143.104 181.868 137.124 183.954 131.094C185.916 125.42 184.223 122.991 178.328 122.852C177.565 122.838 177.129 122.554 176.962 122.074C176.671 121.238 177.623 121.289 178.037 121.019C181.17 118.903 184.484 117.244 188.438 117.528Z" fill="#0067D1"/>
<path d="M126.826 196.081C129.319 194.255 126.848 193.121 126.019 192.233C122.632 188.596 118.547 185.57 113.976 183.911C109.811 182.398 108.27 179.547 108.139 175.924C108.059 173.764 107.354 171.8 107.282 169.712C112.747 168.57 115.633 173.218 119.667 175.262C120.51 175.692 121.149 176.535 122 176.935C129.631 180.543 132.117 186.923 131.71 194.866C131.637 196.263 132.015 198.183 130.307 198.591C128.665 198.969 127.48 197.638 126.826 196.081Z" fill="#007EFF" fill-opacity="0.33"/>
<!-- <path d="M204.624 244.012C194.986 248.129 185.342 252.246 175.704 256.378C173.589 257.287 171.459 258.058 169.163 258.363C162.897 259.207 159.641 255.374 161.567 249.38C162.149 247.569 164.017 244.812 166.023 242.826C166.241 243.066 166.001 249.496 166.023 249.744C166.604 255.985 170.145 256.285 176.309 254.575C184.086 252.415 191.519 245.474 199.325 243.415C200.815 243.022 202.393 242.935 203.926 242.702C204.159 243.139 204.391 243.575 204.624 244.012Z" fill="#0067D1"/> -->
<path d="M165.107 172.317C167.556 172.331 169.41 170.811 171.394 169.742C173.88 168.396 174.417 170.054 174.141 171.64C173.792 173.604 173.262 175.423 171.51 177.183C167.404 181.308 162.112 183.483 157.621 186.887C157.417 187.04 156.93 186.814 156.574 186.77C156.102 185.439 155.753 184.05 155.135 182.791C154.227 180.966 154.612 179.605 156.196 178.442C158.493 176.761 160.775 175.059 163.065 173.364C163.639 173.364 164.06 173.124 164.264 172.564C164.54 172.484 164.823 172.404 165.107 172.317Z" fill="#0067D1"/>
<path d="M189.456 432.631C186.091 432.835 183.634 430.369 181.039 428.565C179.033 427.168 179.346 423.007 180.996 420.912C183.052 418.301 185.24 417.617 188.104 419.858C189.892 421.254 192.123 422.033 193.722 423.778C194.921 425.095 197.029 426.193 195.764 428.237C194.405 430.412 193.003 432.98 189.456 432.631Z" fill="#007EFF" fill-opacity="0.33"/>
<path d="M238.305 314.92C236.365 315 234.642 314.724 233.581 312.869C232.527 311.021 234.09 309.799 234.468 308.264C235.921 302.307 240.609 300.008 245.443 297.746C246.715 297.15 248.742 296.699 248.139 298.743C246.678 303.711 246.373 309.203 242.434 313.255C241.22 314.506 239.904 315.015 238.305 314.92Z" fill="#007EFF" fill-opacity="0.33"/>
<path d="M128.905 250.769C126.826 246.724 126.826 243.015 125.968 239.53C123.941 231.332 121.971 223.12 120.023 214.9C119.761 213.801 118.867 212.31 120.241 211.605C121.658 210.877 122.131 212.689 123.003 213.394C126.295 216.064 127.008 220.035 127.589 223.796C128.861 232.031 129.784 240.33 129.559 248.703C129.537 249.132 129.29 249.561 128.905 250.769Z" fill="#007EFF" fill-opacity="0.33"/>
<path d="M91.5755 79.2939C85.9572 98.8252 81.9888 118.8 75.8908 138.2C75.193 140.412 75.8908 143.103 73.7612 144.842C72.9762 143.671 73.485 142.478 73.7975 141.336C78.3329 124.692 81.7416 107.751 87.0547 91.3036C88.3775 87.2228 88.9735 82.8947 91.5755 79.2939Z" fill="#007EFF" fill-opacity="0.33"/>
<path d="M128.475 294.225C128.374 305.376 125.35 316.084 123.315 327.359C121.542 322.95 125.263 298.415 128.475 294.225Z" fill="#007EFF" fill-opacity="0.33"/>
<path d="M110.851 48.8662C112.471 45.5346 115.56 43.5124 117.966 40.8718C121.099 37.4239 124.188 33.9395 127.298 30.4697C128.258 37.4966 122.545 40.7845 118.642 44.6981C116.803 46.553 113.838 48.1897 110.851 48.8662Z" fill="#007EFF" fill-opacity="0.33"/>
<path d="M104.258 51.0703C101.169 55.6603 98.0366 60.3231 96.4521 65.6114C95.1293 70.0414 93.4068 74.275 91.7642 78.5595C92.411 69.0667 96.5612 60.8687 101.315 52.9107C101.925 51.8705 102.95 51.1649 104.258 51.0703Z" fill="#007EFF" fill-opacity="0.33"/>
<path d="M65.4897 193.943C68.695 191.754 72.6998 191.797 76.1013 190.103C78.6597 188.822 81.2762 187.637 83.9509 186.611C86.3494 185.687 86.3203 184.421 84.8812 182.705C86.204 182.632 87.3233 182.959 87.6504 184.414C87.8902 185.447 87.4905 186.465 86.6329 186.953C80.0552 190.692 73.5065 194.554 65.4897 193.943Z" fill="#007EFF" fill-opacity="0.33"/>
<path d="M210.438 165.217C214.131 161.107 218.201 157.586 224.124 156.546C220.57 158.466 219.684 159.288 218.601 161.536C215.882 162.765 213.157 163.995 210.438 165.217Z" fill="#007EFF" fill-opacity="0.33"/>
<path d="M159.308 16.8966C149.278 14.0669 139.851 17.1584 130.373 19.8281C132.27 16.5838 135.919 17.3476 138.731 16.4238C144.233 14.6125 149.997 13.8851 155.804 15.2162C157.091 15.5072 158.414 15.7618 159.308 16.8966Z" fill="#007EFF" fill-opacity="0.33"/>
<path d="M73.6739 146.202C74.4298 148.646 73.514 150.901 72.8889 153.193C71.2027 159.325 70.8538 165.261 75.4764 170.44C73.6666 171.087 72.809 169.981 72.133 168.599C70.5122 165.304 69.6037 161.791 70.2579 158.168C71.0065 154.087 71.2972 149.832 73.6739 146.202Z" fill="#007EFF" fill-opacity="0.33"/>
<path d="M126.44 260.735C129.588 254.893 130.329 247.881 135.518 243.036C136.042 242.549 136.34 242.185 135.94 241.618C135.504 240.992 134.828 240.658 134.116 241.145C133.592 241.509 133.273 242.236 133.956 242.607C135.555 243.48 134.886 244.535 134.392 245.626C132.051 250.776 129.711 255.919 127.363 261.069C127.051 260.953 126.746 260.844 126.44 260.735Z" fill="#0067D1"/>
<path d="M276.274 245.989C274.013 244.651 274.537 242.112 274.035 240.163C272.799 235.311 270.626 230.619 270.99 225.433C273.294 232.147 275.423 238.904 276.274 245.989Z" fill="#007EFF" fill-opacity="0.33"/>
<path d="M124.631 24.1992C120.975 28.5492 117.319 32.8919 113.663 37.2418C115.662 31.5025 118.874 26.7816 124.631 24.1992Z" fill="#007EFF" fill-opacity="0.33"/>
<path d="M53.7733 189.36C52.9738 189.855 52.1816 190.357 51.3821 190.852C48.969 192.35 47.37 194.161 48.1841 197.34C48.7147 199.399 48.2568 201.37 46.6505 202.934C45.8728 200.134 46.1853 197.231 46.3162 194.431C46.4615 191.179 49.6813 189.288 53.7733 189.36Z" fill="#007EFF" fill-opacity="0.33"/>
<path d="M250.087 243.67C250.421 245.277 250.756 246.885 251.221 249.133C253.946 245.954 252.718 242.288 253.866 239.312C255.349 242.433 254.201 245.488 253.597 248.536C253.408 249.504 252.842 250.427 251.679 250.391C250.414 250.355 250.16 249.278 250.116 248.311C250.058 246.769 249.346 245.219 250.087 243.67Z" fill="#007EFF" fill-opacity="0.33"/>
<path d="M120.081 266.517C119.1 262.648 119.42 258.829 120.641 255.061C121.426 258.901 121.099 262.713 120.081 266.517Z" fill="#0067D1"/>
<path d="M40.8652 223.694C40.3491 229.026 38.1832 233.922 36.7514 239.007C35.6176 233.624 38.6338 229.004 39.5496 223.993C39.586 223.818 40.4073 223.789 40.8652 223.694Z" fill="#007EFF" fill-opacity="0.33"/>
<path d="M35.6318 250.115C36.6785 245.386 38.401 240.927 40.8358 236.737C40.5887 241.778 39.0915 246.325 35.6318 250.115Z" fill="#007EFF" fill-opacity="0.33"/>
<path d="M44.2376 210.324C43.5616 214.39 42.9075 218.457 41.1704 222.247C40.8506 217.926 39.8694 213.43 44.2376 210.324Z" fill="#007EFF" fill-opacity="0.33"/>
<path d="M110.124 42.4355C108.212 45.3525 106.679 48.5168 104.251 51.0773C105.094 47.4475 106.279 44.0359 110.124 42.4355Z" fill="#007EFF" fill-opacity="0.33"/>
<path d="M35.9083 242.178C36.4025 245.117 33.9749 247.859 35.3268 250.841C33.3281 251.678 32.9937 250.368 32.9719 248.892C32.9429 246.237 33.7714 243.909 35.9083 242.178Z" fill="#007EFF" fill-opacity="0.33"/>
<path d="M159.86 47.4846C158.515 46.99 157.185 46.4881 156.32 45.2442C158.319 44.0658 157.069 42.2472 157.207 40.7051C159.097 42.56 160.514 44.5968 159.794 47.4555L159.86 47.4846Z" fill="#007EFF" fill-opacity="0.33"/>
<path d="M167.339 24.8037C168.792 25.3856 169.919 26.2804 170.893 28.2808C168.116 27.7934 165.892 27.757 163.908 26.5641C165.18 26.2222 166.503 25.9894 167.339 24.8037Z" fill="#007EFF" fill-opacity="0.33"/>
<path d="M128.708 29.0512C130.329 26.7816 131.804 24.3593 134.632 23.3555C133.425 26.0542 131.659 28.171 128.708 29.0512Z" fill="#007EFF" fill-opacity="0.33"/>
<path d="M130.409 19.8055C128.476 21.2749 126.542 22.7516 124.602 24.221C125.43 21.2895 127.204 19.6091 130.409 19.8055Z" fill="#007EFF" fill-opacity="0.33"/>
<path d="M144.749 19.6821C148.659 18.6273 152.57 18.6419 156.473 19.6821C152.562 19.6821 148.652 19.6821 144.749 19.6821Z" fill="#007EFF" fill-opacity="0.33"/>
<path d="M157.926 19.915C159.998 20.2351 161.938 20.8461 163.472 22.3737C161.335 22.2137 159.191 22.0609 157.926 19.915Z" fill="#007EFF" fill-opacity="0.33"/>
<path d="M204.269 170.869C205.264 169.414 206.376 168.09 208.048 167.355C207.554 169.349 206.384 170.622 204.269 170.869Z" fill="#007EFF" fill-opacity="0.33"/>
<path d="M113.685 37.2207C113.176 38.9956 111.904 40.2468 110.676 41.5198C110.611 39.3375 111.308 37.6935 113.685 37.2207Z" fill="#007EFF" fill-opacity="0.33"/>
<path d="M164.381 18.3222C162.556 18.2785 160.826 17.9148 159.278 16.8819C161.088 16.9692 163.174 16.0672 164.381 18.3222Z" fill="#007EFF" fill-opacity="0.33"/>
<path d="M62.6259 185.206C61.2813 186.516 59.6968 187.308 57.7998 187.418C58.5557 184.806 60.5254 184.864 62.6259 185.206Z" fill="#007EFF" fill-opacity="0.33"/>
<path d="M45.6984 205.887C45.7057 207.414 45.2623 208.782 44.3029 209.982C42.8275 207.953 43.3581 206.614 45.6984 205.887Z" fill="#007EFF" fill-opacity="0.33"/>
<path d="M153.689 28.5205C153.435 30.179 153.18 31.8448 152.926 33.5033C151.741 31.6266 151.683 29.9172 153.689 28.5205Z" fill="#007EFF" fill-opacity="0.33"/>
<path d="M61.71 196.023C62.6039 194.75 63.6506 193.739 65.3877 193.95C65.0024 196.132 63.5415 196.409 61.71 196.023Z" fill="#007EFF" fill-opacity="0.33"/>
<path d="M103.51 182.472C104.687 182.45 105.661 182.85 106.33 183.861C104.665 184.879 103.975 183.912 103.51 182.472Z" fill="#007EFF" fill-opacity="0.33"/>
<path d="M204.624 244.011C204.392 243.575 204.159 243.138 203.927 242.702C204.152 241.8 204.668 241.807 205.09 242.469C205.431 243.015 205.846 243.822 204.624 244.011Z" fill="#007EFF" fill-opacity="0.33"/>
<path d="M261.192 326.646C261.803 325.482 262.697 324.689 264.027 324.456C263.7 325.984 262.675 326.609 261.192 326.646Z" fill="#007EFF" fill-opacity="0.33"/>
<path d="M162.956 26.2005C161.03 26.3023 159.104 26.3969 157.17 26.4987C159.031 25.022 160.972 25.1893 162.956 26.2005Z" fill="#007EFF" fill-opacity="0.33"/>
<path d="M283.586 286.572C283.76 285.081 283.521 283.444 285.069 282.455C285.141 284.034 284.771 285.452 283.586 286.572Z" fill="#007EFF" fill-opacity="0.33"/>
<path d="M68.7675 182.654C67.8372 184.087 66.4053 184.232 64.8936 184.174C65.664 182.341 67.2339 182.552 68.7675 182.654Z" fill="#007EFF" fill-opacity="0.33"/>
<path d="M267.792 322.31C268.446 321.372 269.362 320.877 270.474 320.71C270.089 322.092 269.035 322.354 267.792 322.31Z" fill="#007EFF" fill-opacity="0.33"/>
<path d="M280.686 293.876C280.686 292.632 281.165 291.606 282.052 290.748C282.212 292.065 281.812 293.127 280.686 293.876Z" fill="#007EFF" fill-opacity="0.33"/>
<path d="M75.5127 170.469C76.6901 170.629 77.5841 171.189 78.1074 172.287C76.7337 172.418 75.6871 172.062 75.5127 170.469Z" fill="#007EFF" fill-opacity="0.33"/>
<path d="M147.627 40.8067C146.588 40.7849 145.556 40.763 144.524 40.7412C145.578 39.7519 146.61 40.0356 147.627 40.8067Z" fill="#007EFF" fill-opacity="0.33"/>
<path d="M264.311 324.282C264.899 323.373 265.728 322.878 266.818 322.842C266.309 323.897 265.444 324.333 264.311 324.282Z" fill="#007EFF" fill-opacity="0.33"/>
<path d="M71.9436 181.373C71.1223 182.289 70.0829 182.66 68.8691 182.617C69.4942 181.213 70.6498 181.118 71.9436 181.373Z" fill="#007EFF" fill-opacity="0.33"/>
<path d="M167.208 19.0789C166.161 19.2098 165.194 19.0352 164.38 18.3224C165.442 18.1405 166.423 18.2496 167.208 19.0789Z" fill="#007EFF" fill-opacity="0.33"/>
<path d="M36.686 239.275C36.8677 239.916 36.7078 240.461 36.2209 240.912C35.4214 240.097 35.7702 239.61 36.686 239.275Z" fill="#007EFF" fill-opacity="0.33"/>
<path d="M46.3743 203.777C46.5561 204.519 46.3671 205.145 45.7856 205.64C45.2114 204.781 45.0879 204.054 46.3743 203.777Z" fill="#007EFF" fill-opacity="0.33"/>
<path d="M184.877 107.329C185.589 108.006 185.763 108.879 185.807 109.81C184.971 109.177 184.753 108.311 184.877 107.329Z" fill="#007EFF" fill-opacity="0.33"/>
<path d="M282.83 288.741C282.8 287.926 282.902 287.162 283.578 286.595C283.673 287.431 283.44 288.151 282.83 288.741Z" fill="#007EFF" fill-opacity="0.33"/>
<path d="M106.613 54.6566C106.715 53.951 107.042 53.3909 107.711 53.0781C107.674 53.8346 107.333 54.3802 106.613 54.6566Z" fill="#007EFF" fill-opacity="0.33"/>
<path d="M151.916 42.3633C151.327 42.3633 150.891 42.1233 150.637 41.585C151.058 41.8396 151.487 42.1014 151.916 42.3633Z" fill="#007EFF" fill-opacity="0.33"/>
<path d="M270.452 320.725C270.721 320.085 271.244 319.852 271.906 319.83C271.579 320.383 271.084 320.674 270.452 320.725Z" fill="#007EFF" fill-opacity="0.33"/>
<path d="M155.702 38.6387C156.298 38.8569 156.574 39.3152 156.632 39.9189C156.32 39.4898 156.015 39.0606 155.702 38.6387Z" fill="#007EFF" fill-opacity="0.33"/>
<path d="M220.396 161.064C220.876 160.984 221.356 160.896 221.836 160.816C221.421 161.304 220.949 161.435 220.396 161.064Z" fill="#007EFF" fill-opacity="0.33"/>
<path d="M154.234 43.7741C153.646 43.7523 153.217 43.4977 152.97 42.9521C153.391 43.2213 153.813 43.4977 154.234 43.7741Z" fill="#007EFF" fill-opacity="0.33"/>
<path d="M165.216 23.2178C165.849 23.2323 166.299 23.5015 166.51 24.1198C166.081 23.8215 165.645 23.516 165.216 23.2178Z" fill="#007EFF" fill-opacity="0.33"/>
<path d="M270.634 222.604C270.576 222.116 270.51 221.629 270.452 221.142C270.975 221.571 271.034 222.058 270.634 222.604Z" fill="#007EFF" fill-opacity="0.33"/>
<path d="M109.84 50.2122C109.883 49.5939 110.211 49.2011 110.77 48.9756C110.465 49.3902 110.152 49.8048 109.84 50.2122Z" fill="#007EFF" fill-opacity="0.33"/>
<path d="M41.3961 234.984C41.3016 234.169 41.5124 233.5 42.2828 233.093C42.2755 233.864 42.0139 234.511 41.3961 234.984Z" fill="#007EFF" fill-opacity="0.33"/>
<path d="M282.241 290.224C282.161 289.62 282.27 289.104 282.823 288.747C282.626 289.242 282.437 289.736 282.241 290.224Z" fill="#007EFF" fill-opacity="0.33"/>
<path d="M153.02 33.7939C153.231 34.4123 153.442 35.0233 153.653 35.6416C153.137 35.1324 152.948 34.5068 153.02 33.7939Z" fill="#007EFF" fill-opacity="0.33"/>
<path d="M136.049 22.5705C136.398 22.0104 136.863 21.7194 137.539 21.9667C137.037 22.1704 136.543 22.3668 136.049 22.5705Z" fill="#007EFF" fill-opacity="0.33"/>
<path d="M163.712 22.5125C164.359 22.4906 164.911 22.6725 165.275 23.2472C164.751 22.9998 164.228 22.7598 163.712 22.5125Z" fill="#007EFF" fill-opacity="0.33"/>
<path d="M153.638 35.6201C154.212 35.9329 154.423 36.4566 154.459 37.075C154.191 36.5876 153.914 36.1075 153.638 35.6201Z" fill="#007EFF" fill-opacity="0.33"/>
<path d="M203.498 171.611C203.571 171.123 203.861 170.876 204.341 170.825C204.058 171.087 203.782 171.349 203.498 171.611Z" fill="#007EFF" fill-opacity="0.33"/>
<path d="M134.952 23.1962C135.33 22.978 135.715 22.7671 136.093 22.5488C135.715 22.7671 135.337 22.978 134.952 23.1962Z" fill="#007EFF" fill-opacity="0.33"/>
<path d="M107.688 53.122C107.914 52.7874 108.139 52.4528 108.364 52.1182C108.132 52.4528 107.907 52.7874 107.688 53.122Z" fill="#007EFF" fill-opacity="0.33"/>
<path d="M83.0208 181.584C82.3885 181.533 81.9524 181.213 81.7344 180.616C82.1559 180.944 82.5848 181.264 83.0208 181.584Z" fill="#007EFF" fill-opacity="0.33"/>
<path d="M184.215 105.729C184.724 106.027 184.913 106.478 184.819 107.052C184.615 106.609 184.412 106.165 184.215 105.729Z" fill="#007EFF" fill-opacity="0.33"/>
<path d="M40.8655 236.533C40.7565 235.944 40.9164 235.457 41.4252 235.107C41.2362 235.58 41.0545 236.053 40.8655 236.533Z" fill="#007EFF" fill-opacity="0.33"/>
<path d="M81.7049 180.66C81.0944 180.66 80.6219 180.42 80.353 179.846C80.8037 180.115 81.2543 180.391 81.7049 180.66Z" fill="#007EFF" fill-opacity="0.33"/>
<path d="M127.247 30.5496C127.509 30.2805 127.778 30.0113 128.039 29.7422C127.778 30.0041 127.516 30.2732 127.247 30.5496Z" fill="#007EFF" fill-opacity="0.33"/>
<path d="M155.717 44.8801C155.506 44.72 155.288 44.5673 155.077 44.4072C155.288 44.56 155.499 44.72 155.717 44.8801Z" fill="#007EFF" fill-opacity="0.33"/>
<path d="M167.993 19.3985C167.768 19.3039 167.542 19.2094 167.317 19.1221C167.542 19.2166 167.768 19.3112 167.993 19.3985Z" fill="#007EFF" fill-opacity="0.33"/>
<path d="M272.713 319.321C272.778 318.906 273.011 318.739 273.418 318.848C273.185 319.008 272.953 319.168 272.713 319.321Z" fill="#007EFF" fill-opacity="0.33"/>
<path d="M157.025 26.5273C156.589 26.7019 156.16 26.8765 155.724 27.0511C156.16 26.8765 156.596 26.7019 157.025 26.5273Z" fill="#007EFF" fill-opacity="0.33"/>
<path d="M75.6651 179.94C75.3525 180.493 74.8583 180.617 74.2769 180.522C74.7348 180.326 75.1999 180.137 75.6651 179.94Z" fill="#007EFF" fill-opacity="0.33"/>
<path d="M55.2419 188.546C54.9802 189.099 54.5296 189.317 53.9336 189.288C54.3624 189.033 54.7985 188.786 55.2419 188.546Z" fill="#007EFF" fill-opacity="0.33"/>
<path d="M77.8968 179.278C77.5261 179.795 77.0173 179.94 76.4141 179.802C76.9083 179.627 77.4025 179.453 77.8968 179.278Z" fill="#007EFF" fill-opacity="0.33"/>
<path d="M259.601 328.036C259.848 327.803 260.102 327.578 260.349 327.345C260.102 327.578 259.848 327.81 259.601 328.036Z" fill="#007EFF" fill-opacity="0.33"/>
<path d="M256.65 330.93C256.904 330.676 257.166 330.421 257.42 330.174C257.166 330.428 256.904 330.683 256.65 330.93Z" fill="#007EFF" fill-opacity="0.33"/>
<path d="M149.117 41.2064C148.827 41.1264 148.536 41.0464 148.245 40.9736C148.543 41.0464 148.827 41.1264 149.117 41.2064Z" fill="#007EFF" fill-opacity="0.33"/>
<path d="M164.257 172.571C164.053 173.131 163.632 173.364 163.058 173.371C163.457 173.102 163.857 172.84 164.257 172.571Z" fill="#007EFF" fill-opacity="0.33"/>
<path d="M171.838 166.708C177.333 156.553 182.827 146.398 188.315 136.244C189.798 133.501 191.266 130.752 192.748 128.002C194.427 133.261 196.499 138.353 196.506 144.092C196.506 147.919 195.161 150.574 192.276 152.712C186.578 156.931 180.887 161.158 175.13 165.297C174.186 165.981 172.943 166.242 171.838 166.708Z" fill="white"/>
<path d="M174.977 167.916L175.079 168.178L174.817 168.142L174.977 167.916Z" fill="#0067D1"/>
<path d="M159.787 47.4551L160.042 47.4624C160.042 47.4624 159.867 47.477 159.86 47.477C159.86 47.4843 159.787 47.4551 159.787 47.4551Z" fill="#007EFF" fill-opacity="0.33"/>
</svg>
