<svg width="64" height="64" viewBox="0 0 64 64" fill="none" xmlns="http://www.w3.org/2000/svg">
<g clip-path="url(#clip0_849_2718)">
<rect x="4" y="4" width="56" height="56" rx="28" fill="url(#paint0_linear_849_2718)" shape-rendering="crispEdges"/>
<path d="M53.9701 35.6844C53.9701 36.5497 53.9701 36.9823 53.8315 37.3574C53.7091 37.6889 53.5098 37.9866 53.25 38.2262C52.956 38.4973 52.556 38.6622 51.7561 38.992L41.8822 43.0626C39.493 44.0476 38.2984 44.5401 38.1284 44.9991C37.9824 45.3936 38.0701 45.8367 38.3555 46.1458C38.6875 46.5053 39.9797 46.5053 42.564 46.5053L50.3925 46.5053C51.6448 46.5053 52.2709 46.5053 52.7492 46.749C53.17 46.9634 53.512 47.3054 53.7264 47.7262C53.9701 48.2045 53.9701 48.8306 53.9701 50.0829L53.9701 56.8872C53.9701 58.1395 53.9701 58.7656 53.7264 59.2439C53.512 59.6647 53.17 60.0068 52.7492 60.2211C52.2709 60.4648 51.6448 60.4648 50.3925 60.4648L0.577662 60.4648C-0.674637 60.4648 -1.30079 60.4648 -1.7791 60.2211C-2.19984 60.0068 -2.54191 59.6647 -2.75629 59.2439C-3 58.7656 -3 58.1395 -3 56.8872L-3 39.7141C-3 36.109 -2.16852 33.0278 -0.50555 30.4706C1.10378 27.9135 3.33001 26.0061 6.17315 24.7485C8.96265 23.4489 12.1277 22.7992 15.6682 22.7992C19.4769 22.7992 22.8565 23.6376 25.8069 25.3144C28.211 26.6465 30.063 28.4657 31.3629 30.772C31.7148 31.3962 31.8907 31.7084 32.0962 31.8535C32.2922 31.9918 32.4738 32.052 32.7136 32.0579C32.965 32.0641 33.2564 31.9347 33.8392 31.6759L53.9701 22.7363L53.9701 35.6844Z" fill="black"/>
<path d="M16.7948 46.2932C19.4612 46.2932 21.6228 44.1317 21.6228 41.4652L21.6228 40.7597C21.6228 39.4182 21.2472 38.4121 20.4962 37.7414C19.6916 37.0707 18.4577 36.7353 16.7948 36.7353C15.2927 36.7353 14.1126 37.0916 13.2543 37.8043C12.3959 38.475 11.9668 39.4602 11.9668 40.7597L11.9668 41.4652C11.9668 44.1317 14.1284 46.2932 16.7948 46.2932Z" fill="white"/>
<path d="M53.9699 23.4908C53.9699 26.6164 51.4362 29.1501 48.3107 29.1501C45.1851 29.1501 42.6514 26.6164 42.6514 23.4908C42.6514 20.3653 45.1851 17.8315 48.3107 17.8315C51.4362 17.8315 53.9699 20.3653 53.9699 23.4908Z" fill="black"/>
<path d="M50.1972 23.4908C50.1972 24.5326 49.3526 25.3772 48.3107 25.3772C47.2689 25.3772 46.4243 24.5326 46.4243 23.4908C46.4243 22.449 47.2689 21.6044 48.3107 21.6044C49.3526 21.6044 50.1972 22.449 50.1972 23.4908Z" fill="white"/>
<path d="M16.1746 40.1432C17.0353 40.1432 17.5732 41.0749 17.1429 41.8203L14.8147 45.8527C14.3844 46.5981 13.3086 46.5981 12.8782 45.8527L10.5501 41.8203C10.1198 41.0749 10.6577 40.1432 11.5183 40.1432L16.1746 40.1432Z" fill="black"/>
<path d="M52.3079 50.7508C53.1686 50.7508 53.7065 49.8191 53.2762 49.0738L50.948 45.0413C50.5177 44.2959 49.4419 44.2959 49.0115 45.0413L46.6834 49.0738C46.2531 49.8191 46.791 50.7508 47.6516 50.7508L52.3079 50.7508Z" fill="black"/>
<path d="M45.8729 50.7508C46.7335 50.7508 47.2714 49.8191 46.8411 49.0738L44.5129 45.0413C44.0826 44.2959 43.0068 44.2959 42.5765 45.0413L40.2483 49.0738C39.818 49.8191 40.3559 50.7508 41.2166 50.7508L45.8729 50.7508Z" fill="black"/>
</g>
<rect x="4.5" y="4.5" width="55" height="55" rx="27.5" stroke="#DEE6F2" shape-rendering="crispEdges"/>
<defs>
<linearGradient id="paint0_linear_849_2718" x1="32" y1="4" x2="32" y2="60" gradientUnits="userSpaceOnUse">
<stop stop-color="#45E8B7"/>
<stop offset="1" stop-color="#45E8B7" stop-opacity="0"/>
</linearGradient>
<clipPath id="clip0_849_2718">
<rect x="4" y="4" width="56" height="56" rx="28" fill="white"/>
</clipPath>
</defs>
</svg>
