<svg width="56" height="56" viewBox="0 0 56 56" fill="none" xmlns="http://www.w3.org/2000/svg">
<g clip-path="url(#clip0_849_2807)">
<mask id="mask0_849_2807" style="mask-type:luminance" maskUnits="userSpaceOnUse" x="0" y="0" width="56" height="56">
<path d="M55.4287 28C55.4287 12.536 43.1485 0 28.0001 0C12.8517 0 0.571533 12.536 0.571533 28C0.571533 43.464 12.8517 56 28.0001 56C43.1485 56 55.4287 43.464 55.4287 28Z" fill="white"/>
</mask>
<g mask="url(#mask0_849_2807)">
<path d="M55.4287 0H0.571533V56H55.4287V0Z" fill="url(#paint0_linear_849_2807)"/>
<path d="M6.2273 36.5693L35.8142 58.5133C39.8993 61.5431 45.617 60.6186 48.585 56.4484L70.0811 26.2451C73.0491 22.0749 72.1435 16.2381 68.0584 13.2083L38.4715 -8.73567C34.3864 -11.7655 28.6688 -10.841 25.7008 -6.67084L4.20461 23.5325C1.23661 27.7027 2.1422 33.5395 6.2273 36.5693Z" fill="#9747FF"/>
<path d="M23.6128 22.2676C26.8006 23.4716 29.8324 23.1428 32.7079 21.2813" stroke="black" stroke-width="2.22222" stroke-linecap="round"/>
<path d="M22.2207 16.1478C22.1342 15.2947 21.5541 14.6587 20.9248 14.7273C20.2955 14.7959 19.8555 15.5432 19.9419 16.3963C20.0283 17.2494 20.6085 17.8854 21.2378 17.8168C21.867 17.7482 22.3071 17.0009 22.2207 16.1478Z" fill="black"/>
<path d="M34.3445 14.847C34.258 13.9939 33.6778 13.3579 33.0486 13.4265C32.4193 13.4952 31.9792 14.2424 32.0657 15.0955C32.1521 15.9486 32.7323 16.5846 33.3615 16.516C33.9908 16.4474 34.4309 15.7002 34.3445 14.847Z" fill="black"/>
</g>
</g>
<rect x="0.5" y="0.5" width="55" height="55" rx="27.5" stroke="#EAEFF7"/>
<defs>
<linearGradient id="paint0_linear_849_2807" x1="28.0001" y1="0" x2="28.0001" y2="56" gradientUnits="userSpaceOnUse">
<stop stop-color="#FFE175"/>
<stop offset="1" stop-color="#FFE175" stop-opacity="0"/>
</linearGradient>
<clipPath id="clip0_849_2807">
<rect width="56" height="56" rx="28" fill="white"/>
</clipPath>
</defs>
</svg>
