<svg width="56" height="56" viewBox="0 0 56 56" fill="none" xmlns="http://www.w3.org/2000/svg">
<g clip-path="url(#clip0_849_2822)">
<rect width="56" height="56" rx="28" fill="url(#paint0_linear_849_2822)"/>
<path d="M14.633 19.8171C16.0789 21.1638 16.8018 21.8372 17.0336 21.9031C17.3661 21.9976 17.3292 21.999 17.6534 21.8793C17.8795 21.7958 18.537 21.0816 19.8518 19.6533C20.6344 18.8032 21.566 18.0599 22.6467 17.4234C25.2573 15.8076 28.2935 14.9998 31.7553 14.9998C37.0332 14.9998 41.1193 16.3911 44.0136 19.1738C46.8512 21.9116 48.27 25.8613 48.27 31.0227L48.27 43.1997C48.27 47.6802 48.27 49.9204 47.398 51.6317C46.6311 53.137 45.4072 54.3608 43.9019 55.1278C42.1906 55.9998 39.9504 55.9998 35.47 55.9998L0.799993 55.9998C-3.68042 55.9998 -5.92063 55.9998 -7.63192 55.1278C-9.13722 54.3608 -10.3611 53.137 -11.1281 51.6317C-12 49.9204 -12 47.6802 -12 43.1998L-12 31.696C-12 26.8487 -10.6663 23.0337 -7.99903 20.251C-5.33171 17.4683 -1.44424 16.0769 3.66338 16.0769C7.18197 16.0769 10.1614 16.8175 12.6017 18.2986C13.359 18.7549 14.0361 19.2611 14.633 19.8171Z" fill="#2C94FF"/>
<path d="M14.7002 40.9424C17.0509 40.9424 18.9566 39.0367 18.9566 36.686L18.9566 35.1526C18.9566 33.8061 18.6161 32.8187 17.935 32.1903C17.254 31.5171 16.2041 31.1805 14.7853 31.1805C13.3098 31.1805 12.2315 31.5171 11.5505 32.1903C10.8127 32.8187 10.4438 33.8061 10.4438 35.1526L10.4438 36.686C10.4438 39.0367 12.3495 40.9424 14.7002 40.9424ZM40.5788 34.1427C40.5788 32.7962 40.2667 31.8088 39.6424 31.1805C38.9614 30.5072 37.8832 30.1706 36.4076 30.1706C33.5133 30.1706 32.0661 31.4947 32.0661 34.1427L32.0661 36.686C32.0661 39.0367 33.9718 40.9424 36.3225 40.9424C38.6732 40.9424 40.5788 39.0367 40.5788 36.686L40.5788 34.1427Z" fill="white"/>
<path d="M22.9426 41.9297C22.5385 42.2107 22.4334 42.776 22.7987 43.1058C23.0605 43.3421 23.3542 43.5427 23.6724 43.7012C24.2579 43.9927 24.9073 44.1322 25.5608 44.1066C26.2143 44.0811 26.8509 43.8914 27.4118 43.555C27.7166 43.3722 27.9938 43.1493 28.2364 42.8932C28.5748 42.5359 28.4259 41.9806 28.0011 41.732C27.5764 41.4834 27.036 41.649 26.6353 41.9348C26.5899 41.9671 26.5432 41.9977 26.4952 42.0265C26.191 42.209 25.8457 42.3119 25.4912 42.3257C25.1367 42.3396 24.7844 42.2639 24.4669 42.1058C24.4168 42.0809 24.3678 42.054 24.32 42.0253C23.8982 41.7717 23.3466 41.6487 22.9426 41.9297Z" fill="white"/>
<rect x="20.2837" y="37.9604" width="5.33" height="3.28" rx="1.64" transform="rotate(-180 20.2837 37.9604)" fill="#2C94FF"/>
<rect x="42.0137" y="37.9604" width="5.33" height="3.28" rx="1.64" transform="rotate(-180 42.0137 37.9604)" fill="#2C94FF"/>
</g>
<rect x="0.5" y="0.5" width="55" height="55" rx="27.5" stroke="#DEE6F2"/>
<defs>
<linearGradient id="paint0_linear_849_2822" x1="28" y1="0" x2="28" y2="56" gradientUnits="userSpaceOnUse">
<stop stop-color="#FF86B9"/>
<stop offset="1" stop-color="#FF86B9" stop-opacity="0"/>
</linearGradient>
<clipPath id="clip0_849_2822">
<rect width="56" height="56" rx="28" fill="white"/>
</clipPath>
</defs>
</svg>
