<svg width="32" height="33" viewBox="0 0 32 33" fill="none" xmlns="http://www.w3.org/2000/svg">
<path fill-rule="evenodd" clip-rule="evenodd" d="M16 3.16669C19.1826 3.16669 22.2348 4.43097 24.4853 6.68141C26.7357 8.93184 28 11.9841 28 15.1667C28 19.2654 25.7653 22.62 23.4107 25.0267C22.234 26.2159 20.9504 27.2942 19.576 28.248L19.008 28.6347L18.7413 28.812L18.2387 29.132L17.7907 29.4054L17.236 29.728C16.8593 29.9424 16.4334 30.0551 16 30.0551C15.5666 30.0551 15.1407 29.9424 14.764 29.728L14.2093 29.4054L13.516 28.9787L13.26 28.812L12.7133 28.448C11.2306 27.4445 9.84942 26.2986 8.58933 25.0267C6.23467 22.6174 4 19.2654 4 15.1667C4 11.9841 5.26428 8.93184 7.51472 6.68141C9.76515 4.43097 12.8174 3.16669 16 3.16669ZM16 5.83335C13.5246 5.83335 11.1507 6.81668 9.40034 8.56702C7.65 10.3174 6.66667 12.6913 6.66667 15.1667C6.66667 18.2627 8.36267 20.98 10.4947 23.1614C11.4115 24.0892 12.4023 24.9409 13.4573 25.708L14.068 26.1427C14.2653 26.28 14.4547 26.408 14.6373 26.5267L15.1573 26.86L15.6147 27.1387L16 27.364L16.6067 27.0054L17.096 26.6987C17.356 26.5334 17.636 26.348 17.932 26.1427L18.5427 25.708C19.5977 24.9409 20.5885 24.0892 21.5053 23.1614C23.6373 20.9814 25.3333 18.2627 25.3333 15.1667C25.3333 12.6913 24.35 10.3174 22.5997 8.56702C20.8493 6.81668 18.4754 5.83335 16 5.83335ZM16 9.83335C17.4145 9.83335 18.771 10.3953 19.7712 11.3955C20.7714 12.3956 21.3333 13.7522 21.3333 15.1667C21.3333 16.5812 20.7714 17.9377 19.7712 18.9379C18.771 19.9381 17.4145 20.5 16 20.5C14.5855 20.5 13.229 19.9381 12.2288 18.9379C11.2286 17.9377 10.6667 16.5812 10.6667 15.1667C10.6667 13.7522 11.2286 12.3956 12.2288 11.3955C13.229 10.3953 14.5855 9.83335 16 9.83335ZM16 12.5C15.2928 12.5 14.6145 12.781 14.1144 13.2811C13.6143 13.7812 13.3333 14.4594 13.3333 15.1667C13.3333 15.8739 13.6143 16.5522 14.1144 17.0523C14.6145 17.5524 15.2928 17.8334 16 17.8334C16.7072 17.8334 17.3855 17.5524 17.8856 17.0523C18.3857 16.5522 18.6667 15.8739 18.6667 15.1667C18.6667 14.4594 18.3857 13.7812 17.8856 13.2811C17.3855 12.781 16.7072 12.5 16 12.5Z" fill="currentColor"/>
</svg>
