<svg viewBox="0 0 32 33" fill="none" xmlns="http://www.w3.org/2000/svg">
<path d="M5.5 13C6.42826 13 7.3185 13.3687 7.97487 14.0251C8.63125 14.6815 9 15.5717 9 16.5C9 17.4283 8.63125 18.3185 7.97487 18.9749C7.3185 19.6313 6.42826 20 5.5 20C4.57174 20 3.6815 19.6313 3.02513 18.9749C2.36875 18.3185 2 17.4283 2 16.5C2 15.5717 2.36875 14.6815 3.02513 14.0251C3.6815 13.3687 4.57174 13 5.5 13ZM16 13C16.9283 13 17.8185 13.3687 18.4749 14.0251C19.1313 14.6815 19.5 15.5717 19.5 16.5C19.5 17.4283 19.1313 18.3185 18.4749 18.9749C17.8185 19.6313 16.9283 20 16 20C15.0717 20 14.1815 19.6313 13.5251 18.9749C12.8687 18.3185 12.5 17.4283 12.5 16.5C12.5 15.5717 12.8687 14.6815 13.5251 14.0251C14.1815 13.3687 15.0717 13 16 13ZM26.5 13C27.4283 13 28.3185 13.3687 28.9749 14.0251C29.6312 14.6815 30 15.5717 30 16.5C30 17.4283 29.6312 18.3185 28.9749 18.9749C28.3185 19.6313 27.4283 20 26.5 20C25.5717 20 24.6815 19.6313 24.0251 18.9749C23.3687 18.3185 23 17.4283 23 16.5C23 15.5717 23.3687 14.6815 24.0251 14.0251C24.6815 13.3687 25.5717 13 26.5 13Z" fill="currentColor"/>
</svg>
