<svg width="32" height="33" viewBox="0 0 32 33" fill="none" xmlns="http://www.w3.org/2000/svg">
<path d="M16.0001 3.16669C23.3641 3.16669 29.3334 9.13602 29.3334 16.5C29.3334 23.864 23.3641 29.8334 16.0001 29.8334C8.63608 29.8334 2.66675 23.864 2.66675 16.5C2.66675 9.13602 8.63608 3.16669 16.0001 3.16669ZM16.0001 5.83335C13.1711 5.83335 10.458 6.95716 8.45761 8.95755C6.45722 10.9579 5.33341 13.671 5.33341 16.5C5.33341 19.329 6.45722 22.0421 8.45761 24.0425C10.458 26.0429 13.1711 27.1667 16.0001 27.1667C18.8291 27.1667 21.5422 26.0429 23.5426 24.0425C25.5429 22.0421 26.6667 19.329 26.6667 16.5C26.6667 13.671 25.5429 10.9579 23.5426 8.95755C21.5422 6.95716 18.8291 5.83335 16.0001 5.83335ZM19.7334 18.976C19.8578 18.8505 20.0059 18.751 20.1691 18.6833C20.3323 18.6155 20.5073 18.5809 20.684 18.5814C20.8607 18.5818 21.0356 18.6175 21.1984 18.6861C21.3612 18.7548 21.5087 18.8551 21.6324 18.9813C21.7561 19.1074 21.8535 19.2569 21.9189 19.4211C21.9844 19.5852 22.0165 19.7607 22.0135 19.9374C22.0105 20.1141 21.9724 20.2884 21.9014 20.4502C21.8304 20.612 21.728 20.7581 21.6001 20.88C20.1059 22.3477 18.0945 23.169 16.0001 23.1667C13.9056 23.169 11.8943 22.3477 10.4001 20.88C10.1535 20.6312 10.0147 20.2954 10.0137 19.945C10.0127 19.5947 10.1497 19.2581 10.3949 19.0079C10.6402 18.7578 10.974 18.6142 11.3243 18.6082C11.6746 18.6022 12.0131 18.7344 12.2667 18.976C13.2625 19.955 14.6037 20.5025 16.0001 20.5C17.4534 20.5 18.7694 19.92 19.7334 18.976ZM11.3334 11.1667C11.8638 11.1667 12.3726 11.3774 12.7476 11.7525C13.1227 12.1275 13.3334 12.6363 13.3334 13.1667C13.3334 13.6971 13.1227 14.2058 12.7476 14.5809C12.3726 14.956 11.8638 15.1667 11.3334 15.1667C10.803 15.1667 10.2943 14.956 9.9192 14.5809C9.54413 14.2058 9.33342 13.6971 9.33342 13.1667C9.33342 12.6363 9.54413 12.1275 9.9192 11.7525C10.2943 11.3774 10.803 11.1667 11.3334 11.1667ZM20.6667 11.1667C21.1972 11.1667 21.7059 11.3774 22.081 11.7525C22.456 12.1275 22.6667 12.6363 22.6667 13.1667C22.6667 13.6971 22.456 14.2058 22.081 14.5809C21.7059 14.956 21.1972 15.1667 20.6667 15.1667C20.1363 15.1667 19.6276 14.956 19.2525 14.5809C18.8775 14.2058 18.6667 13.6971 18.6667 13.1667C18.6667 12.6363 18.8775 12.1275 19.2525 11.7525C19.6276 11.3774 20.1363 11.1667 20.6667 11.1667Z" fill="currentColor"/>
</svg>
