<svg width="32" height="33" viewBox="0 0 32 33" fill="none" xmlns="http://www.w3.org/2000/svg">
<path d="M4 23.1666V10.1C4 8.60665 4 7.85998 4.29067 7.28931C4.54667 6.78665 4.95333 6.37998 5.456 6.12398C6.02667 5.83331 6.77333 5.83331 8.26667 5.83331H23.7333C25.2267 5.83331 25.9733 5.83331 26.544 6.12398C27.0457 6.37964 27.4537 6.78757 27.7093 7.28931C28 7.85865 28 8.60531 28 10.096V22.904C28 23.5506 28 24.0573 27.976 24.4693M4 23.1666C4 24.484 4.01733 25.1746 4.29067 25.7093C4.54667 26.212 4.95333 26.62 5.456 26.876C6.02533 27.1666 6.772 27.1666 8.26267 27.1666H23.7387C25.2293 27.1666 25.9747 27.1666 26.544 26.876C27.0453 26.62 27.4533 26.212 27.7093 25.7093C27.8733 25.3866 27.9453 25.008 27.976 24.4693M4 23.1666L10.3573 15.7493L10.3587 15.748C10.9227 15.0906 11.2053 14.7613 11.54 14.6413C11.8341 14.5372 12.1554 14.5396 12.448 14.648C12.7813 14.772 13.0613 15.1053 13.616 15.772L17.1773 20.0453C17.692 20.664 17.9507 20.9733 18.2653 21.0986C18.5424 21.2077 18.8479 21.2208 19.1333 21.136C19.4587 21.04 19.7467 20.7533 20.3187 20.1813L20.9813 19.5186C21.564 18.9346 21.856 18.644 22.1867 18.548C22.4766 18.464 22.7866 18.4814 23.0653 18.5973C23.3827 18.7293 23.64 19.0506 24.156 19.6933L27.976 24.4693M27.976 24.4693L28 24.5M20 13.8333C19.6464 13.8333 19.3072 13.6928 19.0572 13.4428C18.8071 13.1927 18.6667 12.8536 18.6667 12.5C18.6667 12.1464 18.8071 11.8072 19.0572 11.5572C19.3072 11.3071 19.6464 11.1666 20 11.1666C20.3536 11.1666 20.6928 11.3071 20.9428 11.5572C21.1929 11.8072 21.3333 12.1464 21.3333 12.5C21.3333 12.8536 21.1929 13.1927 20.9428 13.4428C20.6928 13.6928 20.3536 13.8333 20 13.8333Z" stroke="currentColor" stroke-width="2.5" stroke-linecap="round" stroke-linejoin="round"/>
</svg>
