<svg width="24" height="25" viewBox="0 0 24 25" fill="none" xmlns="http://www.w3.org/2000/svg">
<path d="M5.99008 10.732C5.44361 10.1662 5.14123 9.40839 5.14806 8.6218C5.1549 7.83521 5.4704 7.08277 6.02663 6.52655C6.58285 5.97032 7.33529 5.65482 8.12188 5.64798C8.90847 5.64115 9.66628 5.94353 10.2321 6.49L18.0111 14.268C18.2934 14.5458 18.5178 14.8767 18.6716 15.2416C18.8253 15.6066 18.9053 15.9984 18.9068 16.3944C18.9084 16.7904 18.8315 17.1828 18.6807 17.549C18.5298 17.9152 18.308 18.2479 18.0279 18.5278C17.7479 18.8078 17.4151 19.0296 17.0489 19.1804C16.6827 19.3311 16.2903 19.4079 15.8943 19.4063C15.4983 19.4046 15.1065 19.3245 14.7416 19.1707C14.3766 19.0169 14.0458 18.7923 13.7681 18.51L10.4091 15.152C10.2724 15.0106 10.1967 14.8212 10.1983 14.6246C10.1999 14.4279 10.2787 14.2398 10.4177 14.1006C10.5567 13.9615 10.7448 13.8825 10.9414 13.8807C11.1381 13.8789 11.3276 13.9544 11.4691 14.091L14.4751 17.096C14.6135 17.2393 14.779 17.3535 14.962 17.4322C15.145 17.5108 15.3418 17.5521 15.541 17.5539C15.7402 17.5556 15.9377 17.5177 16.122 17.4422C16.3064 17.3668 16.4738 17.2554 16.6147 17.1146C16.7555 16.9738 16.8669 16.8063 16.9423 16.6219C17.0177 16.4376 17.0557 16.2401 17.054 16.0409C17.0522 15.8417 17.0108 15.6449 16.9322 15.4619C16.8536 15.2789 16.7393 15.1134 16.5961 14.975L13.5911 11.97C13.2442 11.6157 12.8306 11.3337 12.374 11.1403C11.9175 10.9469 11.4271 10.846 10.9313 10.8433C10.4355 10.8407 9.94409 10.9364 9.48551 11.1249C9.02693 11.3134 8.61028 11.591 8.25969 11.9416C7.90909 12.2922 7.6315 12.7088 7.44298 13.1674C7.25446 13.626 7.15875 14.1174 7.16139 14.6132C7.16403 15.109 7.26497 15.5994 7.45836 16.056C7.65176 16.5125 7.93377 16.9262 8.28808 17.273L11.6461 20.632C12.7714 21.7573 14.2976 22.3895 15.8891 22.3895C17.4805 22.3895 19.0068 21.7573 20.1321 20.632C21.2574 19.5067 21.8896 17.9804 21.8896 16.389C21.8896 14.7976 21.2574 13.2713 20.1321 12.146L12.3541 4.368C11.2608 3.27249 9.7864 2.64185 8.23903 2.60783C6.69167 2.57382 5.19102 3.13908 4.05062 4.1855C2.91022 5.23192 2.21831 6.67854 2.11944 8.22312C2.02057 9.7677 2.52241 11.2907 3.52008 12.474L3.51508 12.5L3.86808 12.854C4.14948 13.1354 4.53113 13.2935 4.92908 13.2935C5.32703 13.2935 5.70869 13.1354 5.99008 12.854C6.27148 12.5726 6.42956 12.191 6.42956 11.793C6.42956 11.3951 6.27148 11.0134 5.99008 10.732Z" fill="currentColor"/>
</svg>
