<svg width="73" height="77" viewBox="0 0 73 77" fill="none" xmlns="http://www.w3.org/2000/svg">
<path d="M48.403 32.495C47.6161 32.6797 46.8043 32.861 45.9462 33.0103C45.0124 33.1823 44.0616 33.2443 43.1134 33.195C42.5292 33.1645 41.9524 33.0505 41.4005 32.8564C41.0913 32.7418 40.796 32.5927 40.5202 32.4119C40.275 32.257 40.0446 32.0799 39.8318 31.8829C39.0914 31.2244 38.4592 30.4537 37.9581 29.599C37.3066 28.5128 36.7854 27.3537 36.4054 26.1455C36.0928 25.1412 35.8265 24.1688 35.5218 23.2614C35.3758 22.7968 35.2168 22.3696 35.0359 21.9451C34.7907 21.4354 34.5991 20.892 34.4345 20.421C34.0869 19.4567 33.7605 18.5365 33.3644 17.6808C33.0621 16.8904 32.5824 16.1799 31.9624 15.604C31.7919 15.4638 31.5729 15.3964 31.353 15.4167C31.2291 15.4356 31.1092 15.4749 30.9983 15.5331C30.8472 15.6057 30.6962 15.6784 30.563 15.8044C29.9921 16.3009 29.5613 16.9384 29.3134 17.6532C28.9486 18.6761 28.6774 19.73 28.5031 20.802C28.2583 21.904 28.0285 23.0375 27.7927 24.1584C27.6007 24.8707 27.4059 24.7397 27.1719 24.1083C26.7608 23.1001 26.5094 22.0339 26.4268 20.9483C26.4127 20.6451 26.3988 20.3262 26.4129 20.0172C26.427 19.7082 26.4819 19.3873 26.5242 19.0725C26.6082 18.4212 26.7444 17.7777 26.9316 17.1483C27.1391 16.4576 27.4326 15.7957 27.8051 15.1781C28.2376 14.4702 28.8193 13.8651 29.5096 13.405C29.9286 13.1114 30.4056 12.911 30.9086 12.8173C31.4861 12.7146 32.0802 12.7625 32.6338 12.9561C33.4755 13.2965 34.204 13.8674 34.7358 14.6032C35.5205 15.6774 36.1424 16.8615 36.5813 18.1173C36.8274 18.7739 37.1007 19.4872 37.3636 20.066L37.5604 20.475L37.8238 21.0226C37.9963 21.3813 38.1659 21.7337 38.3324 22.0799C38.945 23.4824 39.4491 24.8364 39.9924 26.0785C40.5934 27.4246 41.1923 28.702 42.1056 29.4406L42.1888 29.5168L42.213 29.5672C42.2444 29.5965 42.2798 29.6213 42.3181 29.6406C42.4106 29.6958 42.5096 29.7393 42.6129 29.7701C42.8844 29.8545 43.1668 29.8988 43.4511 29.9016C44.1588 29.9179 44.8663 29.8607 45.5622 29.7309C47.391 29.4246 49.2955 28.8727 51.3032 28.5192C52.0832 28.3611 52.8726 28.2532 53.6664 28.1961C54.5463 28.1292 55.4308 28.2297 56.2733 28.4921C57.2411 28.7845 58.0612 29.4349 58.5663 30.3108C59.0614 31.1879 59.2168 32.2163 59.0032 33.2006C58.6781 34.5163 58.0232 35.7275 57.1002 36.7199C56.2653 37.6437 55.3142 38.4555 54.2707 39.1349C54.0316 39.25 53.8257 39.4342 53.6017 39.5807C53.3777 39.7273 53.1446 39.8549 52.9084 39.9762C52.5343 40.1683 52.1441 40.3275 51.7423 40.4519C51.45 40.5168 51.149 40.5333 50.8513 40.5008C50.4293 40.4711 50.0283 40.3049 49.7091 40.0273C49.5662 39.9274 49.4321 39.8157 49.3081 39.6931C48.9922 39.3104 49.556 38.5974 50.5298 37.6252C51.3345 37.0909 52.0866 36.5277 52.8293 35.9612C53.4877 35.4013 54.1007 34.7903 54.6627 34.1338C55.1138 33.6726 55.4434 33.1066 55.6218 32.4867C55.6612 32.3628 55.6622 32.23 55.6245 32.1056C55.607 32.0921 55.5969 32.0711 55.5973 32.049C55.5973 32.049 55.5731 31.9986 55.5609 31.9734C55.5488 31.9483 55.5125 31.8728 55.4913 31.8287C55.4295 31.7647 55.3588 31.7099 55.2814 31.6662C55.1047 31.5903 54.9184 31.5391 54.7277 31.514C54.1262 31.4365 53.5172 31.4377 52.916 31.5176C51.412 31.7833 49.9238 32.1318 48.4582 32.5614L48.403 32.495Z" fill="#CCDEFF" fill-opacity="0.61"/>
<path d="M42.4289 28.1471C42.4622 28.2164 42.5136 28.3234 42.8592 28.3974C43.2839 28.4853 43.7192 28.5109 44.1512 28.4734C45.3197 28.3115 46.4721 28.0501 47.596 27.692C48.8164 27.3452 50.0937 26.9556 51.442 26.6169C52.1487 26.4408 52.868 26.3202 53.5935 26.2563C54.3966 26.1789 55.2054 26.1818 56.0079 26.2651C56.9591 26.3743 57.8758 26.6865 58.6958 27.1808C58.923 27.3139 59.1343 27.4722 59.3259 27.6527L59.6742 27.9579C59.7762 28.0636 59.8716 28.1757 59.9595 28.2934C60.3301 28.7495 60.5883 29.2863 60.7133 29.8605C60.7978 30.1425 60.8468 30.4339 60.8594 30.7279C60.8762 30.8731 60.8792 31.0196 60.8683 31.1654L60.8314 31.5397C60.7869 32.0107 60.6908 32.4753 60.5447 32.9253C60.3951 33.3355 60.2168 33.7346 60.011 34.1197C59.8084 34.4761 59.5862 34.821 59.3455 35.1528C57.505 37.3843 55.1924 39.1796 52.5743 40.4094C50.8163 41.3134 48.9929 42.0843 47.1196 42.7156C46.9569 42.7542 46.8044 42.8275 46.6727 42.9306C46.6321 42.9659 46.6004 43.0104 46.5801 43.0603C46.5298 43.0845 46.5379 43.1659 46.5246 43.2188C46.5221 43.3722 46.5505 43.5246 46.6084 43.6667C46.7268 44.011 46.8677 44.347 47.0303 44.6728C47.799 46.0659 48.6548 47.4092 49.5926 48.6946C50.5558 50.0524 51.5434 51.4451 52.429 52.9798C53.4518 54.5917 54.1174 56.4041 54.3812 58.2948C54.509 59.4352 54.298 60.588 53.7745 61.6091C53.6533 61.8596 53.5085 62.098 53.3419 62.3209C53.1775 62.5709 52.9831 62.7997 52.763 63.0024C52.6592 63.1186 52.5435 63.2237 52.4177 63.3157C52.2997 63.4355 52.1693 63.5424 52.0286 63.6346C51.7442 63.8317 51.4364 63.9927 51.1123 64.1141C50.7903 64.2222 50.4586 64.2988 50.1218 64.3426C49.8049 64.3769 49.485 64.372 49.1693 64.3281C48.6069 64.2632 48.0556 64.1245 47.5294 63.9157C46.6379 63.538 45.7957 63.0531 45.0214 62.4717C43.6033 61.4154 42.2813 60.236 41.0708 58.9472C39.8808 57.7139 38.7694 56.4506 37.6607 55.2092L36.0112 53.391C35.7439 53.0933 35.4767 52.7956 35.2184 52.5324C35.1256 52.4197 35.0178 52.3203 34.898 52.237C34.8278 52.1668 34.749 52.1058 34.6634 52.0553C34.3391 51.898 33.9518 51.9525 33.6836 52.1934C33.547 52.305 33.4272 52.4357 33.3278 52.5815C33.1565 52.8303 33.0053 53.0922 32.8754 53.3649C32.2971 54.6462 31.8436 55.9803 31.5213 57.3487C31.1405 58.7641 30.7997 60.2145 30.3494 61.6788C30.118 62.4429 29.8289 63.1882 29.4844 63.9084C29.3039 64.3301 29.0745 64.7292 28.8009 65.0974C28.6314 65.3224 28.4353 65.526 28.2169 65.7038C28.0056 65.8889 27.7699 66.044 27.5164 66.1648C26.8487 66.447 26.1036 66.4875 25.4093 66.2794C24.8016 66.1043 24.2364 65.8065 23.7484 65.4043C22.8948 64.6804 22.2011 63.7869 21.7113 62.7806C20.8131 60.9227 20.2929 58.9048 20.1809 56.8442C20.1046 55.841 20.0991 54.8336 20.1645 53.8296C20.27 52.8369 20.4468 51.8531 20.6937 50.8859C21.1665 48.9579 21.9646 47.1247 23.0537 45.465C23.7409 44.4447 24.2048 44.1363 24.3094 44.241C24.414 44.3457 24.2639 44.9681 24.0212 45.9296C23.7371 47.2465 23.5456 48.5817 23.4478 49.9253C23.3792 50.7333 23.3566 51.6044 23.3613 52.5166C23.3637 52.9727 23.3629 53.4381 23.4056 53.9135C23.4483 54.389 23.4003 54.8693 23.4179 55.3568C23.4276 57.0623 23.7347 58.753 24.3254 60.3529C24.5729 61.0348 24.9292 61.6721 25.3805 62.2401C25.5611 62.4628 25.7727 62.6586 26.0088 62.8213C26.1043 62.8877 26.2035 62.9487 26.3059 63.0039L26.3863 63.0582C26.3863 63.0582 26.3224 63.151 26.5614 62.8423C26.9375 62.1267 27.22 61.3657 27.4019 60.578C27.8845 58.8424 28.2508 56.9457 28.7806 54.9859C29.0517 53.9335 29.4133 52.9064 29.8614 51.9163C29.9885 51.6357 30.1314 51.3626 30.2894 51.0982L30.4144 50.8908C30.461 50.8092 30.5144 50.7316 30.5741 50.659L30.998 50.1064C31.5761 49.4027 32.3393 48.8745 33.2016 48.5814C34.0406 48.2919 34.9525 48.2926 35.791 48.5835C35.8978 48.6122 36.0017 48.6503 36.1017 48.6976L36.3959 48.8582L36.9843 49.1952L37.4815 49.5683L37.8116 49.8357C38.2436 50.1859 38.6319 50.5261 39.0108 50.8786L40.0253 51.9405C41.362 53.3822 42.6272 54.8041 43.9344 56.136C45.124 57.4598 46.4276 58.6765 47.8302 59.7721C48.1918 60.0371 48.576 60.2698 48.9784 60.4675C49.258 60.5812 49.5458 60.6733 49.8395 60.743C50.0193 60.7998 50.2145 60.7814 50.3806 60.6919C50.4277 60.639 50.4797 60.5907 50.5359 60.5475L50.6891 60.3343C50.7929 60.1958 50.8791 60.045 50.9458 59.8853C51.2087 59.1041 51.1974 58.2567 50.9139 57.4828C50.5851 56.4768 50.1396 55.5129 49.5865 54.6106C48.4259 52.6812 46.9803 50.8037 45.5773 48.7893C44.8052 47.751 44.1319 46.6426 43.5664 45.4788C43.1855 44.6918 42.9781 43.8322 42.9583 42.9581C42.9618 41.9687 43.3849 41.0272 44.1224 40.3677C44.3311 40.2053 44.5553 40.0432 44.7793 39.8967C45.0002 39.7711 45.2294 39.6608 45.4653 39.5667L45.8052 39.4032L46.0318 39.2942L46.4716 39.1292L48.2526 38.4817L49.997 37.7743C50.5571 37.5049 51.111 37.2385 51.6711 36.969C52.2312 36.6996 52.7422 36.3763 53.2809 36.0784C53.8196 35.7805 54.3091 35.4288 54.7553 35.0514C55.6709 34.407 56.4283 33.563 56.9702 32.5833C57.1048 32.3635 57.1489 32.1331 57.2615 31.9161C57.3187 31.7082 57.3564 31.4955 57.3743 31.2806C57.4032 31.1299 57.4024 30.975 57.3719 30.8246C57.3455 30.6973 57.2884 30.5785 57.2054 30.4784C57.1729 30.4287 57.1311 30.3857 57.0824 30.3516C57.0189 30.2828 56.9422 30.2274 56.8569 30.1888C56.6849 30.0857 56.5003 30.0052 56.3077 29.9493C55.8314 29.821 55.3369 29.7733 54.8449 29.8082C54.2702 29.8335 53.6987 29.9062 53.136 30.0257C52.5473 30.1229 51.9392 30.2605 51.3279 30.4073L47.5364 31.3864C46.7111 31.6001 45.8755 31.7718 45.0328 31.901C44.0988 32.0733 43.1435 32.0988 42.2016 31.9764C41.9344 31.9364 41.6709 31.8738 41.4142 31.7894C41.1368 31.7065 40.8694 31.5935 40.6166 31.4523C40.352 31.3085 40.1034 31.1372 39.8747 30.9412C39.658 30.7379 39.4567 30.5187 39.2725 30.2854C39.1213 30.0794 38.9857 29.8622 38.867 29.6358L38.6914 29.2707L38.537 28.9498L38.1263 27.8221C37.0069 24.8344 35.8467 21.8586 34.5158 19.0114C34.0323 17.9502 33.4826 16.9205 32.87 15.9282C32.6757 15.5549 32.4624 15.192 32.2307 14.8408C32.053 14.5645 31.8464 14.308 31.6145 14.0754C31.3929 13.8217 31.0615 13.6919 30.7265 13.7276C30.4124 13.8391 30.1559 14.0713 30.0138 14.3727C29.8511 14.634 29.7111 14.9088 29.5952 15.194C29.4424 15.612 29.3108 16.0375 29.2008 16.4687C28.7124 18.8032 28.352 21.1627 28.1213 23.5366C28.0202 24.176 27.8822 24.809 27.7081 25.4325C27.6293 25.7733 27.5324 26.1097 27.4178 26.4401C27.2797 26.8428 27.1032 27.2313 26.8909 27.6003C26.4736 28.3552 25.7917 28.929 24.9765 29.211C24.7665 29.2577 24.5626 29.3171 24.3559 29.3545L23.7149 29.3916C23.2987 29.3708 22.8854 29.3101 22.4808 29.2103C22.2017 29.1498 21.9282 29.0662 21.6631 28.9604C21.3958 28.872 21.1632 28.7591 20.9211 28.6585L20.2789 28.3707C20.0897 28.2835 19.8847 28.2116 19.6892 28.1274C18.874 27.8165 18.0389 27.5606 17.1895 27.3614C15.4871 26.9719 13.7473 26.7693 12.001 26.7573C11.5762 26.7602 11.1574 26.7756 10.7476 26.81L10.1657 26.8729C10.0373 26.8959 9.87762 26.9185 9.78975 26.9453C9.3789 26.9947 8.99602 27.1789 8.70097 27.469C8.58089 27.6291 8.51944 27.8255 8.52691 28.0255C8.53956 28.2237 8.5907 28.4176 8.67749 28.5963C8.77111 28.7618 8.8841 28.9156 9.01408 29.0543C9.05344 29.1362 9.1527 29.1814 9.2205 29.2418L9.33442 29.3497L9.56904 29.5314C10.6517 30.4288 12.0232 31.2338 13.3542 32.2287C14.4593 33.0104 15.5195 33.8536 16.5298 34.7543C16.9023 35.1163 17.2562 35.497 17.59 35.895C17.8873 36.2713 18.1381 36.6156 18.3613 36.9345C19.0401 37.8353 19.4051 38.9336 19.4005 40.0615C19.4115 40.4221 19.3851 40.7828 19.3216 41.1379C19.1746 41.5574 18.6541 41.2808 17.8015 40.6524C16.949 40.024 15.6354 39.1137 13.8373 38.0179C12.5482 37.1423 11.1548 36.3401 9.69062 35.4712C8.95363 35.0508 8.22715 34.5555 7.44196 34.0187L6.8674 33.5976L6.28145 33.1045L5.98533 32.8595L5.58883 32.438C5.33397 32.1498 5.03506 31.8829 4.80865 31.5733L4.16741 30.6108C4.00393 30.2709 3.84045 29.9311 3.70844 29.5761C3.5767 29.2276 3.47866 28.8673 3.41565 28.5002C3.36634 28.1355 3.34481 27.7676 3.35126 27.3997C3.39442 25.9012 4.1227 24.5054 5.32707 23.6128C5.9552 23.1511 6.66374 22.8103 7.41652 22.6077C7.80461 22.4842 8.20056 22.387 8.60171 22.3166C9.01238 22.2198 9.33399 22.2279 9.72857 22.1621C10.7596 22.0748 11.7961 22.074 12.8272 22.1595C14.7514 22.3206 16.6553 22.6688 18.512 23.1991C19.4628 23.4696 20.3965 23.7968 21.3082 24.1789C21.5534 24.2858 21.7892 24.3893 22.0311 24.5055L22.6604 24.815L23.0882 25.0277L23.4608 25.1739C23.5188 25.1796 23.575 25.1975 23.6256 25.2264L23.7399 24.9002C23.8586 24.1684 23.9305 23.4298 23.9549 22.6888L24.1856 20.0591C24.2997 18.6448 24.4922 17.2378 24.7623 15.8448L24.8896 15.2876L24.95 15.0106L25.0427 14.6715L25.2375 13.981L25.5641 13.0489C25.7767 12.4275 26.091 11.8888 26.3529 11.3055L26.855 10.5448C26.9279 10.4156 27.0113 10.2926 27.1043 10.1769L27.3961 9.88148C28.0935 9.06139 29.0634 8.52054 30.1276 8.35832C31.1986 8.20993 32.2876 8.44333 33.2037 9.01758C34.2215 9.65376 35.0958 10.4947 35.771 11.487C35.9639 11.743 36.1537 11.9926 36.3154 12.2481L36.5625 12.633L36.7698 12.9673C36.9712 13.2736 37.143 13.5984 37.2829 13.9372C37.5856 14.5665 37.7939 15.2413 38.0715 15.8828C38.3491 16.5242 38.6204 17.1687 38.8853 17.8162C39.3908 19.0765 39.8525 20.3424 40.3018 21.5987C40.7512 22.8551 41.1753 24.1235 41.5871 25.3824L42.2017 27.2722L42.3449 27.7148C42.3771 27.7663 42.4035 27.8211 42.4236 27.8784L42.5053 28.0484L42.4289 28.1471Z" fill="#CCDEFF" fill-opacity="0.61"/>
<path d="M27.1297 34.3656C27.5532 33.6349 28.4599 33.377 29.1585 33.041C29.9262 32.8699 30.725 32.8993 31.478 33.1264C31.838 33.2424 32.1795 33.4096 32.4918 33.623L32.8155 33.909C33.5555 34.7901 34.0394 35.8575 34.2145 36.9947C34.4077 37.9716 34.4367 38.9739 34.3004 39.9603C34.2609 40.8266 33.9715 41.663 33.467 42.3684C33.2353 42.6511 32.9337 42.8684 32.5921 42.9985C32.2507 43.123 31.8809 43.1477 31.5259 43.0696C30.9765 42.9424 30.4873 42.6306 30.14 42.1863C29.9283 41.9394 30.2227 41.6816 30.6413 41.4724C31.0255 41.2911 31.4189 41.1303 31.8201 40.9907C31.8201 40.9907 31.8201 40.9907 31.8704 40.9665C31.8719 41.0454 31.8812 41.124 31.8981 41.2012C31.8915 41.1712 31.8781 41.1431 31.8587 41.1193C31.824 41.0631 31.7792 41.0137 31.7266 40.9736L31.6618 40.9195L31.6437 40.8818L31.6549 40.7601C31.644 40.6569 31.7328 40.5677 31.7632 40.4213C31.8628 40.0957 31.9358 39.7625 31.9814 39.4251L32.0525 38.8639L32.0726 38.5675C32.0895 38.4897 32.1081 38.4962 32.1181 38.4526C32.1858 38.285 32.1897 38.0984 32.1293 37.928C32.0729 37.7621 31.9967 37.6036 31.9022 37.456L31.8538 37.3553C31.5811 36.8658 30.9715 36.6776 30.4703 36.9281C30.1495 37.0842 29.9197 37.381 29.8489 37.7307C29.7379 38.3415 29.9826 38.9625 30.4804 39.3334C31.0728 39.6687 31.7125 39.9123 32.3779 40.0559C32.5395 40.0827 32.6979 40.1259 32.8507 40.1849C32.9681 40.243 33.0782 40.315 33.1785 40.3992C33.2536 40.4904 33.3055 40.5983 33.3299 40.7139C33.3948 41.0184 33.3985 41.3327 33.3407 41.6387C33.316 41.8288 33.3038 42.0129 33.2729 42.1905C33.2262 42.481 33.0797 42.7461 32.8585 42.9401C32.6205 43.1594 32.3225 43.3027 32.0026 43.3518C31.0115 43.3927 30.029 43.1536 29.1675 42.6619C29.0559 42.6071 28.9446 42.5366 28.8362 42.4725L28.3723 42.1687C28.0764 41.908 27.7864 41.6755 27.4912 41.368C27.035 40.7861 26.6494 40.1521 26.3425 39.4794C26.2335 39.2529 26.1529 39.0049 26.091 38.7634L25.9519 38.0553C25.9263 37.5892 25.9241 37.1222 25.9452 36.6558C26.0817 35.7813 26.4796 34.9685 27.0866 34.3243L27.1297 34.3656Z" fill="#CCDEFF" fill-opacity="0.61"/>
</svg>
