<svg xmlns="http://www.w3.org/2000/svg" viewBox="0 0 730.04 510.4">
  <defs>
    <style>
      .cls-1 {
        opacity: .61;
        fill: #CCDEFF;
      }
    </style>
  </defs>
    <path class="cls-1" d="m480.18,395.24c-.2-7.38-.32-14.98-.07-22.94.19-8.68,1.39-17.3,3.59-25.69,1.35-5.17,3.44-10.12,6.2-14.7,1.6-2.55,3.48-4.92,5.61-7.06,1.84-1.91,3.85-3.64,6.01-5.18,7.26-5.41,15.33-9.64,23.9-12.54,10.92-3.82,22.26-6.34,33.78-7.51,9.57-.94,18.76-1.52,27.44-2.57,4.43-.45,8.54-1.08,12.68-1.91,5.02-1.25,10.23-1.96,14.75-2.56,9.27-1.33,18.11-2.55,26.5-4.51,7.63-1.24,14.88-4.22,21.18-8.71,1.57-1.27,2.58-3.1,2.8-5.11.06-1.14-.07-2.29-.39-3.39-.37-1.49-.74-2.97-1.62-4.4-3.39-6.03-8.3-11.06-14.23-14.6-8.48-5.16-17.41-9.53-26.68-13.07-9.41-4.23-19.13-8.38-28.72-12.56-6.02-3.04-4.49-4.54,1.6-5.46,9.78-1.81,19.79-2.09,29.66-.82,2.74.43,5.62.9,8.36,1.6,2.74.7,5.51,1.78,8.25,2.74,5.67,1.96,11.18,4.36,16.47,7.2,5.8,3.13,11.18,6.98,16.02,11.46,5.54,5.18,9.88,11.5,12.72,18.53,1.85,4.29,2.76,8.93,2.67,13.61-.15,5.36-1.68,10.59-4.43,15.18-4.6,6.9-11.06,12.37-18.63,15.77-11.06,5.04-22.81,8.41-34.86,10.02-6.33.99-13.22,2.12-18.88,3.4l-4.03,1-5.39,1.34c-3.53.88-7,1.75-10.4,2.6-13.68,2.89-26.73,4.9-38.85,7.46-13.16,2.89-25.7,5.89-34,12.69l-.84.6-.49.12c-.32.23-.61.5-.85.81-.66.73-1.24,1.53-1.7,2.4-1.26,2.27-2.18,4.72-2.73,7.26-1.46,6.3-2.25,12.74-2.38,19.21-.64,16.93.78,35,.23,53.62-.03,7.27-.52,14.54-1.48,21.75-1.03,8-3.56,15.73-7.47,22.78-4.41,8.12-11.74,14.26-20.51,17.16-8.77,2.81-18.26,2.3-26.67-1.43-11.17-5.34-20.8-13.44-27.98-23.54-6.72-9.18-12.23-19.19-16.38-29.79-.59-2.35-1.85-4.54-2.75-6.81s-1.61-4.6-2.26-6.93c-1.03-3.7-1.73-7.49-2.1-11.32-.04-2.74.37-5.46,1.21-8.06,1.05-3.72,3.27-7,6.35-9.35,1.16-1.09,2.41-2.09,3.73-2.97,4.01-2.12,9.35,4.24,16.25,14.76,3.29,8.19,6.94,15.96,10.64,23.65,3.79,6.93,8.13,13.54,12.96,19.79,3.29,4.89,7.75,8.89,12.97,11.63,1.04.58,2.22.84,3.4.73.15-.13.36-.18.56-.14,0,0,.49-.12.74-.18.25-.06.99-.25,1.42-.36.69-.43,1.31-.97,1.84-1.58,1.01-1.44,1.81-3.01,2.39-4.67,1.81-5.24,2.92-10.69,3.32-16.22.4-13.95.04-27.91-1.1-41.82l.7-.37Z" fill="#CCDEFF"/>
    <path class="cls-1" d="m530.14,349.81c-.68.17-1.73.43-3.04,3.39-1.57,3.64-2.61,7.49-3.07,11.42-.71,10.76-.5,21.55.62,32.27.85,11.56,1.97,23.71,2.51,36.41.27,6.65.02,13.31-.75,19.92-.79,7.33-2.31,14.56-4.54,21.59-2.74,8.31-7.22,15.94-13.16,22.36-1.61,1.79-3.42,3.39-5.39,4.77l-3.38,2.55c-1.14.72-2.31,1.36-3.53,1.93-4.77,2.47-10.05,3.79-15.42,3.85-2.68.23-5.38.13-8.03-.3-1.33-.12-2.65-.36-3.93-.73l-3.28-1.02c-4.13-1.27-8.11-2.99-11.87-5.13-3.39-2.1-6.64-4.43-9.7-6.98-2.82-2.47-5.49-5.1-8.01-7.87-16.57-20.6-28.36-44.61-34.52-70.32-4.84-17.4-8.37-35.15-10.55-53.08-.04-1.53-.42-3.03-1.1-4.4-.24-.43-.58-.8-.99-1.07-.12-.5-.87-.57-1.32-.79-1.37-.31-2.78-.33-4.16-.08-3.3.42-6.57,1.06-9.78,1.92-13.89,4.3-27.49,9.48-40.73,15.49-13.93,6.11-28.22,12.37-43.59,17.46-16.32,6.17-33.77,8.78-51.17,7.64-10.44-.96-20.37-4.98-28.54-11.56-2.02-1.55-3.88-3.28-5.57-5.19-1.93-1.93-3.62-4.1-5.03-6.44-.85-1.14-1.57-2.37-2.17-3.67-.85-1.28-1.57-2.64-2.13-4.07-1.24-2.91-2.11-5.96-2.6-9.09-.37-3.08-.44-6.19-.21-9.29.28-2.9.91-5.75,1.89-8.5,1.62-4.91,3.88-9.59,6.72-13.91,5.03-7.28,10.93-13.92,17.56-19.77,12.07-10.74,25.07-20.39,38.85-28.84,13.24-8.37,26.6-15.98,39.76-23.6l19.32-11.4c3.16-1.84,6.32-3.68,9.15-5.51,1.18-.62,2.27-1.4,3.24-2.32.76-.5,1.45-1.09,2.06-1.76,2.01-2.61,2.24-6.18.58-9.02-.75-1.43-1.69-2.74-2.82-3.9-1.91-1.99-3.97-3.83-6.17-5.5-10.4-7.54-21.5-14.07-33.15-19.49-11.96-6.02-24.31-11.76-36.58-18.49-6.41-3.48-12.55-7.45-18.35-11.86-3.44-2.4-6.59-5.19-9.38-8.32-1.7-1.93-3.16-4.06-4.35-6.35-1.27-2.23-2.22-4.63-2.83-7.12-1.29-6.5-.28-13.24,2.87-19.07,2.69-5.11,6.4-9.62,10.9-13.24,8.06-6.3,17.33-10.86,27.25-13.38,18.29-4.6,37.31-5.53,55.96-2.72,9.12,1.17,18.14,2.99,27.01,5.43,8.69,2.78,17.17,6.18,25.37,10.18,16.38,7.8,31.31,18.33,44.15,31.14,7.86,8.04,9.76,12.76,8.63,13.5-1.13.74-6.42-1.75-14.58-5.7-11.26-4.98-22.85-9.16-34.7-12.52-7.1-2.11-14.86-3.92-23.03-5.57-4.09-.82-8.25-1.69-12.58-2.19-4.33-.5-8.54-1.81-12.94-2.56-15.28-3.07-30.98-3.45-46.39-1.12-6.56.95-12.92,2.96-18.84,5.95-2.33,1.2-4.47,2.74-6.36,4.55-.77.73-1.5,1.51-2.18,2.32l-.63.62s-.71-.74,1.61,1.97c5.71,4.69,12,8.62,18.71,11.71,14.64,7.53,30.94,14.31,47.49,22.68,8.92,4.37,17.44,9.51,25.47,15.35,2.28,1.66,4.46,3.44,6.53,5.34l1.62,1.5c.65.57,1.24,1.19,1.78,1.86l4.16,4.82c5.23,6.48,8.54,14.28,9.57,22.54,1.04,8.04-.65,16.2-4.81,23.17-.45.9-.99,1.76-1.6,2.57l-1.98,2.34-4.1,4.64-4.26,3.76-3,2.46c-3.93,3.22-7.7,6.07-11.55,8.8l-11.38,7.11c-15.37,9.3-30.44,17.99-44.77,27.23-14.05,8.2-27.35,17.61-39.74,28.14-3.04,2.75-5.83,5.75-8.35,8.99-1.53,2.29-2.89,4.7-4.06,7.2-.84,1.5-1.04,3.29-.54,4.94.39.52.72,1.07,1.01,1.66l1.62,1.76c1.05,1.18,2.24,2.24,3.54,3.13,6.5,3.8,14.11,5.26,21.56,4.16,9.61-1.08,19.06-3.29,28.16-6.57,19.41-6.82,38.89-16.28,59.51-25.11,10.72-4.99,21.88-8.97,33.35-11.88,7.75-1.95,15.82-2.22,23.68-.78,8.85,1.86,16.49,7.39,21.03,15.21,1.07,2.17,2.1,4.47,3,6.75.72,2.21,1.28,4.46,1.68,6.75l.83,3.34.56,2.23.66,4.24,2.5,17.14,3.11,16.92c1.38,5.51,2.73,10.96,4.11,16.47,1.38,5.51,3.32,10.68,4.99,16.05,1.67,5.37,3.91,10.4,6.46,15.09,4.08,9.39,10.23,17.72,17.99,24.39,1.72,1.61,3.7,2.43,5.43,3.84,1.76.9,3.59,1.63,5.48,2.18,1.3.54,2.68.82,4.09.82,1.19,0,2.36-.29,3.41-.85.5-.2.97-.49,1.36-.87.73-.44,1.37-1.03,1.87-1.72,1.24-1.35,2.3-2.85,3.16-4.47,2.03-4.03,3.37-8.36,3.97-12.83.84-5.19,1.24-10.44,1.21-15.69.22-5.45.11-11.14-.07-16.89l-1.75-35.74c-.39-7.78-.38-15.58.02-23.36.18-8.68,1.72-17.27,4.56-25.48.85-2.32,1.9-4.56,3.13-6.7,1.26-2.33,2.76-4.51,4.49-6.51,1.78-2.1,3.77-4.01,5.95-5.69,2.22-1.56,4.55-2.96,6.98-4.18,2.12-.97,4.32-1.79,6.56-2.43l3.59-.9,3.16-.79,10.85-1.59c28.81-4.49,57.58-9.37,85.52-16.02,10.39-2.36,20.62-5.38,30.64-9.03,3.7-1.05,7.34-2.29,10.91-3.71,2.8-1.08,5.48-2.45,7.99-4.1,2.68-1.52,4.46-4.24,4.76-7.3-.42-3.02-2.02-5.74-4.45-7.57-2.04-1.94-4.24-3.7-6.58-5.27-3.46-2.14-7.02-4.1-10.68-5.89-19.99-8.69-40.44-16.28-61.25-22.73-5.54-2.09-10.95-4.49-16.2-7.2-2.9-1.33-5.73-2.82-8.48-4.46-3.35-1.98-6.5-4.28-9.41-6.86-5.98-5.13-9.86-12.29-10.87-20.11-.03-1.97-.18-3.9-.14-5.82l.85-5.8c.96-3.69,2.26-7.27,3.9-10.71,1.06-2.39,2.31-4.68,3.75-6.86,1.29-2.23,2.73-4.1,4.07-6.08l3.76-5.21c1.13-1.53,2.15-3.23,3.27-4.83,4.29-6.72,8.12-13.72,11.48-20.95,6.63-14.51,11.66-29.71,15-45.32.76-3.81,1.4-7.58,1.85-11.31l.51-5.32c.03-1.19.12-2.66.05-3.5.32-3.77-.62-7.54-2.67-10.71-1.21-1.37-2.86-2.28-4.66-2.59-1.8-.25-3.63-.15-5.39.29-1.65.53-3.24,1.26-4.72,2.17-.8.2-1.39,1.01-2.06,1.5l-1.18.82-2.06,1.76c-10.03,8.03-19.77,18.81-31.14,28.89-9.04,8.44-18.54,16.37-28.47,23.75-3.93,2.66-7.99,5.13-12.17,7.38-3.92,1.96-7.46,3.57-10.73,4.98-9.32,4.41-19.82,5.64-29.9,3.52-3.25-.57-6.43-1.47-9.49-2.7-3.48-2.09-.04-6.24,7.15-12.7,7.2-6.47,17.78-16.54,30.91-30.6,10.22-9.92,19.98-20.9,30.46-32.4,5.13-5.82,10.9-11.4,17.16-17.44l4.83-4.36,5.5-4.33,2.74-2.2,4.51-2.77c3.05-1.75,5.99-3.93,9.18-5.38l9.8-3.96c3.34-.83,6.69-1.67,10.11-2.19,3.36-.53,6.77-.75,10.17-.63,3.35.23,6.69.72,9.97,1.46,13.33,3.16,24.48,12.26,30.24,24.68,2.97,6.47,4.71,13.45,5.13,20.56.39,3.7.53,7.42.41,11.14.11,3.85-.56,6.72-.7,10.37-1.13,9.39-3.03,18.67-5.71,27.74-5,16.92-11.64,33.32-19.82,48.95-4.18,8.01-8.83,15.76-13.94,23.21-1.41,2-2.77,3.92-4.26,5.87l-3.93,5.06-2.69,3.43-2,3.06c-.16.51-.42.98-.77,1.38l2.71,1.63c6.33,2.42,12.81,4.42,19.39,6.01l23.11,6.93c12.45,3.64,24.68,7.96,36.65,12.95l4.75,2.17,2.37,1.05,2.86,1.46,5.82,3.02,7.74,4.65c5.17,3.05,9.41,6.86,14.14,10.28l5.88,5.9c1.02.89,1.97,1.87,2.83,2.91l2.1,3.16c6.05,7.76,9.1,17.44,8.58,27.26-.65,9.86-4.75,19.17-11.59,26.31-7.58,7.93-16.72,14.2-26.85,18.41-2.65,1.25-5.23,2.49-7.82,3.46l-3.9,1.5-3.38,1.24c-3.11,1.24-6.34,2.17-9.63,2.8-6.19,1.55-12.62,2.16-18.87,3.46-6.25,1.3-12.52,2.53-18.81,3.71-12.21,2.19-24.4,3.98-36.47,5.68-12.07,1.7-24.21,3.15-36.24,4.51l-18.05,2.01-4.23.46c-.52.19-1.06.33-1.61.4l-1.67.42-.74-.87Z" fill="#CCDEFF"/>
    <path class="cls-1" d="m502.77,201.41c5.76,5.14,6.39,13.73,8.1,20.6.11,7.19-1.63,14.28-5.05,20.6-1.7,3.01-3.83,5.75-6.32,8.15l-3.16,2.37c-9.25,4.99-19.7,7.35-30.2,6.82-9.1-.08-18.12-1.67-26.7-4.72-7.68-1.96-14.63-6.09-20.01-11.91-2.1-2.6-3.49-5.7-4.02-8.99-.48-3.29-.02-6.64,1.33-9.67,2.15-4.68,5.85-8.48,10.47-10.77,2.6-1.44,4.36,1.67,5.46,5.81.91,3.77,1.62,7.59,2.13,11.44l.12.5c-.71-.13-1.43-.2-2.15-.19.28,0,.56-.07.8-.2.57-.21,1.09-.52,1.55-.91l.6-.48.37-.09,1.07.33c.94.09,1.58,1.05,2.83,1.6,2.73,1.49,5.58,2.76,8.51,3.8l4.89,1.67,2.62.73c.66.29.57.45.94.62,1.38.92,3.04,1.3,4.67,1.07,1.59-.2,3.15-.59,4.64-1.16l.99-.25c4.88-1.54,7.7-6.64,6.38-11.59-.8-3.16-3.04-5.76-6.03-7.04-5.26-2.12-11.27-1.08-15.51,2.69-4.1,4.68-7.46,9.96-9.97,15.65-.54,1.4-1.22,2.73-2.03,3.99-.74.94-1.59,1.8-2.52,2.54-.95.5-2.02.77-3.1.77-2.85.02-5.66-.53-8.3-1.61-1.66-.57-3.28-1.02-4.81-1.63-2.51-.96-4.62-2.76-5.94-5.1-1.52-2.54-2.25-5.47-2.1-8.42,1.47-8.95,5.42-17.3,11.42-24.1.7-.9,1.53-1.76,2.31-2.62l3.58-3.59c2.88-2.17,5.5-4.33,8.79-6.4,6.05-3.01,12.44-5.28,19.03-6.79,2.23-.56,4.6-.82,6.87-.93l6.59.06c4.22.63,8.4,1.48,12.54,2.53,7.57,2.84,14.11,7.9,18.75,14.53l-.45.31Z" fill="#CCDEFF"/>
    <path class="cls-1" d="m86.36,202.47c.13.12.32.32,1.13.21,1-.14,1.96-.43,2.88-.85,2.42-1.27,4.73-2.74,6.9-4.41,2.39-1.71,4.87-3.56,7.54-5.36,1.4-.94,2.88-1.77,4.41-2.47,1.69-.8,3.46-1.43,5.27-1.87,2.16-.51,4.4-.55,6.58-.11.6.11,1.18.29,1.74.53l1,.39c.31.15.6.32.89.51,1.17.7,2.15,1.67,2.87,2.83.41.55.74,1.15,1,1.78.15.3.27.62.36.95l.21.85c.27,1.06.43,2.15.46,3.25,0,1.01-.08,2.02-.23,3.02-.16.94-.38,1.86-.64,2.77-2.26,6.31-5.9,12.04-10.64,16.77-3.12,3.35-6.5,6.46-10.09,9.31-.32.21-.6.49-.81.82-.06.11-.1.23-.1.36-.09.09,0,.26,0,.39.11.34.3.65.53.91.53.66,1.1,1.28,1.71,1.86,2.77,2.43,5.69,4.69,8.74,6.76,3.17,2.21,6.41,4.47,9.55,7.12,3.49,2.71,6.37,6.14,8.43,10.06,1.17,2.39,1.62,5.07,1.28,7.7-.07.64-.2,1.27-.39,1.89-.16.67-.41,1.33-.73,1.94-.14.33-.31.65-.51.95-.16.35-.36.69-.6,1-.47.65-1.01,1.25-1.62,1.76-.62.49-1.28.92-1.98,1.28-.66.32-1.37.56-2.09.72-1.28.3-2.59.43-3.9.39-2.24-.12-4.46-.52-6.6-1.18-3.92-1.19-7.73-2.73-11.38-4.59-3.56-1.76-6.98-3.64-10.37-5.48l-5.02-2.67c-.82-.44-1.63-.88-2.4-1.25-.29-.17-.6-.31-.93-.39-.21-.1-.43-.17-.65-.21-.83-.09-1.63.33-2.03,1.07-.21.35-.37.73-.47,1.13-.18.68-.3,1.37-.37,2.06-.26,3.25-.2,6.51.17,9.75.28,3.39.67,6.82.84,10.36.09,1.85.05,3.7-.14,5.54-.06,1.06-.25,2.11-.56,3.13-.19.62-.46,1.22-.8,1.78-.32.57-.71,1.09-1.17,1.55-1.23,1.14-2.83,1.81-4.5,1.9-1.46.09-2.93-.11-4.31-.61-2.43-.91-4.64-2.31-6.5-4.12-3.42-3.35-6.13-7.34-7.99-11.74-.95-2.13-1.76-4.32-2.4-6.56-.55-2.25-.93-4.53-1.15-6.83-.48-4.57-.18-9.2.89-13.67.7-2.76,1.47-3.8,1.78-3.65.31.15.47,1.62.7,3.91.41,3.09,1.04,6.16,1.88,9.16.48,1.82,1.12,3.73,1.84,5.72.36.99.73,2.01,1.19,3.01.47,1,.74,2.09,1.16,3.14,1.36,3.71,3.35,7.16,5.9,10.18,1.07,1.29,2.35,2.4,3.78,3.29.57.34,1.18.6,1.83.77.26.07.52.13.79.17l.22.06s-.07.25.21-.61c.26-1.86.28-3.74.06-5.6-.31-4.16-1-8.59-1.38-13.28-.23-2.51-.25-5.03-.05-7.54.06-.71.15-1.42.29-2.12l.11-.55c.04-.21.09-.43.17-.63l.49-1.54c.71-1.99,1.96-3.74,3.61-5.05,1.6-1.29,3.59-2,5.65-2.03.26-.02.51-.02.77,0l.77.12,1.55.27,1.38.42.93.32c1.22.42,2.33.86,3.43,1.33l3.05,1.52c4.05,2.1,7.92,4.2,11.81,6.08,3.63,1.95,7.43,3.58,11.35,4.87,1,.29,2.02.5,3.05.62.7.03,1.4,0,2.09-.07.44-.02.85-.21,1.14-.54.06-.15.14-.3.23-.44l.17-.59c.12-.38.19-.78.21-1.18-.04-1.91-.73-3.75-1.95-5.21-1.51-1.94-3.23-3.69-5.15-5.22-4.04-3.3-8.67-6.26-13.31-9.55-2.5-1.66-4.84-3.55-6.98-5.64-1.45-1.42-2.57-3.13-3.3-5.02-.77-2.16-.58-4.55.51-6.56.33-.52.69-1.05,1.06-1.54.38-.45.8-.87,1.24-1.26l.61-.62.41-.42.83-.7,3.38-2.81,3.25-2.91c1.01-1.03,2.01-2.04,3.02-3.07,1.01-1.03,1.87-2.13,2.81-3.2s1.73-2.22,2.41-3.4c1.49-2.12,2.48-4.56,2.89-7.12.12-.58.04-1.12.11-1.68-.04-.5-.12-.99-.25-1.47-.06-.35-.18-.69-.36-.99-.16-.26-.38-.47-.63-.62-.11-.08-.23-.14-.37-.18-.19-.1-.4-.16-.62-.18-.46-.09-.92-.12-1.39-.09-1.14.09-2.25.38-3.3.84-1.23.51-2.42,1.11-3.56,1.81-1.21.67-2.43,1.45-3.64,2.25l-7.5,5.11c-1.63,1.11-3.32,2.14-5.06,3.09-1.9,1.11-3.96,1.91-6.11,2.38-.61.12-1.24.19-1.86.21-.67.04-1.34,0-2-.11-.69-.11-1.37-.28-2.02-.53-.63-.27-1.24-.59-1.83-.96-.49-.33-.96-.7-1.39-1.1l-.67-.66-.59-.58-1.78-2.14c-4.78-5.64-9.65-11.22-14.78-16.38-1.89-1.93-3.89-3.75-6.01-5.43-.72-.66-1.47-1.29-2.25-1.87-.6-.46-1.26-.86-1.94-1.19-.68-.38-1.51-.4-2.21-.06-.6.49-.97,1.2-1.05,1.97-.15.7-.24,1.41-.27,2.12,0,1.03.04,2.06.14,3.09.77,5.47,1.83,10.9,3.19,16.26.28,1.47.48,2.96.59,4.46.1.8.15,1.61.16,2.42.01.99-.07,1.97-.24,2.94-.32,1.97-1.35,3.76-2.91,5.01-.42.27-.82.56-1.24.8l-1.37.58c-.92.28-1.87.47-2.83.57-.66.09-1.32.12-1.98.1-.65.02-1.25-.05-1.85-.08l-1.63-.12c-.48-.04-.98-.04-1.48-.07-2.02-.04-4.04.06-6.05.29-4.02.49-7.97,1.41-11.79,2.75-.92.34-1.83.7-2.69,1.1l-1.22.59c-.26.15-.59.33-.76.45-.86.43-1.55,1.13-1.96,2-.14.44-.12.92.06,1.35.18.42.45.8.78,1.13.33.29.7.53,1.09.73.15.15.4.17.6.25l.33.15.65.21c3.06,1.11,6.69,1.79,10.37,2.91,3.02.84,6,1.85,8.91,3.02,1.1.5,2.17,1.05,3.21,1.66.94.59,1.76,1.14,2.5,1.66,2.19,1.43,3.84,3.54,4.72,6,.31.78.53,1.58.67,2.41,0,1.03-1.34.84-3.7.13-2.35-.7-5.93-1.66-10.71-2.64-3.5-.9-7.17-1.55-11.04-2.3-1.94-.34-3.91-.85-6.04-1.4l-1.58-.47-1.66-.62-.84-.3-1.2-.61c-.78-.43-1.64-.78-2.38-1.27l-2.15-1.6c-.62-.61-1.25-1.23-1.81-1.9-.56-.66-1.06-1.37-1.48-2.12-.39-.76-.73-1.54-1-2.35-1.08-3.3-.59-6.92,1.34-9.81,1.01-1.5,2.29-2.8,3.77-3.83.75-.57,1.54-1.1,2.36-1.56.82-.53,1.53-.77,2.34-1.22,2.18-1,4.44-1.81,6.75-2.44,4.32-1.16,8.75-1.89,13.21-2.19,2.29-.16,4.58-.17,6.87-.06.62.04,1.21.08,1.83.15l1.61.18,1.1.13.93.03c.13-.03.27-.04.4-.01v-.8c-.32-1.69-.74-3.36-1.27-4.99l-1.56-5.92c-.86-3.17-1.54-6.39-2.05-9.64l-.16-1.31-.09-.65-.06-.81-.12-1.66-.02-2.29c-.02-1.52.24-2.94.35-4.42l.5-2.05c.06-.34.14-.67.26-1l.4-.87c.88-2.34,2.57-4.28,4.76-5.46,2.22-1.16,4.78-1.51,7.22-.97,2.72.59,5.28,1.74,7.53,3.37.62.41,1.23.8,1.78,1.23l.84.65.71.57c.68.51,1.31,1.08,1.88,1.71,1.15,1.13,2.14,2.44,3.25,3.62,1.11,1.18,2.21,2.37,3.29,3.58,2.09,2.35,4.09,4.75,6.06,7.14,1.97,2.39,3.88,4.82,5.77,7.24l2.82,3.64.66.85c.11.09.21.19.3.3l.31.31-.09.28Z" fill="#CCDEFF"/>
    <path class="cls-1" d="m57.88,228.03c.35-1.93,2.13-3.2,3.39-4.48,1.54-.98,3.3-1.54,5.12-1.63.88-.03,1.75.07,2.6.29l.93.37c2.3,1.34,4.2,3.29,5.47,5.63,1.19,1.98,2.04,4.14,2.51,6.4.59,1.92.62,3.97.07,5.9-.28.8-.77,1.51-1.41,2.06-.65.54-1.43.88-2.27.99-1.3.15-2.61-.14-3.71-.84-.66-.37-.22-1.17.53-1.95.7-.7,1.43-1.36,2.19-1.97l.09-.09c.07.17.15.33.24.49-.04-.06-.09-.11-.15-.15-.12-.1-.26-.17-.4-.21l-.18-.07-.07-.07-.07-.27c-.1-.22.02-.48-.03-.82-.04-.79-.14-1.57-.31-2.34l-.29-1.28-.19-.66c-.02-.18.02-.18,0-.29.02-.42-.12-.83-.39-1.15-.25-.32-.54-.6-.87-.85l-.18-.18c-.98-.85-2.46-.79-3.35.15-.58.59-.85,1.42-.73,2.24.24,1.42,1.26,2.58,2.63,3,1.55.27,3.14.3,4.7.09.37-.07.75-.1,1.13-.09.3.03.6.11.88.21.24.14.43.33.58.57.38.61.63,1.3.75,2.01.1.43.21.84.28,1.26.13.67.01,1.36-.32,1.96-.35.66-.88,1.21-1.54,1.57-2.13.87-4.46,1.12-6.72.72-.29-.03-.58-.1-.87-.15l-1.25-.3c-.85-.34-1.66-.62-2.55-1.05-1.45-.91-2.79-1.99-3.99-3.22-.42-.41-.79-.89-1.11-1.36l-.86-1.43c-.42-1-.79-2.01-1.11-3.05-.39-2.01-.16-4.1.66-5.98l.13.06Z" fill="#CCDEFF"/>
</svg>