<svg width="642" height="588" viewBox="0 0 642 588" fill="none" xmlns="http://www.w3.org/2000/svg">
<path d="M349.589 412.591C349.39 405.207 349.27 397.607 349.52 389.652C349.707 380.977 350.911 372.354 353.106 363.959C354.459 358.788 356.545 353.837 359.303 349.257C360.9 346.702 362.781 344.335 364.909 342.201C366.748 340.293 368.759 338.558 370.916 337.018C378.178 331.61 386.244 327.378 394.819 324.474C405.744 320.652 417.081 318.132 428.596 316.965C438.162 316.024 447.356 315.44 456.04 314.391C460.467 313.944 464.585 313.31 468.718 312.476C473.733 311.224 478.949 310.514 483.469 309.913C492.741 308.585 501.58 307.366 509.97 305.403C517.602 304.159 524.847 301.181 531.148 296.697C532.718 295.43 533.726 293.595 533.951 291.59C534.011 290.447 533.881 289.301 533.566 288.2C533.195 286.714 532.824 285.228 531.942 283.804C528.554 277.777 523.647 272.742 517.708 269.202C509.228 264.046 500.298 259.67 491.028 256.128C481.619 251.899 471.9 247.747 462.305 243.564C456.285 240.528 457.818 239.027 463.901 238.101C473.684 236.287 483.69 236.009 493.558 237.277C496.298 237.711 499.177 238.177 501.916 238.874C504.655 239.572 507.426 240.656 510.165 241.617C515.838 243.572 521.344 245.982 526.631 248.821C532.428 251.955 537.809 255.805 542.647 260.281C548.182 265.46 552.522 271.785 555.363 278.813C557.215 283.106 558.126 287.746 558.035 292.42C557.886 297.777 556.359 303.006 553.603 307.602C549 314.505 542.544 319.969 534.976 323.368C523.912 328.403 512.165 331.778 500.115 333.384C493.784 334.372 486.896 335.5 481.23 336.782L477.205 337.787L471.818 339.131C468.289 340.012 464.822 340.877 461.416 341.727C447.732 344.617 434.683 346.624 422.563 349.189C409.405 352.078 396.866 355.076 388.567 361.883L387.731 362.486L387.236 362.61C386.915 362.837 386.629 363.108 386.384 363.415C385.72 364.141 385.147 364.946 384.681 365.813C383.423 368.087 382.504 370.532 381.954 373.071C380.499 379.374 379.703 385.812 379.578 392.279C378.937 409.212 380.354 427.276 379.805 445.896C379.778 453.169 379.284 460.433 378.326 467.643C377.298 475.64 374.764 483.37 370.857 490.424C366.45 498.545 359.114 504.68 350.342 507.581C341.577 510.39 332.086 509.879 323.673 506.147C312.499 500.806 302.871 492.705 295.697 482.609C288.974 473.429 283.468 463.417 279.317 452.823C278.73 450.47 277.462 448.287 276.565 446.011C275.668 443.735 274.957 441.413 274.308 439.076C273.28 435.372 272.577 431.586 272.207 427.76C272.167 425.024 272.576 422.3 273.417 419.697C274.463 415.974 276.692 412.694 279.767 410.35C280.924 409.256 282.173 408.263 283.498 407.38C287.508 405.261 292.846 411.625 299.745 422.137C303.039 430.326 306.689 438.098 310.385 445.792C314.177 452.719 318.512 459.335 323.348 465.578C326.641 470.468 331.096 474.464 336.314 477.207C337.35 477.789 338.537 478.043 339.719 477.936C339.873 477.804 340.079 477.753 340.277 477.797C340.277 477.797 340.772 477.674 341.02 477.612C341.267 477.55 342.01 477.364 342.444 477.256C343.131 476.822 343.752 476.29 344.286 475.678C345.292 474.237 346.095 472.665 346.672 471.005C348.478 465.765 349.593 460.312 349.99 454.785C350.394 440.834 350.027 426.872 348.892 412.962L349.589 412.591Z" fill="#CCDEFF" fill-opacity="0.61"/>
<path d="M399.555 367.167C398.873 367.337 397.821 367.599 396.519 370.555C394.947 374.193 393.913 378.041 393.45 381.977C392.738 392.733 392.947 403.529 394.073 414.25C394.919 425.812 396.045 437.963 396.581 450.656C396.851 457.305 396.6 463.966 395.831 470.576C395.039 477.906 393.517 485.139 391.287 492.166C388.551 500.477 384.062 508.103 378.122 514.527C376.511 516.314 374.704 517.912 372.734 519.293L369.359 521.845C368.224 522.563 367.045 523.209 365.829 523.779C361.062 526.252 355.781 527.57 350.411 527.627C347.731 527.861 345.033 527.761 342.378 527.33C341.047 527.212 339.731 526.968 338.447 526.601L335.166 525.578C331.033 524.309 327.052 522.59 323.296 520.45C319.901 518.353 316.659 516.019 313.594 513.466C310.779 510.993 308.103 508.367 305.579 505.599C289.013 485.003 277.223 460.987 271.058 435.284C266.22 417.879 262.693 400.136 260.507 382.204C260.463 380.677 260.088 379.177 259.41 377.808C259.168 377.379 258.829 377.013 258.42 376.74C258.296 376.244 257.553 376.167 257.104 375.95C255.736 375.643 254.32 375.616 252.941 375.871C249.641 376.294 246.373 376.934 243.158 377.786C229.269 382.089 215.665 387.264 202.428 393.28C188.495 399.389 174.206 405.652 158.834 410.738C142.518 416.911 125.068 419.517 107.66 418.38C97.2185 417.416 87.2926 413.396 79.1226 406.822C77.1045 405.275 75.2392 403.538 73.5524 401.635C71.6194 399.702 69.9308 397.539 68.5244 395.194C67.6758 394.05 66.95 392.821 66.3589 391.525C65.5052 390.247 64.7897 388.882 64.2244 387.453C62.9869 384.543 62.1147 381.491 61.6276 378.367C61.2556 375.285 61.1842 372.175 61.4145 369.08C61.6939 366.18 62.3292 363.327 63.3061 360.583C64.9265 355.67 67.1869 350.992 70.029 346.67C75.0576 339.39 80.9544 332.75 87.5891 326.896C99.6636 316.159 112.663 306.509 126.435 298.059C139.672 289.69 153.033 282.08 166.193 274.454L185.514 263.054C188.672 261.214 191.831 259.373 194.664 257.548C195.843 256.925 196.932 256.145 197.9 255.227C198.658 254.728 199.349 254.136 199.959 253.463C201.967 250.852 202.195 247.285 200.535 244.44C199.789 243.011 198.841 241.697 197.72 240.538C195.81 238.545 193.746 236.707 191.546 235.041C181.149 227.496 170.048 220.971 158.399 215.556C146.436 209.531 134.087 203.799 121.815 197.061C115.406 193.578 109.27 189.612 103.462 185.198C100.022 182.803 96.8751 180.012 94.0858 176.882C92.3861 174.949 90.9265 172.818 89.7389 170.535C88.4732 168.302 87.521 165.906 86.9091 163.413C85.6183 156.917 86.6335 150.174 89.7799 144.345C92.4698 139.231 96.1802 134.723 100.682 131.1C108.739 124.8 118.017 120.244 127.929 117.722C146.216 113.119 165.236 112.195 183.884 115.004C193.003 116.176 202.028 117.989 210.891 120.431C219.58 123.21 228.057 126.612 236.257 130.61C252.636 138.407 267.566 148.939 280.404 161.754C288.264 169.791 290.166 174.512 289.036 175.255C287.906 175.997 282.613 173.503 274.458 169.553C263.198 164.576 251.604 160.393 239.76 157.033C232.656 154.926 224.902 153.112 216.73 151.468C212.644 150.646 208.481 149.777 204.147 149.28C199.814 148.783 195.604 147.466 191.208 146.722C175.928 143.655 160.23 143.277 144.82 145.605C138.26 146.559 131.898 148.569 125.981 151.557C123.654 152.761 121.511 154.293 119.618 156.105C118.847 156.837 118.118 157.612 117.434 158.426L116.799 159.045C116.799 159.045 116.088 158.301 118.408 161.011C124.116 165.7 130.404 169.636 137.117 172.72C151.757 180.248 168.053 187.034 184.611 195.398C193.528 199.771 202.051 204.906 210.083 210.747C212.358 212.403 214.538 214.187 216.613 216.09L218.237 217.592C218.882 218.16 219.477 218.781 220.017 219.45L224.178 224.265C229.406 230.74 232.722 238.547 233.751 246.805C234.79 254.849 233.097 263.008 228.944 269.974C228.49 270.877 227.956 271.736 227.348 272.543L225.366 274.88L221.263 279.522L217.005 283.281L214.001 285.741C210.068 288.959 206.306 291.806 202.451 294.544L191.071 301.659C175.698 310.956 160.634 319.649 146.298 328.884C132.251 337.082 118.952 346.498 106.554 357.024C103.513 359.77 100.721 362.778 98.2076 366.014C96.6733 368.305 95.3167 370.711 94.1495 373.209C93.309 374.714 93.1129 376.495 93.6059 378.147C93.9925 378.666 94.3291 379.221 94.6113 379.803L96.2359 381.568C97.2832 382.753 98.4734 383.804 99.7792 384.696C106.284 388.493 113.889 389.959 121.339 388.853C130.949 387.771 140.399 385.567 149.496 382.285C168.909 375.467 188.384 366.002 209.005 357.172C219.725 352.182 230.889 348.206 242.35 345.297C250.097 343.344 258.173 343.078 266.032 344.517C274.88 346.378 282.522 351.905 287.061 359.725C288.128 361.892 289.164 364.199 290.061 366.474C290.777 368.683 291.34 370.938 291.746 373.224L292.58 376.567L293.137 378.796L293.801 383.038L296.301 400.173L299.406 417.092C300.782 422.603 302.141 428.052 303.517 433.563C304.892 439.073 306.841 444.244 308.51 449.616C310.18 454.987 312.422 460.018 314.974 464.709C319.049 474.095 325.2 482.433 332.966 489.095C334.684 490.705 336.665 491.526 338.398 492.935C340.153 493.831 341.987 494.562 343.876 495.12C345.172 495.657 346.56 495.936 347.962 495.942C349.15 495.941 350.319 495.649 351.368 495.092C351.873 494.892 352.335 494.598 352.73 494.226C353.463 493.785 354.101 493.201 354.604 492.508C355.845 491.16 356.906 489.657 357.763 488.036C359.792 484.011 361.133 479.674 361.73 475.206C362.567 470.017 362.973 464.768 362.944 459.512C363.163 454.063 363.056 448.367 362.873 442.625L361.122 406.885C360.736 399.104 360.744 391.308 361.147 383.528C361.331 374.85 362.87 366.255 365.707 358.052C366.559 355.734 367.606 353.493 368.836 351.351C370.091 349.023 371.597 346.838 373.327 344.837C375.104 342.735 377.097 340.827 379.273 339.143C381.494 337.58 383.828 336.184 386.256 334.967C388.379 333.994 390.574 333.182 392.819 332.539L396.411 331.643L399.569 330.855L410.419 329.264C439.226 324.771 468.002 319.891 495.943 313.246C506.334 310.881 516.566 307.866 526.578 304.219C530.278 303.171 533.921 301.932 537.492 300.508C540.292 299.429 542.97 298.055 545.48 296.41C548.161 294.895 549.935 292.17 550.235 289.106C549.818 286.089 548.215 283.364 545.78 281.535C543.742 279.596 541.542 277.834 539.204 276.27C535.746 274.13 532.182 272.166 528.526 270.384C508.538 261.696 488.089 254.108 467.272 247.654C461.737 245.566 456.327 243.161 451.069 240.45C448.165 239.115 445.334 237.625 442.588 235.989C439.24 234.008 436.09 231.711 433.18 229.128C427.196 223.998 423.323 216.834 422.307 209.018C422.276 207.052 422.122 205.117 422.17 203.198L423.023 197.394C423.979 193.707 425.286 190.121 426.928 186.684C427.985 184.299 429.239 182.006 430.676 179.829C431.962 177.601 433.402 175.728 434.749 173.748L438.513 168.533C439.643 167.001 440.665 165.299 441.78 163.705C446.07 156.985 449.905 149.985 453.258 142.752C459.892 128.237 464.922 113.043 468.258 97.4369C469.018 93.6296 469.654 89.8531 470.105 86.123L470.617 80.7987C470.649 79.6068 470.742 78.1364 470.665 77.3006C470.983 73.5325 470.042 69.7655 467.992 66.5886C466.781 65.218 465.137 64.3048 463.334 64.0019C461.536 63.7485 459.707 63.8477 457.947 64.2939C456.293 64.8256 454.708 65.5525 453.225 66.459C452.42 66.6599 451.832 67.4646 451.166 67.9596L449.989 68.7795L447.93 70.5433C437.897 78.5726 428.157 89.3573 416.792 99.4293C407.754 107.873 398.247 115.802 388.318 123.178C384.39 125.842 380.328 128.304 376.15 130.556C372.233 132.52 368.688 134.129 365.421 135.536C356.105 139.945 345.601 141.18 335.516 139.053C332.269 138.485 329.089 137.582 326.029 136.357C322.547 134.266 325.985 130.119 333.184 123.652C340.384 117.184 350.96 107.112 364.091 93.0474C374.31 83.1297 384.066 72.1439 394.549 60.6475C399.675 54.8297 405.45 49.2442 411.706 43.2101L416.537 38.847L422.033 34.5152L424.774 32.3184L429.279 29.5495C432.329 27.8016 435.271 25.6203 438.46 24.1666L448.259 20.2079C451.603 19.3734 454.946 18.5388 458.367 18.0139C461.729 17.4793 465.135 17.2681 468.537 17.3832C471.891 17.6162 475.224 18.1039 478.504 18.842C491.834 21.9991 502.979 31.0975 508.739 43.5261C511.71 50.001 513.45 56.972 513.87 64.0833C514.258 67.7846 514.396 71.5079 514.284 75.2278C514.391 79.082 513.724 81.9452 513.583 85.598C512.457 94.9859 510.549 104.263 507.877 113.333C502.877 130.255 496.24 146.649 488.061 162.283C483.882 170.292 479.227 178.043 474.122 185.495C472.712 187.492 471.35 189.41 469.863 191.36L465.929 196.42L463.235 199.855L461.237 202.919C461.079 203.428 460.815 203.897 460.463 204.296L463.171 205.923C469.5 208.339 475.977 210.347 482.563 211.936L505.669 218.863C518.116 222.499 530.35 226.824 542.317 231.817L547.068 233.986L549.436 235.04L552.299 236.496L558.117 239.516L565.855 244.163C571.023 247.214 575.263 251.023 579.998 254.446L585.877 260.345C586.899 261.237 587.846 262.211 588.709 263.256L590.813 266.415C596.862 274.172 599.909 283.852 599.392 293.675C598.74 303.534 594.638 312.848 587.805 319.984C580.229 327.916 571.087 334.185 560.958 338.393C558.311 339.645 555.725 340.883 553.14 341.857L549.239 343.357L545.864 344.594C542.751 345.829 539.527 346.766 536.236 347.392C530.044 348.937 523.62 349.554 517.366 350.851C511.113 352.149 504.843 353.385 498.559 354.559C486.345 356.752 474.163 358.543 462.09 360.241C450.016 361.939 437.88 363.389 425.853 364.747L407.805 366.752L403.579 367.215C403.059 367.408 402.519 367.543 401.969 367.616L400.297 368.034L399.555 367.167Z" fill="#CCDEFF" fill-opacity="0.61"/>
<path d="M372.184 218.766C377.94 223.907 378.571 232.498 380.287 239.371C380.398 246.558 378.658 253.652 375.233 259.971C373.529 262.978 371.401 265.725 368.915 268.125L365.756 270.492C356.503 275.485 346.056 277.842 335.555 277.307C326.456 277.229 317.432 275.635 308.857 272.591C301.177 270.636 294.228 266.499 288.848 260.68C286.746 258.084 285.36 254.983 284.827 251.686C284.344 248.4 284.807 245.045 286.162 242.012C288.317 237.331 292.011 233.53 296.629 231.244C299.23 229.805 300.994 232.917 302.091 237.05C303.003 240.823 303.715 244.641 304.223 248.489C304.223 248.489 304.223 248.489 304.346 248.985C303.637 248.852 302.916 248.79 302.195 248.798C302.475 248.795 302.751 248.726 303 248.597C303.568 248.391 304.092 248.081 304.548 247.685L305.152 247.205L305.523 247.112L306.591 247.438C307.535 247.531 308.17 248.491 309.423 249.033C312.153 250.527 314.999 251.796 317.935 252.829L322.825 254.502L325.441 255.231C326.106 255.525 326.013 255.68 326.385 255.85C327.76 256.765 329.422 257.146 331.059 256.92C332.648 256.722 334.207 256.333 335.703 255.761L336.694 255.514C341.578 253.978 344.39 248.871 343.075 243.923C342.271 240.763 340.04 238.158 337.041 236.878C331.78 234.755 325.771 235.796 321.531 239.565C317.435 244.246 314.072 249.521 311.557 255.21C311.018 256.606 310.338 257.944 309.528 259.202C308.791 260.146 307.943 260.998 307.004 261.74C306.049 262.243 304.987 262.508 303.908 262.513C301.063 262.531 298.243 261.982 295.612 260.9C293.956 260.326 292.331 259.877 290.799 259.273C288.286 258.318 286.184 256.516 284.857 254.178C283.335 251.642 282.603 248.71 282.755 245.757C284.222 236.812 288.179 228.461 294.172 221.662C294.869 220.764 295.705 219.898 296.479 219.047L300.056 215.457C302.936 213.291 305.553 211.125 308.85 209.052C314.902 206.046 321.288 203.768 327.876 202.265C330.105 201.708 332.473 201.446 334.749 201.339L341.342 201.403C345.561 202.036 349.745 202.879 353.879 203.931C361.453 206.77 367.991 211.833 372.633 218.457L372.184 218.766Z" fill="#CCDEFF" fill-opacity="0.61"/>
</svg>
