<svg viewBox="0 0 649 138" fill="none" xmlns="http://www.w3.org/2000/svg">
<g clip-path="url(#clip0_496_4138)">
<rect x="0.5" y="0.302246" width="648" height="137" rx="11" fill="#F5F5F5" fill-opacity="0.63"/>
<path opacity="0.3" d="M298.624 16.0142H309.364V17.1302H304.252V18.7022C305.684 19.3902 307.172 20.2022 308.716 21.1382L308.032 22.1702C306.488 21.1702 305.228 20.4182 304.252 19.9142V26.5382H303.112V17.1302H298.624V16.0142ZM313.024 18.0662C312.528 18.8102 311.992 19.4662 311.416 20.0342L310.612 19.0742C311.612 18.1862 312.468 16.9542 313.18 15.3782L314.296 15.6182C314.136 16.0102 313.928 16.4542 313.672 16.9502H320.728V18.0662H316.78V20.8262H321.172V21.9422H316.78V26.5502H315.64V21.9422H310.84V20.8262H315.64V18.0662H313.024ZM327.136 16.7342H332.296V17.8862H328.192L327.94 20.3582H327.976C328.24 20.0862 328.544 19.8902 328.888 19.7702C329.192 19.6422 329.544 19.5782 329.944 19.5782C330.752 19.5782 331.408 19.8422 331.912 20.3702C332.424 20.9062 332.68 21.6302 332.68 22.5422C332.68 23.4222 332.352 24.1462 331.696 24.7142C331.088 25.2182 330.356 25.4702 329.5 25.4702C328.74 25.4702 328.08 25.2582 327.52 24.8342C326.912 24.3782 326.576 23.7502 326.512 22.9502H327.796C327.844 23.4382 328.032 23.8022 328.36 24.0422C328.648 24.2582 329.032 24.3662 329.512 24.3662C330.032 24.3662 330.476 24.2022 330.844 23.8742C331.204 23.5382 331.384 23.0982 331.384 22.5542C331.384 21.9542 331.228 21.4862 330.916 21.1502C330.604 20.8142 330.164 20.6462 329.596 20.6462C329.204 20.6462 328.872 20.7142 328.6 20.8502C328.296 20.9862 328.06 21.2142 327.892 21.5342H326.668L327.136 16.7342ZM334.823 19.1942C335.087 19.1942 335.299 19.2742 335.459 19.4342C335.627 19.5862 335.711 19.7902 335.711 20.0462C335.711 20.2862 335.623 20.4942 335.447 20.6702C335.271 20.8302 335.063 20.9102 334.823 20.9102C334.575 20.9102 334.367 20.8262 334.199 20.6582C334.031 20.4902 333.947 20.2862 333.947 20.0462C333.947 19.7902 334.031 19.5862 334.199 19.4342C334.359 19.2742 334.567 19.1942 334.823 19.1942ZM334.823 23.5862C335.087 23.5862 335.299 23.6662 335.459 23.8262C335.627 23.9782 335.711 24.1822 335.711 24.4382C335.711 24.6782 335.623 24.8862 335.447 25.0622C335.271 25.2222 335.063 25.3022 334.823 25.3022C334.575 25.3022 334.367 25.2182 334.199 25.0502C334.031 24.8822 333.947 24.6782 333.947 24.4382C333.947 24.1822 334.031 23.9782 334.199 23.8262C334.359 23.6662 334.567 23.5862 334.823 23.5862ZM340.193 16.5662C341.025 16.5662 341.701 16.8022 342.221 17.2742C342.741 17.7542 343.001 18.3702 343.001 19.1222C343.001 19.8502 342.721 20.5262 342.161 21.1502C341.825 21.4942 341.233 21.9542 340.385 22.5302C339.465 23.1382 338.913 23.6782 338.729 24.1502H343.013V25.3022H337.109C337.109 24.4462 337.393 23.6982 337.961 23.0582C338.257 22.7062 338.901 22.1862 339.893 21.4982C340.477 21.0822 340.885 20.7542 341.117 20.5142C341.509 20.0742 341.705 19.6062 341.705 19.1102C341.705 18.6302 341.573 18.2702 341.309 18.0302C341.045 17.7902 340.657 17.6702 340.145 17.6702C339.601 17.6702 339.193 17.8542 338.921 18.2222C338.641 18.5742 338.489 19.0982 338.465 19.7942H337.157C337.173 18.8342 337.449 18.0662 337.985 17.4902C338.529 16.8742 339.265 16.5662 340.193 16.5662ZM344.388 16.7342H350.136V17.7902L347.1 25.3022H345.72L348.816 17.9222H344.388V16.7342Z" fill="black"/>
<path opacity="0.6" d="M129.796 49.2782H131.332V63.8382H129.796V61.2302C128.377 61.8382 126.985 62.3396 125.62 62.7342L125.252 61.2302C126.788 60.9102 128.303 60.4036 129.796 59.7102V54.9902H125.572V53.5342H129.796V49.2782ZM135.108 63.6942C133.956 63.6942 133.38 63.1022 133.38 61.9182V49.2622H134.9V54.4302C136.244 53.9502 137.54 53.2942 138.788 52.4622L139.668 53.7102C137.983 54.6702 136.393 55.3902 134.9 55.8702V61.6942C134.9 62.0782 135.081 62.2702 135.444 62.2702H137.444C137.732 62.2702 137.961 62.1529 138.132 61.9182C138.271 61.6516 138.361 60.7769 138.404 59.2942L139.828 59.7742C139.732 61.6196 139.545 62.7342 139.268 63.1182C138.98 63.5022 138.457 63.6942 137.7 63.6942H135.108ZM148.852 51.3422V63.2782H147.428V62.3342H143.06V63.2782H141.636V51.3422H144.5V49.1182H145.988V51.3422H148.852ZM143.06 60.9742H144.5V57.3902H143.06V60.9742ZM145.988 60.9742H147.428V57.3902H145.988V60.9742ZM143.06 56.0462H144.5V52.7182H143.06V56.0462ZM145.988 52.7182V56.0462H147.428V52.7182H145.988ZM150.004 49.9182H155.38V51.0222C154.889 52.7182 154.372 54.2382 153.828 55.5822C154.937 57.1716 155.503 58.4729 155.524 59.4862C155.524 60.4036 155.321 61.0382 154.916 61.3902C154.489 61.7636 153.636 61.9502 152.356 61.9502L151.924 60.4142C152.564 60.4889 153.023 60.5262 153.3 60.5262C153.641 60.4942 153.865 60.4142 153.972 60.2862C154.057 60.1582 154.105 59.8916 154.116 59.4862C154.095 58.4942 153.497 57.1929 152.324 55.5822C152.836 54.3982 153.332 52.9636 153.812 51.2782H151.444V63.9662H150.004V49.9182ZM165.22 49.2142C165.22 50.4409 165.183 51.6356 165.108 52.7982C166.036 57.0436 168.329 60.2916 171.988 62.5422L170.98 63.8702C167.908 61.8222 165.764 59.0809 164.548 55.6462C163.492 58.9742 161.284 61.7262 157.924 63.9022L156.996 62.5422C161.316 59.9182 163.54 56.3129 163.668 51.7262L163.684 49.2142H165.22ZM176.308 53.5982H181.556V51.8062H183.012V53.5982H184.868V54.9582H183.012V59.5342C183.012 60.5902 182.511 61.1182 181.508 61.1182H179.668L179.348 59.7102C179.924 59.7742 180.479 59.8062 181.012 59.8062C181.375 59.8062 181.556 59.5876 181.556 59.1502V55.3582C180.34 57.3636 178.767 58.9369 176.836 60.0782L176.02 58.7342C177.876 57.7956 179.369 56.5369 180.5 54.9582H176.308V53.5982ZM187.124 49.7742V63.9662H185.668V63.3582H175.332V63.9662H173.876V49.7742H187.124ZM175.332 61.9822H185.668V51.1502H175.332V61.9822ZM189.7 49.7262H194.82V50.9262C194.276 52.4836 193.721 53.9342 193.156 55.2782C194.159 56.7396 194.697 58.0196 194.772 59.1182C194.772 59.8649 194.612 60.3982 194.292 60.7182C193.823 61.1236 193.017 61.3369 191.876 61.3582L191.364 59.8222C191.737 59.8756 192.009 59.9022 192.18 59.9022C192.628 59.8702 192.921 59.8009 193.06 59.6942C193.22 59.5769 193.3 59.3849 193.3 59.1182C193.3 58.0516 192.751 56.8462 191.652 55.5022C192.356 53.9662 192.921 52.5209 193.348 51.1662H191.172V63.9662H189.7V49.7262ZM199.508 49.2942C199.508 50.8729 199.444 52.3289 199.316 53.6622C200.212 57.3742 201.769 60.3236 203.988 62.5102L202.884 63.8222C201.113 61.8916 199.759 59.5716 198.82 56.8622C198.788 56.9262 198.772 56.9956 198.772 57.0702C198.185 59.8116 196.761 62.0782 194.5 63.8702L193.508 62.6702C195.417 61.0916 196.676 59.1502 197.284 56.8462C197.753 54.9156 197.999 52.3982 198.02 49.2942H199.508ZM224.852 50.6542C223.497 51.1236 221.977 51.4169 220.292 51.5342V54.1262H225.252V55.5822H223.7V63.9662H222.212V55.5822H220.292V57.1982C220.217 60.0036 219.593 62.2489 218.42 63.9342L217.348 62.7822C218.265 61.4276 218.756 59.5662 218.82 57.1982V50.2862C220.751 50.2542 222.516 49.9289 224.116 49.3102L224.852 50.6542ZM210.756 50.4462H213.62C213.385 49.9876 213.156 49.5929 212.932 49.2622L214.5 49.0062C214.735 49.4862 214.937 49.9662 215.108 50.4462H218.068V51.8542H210.756V50.4462ZM210.596 54.0782H212.292C212.079 53.5022 211.839 52.9796 211.572 52.5102L212.9 52.0142C213.188 52.6542 213.433 53.3422 213.636 54.0782H215.156C215.412 53.3956 215.636 52.7022 215.828 51.9982L217.188 52.4782C217.007 53.0222 216.788 53.5556 216.532 54.0782H218.164V55.4702H215.204V56.9102H217.892V58.2862H215.204V62.5582C215.204 63.5289 214.676 64.0142 213.62 64.0142H212.788L212.452 62.6062C212.697 62.6702 212.921 62.7022 213.124 62.7022C213.508 62.7022 213.7 62.5316 213.7 62.1902V58.2862H210.852V56.9102H213.7V55.4702H210.596V54.0782ZM213.188 59.2782C212.793 60.9209 212.255 62.3289 211.572 63.5022L210.324 62.7022C211.028 61.5609 211.524 60.3236 211.812 58.9902L213.188 59.2782ZM216.82 58.8782C217.257 59.9449 217.588 60.8729 217.812 61.6622L216.532 62.1422C216.276 61.1502 215.956 60.1742 215.572 59.2142L216.82 58.8782ZM229.7 49.2942C229.572 50.3396 229.444 51.2782 229.316 52.1102H231.828V52.9582C231.732 55.4436 231.3 57.6142 230.532 59.4702C231.023 59.9076 231.529 60.4089 232.052 60.9742L231.028 62.1582C230.676 61.7529 230.287 61.3316 229.86 60.8942C229.177 62.0889 228.351 63.1182 227.38 63.9822L226.404 62.7822C227.364 61.9609 228.159 60.9902 228.788 59.8702C228.201 59.3049 227.487 58.6649 226.644 57.9502C226.953 56.7662 227.268 55.3049 227.588 53.5662H226.532V52.1102H227.828C227.945 51.3102 228.079 50.3236 228.228 49.1502L229.7 49.2942ZM229.428 58.5102C229.983 57.0489 230.313 55.4009 230.42 53.5662H229.076C228.809 55.1129 228.527 56.4302 228.228 57.5182C228.441 57.6889 228.841 58.0196 229.428 58.5102ZM238.068 55.4382V54.3022H234.868V55.4382H238.068ZM234.868 53.0382H238.068V51.9022H234.868V53.0382ZM234.868 50.5582H238.068V49.2142H239.524V50.5582H240.82V51.9022H239.524V56.7342H237.236V57.9022H241.172V59.2782H238.516C239.124 60.2809 240.073 61.1876 241.364 61.9982L240.324 63.2942C238.948 62.0676 237.977 60.7289 237.412 59.2782H237.236V63.8702H235.716V59.2782H235.668C234.964 60.8996 233.86 62.2382 232.356 63.2942L231.508 61.9182C232.841 61.2142 233.849 60.3342 234.532 59.2782H231.796V57.9022H235.716V56.7342H233.428V51.9022H232.068V50.5582H233.428V49.2142H234.868V50.5582ZM244.228 55.8222C243.769 56.4302 243.311 56.9956 242.852 57.5182L242.404 55.9982C243.983 54.0142 245.14 51.7156 245.876 49.1022L247.236 49.7422C246.863 51.0009 246.356 52.2382 245.716 53.4542V63.9662H244.228V55.8222ZM246.836 51.7582H250.884V49.1662H252.372V51.7582H256.612V53.2142H253.46C254.207 55.7422 255.465 57.9716 257.236 59.9022L256.26 61.1342C254.404 58.7982 253.108 56.1796 252.372 53.2782V59.3262H254.66V60.7822H252.372V63.9502H250.884V60.7822H248.644V59.3262H250.884V53.2142C250.084 56.5102 248.74 59.2142 246.852 61.3262L246.068 60.0302C247.785 58.2276 249.028 55.9556 249.796 53.2142H246.836V51.7582ZM264.18 61.4862C262.665 62.2329 260.921 62.8302 258.948 63.2782L258.756 61.7582C260.815 61.3422 262.623 60.7716 264.18 60.0462V61.4862ZM262.884 49.6942C262.084 51.5502 261.268 53.0542 260.436 54.2062C261.076 54.1422 261.689 54.0622 262.276 53.9662L263.268 52.1582L264.644 52.6702C263.257 55.1662 262.079 57.0009 261.108 58.1742C262.207 57.9076 263.273 57.5769 264.308 57.1822V58.5742C262.484 59.2356 260.777 59.6782 259.188 59.9022L258.788 58.5102C259.065 58.3822 259.295 58.2329 259.476 58.0622C259.988 57.5502 260.649 56.6542 261.46 55.3742L258.932 55.7102L258.548 54.3022C258.793 54.2062 259.012 54.0142 259.204 53.7262C260.047 52.3716 260.793 50.8409 261.444 49.1342L262.884 49.6942ZM271.876 49.8862V61.9182H273.156V63.3902H263.812V61.9182H265.124V49.8862H271.876ZM266.612 61.9182H270.388V59.3262H266.612V61.9182ZM266.612 57.8862H270.388V55.2622H266.612V57.8862ZM266.612 53.8382H270.388V51.3422H266.612V53.8382ZM293.78 51.4862V63.7902H292.244V63.1502H287.444V63.8382H285.94V51.4862H288.404C288.596 50.7182 288.74 49.9342 288.836 49.1342L290.372 49.3422C290.266 50.0889 290.111 50.8036 289.908 51.4862H293.78ZM287.444 61.6622H292.244V57.9822H287.444V61.6622ZM287.444 56.4942H292.244V52.9422H287.444V56.4942ZM285.236 56.9102C284.959 57.0596 284.41 57.3262 283.588 57.7102V62.2382C283.588 63.2942 283.06 63.8222 282.004 63.8222H280.596L280.244 62.3502C280.724 62.4036 281.135 62.4302 281.476 62.4302C281.871 62.4302 282.068 62.2382 282.068 61.8542V58.3502C281.418 58.6062 280.788 58.8302 280.18 59.0222L279.812 57.4862C280.538 57.3156 281.29 57.0969 282.068 56.8302V53.4542H279.988V51.9982H282.068V49.2302H283.588V51.9982H285.22V53.4542H283.588V56.2062C283.962 56.0356 284.511 55.7582 285.236 55.3742V56.9102ZM302.644 54.4942C304.202 53.5982 305.674 52.5902 307.06 51.4702H296.82V49.9982H309.156V51.4702C307.684 52.7929 306.02 54.0569 304.164 55.2622V62.1422C304.164 63.2622 303.61 63.8222 302.5 63.8222C301.53 63.8222 300.682 63.7902 299.956 63.7262L299.54 62.2542C300.33 62.3502 301.178 62.3982 302.084 62.3982C302.458 62.3982 302.644 62.2222 302.644 61.8702V54.4942ZM325.78 51.4862V63.7902H324.244V63.1502H319.444V63.8382H317.94V51.4862H320.404C320.596 50.7182 320.74 49.9342 320.836 49.1342L322.372 49.3422C322.266 50.0889 322.111 50.8036 321.908 51.4862H325.78ZM319.444 61.6622H324.244V57.9822H319.444V61.6622ZM319.444 56.4942H324.244V52.9422H319.444V56.4942ZM317.236 56.9102C316.959 57.0596 316.41 57.3262 315.588 57.7102V62.2382C315.588 63.2942 315.06 63.8222 314.004 63.8222H312.596L312.244 62.3502C312.724 62.4036 313.135 62.4302 313.476 62.4302C313.871 62.4302 314.068 62.2382 314.068 61.8542V58.3502C313.418 58.6062 312.788 58.8302 312.18 59.0222L311.812 57.4862C312.538 57.3156 313.29 57.0969 314.068 56.8302V53.4542H311.988V51.9982H314.068V49.2302H315.588V51.9982H317.22V53.4542H315.588V56.2062C315.962 56.0356 316.511 55.7582 317.236 55.3742V56.9102ZM334.948 55.5182C334.575 55.9769 334.084 56.5316 333.476 57.1822L332.98 55.5662C334.655 53.6996 335.882 51.5396 336.66 49.0862L338.084 49.7582C337.647 51.0702 337.108 52.2596 336.468 53.3262V63.9502H334.948V55.5182ZM345.716 55.5502C346.495 57.4596 347.162 59.4596 347.716 61.5502L346.388 62.1582C345.78 59.8542 345.108 57.8009 344.372 55.9982L345.716 55.5502ZM340.068 52.4782C339.599 53.6302 339.039 54.7129 338.388 55.7262L337.076 54.9102C338.282 53.1289 339.13 51.2196 339.62 49.1822L341.044 49.4862C340.874 50.1262 340.724 50.6329 340.596 51.0062H347.316V51.9982C347.039 53.0329 346.724 53.9929 346.372 54.8782L344.916 54.4622C345.258 53.8542 345.535 53.1929 345.748 52.4782H340.068ZM339.86 63.8382L339.524 62.3982C340.292 62.4729 340.916 62.5102 341.396 62.5102C341.78 62.5102 341.972 62.3022 341.972 61.8862V53.6462H343.444V62.2702C343.444 63.3156 342.932 63.8382 341.908 63.8382H339.86ZM340.724 56.0942C340.17 58.3022 339.444 60.2329 338.548 61.8862L337.124 61.3742C337.978 59.8702 338.724 57.9822 339.364 55.7102L340.724 56.0942ZM351.46 60.0302C352.399 60.0302 352.868 60.6489 352.868 61.8862C352.868 63.4116 352.164 64.5529 350.756 65.3102L350.228 64.4622C351.156 63.8862 351.663 63.1556 351.748 62.2702C351.642 62.2916 351.546 62.3022 351.46 62.3022C351.14 62.3022 350.863 62.1956 350.628 61.9822C350.404 61.7582 350.292 61.4916 350.292 61.1822C350.292 60.8196 350.399 60.5369 350.612 60.3342C350.826 60.1316 351.108 60.0302 351.46 60.0302ZM369.54 49.0062C370.02 49.7742 370.495 50.6276 370.964 51.5662L369.908 52.0782H373.988C374.564 51.0649 375.05 50.0409 375.444 49.0062L377.076 49.5822C376.671 50.5316 376.234 51.3636 375.764 52.0782H379.044V53.5342H376.036V56.9422H379.668V58.3982H376.036V63.8702H374.5V58.3982H370.42C370.239 59.3156 369.978 60.1476 369.636 60.8942C368.964 62.2489 367.876 63.2942 366.372 64.0302L365.492 62.6222C366.911 61.8862 367.876 60.9369 368.388 59.7742C368.548 59.3689 368.692 58.9102 368.82 58.3982H365.316V56.9422H369.076C369.14 56.3342 369.188 55.6942 369.22 55.0222V53.5342H365.972V52.0782H369.508C369.092 51.2142 368.634 50.4142 368.132 49.6782L369.54 49.0062ZM374.5 56.9422V53.5342H370.74V55.0222C370.719 55.7582 370.682 56.3982 370.628 56.9422H374.5ZM382.132 54.3182L383.396 49.6462L384.916 49.9022L384.084 52.8622H386.452C386.74 51.7316 386.986 50.4836 387.188 49.1182L388.74 49.3102C388.559 50.5156 388.324 51.6996 388.036 52.8622H395.364V54.3182H387.652C387.62 54.4356 387.455 54.9369 387.156 55.8222H393.556V57.1022C393.14 58.4249 392.346 59.6089 391.172 60.6542C392.378 61.3262 393.844 61.9502 395.572 62.5262L394.788 63.9662C392.879 63.2729 391.252 62.4996 389.908 61.6462C388.65 62.5209 387.098 63.3209 385.252 64.0462L384.452 62.6062C386.042 62.0302 387.412 61.3956 388.564 60.7022C387.519 59.8702 386.74 58.9796 386.228 58.0302C385.076 60.3876 383.626 62.2756 381.876 63.6942L381.092 62.2862C383.3 60.3342 384.948 57.6782 386.036 54.3182H382.132ZM387.332 57.1982C387.866 58.1476 388.698 59.0222 389.828 59.8222C390.842 59.0009 391.572 58.1262 392.02 57.1982H387.332ZM391.428 49.1342C392.516 49.9556 393.444 50.7982 394.212 51.6622L393.124 52.7502C392.474 51.9076 391.567 51.0382 390.404 50.1422L391.428 49.1342ZM398.66 49.3422C399.748 50.1849 400.655 51.0169 401.38 51.8382L400.276 52.9262C399.679 52.1689 398.788 51.3102 397.604 50.3502L398.66 49.3422ZM407.844 63.6782C407.3 63.6782 406.346 63.6676 404.98 63.6462C403.967 63.6356 403.114 63.5449 402.42 63.3742C401.791 63.1822 401.231 62.8089 400.74 62.2542C400.516 61.9876 400.314 61.8542 400.132 61.8542C399.802 61.8542 399.226 62.5742 398.404 64.0142L397.284 62.9742C398.084 61.6729 398.804 60.8622 399.444 60.5422V56.0142H397.3V54.6062H400.868V60.6542C400.954 60.7182 401.034 60.7982 401.108 60.8942C401.482 61.3209 401.866 61.6409 402.26 61.8542C402.762 62.0889 403.471 62.2222 404.388 62.2542C405.604 62.2756 406.682 62.2862 407.62 62.2862C408.143 62.2862 408.938 62.2756 410.004 62.2542C410.708 62.2436 411.327 62.2169 411.86 62.1742L411.492 63.6782H407.844ZM402.132 55.3582H405.892C405.978 54.8036 406.031 54.1316 406.052 53.3422H402.676V51.9342H404.564C404.148 51.1662 403.7 50.4782 403.22 49.8702L404.58 49.2142C405.092 49.9502 405.551 50.7076 405.956 51.4862L405.06 51.9342H407.492C407.951 51.0169 408.351 50.0622 408.692 49.0702L410.132 49.5662C409.802 50.4302 409.434 51.2196 409.028 51.9342H410.852V53.3422H407.54C407.53 54.0356 407.487 54.7076 407.412 55.3582H411.396V56.7982H407.124C406.644 58.6649 405.252 60.2222 402.948 61.4702L401.988 60.2542C403.823 59.3582 405.002 58.2062 405.524 56.7982H402.132V55.3582ZM407.924 57.5502C409.172 58.3929 410.33 59.3316 411.396 60.3662L410.34 61.5182C409.274 60.3662 408.17 59.3796 407.028 58.5582L407.924 57.5502ZM419.972 54.4942C421.53 53.5982 423.002 52.5902 424.388 51.4702H414.148V49.9982H426.484V51.4702C425.012 52.7929 423.348 54.0569 421.492 55.2622V62.1422C421.492 63.2622 420.938 63.8222 419.828 63.8222C418.858 63.8222 418.01 63.7902 417.284 63.7262L416.868 62.2542C417.658 62.3502 418.506 62.3982 419.412 62.3982C419.786 62.3982 419.972 62.2222 419.972 61.8702V54.4942ZM429.236 55.6782H443.716V57.1822H429.236V55.6782ZM446.436 57.5502H451.764V56.2222H453.3V57.5502H458.484V58.9902H453.3V62.2382C453.3 63.3476 452.746 63.9022 451.636 63.9022H449.86L449.508 62.4462C450.074 62.5102 450.607 62.5422 451.108 62.5422C451.546 62.5422 451.764 62.3129 451.764 61.8542V58.9902H446.436V57.5502ZM450.036 60.6542C449.034 61.7956 447.828 62.7876 446.42 63.6302L445.428 62.3342C446.815 61.6089 447.999 60.7396 448.98 59.7262L450.036 60.6542ZM458.18 63.5662C457.146 62.5102 455.978 61.5129 454.676 60.5742L455.652 59.6302C456.644 60.2382 457.855 61.1822 459.284 62.4622L458.18 63.5662ZM451.668 49.3582L451.044 50.2862H457.092V51.4542C456.218 52.5102 455.194 53.4169 454.02 54.1742C455.663 54.8036 457.604 55.2569 459.844 55.5342L459.14 56.9262C456.548 56.5529 454.34 55.9236 452.516 55.0382C450.628 55.9982 448.394 56.6862 445.812 57.1022L445.14 55.7422C447.338 55.4436 449.295 54.9369 451.012 54.2222C450.244 53.7422 449.562 53.2196 448.964 52.6542C448.356 53.1982 447.716 53.6942 447.044 54.1422L446.068 52.9742C447.668 52.0142 449.044 50.7022 450.196 49.0382L451.668 49.3582ZM449.892 51.7102C450.618 52.3929 451.487 52.9902 452.5 53.5022C453.514 52.9476 454.399 52.3236 455.156 51.6302H449.972L449.892 51.7102ZM475.156 51.0062V63.7102H473.668V62.7182H471.204V63.7102H469.716V51.0062H475.156ZM471.204 61.2462H473.668V52.4782H471.204V61.2462ZM463.748 49.2302H465.284V51.9182H468.5C468.5 57.3582 468.42 60.7182 468.26 61.9982C468.1 63.2142 467.306 63.8222 465.876 63.8222C465.684 63.8222 465.268 63.7956 464.628 63.7422L464.244 62.3502C464.852 62.4036 465.316 62.4302 465.636 62.4302C466.308 62.4302 466.708 62.0569 466.836 61.3102C466.922 60.6169 466.98 57.9822 467.012 53.4062H465.284V53.8382C465.231 58.5102 464.202 61.9236 462.196 64.0782L460.964 62.9902C462.788 61.1022 463.716 58.0516 463.748 53.8382V53.4062H461.332V51.9182H463.748V49.2302ZM483.54 56.7022H480.26C480.154 57.0862 480.031 57.4916 479.892 57.9182H483.972V63.8222H482.628V62.9582H480.484V63.8542H479.14V59.6622C478.767 60.3556 478.324 60.9849 477.812 61.5502L477.012 60.2862C477.844 59.3796 478.463 58.1849 478.868 56.7022H477.764V55.4062H479.172L479.396 53.8862H477.38V52.5422H479.508C479.53 52.1902 479.551 51.6836 479.572 51.0222H477.86V49.7262H483.54V52.5422H484.34V53.8862H483.54V56.7022ZM480.948 51.0222C480.927 51.7049 480.906 52.2116 480.884 52.5422H482.164V51.0222H480.948ZM480.772 53.8862C480.719 54.3129 480.644 54.8196 480.548 55.4062H482.164V53.8862H480.772ZM480.484 61.6302H482.628V59.2942H480.484V61.6302ZM487.428 53.5662H484.692V52.1102H486.34C485.988 51.2889 485.594 50.5209 485.156 49.8062L486.436 49.1982C486.863 49.9022 487.295 50.7236 487.732 51.6622L486.82 52.1102H488.356C488.804 51.1396 489.188 50.1262 489.508 49.0702L490.932 49.5662C490.602 50.5476 490.26 51.3956 489.908 52.1102H491.444V53.5662H488.916V55.5182H491.108V56.9262H488.916V58.8942H491.796V60.3662H488.916V63.9342H487.428V60.3662H484.58V58.8942H487.428V56.9262H485.076V55.5182H487.428V53.5662ZM494.452 49.3422C495.434 50.1849 496.25 51.0329 496.9 51.8862L495.86 52.9262C495.284 52.1262 494.479 51.2569 493.444 50.3182L494.452 49.3422ZM503.828 63.6782C503.274 63.6782 502.282 63.6676 500.852 63.6462C499.796 63.6356 498.906 63.5449 498.18 63.3742C497.519 63.1822 496.943 62.8089 496.452 62.2542C496.228 61.9876 496.015 61.8542 495.812 61.8542C495.535 61.8542 495.028 62.5742 494.292 64.0142L493.22 63.0062C493.935 61.7476 494.57 60.9422 495.124 60.5902V55.9982H493.3V54.6062H496.564V60.6542C496.65 60.7076 496.735 60.7876 496.82 60.8942C497.226 61.3316 497.631 61.6516 498.036 61.8542C498.559 62.0889 499.295 62.2222 500.244 62.2542C501.503 62.2756 502.628 62.2862 503.62 62.2862C504.122 62.2862 504.916 62.2756 506.004 62.2542C506.708 62.2436 507.327 62.2169 507.86 62.1742L507.492 63.6782H503.828ZM497.94 50.2542H499.396C499.492 49.8809 499.572 49.4862 499.636 49.0702L501.14 49.2622C501.055 49.6569 500.954 49.9876 500.836 50.2542H502.612V53.8702C503.274 52.6116 503.732 51.0222 503.988 49.1022L505.38 49.3582C505.242 50.1476 505.092 50.8356 504.932 51.4222H507.764V52.8462H507.092C507.028 54.5529 506.783 56.0836 506.356 57.4382C506.858 58.3022 507.354 59.2782 507.844 60.3662L506.852 61.3582C506.49 60.4729 506.122 59.6622 505.748 58.9262C505.172 60.0676 504.436 61.0062 503.54 61.7422L502.772 60.5262C503.711 59.7796 504.431 58.7609 504.932 57.4702C504.495 56.7449 504.02 56.0569 503.508 55.4062L504.26 54.5262C504.687 54.9956 505.066 55.4702 505.396 55.9502C505.599 55.0222 505.727 53.9876 505.78 52.8462H504.452C504.058 53.8276 503.599 54.6489 503.076 55.3102L502.612 54.7342V54.8462H500.74L501.028 55.5982H503.14V56.8622H500.1L500.004 57.5662H502.708C502.708 59.4329 502.586 60.5796 502.34 61.0062C502.084 61.4222 501.647 61.6356 501.028 61.6462H500.132L499.764 60.4142H500.692C500.959 60.4036 501.135 60.2969 501.22 60.0942C501.295 59.8809 501.338 59.4329 501.348 58.7502H499.732L499.524 59.3742C499.204 60.1209 498.73 60.7929 498.1 61.3902L497.252 60.2862C497.722 59.8382 498.084 59.3209 498.34 58.7342C498.543 58.2329 498.698 57.6089 498.804 56.8622H497.444V55.5982H499.604L499.316 54.8462H497.94V50.2542ZM501.348 53.8382V53.0542H499.204V53.8382H501.348ZM499.204 52.0302H501.348V51.2622H499.204V52.0302ZM518.132 49.1822H519.588V50.1102H523.428V51.3422H519.588V52.1262H522.868V53.3262H519.588V54.1262H523.828V55.3902H513.94V54.1262H518.132V53.3262H515.06V52.1262H518.132V51.3422H514.388V50.1102H518.132V49.1822ZM516.516 59.4222V60.3182H521.268V59.4222H516.516ZM521.268 58.2702V57.3582H516.516V58.2702H521.268ZM516.516 61.4702V63.9502H515.076V56.1262H522.724V62.3662C522.724 63.3582 522.218 63.8542 521.204 63.8542H519.876L519.524 62.5102L520.772 62.5902C521.103 62.5902 521.268 62.4142 521.268 62.0622V61.4702H516.516ZM511.268 49.3102C512.324 50.1209 513.194 50.9049 513.876 51.6622L512.836 52.7182C512.186 51.9502 511.306 51.1609 510.196 50.3502L511.268 49.3102ZM509.092 53.9502H512.724V60.6382C512.991 60.3822 513.418 59.9502 514.004 59.3422L514.404 60.9422C513.487 61.8916 512.5 62.7396 511.444 63.4862L510.868 62.1102C511.135 61.8756 511.268 61.5929 511.268 61.2622V55.4062H509.092V53.9502Z" fill="black"/>
<rect width="648" height="56" transform="translate(0.5 81.3022)" fill="#F7F7F7"/>
<circle cx="28.5" cy="109.302" r="12.75" stroke="black" stroke-width="1.5"/>
<path d="M24.9749 111.909C25.2999 111.584 25.5577 111.198 25.7336 110.773C25.9095 110.349 26 109.893 26 109.434C26 108.974 25.9095 108.519 25.7336 108.094C25.5577 107.67 25.2999 107.284 24.9749 106.959L22.5 109.434L24.9749 111.909Z" fill="black"/>
<path d="M27.8035 114.737C28.4999 114.041 29.0524 113.214 29.4293 112.304C29.8062 111.394 30.0002 110.419 30.0002 109.434C30.0002 108.449 29.8062 107.474 29.4293 106.564C29.0524 105.654 28.4999 104.827 27.8035 104.131L26.2695 105.665C26.7645 106.16 27.1572 106.747 27.4251 107.394C27.693 108.041 27.8309 108.734 27.8309 109.434C27.8309 110.134 27.693 110.827 27.4251 111.474C27.1572 112.121 26.7645 112.709 26.2695 113.204L27.8035 114.737Z" fill="black"/>
<path d="M30.6318 117.566C31.6997 116.498 32.5467 115.23 33.1247 113.835C33.7026 112.44 34.0001 110.944 34.0001 109.434C34.0001 107.924 33.7026 106.428 33.1247 105.033C32.5467 103.638 31.6997 102.37 30.6318 101.302L29.2793 102.655C30.1696 103.545 30.8758 104.602 31.3576 105.765C31.8394 106.928 32.0874 108.175 32.0874 109.434C32.0874 110.693 31.8394 111.94 31.3576 113.103C30.8758 114.266 30.1696 115.323 29.2793 116.213L30.6318 117.566Z" fill="black"/>
<rect x="56.5" y="89.3022" width="496" height="40" rx="3" fill="white"/>
<circle cx="580.5" cy="109.302" r="12.75" stroke="black" stroke-width="1.5"/>
<circle cx="575.5" cy="105.302" r="2" fill="#010101"/>
<circle cx="585.5" cy="105.302" r="2" fill="#010101"/>
<path d="M587.711 111.552C587.639 112.247 587.466 112.929 587.198 113.577C586.834 114.456 586.3 115.256 585.627 115.929C584.953 116.602 584.154 117.136 583.274 117.5C582.395 117.865 581.452 118.052 580.5 118.052C579.548 118.052 578.605 117.865 577.726 117.5C576.846 117.136 576.047 116.602 575.373 115.929C574.7 115.256 574.166 114.456 573.802 113.577C573.534 112.929 573.361 112.247 573.289 111.552L580.5 111.552H587.711Z" stroke="black" stroke-width="1.5"/>
<circle cx="620.5" cy="109.302" r="12.75" stroke="black" stroke-width="1.5"/>
<rect x="619.722" y="102.302" width="1.55556" height="14" fill="#010101"/>
<rect x="627.5" y="108.524" width="1.55556" height="14" transform="rotate(90 627.5 108.524)" fill="#010101"/>
</g>
<defs>
<clipPath id="clip0_496_4138">
<rect x="0.5" y="0.302246" width="648" height="137" rx="11" fill="white"/>
</clipPath>
</defs>
</svg>
